M48
INCH,TZ
T1C0.0157
T2C0.0315
T3C0.0394
T4C0.0472
T5C0.0472
T6C0.0598
%
G90
G05
T1
X43307Y-24508
X43307Y-24902
X43602Y-26378
X49016Y-25295
X49606Y-41043
X49803Y-27362
X49803Y-28839
X49803Y-30807
X49803Y-42618
X49961Y-44626
X52165Y-44587
X52264Y-30807
X54823Y-44469
X54843Y-30689
X55807Y-30413
X55807Y-44193
X55906Y-25000
X55906Y-25394
X55906Y-25787
X55906Y-26181
X55906Y-26575
X55906Y-26969
X55906Y-38780
X55906Y-39173
X55906Y-39567
X55906Y-39961
X55906Y-40354
X55906Y-40748
X60236Y-25000
X60236Y-25394
X60236Y-25787
X60236Y-26181
X60236Y-26575
X60236Y-26969
X60236Y-38780
X60236Y-39173
X60236Y-39567
X60236Y-39961
X60236Y-40354
X60236Y-40748
X70276Y-29823
X70276Y-40945
X70669Y-29823
X70669Y-40945
X71063Y-29823
X71063Y-40945
X71457Y-29823
X71457Y-40945
X71752Y-43602
X71850Y-29823
X71850Y-40945
X72244Y-29823
X72244Y-40945
X72441Y-35433
X72835Y-31594
X72835Y-32185
X72835Y-38740
X72835Y-39213
X73031Y-34744
X73228Y-38976
X73327Y-31890
X73917Y-33858
X74508Y-35827
X76083Y-35039
X79429Y-33366
X79429Y-37402
T2
X41406Y-32480
X41406Y-35480
X41406Y-39862
X41406Y-42862
X42406Y-32480
X42406Y-35480
X42406Y-39862
X42406Y-42862
X43406Y-32480
X43406Y-35480
X43406Y-39862
X43406Y-42862
X44406Y-32480
X44406Y-35480
X44406Y-39862
X44406Y-42862
T3
X41421Y-37697
X42421Y-37697
X43421Y-37697
X44421Y-37697
X47638Y-25346
X47638Y-26346
X47638Y-27346
X47638Y-28346
X47638Y-29346
X47638Y-30346
X47638Y-31346
X47638Y-33366
X47638Y-34366
X47638Y-36394
X47638Y-37394
X47638Y-39370
X47638Y-40370
X47638Y-41370
X47638Y-42370
X47638Y-43370
X47638Y-44370
X47638Y-45370
X57087Y-28528
X57087Y-29528
X57087Y-30528
X57087Y-42307
X57087Y-43307
X57087Y-44307
X59055Y-28528
X59055Y-29528
X59055Y-30528
X59055Y-42307
X59055Y-43307
X59055Y-44307
T4
X68898Y-25197
X68898Y-31889
X68898Y-38977
X68898Y-45669
T5
X56594Y-35433
X67421Y-35433
X80020Y-31004
X80020Y-39862
T6
X41339Y-28346
X41339Y-30346
X81496Y-43276
X81496Y-45276
X81693Y-25559
X81693Y-27559
T0
M30
