%TF.GenerationSoftware,KiCad,Pcbnew,(5.1.10)-1*%
%TF.CreationDate,2022-06-03T10:18:56+01:00*%
%TF.ProjectId,GTI_V3,4754495f-5633-42e6-9b69-6361645f7063,rev?*%
%TF.SameCoordinates,Original*%
%TF.FileFunction,Copper,L2,Inr*%
%TF.FilePolarity,Positive*%
%FSLAX46Y46*%
G04 Gerber Fmt 4.6, Leading zero omitted, Abs format (unit mm)*
G04 Created by KiCad (PCBNEW (5.1.10)-1) date 2022-06-03 10:18:56*
%MOMM*%
%LPD*%
G01*
G04 APERTURE LIST*
%TA.AperFunction,ComponentPad*%
%ADD10R,1.700000X1.700000*%
%TD*%
%TA.AperFunction,ComponentPad*%
%ADD11O,1.700000X1.700000*%
%TD*%
%TA.AperFunction,ComponentPad*%
%ADD12O,1.600000X1.600000*%
%TD*%
%TA.AperFunction,ComponentPad*%
%ADD13R,1.600000X1.600000*%
%TD*%
%TA.AperFunction,ComponentPad*%
%ADD14R,3.000000X3.000000*%
%TD*%
%TA.AperFunction,ComponentPad*%
%ADD15C,3.000000*%
%TD*%
%TA.AperFunction,ComponentPad*%
%ADD16C,2.400000*%
%TD*%
%TA.AperFunction,ComponentPad*%
%ADD17O,1.800000X1.800000*%
%TD*%
%TA.AperFunction,ComponentPad*%
%ADD18R,1.800000X1.800000*%
%TD*%
%TA.AperFunction,ComponentPad*%
%ADD19C,2.999740*%
%TD*%
%TA.AperFunction,ViaPad*%
%ADD20C,0.800000*%
%TD*%
%TA.AperFunction,Conductor*%
%ADD21C,0.254000*%
%TD*%
%TA.AperFunction,Conductor*%
%ADD22C,0.100000*%
%TD*%
G04 APERTURE END LIST*
D10*
%TO.N,/VBUS_Sense*%
%TO.C,J8*%
X121000000Y-92440000D03*
D11*
%TO.N,GND*%
X121000000Y-94980000D03*
%TD*%
D10*
%TO.N,+3V3*%
%TO.C,J3*%
X121000000Y-64380000D03*
D11*
%TO.N,GND*%
X121000000Y-66920000D03*
%TO.N,Net-(IC1-Pad12)*%
X121000000Y-69460000D03*
%TO.N,Net-(IC1-Pad13)*%
X121000000Y-72000000D03*
%TO.N,Net-(IC1-Pad14)*%
X121000000Y-74540000D03*
%TO.N,/V_Sense_A*%
X121000000Y-77080000D03*
%TO.N,/I_Sense_A*%
X121000000Y-79620000D03*
%TD*%
D12*
%TO.N,/Ext_Vdd*%
%TO.C,U6*%
X105170000Y-101250000D03*
%TO.N,N/C*%
X112790000Y-108870000D03*
%TO.N,Net-(U6-Pad7)*%
X107710000Y-101250000D03*
%TO.N,Net-(R30-Pad2)*%
X110250000Y-108870000D03*
%TO.N,/Ext_Rx*%
X110250000Y-101250000D03*
%TO.N,+3V3*%
X107710000Y-108870000D03*
%TO.N,/Ext_Gnd*%
X112790000Y-101250000D03*
D13*
%TO.N,Net-(U6-Pad1)*%
X105170000Y-108870000D03*
%TD*%
D12*
%TO.N,+3V3*%
%TO.C,U5*%
X105170000Y-82500000D03*
%TO.N,N/C*%
X112790000Y-90120000D03*
%TO.N,Net-(U5-Pad7)*%
X107710000Y-82500000D03*
%TO.N,/Ext_Tx*%
X110250000Y-90120000D03*
%TO.N,/Rx*%
X110250000Y-82500000D03*
%TO.N,Net-(R28-Pad1)*%
X107710000Y-90120000D03*
%TO.N,GND*%
X112790000Y-82500000D03*
D13*
%TO.N,Net-(U5-Pad1)*%
X105170000Y-90120000D03*
%TD*%
D10*
%TO.N,/Ext_Vdd*%
%TO.C,J7*%
X105210000Y-95750000D03*
D11*
%TO.N,/Ext_Tx*%
X107750000Y-95750000D03*
%TO.N,/Ext_Rx*%
X110290000Y-95750000D03*
%TO.N,/Ext_Gnd*%
X112830000Y-95750000D03*
%TD*%
D14*
%TO.N,Net-(C13-Pad2)*%
%TO.C,J5*%
X207500000Y-70000000D03*
D15*
%TO.N,Net-(C13-Pad1)*%
X207500000Y-64920000D03*
%TD*%
D10*
%TO.N,/Tx*%
%TO.C,J4*%
X121000000Y-87290000D03*
D11*
%TO.N,/Rx*%
X121000000Y-84750000D03*
%TD*%
D14*
%TO.N,VBUS*%
%TO.C,J2*%
X207000000Y-115000000D03*
D15*
%TO.N,GND*%
X207000000Y-109920000D03*
%TD*%
D14*
%TO.N,VCC*%
%TO.C,J1*%
X105000000Y-72000000D03*
D15*
%TO.N,GND*%
X105000000Y-77080000D03*
%TD*%
D16*
%TO.N,Net-(C13-Pad2)*%
%TO.C,C13*%
X203250000Y-101250000D03*
%TO.N,Net-(C13-Pad1)*%
X203250000Y-78750000D03*
%TD*%
%TO.N,VBUS*%
%TO.C,C23*%
X171250000Y-90000000D03*
%TO.N,GND*%
X143750000Y-90000000D03*
%TD*%
D10*
%TO.N,/I_Sense_B*%
%TO.C,J6*%
X121000000Y-100000000D03*
D11*
%TO.N,/V_Sense_B*%
X121000000Y-102540000D03*
%TO.N,+3V3*%
X121000000Y-105080000D03*
%TO.N,Net-(IC2-Pad12)*%
X121000000Y-107620000D03*
%TO.N,Net-(IC2-Pad13)*%
X121000000Y-110160000D03*
%TO.N,Net-(IC2-Pad14)*%
X121000000Y-112700000D03*
%TO.N,GND*%
X121000000Y-115240000D03*
%TD*%
D17*
%TO.N,GND*%
%TO.C,Q4*%
X145000000Y-107460000D03*
%TO.N,Net-(C15-Pad2)*%
X145000000Y-110000000D03*
D18*
%TO.N,Net-(Q4-Pad1)*%
X145000000Y-112540000D03*
%TD*%
D17*
%TO.N,Net-(C15-Pad2)*%
%TO.C,Q3*%
X150000000Y-112540000D03*
%TO.N,VBUS*%
X150000000Y-110000000D03*
D18*
%TO.N,Net-(Q3-Pad1)*%
X150000000Y-107460000D03*
%TD*%
D19*
%TO.N,Net-(C19-Pad1)*%
%TO.C,L2*%
X175000000Y-99001160D03*
%TO.N,Net-(C15-Pad2)*%
X175000000Y-115998840D03*
%TD*%
%TO.N,Net-(C11-Pad1)*%
%TO.C,L1*%
X175000000Y-64001160D03*
%TO.N,Net-(C10-Pad1)*%
X175000000Y-80998840D03*
%TD*%
D18*
%TO.N,Net-(Q2-Pad1)*%
%TO.C,Q2*%
X145000000Y-77540000D03*
D17*
%TO.N,Net-(C11-Pad1)*%
X145000000Y-75000000D03*
%TO.N,GND*%
X145000000Y-72460000D03*
%TD*%
%TO.N,Net-(C11-Pad1)*%
%TO.C,Q1*%
X150000000Y-77540000D03*
%TO.N,VBUS*%
X150000000Y-75000000D03*
D18*
%TO.N,Net-(Q1-Pad1)*%
X150000000Y-72460000D03*
%TD*%
D20*
%TO.N,VBUS*%
X153000000Y-63500000D03*
X153000000Y-64500000D03*
X153000000Y-65500000D03*
X153000000Y-66500000D03*
X153000000Y-67500000D03*
X153000000Y-68500000D03*
X153000000Y-98500000D03*
X153000000Y-99500000D03*
X153000000Y-100500000D03*
X153000000Y-101500000D03*
X153000000Y-102500000D03*
X153000000Y-103500000D03*
%TO.N,+3V3*%
X193250000Y-89000000D03*
X189250000Y-91000000D03*
X110000000Y-62250000D03*
X110000000Y-63250000D03*
X126500000Y-108250000D03*
X126500000Y-78250000D03*
X126500000Y-73250000D03*
X126500000Y-69500000D03*
X126899999Y-113350001D03*
%TO.N,GNDA*%
X185500000Y-88250000D03*
%TO.N,GND*%
X124500000Y-64250000D03*
X110750000Y-67000000D03*
X182250000Y-110750000D03*
X201750000Y-95000000D03*
X201750000Y-84750000D03*
X139250000Y-112950000D03*
X139300000Y-77950000D03*
X142000000Y-63500000D03*
X142000000Y-64500000D03*
X142000000Y-65500000D03*
X142000000Y-66500000D03*
X142000000Y-67500000D03*
X142000000Y-68500000D03*
X142000000Y-98500000D03*
X142000000Y-99500000D03*
X142000000Y-100500000D03*
X142000000Y-101500000D03*
X142000000Y-102500000D03*
X142000000Y-103500000D03*
X178500000Y-104000000D03*
X179500000Y-104000000D03*
X180500000Y-104000000D03*
X181500000Y-104000000D03*
X182500000Y-104000000D03*
X183500000Y-104000000D03*
X178500000Y-75750000D03*
X179500000Y-75750000D03*
X180500000Y-75750000D03*
X181500000Y-75750000D03*
X182500000Y-75750000D03*
X183500000Y-75750000D03*
X141750000Y-77250000D03*
X141750000Y-112250000D03*
X132500000Y-113250000D03*
X132750000Y-78250000D03*
X126000000Y-104250000D03*
%TO.N,Net-(C10-Pad1)*%
X185000000Y-80250000D03*
X185000000Y-81750000D03*
X186250000Y-81000000D03*
%TO.N,/I_Sense_A*%
X187750000Y-86000000D03*
%TO.N,/I_Sense_B*%
X184000000Y-90000000D03*
%TO.N,Net-(C19-Pad1)*%
X185000000Y-98400000D03*
X185000000Y-99600000D03*
X186000000Y-99000000D03*
%TD*%
D21*
%TO.N,GND*%
X211815001Y-119315000D02*
X100685000Y-119315000D01*
X100685000Y-114779872D01*
X102765000Y-114779872D01*
X102765000Y-115220128D01*
X102850890Y-115651925D01*
X103019369Y-116058669D01*
X103263962Y-116424729D01*
X103575271Y-116736038D01*
X103941331Y-116980631D01*
X104348075Y-117149110D01*
X104779872Y-117235000D01*
X105220128Y-117235000D01*
X105651925Y-117149110D01*
X106058669Y-116980631D01*
X106424729Y-116736038D01*
X106736038Y-116424729D01*
X106980631Y-116058669D01*
X107092508Y-115788574D01*
X172865130Y-115788574D01*
X172865130Y-116209106D01*
X172947172Y-116621559D01*
X173108103Y-117010080D01*
X173341738Y-117359740D01*
X173639100Y-117657102D01*
X173988760Y-117890737D01*
X174377281Y-118051668D01*
X174789734Y-118133710D01*
X175210266Y-118133710D01*
X175622719Y-118051668D01*
X176011240Y-117890737D01*
X176360900Y-117657102D01*
X176658262Y-117359740D01*
X176891897Y-117010080D01*
X177052828Y-116621559D01*
X177134870Y-116209106D01*
X177134870Y-115788574D01*
X177052828Y-115376121D01*
X176891897Y-114987600D01*
X176658262Y-114637940D01*
X176360900Y-114340578D01*
X176011240Y-114106943D01*
X175622719Y-113946012D01*
X175210266Y-113863970D01*
X174789734Y-113863970D01*
X174377281Y-113946012D01*
X173988760Y-114106943D01*
X173639100Y-114340578D01*
X173341738Y-114637940D01*
X173108103Y-114987600D01*
X172947172Y-115376121D01*
X172865130Y-115788574D01*
X107092508Y-115788574D01*
X107149110Y-115651925D01*
X107235000Y-115220128D01*
X107235000Y-114779872D01*
X107149110Y-114348075D01*
X106980631Y-113941331D01*
X106736038Y-113575271D01*
X106424729Y-113263962D01*
X106058669Y-113019369D01*
X105651925Y-112850890D01*
X105220128Y-112765000D01*
X104779872Y-112765000D01*
X104348075Y-112850890D01*
X103941331Y-113019369D01*
X103575271Y-113263962D01*
X103263962Y-113575271D01*
X103019369Y-113941331D01*
X102850890Y-114348075D01*
X102765000Y-114779872D01*
X100685000Y-114779872D01*
X100685000Y-108070000D01*
X103731928Y-108070000D01*
X103731928Y-109670000D01*
X103744188Y-109794482D01*
X103780498Y-109914180D01*
X103839463Y-110024494D01*
X103918815Y-110121185D01*
X104015506Y-110200537D01*
X104125820Y-110259502D01*
X104245518Y-110295812D01*
X104370000Y-110308072D01*
X105970000Y-110308072D01*
X106094482Y-110295812D01*
X106214180Y-110259502D01*
X106324494Y-110200537D01*
X106421185Y-110121185D01*
X106500537Y-110024494D01*
X106559502Y-109914180D01*
X106595812Y-109794482D01*
X106596643Y-109786039D01*
X106795241Y-109984637D01*
X107030273Y-110141680D01*
X107291426Y-110249853D01*
X107568665Y-110305000D01*
X107851335Y-110305000D01*
X108128574Y-110249853D01*
X108389727Y-110141680D01*
X108624759Y-109984637D01*
X108824637Y-109784759D01*
X108980000Y-109552241D01*
X109135363Y-109784759D01*
X109335241Y-109984637D01*
X109570273Y-110141680D01*
X109831426Y-110249853D01*
X110108665Y-110305000D01*
X110391335Y-110305000D01*
X110668574Y-110249853D01*
X110929727Y-110141680D01*
X111164759Y-109984637D01*
X111364637Y-109784759D01*
X111520000Y-109552241D01*
X111675363Y-109784759D01*
X111875241Y-109984637D01*
X112110273Y-110141680D01*
X112371426Y-110249853D01*
X112648665Y-110305000D01*
X112931335Y-110305000D01*
X113208574Y-110249853D01*
X113469727Y-110141680D01*
X113704759Y-109984637D01*
X113904637Y-109784759D01*
X114061680Y-109549727D01*
X114169853Y-109288574D01*
X114225000Y-109011335D01*
X114225000Y-108728665D01*
X114169853Y-108451426D01*
X114061680Y-108190273D01*
X113904637Y-107955241D01*
X113704759Y-107755363D01*
X113469727Y-107598320D01*
X113208574Y-107490147D01*
X112931335Y-107435000D01*
X112648665Y-107435000D01*
X112371426Y-107490147D01*
X112110273Y-107598320D01*
X111875241Y-107755363D01*
X111675363Y-107955241D01*
X111520000Y-108187759D01*
X111364637Y-107955241D01*
X111164759Y-107755363D01*
X110929727Y-107598320D01*
X110668574Y-107490147D01*
X110391335Y-107435000D01*
X110108665Y-107435000D01*
X109831426Y-107490147D01*
X109570273Y-107598320D01*
X109335241Y-107755363D01*
X109135363Y-107955241D01*
X108980000Y-108187759D01*
X108824637Y-107955241D01*
X108624759Y-107755363D01*
X108389727Y-107598320D01*
X108128574Y-107490147D01*
X107851335Y-107435000D01*
X107568665Y-107435000D01*
X107291426Y-107490147D01*
X107030273Y-107598320D01*
X106795241Y-107755363D01*
X106596643Y-107953961D01*
X106595812Y-107945518D01*
X106559502Y-107825820D01*
X106500537Y-107715506D01*
X106421185Y-107618815D01*
X106324494Y-107539463D01*
X106214180Y-107480498D01*
X106094482Y-107444188D01*
X105970000Y-107431928D01*
X104370000Y-107431928D01*
X104245518Y-107444188D01*
X104125820Y-107480498D01*
X104015506Y-107539463D01*
X103918815Y-107618815D01*
X103839463Y-107715506D01*
X103780498Y-107825820D01*
X103744188Y-107945518D01*
X103731928Y-108070000D01*
X100685000Y-108070000D01*
X100685000Y-101108665D01*
X103735000Y-101108665D01*
X103735000Y-101391335D01*
X103790147Y-101668574D01*
X103898320Y-101929727D01*
X104055363Y-102164759D01*
X104255241Y-102364637D01*
X104490273Y-102521680D01*
X104751426Y-102629853D01*
X105028665Y-102685000D01*
X105311335Y-102685000D01*
X105588574Y-102629853D01*
X105849727Y-102521680D01*
X106084759Y-102364637D01*
X106284637Y-102164759D01*
X106440000Y-101932241D01*
X106595363Y-102164759D01*
X106795241Y-102364637D01*
X107030273Y-102521680D01*
X107291426Y-102629853D01*
X107568665Y-102685000D01*
X107851335Y-102685000D01*
X108128574Y-102629853D01*
X108389727Y-102521680D01*
X108624759Y-102364637D01*
X108824637Y-102164759D01*
X108980000Y-101932241D01*
X109135363Y-102164759D01*
X109335241Y-102364637D01*
X109570273Y-102521680D01*
X109831426Y-102629853D01*
X110108665Y-102685000D01*
X110391335Y-102685000D01*
X110668574Y-102629853D01*
X110929727Y-102521680D01*
X111164759Y-102364637D01*
X111364637Y-102164759D01*
X111520000Y-101932241D01*
X111675363Y-102164759D01*
X111875241Y-102364637D01*
X112110273Y-102521680D01*
X112371426Y-102629853D01*
X112648665Y-102685000D01*
X112931335Y-102685000D01*
X113208574Y-102629853D01*
X113469727Y-102521680D01*
X113704759Y-102364637D01*
X113904637Y-102164759D01*
X114061680Y-101929727D01*
X114169853Y-101668574D01*
X114225000Y-101391335D01*
X114225000Y-101108665D01*
X114169853Y-100831426D01*
X114061680Y-100570273D01*
X113904637Y-100335241D01*
X113704759Y-100135363D01*
X113469727Y-99978320D01*
X113208574Y-99870147D01*
X112931335Y-99815000D01*
X112648665Y-99815000D01*
X112371426Y-99870147D01*
X112110273Y-99978320D01*
X111875241Y-100135363D01*
X111675363Y-100335241D01*
X111520000Y-100567759D01*
X111364637Y-100335241D01*
X111164759Y-100135363D01*
X110929727Y-99978320D01*
X110668574Y-99870147D01*
X110391335Y-99815000D01*
X110108665Y-99815000D01*
X109831426Y-99870147D01*
X109570273Y-99978320D01*
X109335241Y-100135363D01*
X109135363Y-100335241D01*
X108980000Y-100567759D01*
X108824637Y-100335241D01*
X108624759Y-100135363D01*
X108389727Y-99978320D01*
X108128574Y-99870147D01*
X107851335Y-99815000D01*
X107568665Y-99815000D01*
X107291426Y-99870147D01*
X107030273Y-99978320D01*
X106795241Y-100135363D01*
X106595363Y-100335241D01*
X106440000Y-100567759D01*
X106284637Y-100335241D01*
X106084759Y-100135363D01*
X105849727Y-99978320D01*
X105588574Y-99870147D01*
X105311335Y-99815000D01*
X105028665Y-99815000D01*
X104751426Y-99870147D01*
X104490273Y-99978320D01*
X104255241Y-100135363D01*
X104055363Y-100335241D01*
X103898320Y-100570273D01*
X103790147Y-100831426D01*
X103735000Y-101108665D01*
X100685000Y-101108665D01*
X100685000Y-99150000D01*
X119511928Y-99150000D01*
X119511928Y-100850000D01*
X119524188Y-100974482D01*
X119560498Y-101094180D01*
X119619463Y-101204494D01*
X119698815Y-101301185D01*
X119795506Y-101380537D01*
X119905820Y-101439502D01*
X119978380Y-101461513D01*
X119846525Y-101593368D01*
X119684010Y-101836589D01*
X119572068Y-102106842D01*
X119515000Y-102393740D01*
X119515000Y-102686260D01*
X119572068Y-102973158D01*
X119684010Y-103243411D01*
X119846525Y-103486632D01*
X120053368Y-103693475D01*
X120227760Y-103810000D01*
X120053368Y-103926525D01*
X119846525Y-104133368D01*
X119684010Y-104376589D01*
X119572068Y-104646842D01*
X119515000Y-104933740D01*
X119515000Y-105226260D01*
X119572068Y-105513158D01*
X119684010Y-105783411D01*
X119846525Y-106026632D01*
X120053368Y-106233475D01*
X120227760Y-106350000D01*
X120053368Y-106466525D01*
X119846525Y-106673368D01*
X119684010Y-106916589D01*
X119572068Y-107186842D01*
X119515000Y-107473740D01*
X119515000Y-107766260D01*
X119572068Y-108053158D01*
X119684010Y-108323411D01*
X119846525Y-108566632D01*
X120053368Y-108773475D01*
X120227760Y-108890000D01*
X120053368Y-109006525D01*
X119846525Y-109213368D01*
X119684010Y-109456589D01*
X119572068Y-109726842D01*
X119515000Y-110013740D01*
X119515000Y-110306260D01*
X119572068Y-110593158D01*
X119684010Y-110863411D01*
X119846525Y-111106632D01*
X120053368Y-111313475D01*
X120227760Y-111430000D01*
X120053368Y-111546525D01*
X119846525Y-111753368D01*
X119684010Y-111996589D01*
X119572068Y-112266842D01*
X119515000Y-112553740D01*
X119515000Y-112846260D01*
X119572068Y-113133158D01*
X119684010Y-113403411D01*
X119846525Y-113646632D01*
X120053368Y-113853475D01*
X120296589Y-114015990D01*
X120566842Y-114127932D01*
X120853740Y-114185000D01*
X121146260Y-114185000D01*
X121433158Y-114127932D01*
X121703411Y-114015990D01*
X121946632Y-113853475D01*
X122153475Y-113646632D01*
X122315990Y-113403411D01*
X122380337Y-113248062D01*
X125864999Y-113248062D01*
X125864999Y-113451940D01*
X125904773Y-113651899D01*
X125982794Y-113840257D01*
X126096062Y-114009775D01*
X126240225Y-114153938D01*
X126409743Y-114267206D01*
X126598101Y-114345227D01*
X126798060Y-114385001D01*
X127001938Y-114385001D01*
X127201897Y-114345227D01*
X127390255Y-114267206D01*
X127559773Y-114153938D01*
X127703936Y-114009775D01*
X127817204Y-113840257D01*
X127895225Y-113651899D01*
X127934999Y-113451940D01*
X127934999Y-113248062D01*
X127895225Y-113048103D01*
X127817204Y-112859745D01*
X127703936Y-112690227D01*
X127559773Y-112546064D01*
X127390255Y-112432796D01*
X127201897Y-112354775D01*
X127001938Y-112315001D01*
X126798060Y-112315001D01*
X126598101Y-112354775D01*
X126409743Y-112432796D01*
X126240225Y-112546064D01*
X126096062Y-112690227D01*
X125982794Y-112859745D01*
X125904773Y-113048103D01*
X125864999Y-113248062D01*
X122380337Y-113248062D01*
X122427932Y-113133158D01*
X122485000Y-112846260D01*
X122485000Y-112553740D01*
X122427932Y-112266842D01*
X122315990Y-111996589D01*
X122153475Y-111753368D01*
X122040107Y-111640000D01*
X143461928Y-111640000D01*
X143461928Y-113440000D01*
X143474188Y-113564482D01*
X143510498Y-113684180D01*
X143569463Y-113794494D01*
X143648815Y-113891185D01*
X143745506Y-113970537D01*
X143855820Y-114029502D01*
X143975518Y-114065812D01*
X144100000Y-114078072D01*
X145900000Y-114078072D01*
X146024482Y-114065812D01*
X146144180Y-114029502D01*
X146254494Y-113970537D01*
X146351185Y-113891185D01*
X146430537Y-113794494D01*
X146489502Y-113684180D01*
X146525812Y-113564482D01*
X146538072Y-113440000D01*
X146538072Y-111640000D01*
X146525812Y-111515518D01*
X146489502Y-111395820D01*
X146430537Y-111285506D01*
X146351185Y-111188815D01*
X146254494Y-111109463D01*
X146144180Y-111050498D01*
X146125873Y-111044944D01*
X146192312Y-110978505D01*
X146360299Y-110727095D01*
X146476011Y-110447743D01*
X146535000Y-110151184D01*
X146535000Y-109848816D01*
X146476011Y-109552257D01*
X146360299Y-109272905D01*
X146192312Y-109021495D01*
X145978505Y-108807688D01*
X145727095Y-108639701D01*
X145447743Y-108523989D01*
X145151184Y-108465000D01*
X144848816Y-108465000D01*
X144552257Y-108523989D01*
X144272905Y-108639701D01*
X144021495Y-108807688D01*
X143807688Y-109021495D01*
X143639701Y-109272905D01*
X143523989Y-109552257D01*
X143465000Y-109848816D01*
X143465000Y-110151184D01*
X143523989Y-110447743D01*
X143639701Y-110727095D01*
X143807688Y-110978505D01*
X143874127Y-111044944D01*
X143855820Y-111050498D01*
X143745506Y-111109463D01*
X143648815Y-111188815D01*
X143569463Y-111285506D01*
X143510498Y-111395820D01*
X143474188Y-111515518D01*
X143461928Y-111640000D01*
X122040107Y-111640000D01*
X121946632Y-111546525D01*
X121772240Y-111430000D01*
X121946632Y-111313475D01*
X122153475Y-111106632D01*
X122315990Y-110863411D01*
X122427932Y-110593158D01*
X122485000Y-110306260D01*
X122485000Y-110013740D01*
X122427932Y-109726842D01*
X122315990Y-109456589D01*
X122153475Y-109213368D01*
X121946632Y-109006525D01*
X121772240Y-108890000D01*
X121946632Y-108773475D01*
X122153475Y-108566632D01*
X122315990Y-108323411D01*
X122388622Y-108148061D01*
X125465000Y-108148061D01*
X125465000Y-108351939D01*
X125504774Y-108551898D01*
X125582795Y-108740256D01*
X125696063Y-108909774D01*
X125840226Y-109053937D01*
X126009744Y-109167205D01*
X126198102Y-109245226D01*
X126398061Y-109285000D01*
X126601939Y-109285000D01*
X126801898Y-109245226D01*
X126990256Y-109167205D01*
X127159774Y-109053937D01*
X127303937Y-108909774D01*
X127417205Y-108740256D01*
X127495226Y-108551898D01*
X127535000Y-108351939D01*
X127535000Y-108148061D01*
X127495226Y-107948102D01*
X127417205Y-107759744D01*
X127303937Y-107590226D01*
X127159774Y-107446063D01*
X126990256Y-107332795D01*
X126801898Y-107254774D01*
X126601939Y-107215000D01*
X126398061Y-107215000D01*
X126198102Y-107254774D01*
X126009744Y-107332795D01*
X125840226Y-107446063D01*
X125696063Y-107590226D01*
X125582795Y-107759744D01*
X125504774Y-107948102D01*
X125465000Y-108148061D01*
X122388622Y-108148061D01*
X122427932Y-108053158D01*
X122485000Y-107766260D01*
X122485000Y-107473740D01*
X122427932Y-107186842D01*
X122315990Y-106916589D01*
X122153475Y-106673368D01*
X122040107Y-106560000D01*
X148461928Y-106560000D01*
X148461928Y-108360000D01*
X148474188Y-108484482D01*
X148510498Y-108604180D01*
X148569463Y-108714494D01*
X148648815Y-108811185D01*
X148745506Y-108890537D01*
X148855820Y-108949502D01*
X148874127Y-108955056D01*
X148807688Y-109021495D01*
X148639701Y-109272905D01*
X148523989Y-109552257D01*
X148465000Y-109848816D01*
X148465000Y-110151184D01*
X148523989Y-110447743D01*
X148639701Y-110727095D01*
X148807688Y-110978505D01*
X149021495Y-111192312D01*
X149137763Y-111270000D01*
X149021495Y-111347688D01*
X148807688Y-111561495D01*
X148639701Y-111812905D01*
X148523989Y-112092257D01*
X148465000Y-112388816D01*
X148465000Y-112691184D01*
X148523989Y-112987743D01*
X148639701Y-113267095D01*
X148807688Y-113518505D01*
X149021495Y-113732312D01*
X149272905Y-113900299D01*
X149552257Y-114016011D01*
X149848816Y-114075000D01*
X150151184Y-114075000D01*
X150447743Y-114016011D01*
X150727095Y-113900299D01*
X150978505Y-113732312D01*
X151192312Y-113518505D01*
X151204676Y-113500000D01*
X204861928Y-113500000D01*
X204861928Y-116500000D01*
X204874188Y-116624482D01*
X204910498Y-116744180D01*
X204969463Y-116854494D01*
X205048815Y-116951185D01*
X205145506Y-117030537D01*
X205255820Y-117089502D01*
X205375518Y-117125812D01*
X205500000Y-117138072D01*
X208500000Y-117138072D01*
X208624482Y-117125812D01*
X208744180Y-117089502D01*
X208854494Y-117030537D01*
X208951185Y-116951185D01*
X209030537Y-116854494D01*
X209089502Y-116744180D01*
X209125812Y-116624482D01*
X209138072Y-116500000D01*
X209138072Y-113500000D01*
X209125812Y-113375518D01*
X209089502Y-113255820D01*
X209030537Y-113145506D01*
X208951185Y-113048815D01*
X208854494Y-112969463D01*
X208744180Y-112910498D01*
X208624482Y-112874188D01*
X208500000Y-112861928D01*
X205500000Y-112861928D01*
X205375518Y-112874188D01*
X205255820Y-112910498D01*
X205145506Y-112969463D01*
X205048815Y-113048815D01*
X204969463Y-113145506D01*
X204910498Y-113255820D01*
X204874188Y-113375518D01*
X204861928Y-113500000D01*
X151204676Y-113500000D01*
X151360299Y-113267095D01*
X151476011Y-112987743D01*
X151535000Y-112691184D01*
X151535000Y-112388816D01*
X151476011Y-112092257D01*
X151360299Y-111812905D01*
X151192312Y-111561495D01*
X150978505Y-111347688D01*
X150862237Y-111270000D01*
X150978505Y-111192312D01*
X151192312Y-110978505D01*
X151360299Y-110727095D01*
X151476011Y-110447743D01*
X151535000Y-110151184D01*
X151535000Y-109848816D01*
X151476011Y-109552257D01*
X151360299Y-109272905D01*
X151192312Y-109021495D01*
X151125873Y-108955056D01*
X151144180Y-108949502D01*
X151254494Y-108890537D01*
X151351185Y-108811185D01*
X151430537Y-108714494D01*
X151489502Y-108604180D01*
X151525812Y-108484482D01*
X151538072Y-108360000D01*
X151538072Y-107779872D01*
X195765000Y-107779872D01*
X195765000Y-108220128D01*
X195850890Y-108651925D01*
X196019369Y-109058669D01*
X196263962Y-109424729D01*
X196575271Y-109736038D01*
X196941331Y-109980631D01*
X197348075Y-110149110D01*
X197779872Y-110235000D01*
X198220128Y-110235000D01*
X198651925Y-110149110D01*
X199058669Y-109980631D01*
X199424729Y-109736038D01*
X199736038Y-109424729D01*
X199980631Y-109058669D01*
X200149110Y-108651925D01*
X200235000Y-108220128D01*
X200235000Y-107779872D01*
X200149110Y-107348075D01*
X199980631Y-106941331D01*
X199736038Y-106575271D01*
X199424729Y-106263962D01*
X199058669Y-106019369D01*
X198651925Y-105850890D01*
X198220128Y-105765000D01*
X197779872Y-105765000D01*
X197348075Y-105850890D01*
X196941331Y-106019369D01*
X196575271Y-106263962D01*
X196263962Y-106575271D01*
X196019369Y-106941331D01*
X195850890Y-107348075D01*
X195765000Y-107779872D01*
X151538072Y-107779872D01*
X151538072Y-106560000D01*
X151525812Y-106435518D01*
X151489502Y-106315820D01*
X151430537Y-106205506D01*
X151351185Y-106108815D01*
X151254494Y-106029463D01*
X151144180Y-105970498D01*
X151024482Y-105934188D01*
X150900000Y-105921928D01*
X149100000Y-105921928D01*
X148975518Y-105934188D01*
X148855820Y-105970498D01*
X148745506Y-106029463D01*
X148648815Y-106108815D01*
X148569463Y-106205506D01*
X148510498Y-106315820D01*
X148474188Y-106435518D01*
X148461928Y-106560000D01*
X122040107Y-106560000D01*
X121946632Y-106466525D01*
X121772240Y-106350000D01*
X121946632Y-106233475D01*
X122153475Y-106026632D01*
X122315990Y-105783411D01*
X122427932Y-105513158D01*
X122485000Y-105226260D01*
X122485000Y-104933740D01*
X122427932Y-104646842D01*
X122315990Y-104376589D01*
X122153475Y-104133368D01*
X121946632Y-103926525D01*
X121772240Y-103810000D01*
X121946632Y-103693475D01*
X122153475Y-103486632D01*
X122315990Y-103243411D01*
X122427932Y-102973158D01*
X122485000Y-102686260D01*
X122485000Y-102393740D01*
X122427932Y-102106842D01*
X122315990Y-101836589D01*
X122153475Y-101593368D01*
X122021620Y-101461513D01*
X122094180Y-101439502D01*
X122204494Y-101380537D01*
X122301185Y-101301185D01*
X122380537Y-101204494D01*
X122439502Y-101094180D01*
X122475812Y-100974482D01*
X122488072Y-100850000D01*
X122488072Y-99150000D01*
X122475812Y-99025518D01*
X122439502Y-98905820D01*
X122380537Y-98795506D01*
X122301185Y-98698815D01*
X122204494Y-98619463D01*
X122094180Y-98560498D01*
X121974482Y-98524188D01*
X121850000Y-98511928D01*
X120150000Y-98511928D01*
X120025518Y-98524188D01*
X119905820Y-98560498D01*
X119795506Y-98619463D01*
X119698815Y-98698815D01*
X119619463Y-98795506D01*
X119560498Y-98905820D01*
X119524188Y-99025518D01*
X119511928Y-99150000D01*
X100685000Y-99150000D01*
X100685000Y-98398061D01*
X151965000Y-98398061D01*
X151965000Y-98601939D01*
X152004774Y-98801898D01*
X152082795Y-98990256D01*
X152089306Y-99000000D01*
X152082795Y-99009744D01*
X152004774Y-99198102D01*
X151965000Y-99398061D01*
X151965000Y-99601939D01*
X152004774Y-99801898D01*
X152082795Y-99990256D01*
X152089306Y-100000000D01*
X152082795Y-100009744D01*
X152004774Y-100198102D01*
X151965000Y-100398061D01*
X151965000Y-100601939D01*
X152004774Y-100801898D01*
X152082795Y-100990256D01*
X152089306Y-101000000D01*
X152082795Y-101009744D01*
X152004774Y-101198102D01*
X151965000Y-101398061D01*
X151965000Y-101601939D01*
X152004774Y-101801898D01*
X152082795Y-101990256D01*
X152089306Y-102000000D01*
X152082795Y-102009744D01*
X152004774Y-102198102D01*
X151965000Y-102398061D01*
X151965000Y-102601939D01*
X152004774Y-102801898D01*
X152082795Y-102990256D01*
X152089306Y-103000000D01*
X152082795Y-103009744D01*
X152004774Y-103198102D01*
X151965000Y-103398061D01*
X151965000Y-103601939D01*
X152004774Y-103801898D01*
X152082795Y-103990256D01*
X152196063Y-104159774D01*
X152340226Y-104303937D01*
X152509744Y-104417205D01*
X152698102Y-104495226D01*
X152898061Y-104535000D01*
X153101939Y-104535000D01*
X153301898Y-104495226D01*
X153490256Y-104417205D01*
X153659774Y-104303937D01*
X153803937Y-104159774D01*
X153917205Y-103990256D01*
X153995226Y-103801898D01*
X154035000Y-103601939D01*
X154035000Y-103398061D01*
X153995226Y-103198102D01*
X153917205Y-103009744D01*
X153910694Y-103000000D01*
X153917205Y-102990256D01*
X153995226Y-102801898D01*
X154035000Y-102601939D01*
X154035000Y-102398061D01*
X153995226Y-102198102D01*
X153917205Y-102009744D01*
X153910694Y-102000000D01*
X153917205Y-101990256D01*
X153995226Y-101801898D01*
X154035000Y-101601939D01*
X154035000Y-101398061D01*
X153995226Y-101198102D01*
X153917205Y-101009744D01*
X153910694Y-101000000D01*
X153917205Y-100990256D01*
X153995226Y-100801898D01*
X154035000Y-100601939D01*
X154035000Y-100398061D01*
X153995226Y-100198102D01*
X153917205Y-100009744D01*
X153910694Y-100000000D01*
X153917205Y-99990256D01*
X153995226Y-99801898D01*
X154035000Y-99601939D01*
X154035000Y-99398061D01*
X153995226Y-99198102D01*
X153917205Y-99009744D01*
X153910694Y-99000000D01*
X153917205Y-98990256D01*
X153995226Y-98801898D01*
X153997414Y-98790894D01*
X172865130Y-98790894D01*
X172865130Y-99211426D01*
X172947172Y-99623879D01*
X173108103Y-100012400D01*
X173341738Y-100362060D01*
X173639100Y-100659422D01*
X173988760Y-100893057D01*
X174377281Y-101053988D01*
X174789734Y-101136030D01*
X175210266Y-101136030D01*
X175545901Y-101069268D01*
X201415000Y-101069268D01*
X201415000Y-101430732D01*
X201485518Y-101785250D01*
X201623844Y-102119199D01*
X201824662Y-102419744D01*
X202080256Y-102675338D01*
X202380801Y-102876156D01*
X202714750Y-103014482D01*
X203069268Y-103085000D01*
X203430732Y-103085000D01*
X203785250Y-103014482D01*
X204119199Y-102876156D01*
X204419744Y-102675338D01*
X204675338Y-102419744D01*
X204876156Y-102119199D01*
X205014482Y-101785250D01*
X205085000Y-101430732D01*
X205085000Y-101069268D01*
X205014482Y-100714750D01*
X204876156Y-100380801D01*
X204675338Y-100080256D01*
X204419744Y-99824662D01*
X204119199Y-99623844D01*
X203785250Y-99485518D01*
X203430732Y-99415000D01*
X203069268Y-99415000D01*
X202714750Y-99485518D01*
X202380801Y-99623844D01*
X202080256Y-99824662D01*
X201824662Y-100080256D01*
X201623844Y-100380801D01*
X201485518Y-100714750D01*
X201415000Y-101069268D01*
X175545901Y-101069268D01*
X175622719Y-101053988D01*
X176011240Y-100893057D01*
X176360900Y-100659422D01*
X176658262Y-100362060D01*
X176891897Y-100012400D01*
X177052828Y-99623879D01*
X177134870Y-99211426D01*
X177134870Y-98790894D01*
X177052828Y-98378441D01*
X177019534Y-98298061D01*
X183965000Y-98298061D01*
X183965000Y-98501939D01*
X184004774Y-98701898D01*
X184082795Y-98890256D01*
X184156123Y-99000000D01*
X184082795Y-99109744D01*
X184004774Y-99298102D01*
X183965000Y-99498061D01*
X183965000Y-99701939D01*
X184004774Y-99901898D01*
X184082795Y-100090256D01*
X184196063Y-100259774D01*
X184340226Y-100403937D01*
X184509744Y-100517205D01*
X184698102Y-100595226D01*
X184898061Y-100635000D01*
X185101939Y-100635000D01*
X185301898Y-100595226D01*
X185490256Y-100517205D01*
X185659774Y-100403937D01*
X185803937Y-100259774D01*
X185917205Y-100090256D01*
X185940093Y-100035000D01*
X186101939Y-100035000D01*
X186301898Y-99995226D01*
X186490256Y-99917205D01*
X186659774Y-99803937D01*
X186803937Y-99659774D01*
X186917205Y-99490256D01*
X186995226Y-99301898D01*
X187035000Y-99101939D01*
X187035000Y-98898061D01*
X186995226Y-98698102D01*
X186917205Y-98509744D01*
X186803937Y-98340226D01*
X186659774Y-98196063D01*
X186490256Y-98082795D01*
X186301898Y-98004774D01*
X186101939Y-97965000D01*
X185940093Y-97965000D01*
X185917205Y-97909744D01*
X185803937Y-97740226D01*
X185659774Y-97596063D01*
X185490256Y-97482795D01*
X185301898Y-97404774D01*
X185101939Y-97365000D01*
X184898061Y-97365000D01*
X184698102Y-97404774D01*
X184509744Y-97482795D01*
X184340226Y-97596063D01*
X184196063Y-97740226D01*
X184082795Y-97909744D01*
X184004774Y-98098102D01*
X183965000Y-98298061D01*
X177019534Y-98298061D01*
X176891897Y-97989920D01*
X176658262Y-97640260D01*
X176360900Y-97342898D01*
X176011240Y-97109263D01*
X175622719Y-96948332D01*
X175210266Y-96866290D01*
X174789734Y-96866290D01*
X174377281Y-96948332D01*
X173988760Y-97109263D01*
X173639100Y-97342898D01*
X173341738Y-97640260D01*
X173108103Y-97989920D01*
X172947172Y-98378441D01*
X172865130Y-98790894D01*
X153997414Y-98790894D01*
X154035000Y-98601939D01*
X154035000Y-98398061D01*
X153995226Y-98198102D01*
X153917205Y-98009744D01*
X153803937Y-97840226D01*
X153659774Y-97696063D01*
X153490256Y-97582795D01*
X153301898Y-97504774D01*
X153101939Y-97465000D01*
X152898061Y-97465000D01*
X152698102Y-97504774D01*
X152509744Y-97582795D01*
X152340226Y-97696063D01*
X152196063Y-97840226D01*
X152082795Y-98009744D01*
X152004774Y-98198102D01*
X151965000Y-98398061D01*
X100685000Y-98398061D01*
X100685000Y-94900000D01*
X103721928Y-94900000D01*
X103721928Y-96600000D01*
X103734188Y-96724482D01*
X103770498Y-96844180D01*
X103829463Y-96954494D01*
X103908815Y-97051185D01*
X104005506Y-97130537D01*
X104115820Y-97189502D01*
X104235518Y-97225812D01*
X104360000Y-97238072D01*
X106060000Y-97238072D01*
X106184482Y-97225812D01*
X106304180Y-97189502D01*
X106414494Y-97130537D01*
X106511185Y-97051185D01*
X106590537Y-96954494D01*
X106649502Y-96844180D01*
X106671513Y-96771620D01*
X106803368Y-96903475D01*
X107046589Y-97065990D01*
X107316842Y-97177932D01*
X107603740Y-97235000D01*
X107896260Y-97235000D01*
X108183158Y-97177932D01*
X108453411Y-97065990D01*
X108696632Y-96903475D01*
X108903475Y-96696632D01*
X109020000Y-96522240D01*
X109136525Y-96696632D01*
X109343368Y-96903475D01*
X109586589Y-97065990D01*
X109856842Y-97177932D01*
X110143740Y-97235000D01*
X110436260Y-97235000D01*
X110723158Y-97177932D01*
X110993411Y-97065990D01*
X111236632Y-96903475D01*
X111443475Y-96696632D01*
X111560000Y-96522240D01*
X111676525Y-96696632D01*
X111883368Y-96903475D01*
X112126589Y-97065990D01*
X112396842Y-97177932D01*
X112683740Y-97235000D01*
X112976260Y-97235000D01*
X113263158Y-97177932D01*
X113533411Y-97065990D01*
X113776632Y-96903475D01*
X113983475Y-96696632D01*
X114145990Y-96453411D01*
X114257932Y-96183158D01*
X114315000Y-95896260D01*
X114315000Y-95603740D01*
X114257932Y-95316842D01*
X114145990Y-95046589D01*
X113983475Y-94803368D01*
X113776632Y-94596525D01*
X113533411Y-94434010D01*
X113263158Y-94322068D01*
X112976260Y-94265000D01*
X112683740Y-94265000D01*
X112396842Y-94322068D01*
X112126589Y-94434010D01*
X111883368Y-94596525D01*
X111676525Y-94803368D01*
X111560000Y-94977760D01*
X111443475Y-94803368D01*
X111236632Y-94596525D01*
X110993411Y-94434010D01*
X110723158Y-94322068D01*
X110436260Y-94265000D01*
X110143740Y-94265000D01*
X109856842Y-94322068D01*
X109586589Y-94434010D01*
X109343368Y-94596525D01*
X109136525Y-94803368D01*
X109020000Y-94977760D01*
X108903475Y-94803368D01*
X108696632Y-94596525D01*
X108453411Y-94434010D01*
X108183158Y-94322068D01*
X107896260Y-94265000D01*
X107603740Y-94265000D01*
X107316842Y-94322068D01*
X107046589Y-94434010D01*
X106803368Y-94596525D01*
X106671513Y-94728380D01*
X106649502Y-94655820D01*
X106590537Y-94545506D01*
X106511185Y-94448815D01*
X106414494Y-94369463D01*
X106304180Y-94310498D01*
X106184482Y-94274188D01*
X106060000Y-94261928D01*
X104360000Y-94261928D01*
X104235518Y-94274188D01*
X104115820Y-94310498D01*
X104005506Y-94369463D01*
X103908815Y-94448815D01*
X103829463Y-94545506D01*
X103770498Y-94655820D01*
X103734188Y-94775518D01*
X103721928Y-94900000D01*
X100685000Y-94900000D01*
X100685000Y-91590000D01*
X119511928Y-91590000D01*
X119511928Y-93290000D01*
X119524188Y-93414482D01*
X119560498Y-93534180D01*
X119619463Y-93644494D01*
X119698815Y-93741185D01*
X119795506Y-93820537D01*
X119905820Y-93879502D01*
X120025518Y-93915812D01*
X120150000Y-93928072D01*
X121850000Y-93928072D01*
X121974482Y-93915812D01*
X122094180Y-93879502D01*
X122204494Y-93820537D01*
X122301185Y-93741185D01*
X122380537Y-93644494D01*
X122439502Y-93534180D01*
X122475812Y-93414482D01*
X122488072Y-93290000D01*
X122488072Y-91590000D01*
X122475812Y-91465518D01*
X122439502Y-91345820D01*
X122380537Y-91235506D01*
X122301185Y-91138815D01*
X122204494Y-91059463D01*
X122094180Y-91000498D01*
X121974482Y-90964188D01*
X121850000Y-90951928D01*
X120150000Y-90951928D01*
X120025518Y-90964188D01*
X119905820Y-91000498D01*
X119795506Y-91059463D01*
X119698815Y-91138815D01*
X119619463Y-91235506D01*
X119560498Y-91345820D01*
X119524188Y-91465518D01*
X119511928Y-91590000D01*
X100685000Y-91590000D01*
X100685000Y-89320000D01*
X103731928Y-89320000D01*
X103731928Y-90920000D01*
X103744188Y-91044482D01*
X103780498Y-91164180D01*
X103839463Y-91274494D01*
X103918815Y-91371185D01*
X104015506Y-91450537D01*
X104125820Y-91509502D01*
X104245518Y-91545812D01*
X104370000Y-91558072D01*
X105970000Y-91558072D01*
X106094482Y-91545812D01*
X106214180Y-91509502D01*
X106324494Y-91450537D01*
X106421185Y-91371185D01*
X106500537Y-91274494D01*
X106559502Y-91164180D01*
X106595812Y-91044482D01*
X106596643Y-91036039D01*
X106795241Y-91234637D01*
X107030273Y-91391680D01*
X107291426Y-91499853D01*
X107568665Y-91555000D01*
X107851335Y-91555000D01*
X108128574Y-91499853D01*
X108389727Y-91391680D01*
X108624759Y-91234637D01*
X108824637Y-91034759D01*
X108980000Y-90802241D01*
X109135363Y-91034759D01*
X109335241Y-91234637D01*
X109570273Y-91391680D01*
X109831426Y-91499853D01*
X110108665Y-91555000D01*
X110391335Y-91555000D01*
X110668574Y-91499853D01*
X110929727Y-91391680D01*
X111164759Y-91234637D01*
X111364637Y-91034759D01*
X111520000Y-90802241D01*
X111675363Y-91034759D01*
X111875241Y-91234637D01*
X112110273Y-91391680D01*
X112371426Y-91499853D01*
X112648665Y-91555000D01*
X112931335Y-91555000D01*
X113208574Y-91499853D01*
X113469727Y-91391680D01*
X113704759Y-91234637D01*
X113904637Y-91034759D01*
X114061680Y-90799727D01*
X114169853Y-90538574D01*
X114225000Y-90261335D01*
X114225000Y-89978665D01*
X114193294Y-89819268D01*
X169415000Y-89819268D01*
X169415000Y-90180732D01*
X169485518Y-90535250D01*
X169623844Y-90869199D01*
X169824662Y-91169744D01*
X170080256Y-91425338D01*
X170380801Y-91626156D01*
X170714750Y-91764482D01*
X171069268Y-91835000D01*
X171430732Y-91835000D01*
X171785250Y-91764482D01*
X172119199Y-91626156D01*
X172419744Y-91425338D01*
X172675338Y-91169744D01*
X172876156Y-90869199D01*
X173014482Y-90535250D01*
X173085000Y-90180732D01*
X173085000Y-89898061D01*
X182965000Y-89898061D01*
X182965000Y-90101939D01*
X183004774Y-90301898D01*
X183082795Y-90490256D01*
X183196063Y-90659774D01*
X183340226Y-90803937D01*
X183509744Y-90917205D01*
X183698102Y-90995226D01*
X183898061Y-91035000D01*
X184101939Y-91035000D01*
X184301898Y-90995226D01*
X184490256Y-90917205D01*
X184518907Y-90898061D01*
X188215000Y-90898061D01*
X188215000Y-91101939D01*
X188254774Y-91301898D01*
X188332795Y-91490256D01*
X188446063Y-91659774D01*
X188590226Y-91803937D01*
X188759744Y-91917205D01*
X188948102Y-91995226D01*
X189148061Y-92035000D01*
X189351939Y-92035000D01*
X189551898Y-91995226D01*
X189740256Y-91917205D01*
X189909774Y-91803937D01*
X190053937Y-91659774D01*
X190167205Y-91490256D01*
X190245226Y-91301898D01*
X190285000Y-91101939D01*
X190285000Y-90898061D01*
X190245226Y-90698102D01*
X190167205Y-90509744D01*
X190053937Y-90340226D01*
X189909774Y-90196063D01*
X189740256Y-90082795D01*
X189551898Y-90004774D01*
X189351939Y-89965000D01*
X189148061Y-89965000D01*
X188948102Y-90004774D01*
X188759744Y-90082795D01*
X188590226Y-90196063D01*
X188446063Y-90340226D01*
X188332795Y-90509744D01*
X188254774Y-90698102D01*
X188215000Y-90898061D01*
X184518907Y-90898061D01*
X184659774Y-90803937D01*
X184803937Y-90659774D01*
X184917205Y-90490256D01*
X184995226Y-90301898D01*
X185035000Y-90101939D01*
X185035000Y-89898061D01*
X184995226Y-89698102D01*
X184917205Y-89509744D01*
X184803937Y-89340226D01*
X184659774Y-89196063D01*
X184490256Y-89082795D01*
X184301898Y-89004774D01*
X184101939Y-88965000D01*
X183898061Y-88965000D01*
X183698102Y-89004774D01*
X183509744Y-89082795D01*
X183340226Y-89196063D01*
X183196063Y-89340226D01*
X183082795Y-89509744D01*
X183004774Y-89698102D01*
X182965000Y-89898061D01*
X173085000Y-89898061D01*
X173085000Y-89819268D01*
X173014482Y-89464750D01*
X172876156Y-89130801D01*
X172675338Y-88830256D01*
X172419744Y-88574662D01*
X172119199Y-88373844D01*
X171785250Y-88235518D01*
X171430732Y-88165000D01*
X171069268Y-88165000D01*
X170714750Y-88235518D01*
X170380801Y-88373844D01*
X170080256Y-88574662D01*
X169824662Y-88830256D01*
X169623844Y-89130801D01*
X169485518Y-89464750D01*
X169415000Y-89819268D01*
X114193294Y-89819268D01*
X114169853Y-89701426D01*
X114061680Y-89440273D01*
X113904637Y-89205241D01*
X113704759Y-89005363D01*
X113469727Y-88848320D01*
X113208574Y-88740147D01*
X112931335Y-88685000D01*
X112648665Y-88685000D01*
X112371426Y-88740147D01*
X112110273Y-88848320D01*
X111875241Y-89005363D01*
X111675363Y-89205241D01*
X111520000Y-89437759D01*
X111364637Y-89205241D01*
X111164759Y-89005363D01*
X110929727Y-88848320D01*
X110668574Y-88740147D01*
X110391335Y-88685000D01*
X110108665Y-88685000D01*
X109831426Y-88740147D01*
X109570273Y-88848320D01*
X109335241Y-89005363D01*
X109135363Y-89205241D01*
X108980000Y-89437759D01*
X108824637Y-89205241D01*
X108624759Y-89005363D01*
X108389727Y-88848320D01*
X108128574Y-88740147D01*
X107851335Y-88685000D01*
X107568665Y-88685000D01*
X107291426Y-88740147D01*
X107030273Y-88848320D01*
X106795241Y-89005363D01*
X106596643Y-89203961D01*
X106595812Y-89195518D01*
X106559502Y-89075820D01*
X106500537Y-88965506D01*
X106421185Y-88868815D01*
X106324494Y-88789463D01*
X106214180Y-88730498D01*
X106094482Y-88694188D01*
X105970000Y-88681928D01*
X104370000Y-88681928D01*
X104245518Y-88694188D01*
X104125820Y-88730498D01*
X104015506Y-88789463D01*
X103918815Y-88868815D01*
X103839463Y-88965506D01*
X103780498Y-89075820D01*
X103744188Y-89195518D01*
X103731928Y-89320000D01*
X100685000Y-89320000D01*
X100685000Y-86440000D01*
X119511928Y-86440000D01*
X119511928Y-88140000D01*
X119524188Y-88264482D01*
X119560498Y-88384180D01*
X119619463Y-88494494D01*
X119698815Y-88591185D01*
X119795506Y-88670537D01*
X119905820Y-88729502D01*
X120025518Y-88765812D01*
X120150000Y-88778072D01*
X121850000Y-88778072D01*
X121974482Y-88765812D01*
X122094180Y-88729502D01*
X122204494Y-88670537D01*
X122301185Y-88591185D01*
X122380537Y-88494494D01*
X122439502Y-88384180D01*
X122475812Y-88264482D01*
X122487278Y-88148061D01*
X184465000Y-88148061D01*
X184465000Y-88351939D01*
X184504774Y-88551898D01*
X184582795Y-88740256D01*
X184696063Y-88909774D01*
X184840226Y-89053937D01*
X185009744Y-89167205D01*
X185198102Y-89245226D01*
X185398061Y-89285000D01*
X185601939Y-89285000D01*
X185801898Y-89245226D01*
X185990256Y-89167205D01*
X186159774Y-89053937D01*
X186303937Y-88909774D01*
X186311763Y-88898061D01*
X192215000Y-88898061D01*
X192215000Y-89101939D01*
X192254774Y-89301898D01*
X192332795Y-89490256D01*
X192446063Y-89659774D01*
X192590226Y-89803937D01*
X192759744Y-89917205D01*
X192948102Y-89995226D01*
X193148061Y-90035000D01*
X193351939Y-90035000D01*
X193551898Y-89995226D01*
X193740256Y-89917205D01*
X193909774Y-89803937D01*
X194053937Y-89659774D01*
X194167205Y-89490256D01*
X194245226Y-89301898D01*
X194285000Y-89101939D01*
X194285000Y-88898061D01*
X194245226Y-88698102D01*
X194167205Y-88509744D01*
X194053937Y-88340226D01*
X193909774Y-88196063D01*
X193740256Y-88082795D01*
X193551898Y-88004774D01*
X193351939Y-87965000D01*
X193148061Y-87965000D01*
X192948102Y-88004774D01*
X192759744Y-88082795D01*
X192590226Y-88196063D01*
X192446063Y-88340226D01*
X192332795Y-88509744D01*
X192254774Y-88698102D01*
X192215000Y-88898061D01*
X186311763Y-88898061D01*
X186417205Y-88740256D01*
X186495226Y-88551898D01*
X186535000Y-88351939D01*
X186535000Y-88148061D01*
X186495226Y-87948102D01*
X186417205Y-87759744D01*
X186303937Y-87590226D01*
X186159774Y-87446063D01*
X185990256Y-87332795D01*
X185801898Y-87254774D01*
X185601939Y-87215000D01*
X185398061Y-87215000D01*
X185198102Y-87254774D01*
X185009744Y-87332795D01*
X184840226Y-87446063D01*
X184696063Y-87590226D01*
X184582795Y-87759744D01*
X184504774Y-87948102D01*
X184465000Y-88148061D01*
X122487278Y-88148061D01*
X122488072Y-88140000D01*
X122488072Y-86440000D01*
X122475812Y-86315518D01*
X122439502Y-86195820D01*
X122380537Y-86085506D01*
X122301185Y-85988815D01*
X122204494Y-85909463D01*
X122183163Y-85898061D01*
X186715000Y-85898061D01*
X186715000Y-86101939D01*
X186754774Y-86301898D01*
X186832795Y-86490256D01*
X186946063Y-86659774D01*
X187090226Y-86803937D01*
X187259744Y-86917205D01*
X187448102Y-86995226D01*
X187648061Y-87035000D01*
X187851939Y-87035000D01*
X188051898Y-86995226D01*
X188240256Y-86917205D01*
X188409774Y-86803937D01*
X188553937Y-86659774D01*
X188667205Y-86490256D01*
X188745226Y-86301898D01*
X188785000Y-86101939D01*
X188785000Y-85898061D01*
X188745226Y-85698102D01*
X188667205Y-85509744D01*
X188553937Y-85340226D01*
X188409774Y-85196063D01*
X188240256Y-85082795D01*
X188051898Y-85004774D01*
X187851939Y-84965000D01*
X187648061Y-84965000D01*
X187448102Y-85004774D01*
X187259744Y-85082795D01*
X187090226Y-85196063D01*
X186946063Y-85340226D01*
X186832795Y-85509744D01*
X186754774Y-85698102D01*
X186715000Y-85898061D01*
X122183163Y-85898061D01*
X122094180Y-85850498D01*
X122021620Y-85828487D01*
X122153475Y-85696632D01*
X122315990Y-85453411D01*
X122427932Y-85183158D01*
X122485000Y-84896260D01*
X122485000Y-84603740D01*
X122427932Y-84316842D01*
X122315990Y-84046589D01*
X122153475Y-83803368D01*
X121946632Y-83596525D01*
X121703411Y-83434010D01*
X121433158Y-83322068D01*
X121146260Y-83265000D01*
X120853740Y-83265000D01*
X120566842Y-83322068D01*
X120296589Y-83434010D01*
X120053368Y-83596525D01*
X119846525Y-83803368D01*
X119684010Y-84046589D01*
X119572068Y-84316842D01*
X119515000Y-84603740D01*
X119515000Y-84896260D01*
X119572068Y-85183158D01*
X119684010Y-85453411D01*
X119846525Y-85696632D01*
X119978380Y-85828487D01*
X119905820Y-85850498D01*
X119795506Y-85909463D01*
X119698815Y-85988815D01*
X119619463Y-86085506D01*
X119560498Y-86195820D01*
X119524188Y-86315518D01*
X119511928Y-86440000D01*
X100685000Y-86440000D01*
X100685000Y-82358665D01*
X103735000Y-82358665D01*
X103735000Y-82641335D01*
X103790147Y-82918574D01*
X103898320Y-83179727D01*
X104055363Y-83414759D01*
X104255241Y-83614637D01*
X104490273Y-83771680D01*
X104751426Y-83879853D01*
X105028665Y-83935000D01*
X105311335Y-83935000D01*
X105588574Y-83879853D01*
X105849727Y-83771680D01*
X106084759Y-83614637D01*
X106284637Y-83414759D01*
X106440000Y-83182241D01*
X106595363Y-83414759D01*
X106795241Y-83614637D01*
X107030273Y-83771680D01*
X107291426Y-83879853D01*
X107568665Y-83935000D01*
X107851335Y-83935000D01*
X108128574Y-83879853D01*
X108389727Y-83771680D01*
X108624759Y-83614637D01*
X108824637Y-83414759D01*
X108980000Y-83182241D01*
X109135363Y-83414759D01*
X109335241Y-83614637D01*
X109570273Y-83771680D01*
X109831426Y-83879853D01*
X110108665Y-83935000D01*
X110391335Y-83935000D01*
X110668574Y-83879853D01*
X110929727Y-83771680D01*
X111164759Y-83614637D01*
X111364637Y-83414759D01*
X111521680Y-83179727D01*
X111629853Y-82918574D01*
X111685000Y-82641335D01*
X111685000Y-82358665D01*
X111629853Y-82081426D01*
X111521680Y-81820273D01*
X111364637Y-81585241D01*
X111164759Y-81385363D01*
X110929727Y-81228320D01*
X110668574Y-81120147D01*
X110391335Y-81065000D01*
X110108665Y-81065000D01*
X109831426Y-81120147D01*
X109570273Y-81228320D01*
X109335241Y-81385363D01*
X109135363Y-81585241D01*
X108980000Y-81817759D01*
X108824637Y-81585241D01*
X108624759Y-81385363D01*
X108389727Y-81228320D01*
X108128574Y-81120147D01*
X107851335Y-81065000D01*
X107568665Y-81065000D01*
X107291426Y-81120147D01*
X107030273Y-81228320D01*
X106795241Y-81385363D01*
X106595363Y-81585241D01*
X106440000Y-81817759D01*
X106284637Y-81585241D01*
X106084759Y-81385363D01*
X105849727Y-81228320D01*
X105588574Y-81120147D01*
X105311335Y-81065000D01*
X105028665Y-81065000D01*
X104751426Y-81120147D01*
X104490273Y-81228320D01*
X104255241Y-81385363D01*
X104055363Y-81585241D01*
X103898320Y-81820273D01*
X103790147Y-82081426D01*
X103735000Y-82358665D01*
X100685000Y-82358665D01*
X100685000Y-70500000D01*
X102861928Y-70500000D01*
X102861928Y-73500000D01*
X102874188Y-73624482D01*
X102910498Y-73744180D01*
X102969463Y-73854494D01*
X103048815Y-73951185D01*
X103145506Y-74030537D01*
X103255820Y-74089502D01*
X103375518Y-74125812D01*
X103500000Y-74138072D01*
X106500000Y-74138072D01*
X106624482Y-74125812D01*
X106744180Y-74089502D01*
X106854494Y-74030537D01*
X106951185Y-73951185D01*
X107030537Y-73854494D01*
X107089502Y-73744180D01*
X107125812Y-73624482D01*
X107138072Y-73500000D01*
X107138072Y-70500000D01*
X107125812Y-70375518D01*
X107089502Y-70255820D01*
X107030537Y-70145506D01*
X106951185Y-70048815D01*
X106854494Y-69969463D01*
X106744180Y-69910498D01*
X106624482Y-69874188D01*
X106500000Y-69861928D01*
X103500000Y-69861928D01*
X103375518Y-69874188D01*
X103255820Y-69910498D01*
X103145506Y-69969463D01*
X103048815Y-70048815D01*
X102969463Y-70145506D01*
X102910498Y-70255820D01*
X102874188Y-70375518D01*
X102861928Y-70500000D01*
X100685000Y-70500000D01*
X100685000Y-69313740D01*
X119515000Y-69313740D01*
X119515000Y-69606260D01*
X119572068Y-69893158D01*
X119684010Y-70163411D01*
X119846525Y-70406632D01*
X120053368Y-70613475D01*
X120227760Y-70730000D01*
X120053368Y-70846525D01*
X119846525Y-71053368D01*
X119684010Y-71296589D01*
X119572068Y-71566842D01*
X119515000Y-71853740D01*
X119515000Y-72146260D01*
X119572068Y-72433158D01*
X119684010Y-72703411D01*
X119846525Y-72946632D01*
X120053368Y-73153475D01*
X120227760Y-73270000D01*
X120053368Y-73386525D01*
X119846525Y-73593368D01*
X119684010Y-73836589D01*
X119572068Y-74106842D01*
X119515000Y-74393740D01*
X119515000Y-74686260D01*
X119572068Y-74973158D01*
X119684010Y-75243411D01*
X119846525Y-75486632D01*
X120053368Y-75693475D01*
X120227760Y-75810000D01*
X120053368Y-75926525D01*
X119846525Y-76133368D01*
X119684010Y-76376589D01*
X119572068Y-76646842D01*
X119515000Y-76933740D01*
X119515000Y-77226260D01*
X119572068Y-77513158D01*
X119684010Y-77783411D01*
X119846525Y-78026632D01*
X120053368Y-78233475D01*
X120227760Y-78350000D01*
X120053368Y-78466525D01*
X119846525Y-78673368D01*
X119684010Y-78916589D01*
X119572068Y-79186842D01*
X119515000Y-79473740D01*
X119515000Y-79766260D01*
X119572068Y-80053158D01*
X119684010Y-80323411D01*
X119846525Y-80566632D01*
X120053368Y-80773475D01*
X120296589Y-80935990D01*
X120566842Y-81047932D01*
X120853740Y-81105000D01*
X121146260Y-81105000D01*
X121433158Y-81047932D01*
X121703411Y-80935990D01*
X121924034Y-80788574D01*
X172865130Y-80788574D01*
X172865130Y-81209106D01*
X172947172Y-81621559D01*
X173108103Y-82010080D01*
X173341738Y-82359740D01*
X173639100Y-82657102D01*
X173988760Y-82890737D01*
X174377281Y-83051668D01*
X174789734Y-83133710D01*
X175210266Y-83133710D01*
X175622719Y-83051668D01*
X176011240Y-82890737D01*
X176360900Y-82657102D01*
X176658262Y-82359740D01*
X176891897Y-82010080D01*
X177052828Y-81621559D01*
X177134870Y-81209106D01*
X177134870Y-80788574D01*
X177052828Y-80376121D01*
X176958363Y-80148061D01*
X183965000Y-80148061D01*
X183965000Y-80351939D01*
X184004774Y-80551898D01*
X184082795Y-80740256D01*
X184196063Y-80909774D01*
X184286289Y-81000000D01*
X184196063Y-81090226D01*
X184082795Y-81259744D01*
X184004774Y-81448102D01*
X183965000Y-81648061D01*
X183965000Y-81851939D01*
X184004774Y-82051898D01*
X184082795Y-82240256D01*
X184196063Y-82409774D01*
X184340226Y-82553937D01*
X184509744Y-82667205D01*
X184698102Y-82745226D01*
X184898061Y-82785000D01*
X185101939Y-82785000D01*
X185301898Y-82745226D01*
X185490256Y-82667205D01*
X185659774Y-82553937D01*
X185803937Y-82409774D01*
X185917205Y-82240256D01*
X185995226Y-82051898D01*
X186004276Y-82006400D01*
X186148061Y-82035000D01*
X186351939Y-82035000D01*
X186551898Y-81995226D01*
X186740256Y-81917205D01*
X186909774Y-81803937D01*
X187053937Y-81659774D01*
X187167205Y-81490256D01*
X187245226Y-81301898D01*
X187285000Y-81101939D01*
X187285000Y-80898061D01*
X187245226Y-80698102D01*
X187167205Y-80509744D01*
X187053937Y-80340226D01*
X186909774Y-80196063D01*
X186740256Y-80082795D01*
X186551898Y-80004774D01*
X186351939Y-79965000D01*
X186148061Y-79965000D01*
X186004276Y-79993600D01*
X185995226Y-79948102D01*
X185917205Y-79759744D01*
X185803937Y-79590226D01*
X185659774Y-79446063D01*
X185490256Y-79332795D01*
X185301898Y-79254774D01*
X185101939Y-79215000D01*
X184898061Y-79215000D01*
X184698102Y-79254774D01*
X184509744Y-79332795D01*
X184340226Y-79446063D01*
X184196063Y-79590226D01*
X184082795Y-79759744D01*
X184004774Y-79948102D01*
X183965000Y-80148061D01*
X176958363Y-80148061D01*
X176891897Y-79987600D01*
X176658262Y-79637940D01*
X176360900Y-79340578D01*
X176011240Y-79106943D01*
X175622719Y-78946012D01*
X175210266Y-78863970D01*
X174789734Y-78863970D01*
X174377281Y-78946012D01*
X173988760Y-79106943D01*
X173639100Y-79340578D01*
X173341738Y-79637940D01*
X173108103Y-79987600D01*
X172947172Y-80376121D01*
X172865130Y-80788574D01*
X121924034Y-80788574D01*
X121946632Y-80773475D01*
X122153475Y-80566632D01*
X122315990Y-80323411D01*
X122427932Y-80053158D01*
X122485000Y-79766260D01*
X122485000Y-79473740D01*
X122427932Y-79186842D01*
X122315990Y-78916589D01*
X122153475Y-78673368D01*
X121946632Y-78466525D01*
X121772240Y-78350000D01*
X121946632Y-78233475D01*
X122032046Y-78148061D01*
X125465000Y-78148061D01*
X125465000Y-78351939D01*
X125504774Y-78551898D01*
X125582795Y-78740256D01*
X125696063Y-78909774D01*
X125840226Y-79053937D01*
X126009744Y-79167205D01*
X126198102Y-79245226D01*
X126398061Y-79285000D01*
X126601939Y-79285000D01*
X126801898Y-79245226D01*
X126990256Y-79167205D01*
X127159774Y-79053937D01*
X127303937Y-78909774D01*
X127417205Y-78740256D01*
X127495226Y-78551898D01*
X127535000Y-78351939D01*
X127535000Y-78148061D01*
X127495226Y-77948102D01*
X127417205Y-77759744D01*
X127303937Y-77590226D01*
X127159774Y-77446063D01*
X126990256Y-77332795D01*
X126801898Y-77254774D01*
X126601939Y-77215000D01*
X126398061Y-77215000D01*
X126198102Y-77254774D01*
X126009744Y-77332795D01*
X125840226Y-77446063D01*
X125696063Y-77590226D01*
X125582795Y-77759744D01*
X125504774Y-77948102D01*
X125465000Y-78148061D01*
X122032046Y-78148061D01*
X122153475Y-78026632D01*
X122315990Y-77783411D01*
X122427932Y-77513158D01*
X122485000Y-77226260D01*
X122485000Y-76933740D01*
X122427932Y-76646842D01*
X122425098Y-76640000D01*
X143461928Y-76640000D01*
X143461928Y-78440000D01*
X143474188Y-78564482D01*
X143510498Y-78684180D01*
X143569463Y-78794494D01*
X143648815Y-78891185D01*
X143745506Y-78970537D01*
X143855820Y-79029502D01*
X143975518Y-79065812D01*
X144100000Y-79078072D01*
X145900000Y-79078072D01*
X146024482Y-79065812D01*
X146144180Y-79029502D01*
X146254494Y-78970537D01*
X146351185Y-78891185D01*
X146430537Y-78794494D01*
X146489502Y-78684180D01*
X146525812Y-78564482D01*
X146538072Y-78440000D01*
X146538072Y-76640000D01*
X146525812Y-76515518D01*
X146489502Y-76395820D01*
X146430537Y-76285506D01*
X146351185Y-76188815D01*
X146254494Y-76109463D01*
X146144180Y-76050498D01*
X146125873Y-76044944D01*
X146192312Y-75978505D01*
X146360299Y-75727095D01*
X146476011Y-75447743D01*
X146535000Y-75151184D01*
X146535000Y-74848816D01*
X146476011Y-74552257D01*
X146360299Y-74272905D01*
X146192312Y-74021495D01*
X145978505Y-73807688D01*
X145727095Y-73639701D01*
X145447743Y-73523989D01*
X145151184Y-73465000D01*
X144848816Y-73465000D01*
X144552257Y-73523989D01*
X144272905Y-73639701D01*
X144021495Y-73807688D01*
X143807688Y-74021495D01*
X143639701Y-74272905D01*
X143523989Y-74552257D01*
X143465000Y-74848816D01*
X143465000Y-75151184D01*
X143523989Y-75447743D01*
X143639701Y-75727095D01*
X143807688Y-75978505D01*
X143874127Y-76044944D01*
X143855820Y-76050498D01*
X143745506Y-76109463D01*
X143648815Y-76188815D01*
X143569463Y-76285506D01*
X143510498Y-76395820D01*
X143474188Y-76515518D01*
X143461928Y-76640000D01*
X122425098Y-76640000D01*
X122315990Y-76376589D01*
X122153475Y-76133368D01*
X121946632Y-75926525D01*
X121772240Y-75810000D01*
X121946632Y-75693475D01*
X122153475Y-75486632D01*
X122315990Y-75243411D01*
X122427932Y-74973158D01*
X122485000Y-74686260D01*
X122485000Y-74393740D01*
X122427932Y-74106842D01*
X122315990Y-73836589D01*
X122153475Y-73593368D01*
X121946632Y-73386525D01*
X121772240Y-73270000D01*
X121946632Y-73153475D01*
X121952046Y-73148061D01*
X125465000Y-73148061D01*
X125465000Y-73351939D01*
X125504774Y-73551898D01*
X125582795Y-73740256D01*
X125696063Y-73909774D01*
X125840226Y-74053937D01*
X126009744Y-74167205D01*
X126198102Y-74245226D01*
X126398061Y-74285000D01*
X126601939Y-74285000D01*
X126801898Y-74245226D01*
X126990256Y-74167205D01*
X127159774Y-74053937D01*
X127303937Y-73909774D01*
X127417205Y-73740256D01*
X127495226Y-73551898D01*
X127535000Y-73351939D01*
X127535000Y-73148061D01*
X127495226Y-72948102D01*
X127417205Y-72759744D01*
X127303937Y-72590226D01*
X127159774Y-72446063D01*
X126990256Y-72332795D01*
X126801898Y-72254774D01*
X126601939Y-72215000D01*
X126398061Y-72215000D01*
X126198102Y-72254774D01*
X126009744Y-72332795D01*
X125840226Y-72446063D01*
X125696063Y-72590226D01*
X125582795Y-72759744D01*
X125504774Y-72948102D01*
X125465000Y-73148061D01*
X121952046Y-73148061D01*
X122153475Y-72946632D01*
X122315990Y-72703411D01*
X122427932Y-72433158D01*
X122485000Y-72146260D01*
X122485000Y-71853740D01*
X122427932Y-71566842D01*
X122425098Y-71560000D01*
X148461928Y-71560000D01*
X148461928Y-73360000D01*
X148474188Y-73484482D01*
X148510498Y-73604180D01*
X148569463Y-73714494D01*
X148648815Y-73811185D01*
X148745506Y-73890537D01*
X148855820Y-73949502D01*
X148874127Y-73955056D01*
X148807688Y-74021495D01*
X148639701Y-74272905D01*
X148523989Y-74552257D01*
X148465000Y-74848816D01*
X148465000Y-75151184D01*
X148523989Y-75447743D01*
X148639701Y-75727095D01*
X148807688Y-75978505D01*
X149021495Y-76192312D01*
X149137763Y-76270000D01*
X149021495Y-76347688D01*
X148807688Y-76561495D01*
X148639701Y-76812905D01*
X148523989Y-77092257D01*
X148465000Y-77388816D01*
X148465000Y-77691184D01*
X148523989Y-77987743D01*
X148639701Y-78267095D01*
X148807688Y-78518505D01*
X149021495Y-78732312D01*
X149272905Y-78900299D01*
X149552257Y-79016011D01*
X149848816Y-79075000D01*
X150151184Y-79075000D01*
X150447743Y-79016011D01*
X150727095Y-78900299D01*
X150978505Y-78732312D01*
X151141549Y-78569268D01*
X201415000Y-78569268D01*
X201415000Y-78930732D01*
X201485518Y-79285250D01*
X201623844Y-79619199D01*
X201824662Y-79919744D01*
X202080256Y-80175338D01*
X202380801Y-80376156D01*
X202714750Y-80514482D01*
X203069268Y-80585000D01*
X203430732Y-80585000D01*
X203785250Y-80514482D01*
X204119199Y-80376156D01*
X204419744Y-80175338D01*
X204675338Y-79919744D01*
X204876156Y-79619199D01*
X205014482Y-79285250D01*
X205085000Y-78930732D01*
X205085000Y-78569268D01*
X205014482Y-78214750D01*
X204876156Y-77880801D01*
X204675338Y-77580256D01*
X204419744Y-77324662D01*
X204119199Y-77123844D01*
X203785250Y-76985518D01*
X203430732Y-76915000D01*
X203069268Y-76915000D01*
X202714750Y-76985518D01*
X202380801Y-77123844D01*
X202080256Y-77324662D01*
X201824662Y-77580256D01*
X201623844Y-77880801D01*
X201485518Y-78214750D01*
X201415000Y-78569268D01*
X151141549Y-78569268D01*
X151192312Y-78518505D01*
X151360299Y-78267095D01*
X151476011Y-77987743D01*
X151535000Y-77691184D01*
X151535000Y-77388816D01*
X151476011Y-77092257D01*
X151360299Y-76812905D01*
X151192312Y-76561495D01*
X150978505Y-76347688D01*
X150862237Y-76270000D01*
X150978505Y-76192312D01*
X151192312Y-75978505D01*
X151360299Y-75727095D01*
X151476011Y-75447743D01*
X151535000Y-75151184D01*
X151535000Y-74848816D01*
X151476011Y-74552257D01*
X151360299Y-74272905D01*
X151192312Y-74021495D01*
X151125873Y-73955056D01*
X151144180Y-73949502D01*
X151254494Y-73890537D01*
X151351185Y-73811185D01*
X151430537Y-73714494D01*
X151489502Y-73604180D01*
X151525812Y-73484482D01*
X151538072Y-73360000D01*
X151538072Y-71779872D01*
X195765000Y-71779872D01*
X195765000Y-72220128D01*
X195850890Y-72651925D01*
X196019369Y-73058669D01*
X196263962Y-73424729D01*
X196575271Y-73736038D01*
X196941331Y-73980631D01*
X197348075Y-74149110D01*
X197779872Y-74235000D01*
X198220128Y-74235000D01*
X198651925Y-74149110D01*
X199058669Y-73980631D01*
X199424729Y-73736038D01*
X199736038Y-73424729D01*
X199980631Y-73058669D01*
X200149110Y-72651925D01*
X200235000Y-72220128D01*
X200235000Y-71779872D01*
X200149110Y-71348075D01*
X199980631Y-70941331D01*
X199736038Y-70575271D01*
X199424729Y-70263962D01*
X199058669Y-70019369D01*
X198651925Y-69850890D01*
X198220128Y-69765000D01*
X197779872Y-69765000D01*
X197348075Y-69850890D01*
X196941331Y-70019369D01*
X196575271Y-70263962D01*
X196263962Y-70575271D01*
X196019369Y-70941331D01*
X195850890Y-71348075D01*
X195765000Y-71779872D01*
X151538072Y-71779872D01*
X151538072Y-71560000D01*
X151525812Y-71435518D01*
X151489502Y-71315820D01*
X151430537Y-71205506D01*
X151351185Y-71108815D01*
X151254494Y-71029463D01*
X151144180Y-70970498D01*
X151024482Y-70934188D01*
X150900000Y-70921928D01*
X149100000Y-70921928D01*
X148975518Y-70934188D01*
X148855820Y-70970498D01*
X148745506Y-71029463D01*
X148648815Y-71108815D01*
X148569463Y-71205506D01*
X148510498Y-71315820D01*
X148474188Y-71435518D01*
X148461928Y-71560000D01*
X122425098Y-71560000D01*
X122315990Y-71296589D01*
X122153475Y-71053368D01*
X121946632Y-70846525D01*
X121772240Y-70730000D01*
X121946632Y-70613475D01*
X122153475Y-70406632D01*
X122315990Y-70163411D01*
X122427932Y-69893158D01*
X122485000Y-69606260D01*
X122485000Y-69398061D01*
X125465000Y-69398061D01*
X125465000Y-69601939D01*
X125504774Y-69801898D01*
X125582795Y-69990256D01*
X125696063Y-70159774D01*
X125840226Y-70303937D01*
X126009744Y-70417205D01*
X126198102Y-70495226D01*
X126398061Y-70535000D01*
X126601939Y-70535000D01*
X126801898Y-70495226D01*
X126990256Y-70417205D01*
X127159774Y-70303937D01*
X127303937Y-70159774D01*
X127417205Y-69990256D01*
X127495226Y-69801898D01*
X127535000Y-69601939D01*
X127535000Y-69398061D01*
X127495226Y-69198102D01*
X127417205Y-69009744D01*
X127303937Y-68840226D01*
X127159774Y-68696063D01*
X126990256Y-68582795D01*
X126801898Y-68504774D01*
X126601939Y-68465000D01*
X126398061Y-68465000D01*
X126198102Y-68504774D01*
X126009744Y-68582795D01*
X125840226Y-68696063D01*
X125696063Y-68840226D01*
X125582795Y-69009744D01*
X125504774Y-69198102D01*
X125465000Y-69398061D01*
X122485000Y-69398061D01*
X122485000Y-69313740D01*
X122427932Y-69026842D01*
X122315990Y-68756589D01*
X122153475Y-68513368D01*
X121946632Y-68306525D01*
X121703411Y-68144010D01*
X121433158Y-68032068D01*
X121146260Y-67975000D01*
X120853740Y-67975000D01*
X120566842Y-68032068D01*
X120296589Y-68144010D01*
X120053368Y-68306525D01*
X119846525Y-68513368D01*
X119684010Y-68756589D01*
X119572068Y-69026842D01*
X119515000Y-69313740D01*
X100685000Y-69313740D01*
X100685000Y-64779872D01*
X102765000Y-64779872D01*
X102765000Y-65220128D01*
X102850890Y-65651925D01*
X103019369Y-66058669D01*
X103263962Y-66424729D01*
X103575271Y-66736038D01*
X103941331Y-66980631D01*
X104348075Y-67149110D01*
X104779872Y-67235000D01*
X105220128Y-67235000D01*
X105651925Y-67149110D01*
X106058669Y-66980631D01*
X106424729Y-66736038D01*
X106736038Y-66424729D01*
X106980631Y-66058669D01*
X107149110Y-65651925D01*
X107235000Y-65220128D01*
X107235000Y-64779872D01*
X107149110Y-64348075D01*
X106980631Y-63941331D01*
X106736038Y-63575271D01*
X106424729Y-63263962D01*
X106058669Y-63019369D01*
X105651925Y-62850890D01*
X105220128Y-62765000D01*
X104779872Y-62765000D01*
X104348075Y-62850890D01*
X103941331Y-63019369D01*
X103575271Y-63263962D01*
X103263962Y-63575271D01*
X103019369Y-63941331D01*
X102850890Y-64348075D01*
X102765000Y-64779872D01*
X100685000Y-64779872D01*
X100685000Y-62148061D01*
X108965000Y-62148061D01*
X108965000Y-62351939D01*
X109004774Y-62551898D01*
X109082795Y-62740256D01*
X109089306Y-62750000D01*
X109082795Y-62759744D01*
X109004774Y-62948102D01*
X108965000Y-63148061D01*
X108965000Y-63351939D01*
X109004774Y-63551898D01*
X109082795Y-63740256D01*
X109196063Y-63909774D01*
X109340226Y-64053937D01*
X109509744Y-64167205D01*
X109698102Y-64245226D01*
X109898061Y-64285000D01*
X110101939Y-64285000D01*
X110301898Y-64245226D01*
X110490256Y-64167205D01*
X110659774Y-64053937D01*
X110803937Y-63909774D01*
X110917205Y-63740256D01*
X110995226Y-63551898D01*
X110999581Y-63530000D01*
X119511928Y-63530000D01*
X119511928Y-65230000D01*
X119524188Y-65354482D01*
X119560498Y-65474180D01*
X119619463Y-65584494D01*
X119698815Y-65681185D01*
X119795506Y-65760537D01*
X119905820Y-65819502D01*
X120025518Y-65855812D01*
X120150000Y-65868072D01*
X121850000Y-65868072D01*
X121974482Y-65855812D01*
X122094180Y-65819502D01*
X122204494Y-65760537D01*
X122301185Y-65681185D01*
X122380537Y-65584494D01*
X122439502Y-65474180D01*
X122475812Y-65354482D01*
X122488072Y-65230000D01*
X122488072Y-63530000D01*
X122475812Y-63405518D01*
X122473550Y-63398061D01*
X151965000Y-63398061D01*
X151965000Y-63601939D01*
X152004774Y-63801898D01*
X152082795Y-63990256D01*
X152089306Y-64000000D01*
X152082795Y-64009744D01*
X152004774Y-64198102D01*
X151965000Y-64398061D01*
X151965000Y-64601939D01*
X152004774Y-64801898D01*
X152082795Y-64990256D01*
X152089306Y-65000000D01*
X152082795Y-65009744D01*
X152004774Y-65198102D01*
X151965000Y-65398061D01*
X151965000Y-65601939D01*
X152004774Y-65801898D01*
X152082795Y-65990256D01*
X152089306Y-66000000D01*
X152082795Y-66009744D01*
X152004774Y-66198102D01*
X151965000Y-66398061D01*
X151965000Y-66601939D01*
X152004774Y-66801898D01*
X152082795Y-66990256D01*
X152089306Y-67000000D01*
X152082795Y-67009744D01*
X152004774Y-67198102D01*
X151965000Y-67398061D01*
X151965000Y-67601939D01*
X152004774Y-67801898D01*
X152082795Y-67990256D01*
X152089306Y-68000000D01*
X152082795Y-68009744D01*
X152004774Y-68198102D01*
X151965000Y-68398061D01*
X151965000Y-68601939D01*
X152004774Y-68801898D01*
X152082795Y-68990256D01*
X152196063Y-69159774D01*
X152340226Y-69303937D01*
X152509744Y-69417205D01*
X152698102Y-69495226D01*
X152898061Y-69535000D01*
X153101939Y-69535000D01*
X153301898Y-69495226D01*
X153490256Y-69417205D01*
X153659774Y-69303937D01*
X153803937Y-69159774D01*
X153917205Y-68990256D01*
X153995226Y-68801898D01*
X154035000Y-68601939D01*
X154035000Y-68500000D01*
X205361928Y-68500000D01*
X205361928Y-71500000D01*
X205374188Y-71624482D01*
X205410498Y-71744180D01*
X205469463Y-71854494D01*
X205548815Y-71951185D01*
X205645506Y-72030537D01*
X205755820Y-72089502D01*
X205875518Y-72125812D01*
X206000000Y-72138072D01*
X209000000Y-72138072D01*
X209124482Y-72125812D01*
X209244180Y-72089502D01*
X209354494Y-72030537D01*
X209451185Y-71951185D01*
X209530537Y-71854494D01*
X209589502Y-71744180D01*
X209625812Y-71624482D01*
X209638072Y-71500000D01*
X209638072Y-68500000D01*
X209625812Y-68375518D01*
X209589502Y-68255820D01*
X209530537Y-68145506D01*
X209451185Y-68048815D01*
X209354494Y-67969463D01*
X209244180Y-67910498D01*
X209124482Y-67874188D01*
X209000000Y-67861928D01*
X206000000Y-67861928D01*
X205875518Y-67874188D01*
X205755820Y-67910498D01*
X205645506Y-67969463D01*
X205548815Y-68048815D01*
X205469463Y-68145506D01*
X205410498Y-68255820D01*
X205374188Y-68375518D01*
X205361928Y-68500000D01*
X154035000Y-68500000D01*
X154035000Y-68398061D01*
X153995226Y-68198102D01*
X153917205Y-68009744D01*
X153910694Y-68000000D01*
X153917205Y-67990256D01*
X153995226Y-67801898D01*
X154035000Y-67601939D01*
X154035000Y-67398061D01*
X153995226Y-67198102D01*
X153917205Y-67009744D01*
X153910694Y-67000000D01*
X153917205Y-66990256D01*
X153995226Y-66801898D01*
X154035000Y-66601939D01*
X154035000Y-66398061D01*
X153995226Y-66198102D01*
X153917205Y-66009744D01*
X153910694Y-66000000D01*
X153917205Y-65990256D01*
X153995226Y-65801898D01*
X154035000Y-65601939D01*
X154035000Y-65398061D01*
X153995226Y-65198102D01*
X153917205Y-65009744D01*
X153910694Y-65000000D01*
X153917205Y-64990256D01*
X153995226Y-64801898D01*
X154035000Y-64601939D01*
X154035000Y-64398061D01*
X153995226Y-64198102D01*
X153917205Y-64009744D01*
X153910694Y-64000000D01*
X153917205Y-63990256D01*
X153995226Y-63801898D01*
X153997414Y-63790894D01*
X172865130Y-63790894D01*
X172865130Y-64211426D01*
X172947172Y-64623879D01*
X173108103Y-65012400D01*
X173341738Y-65362060D01*
X173639100Y-65659422D01*
X173988760Y-65893057D01*
X174377281Y-66053988D01*
X174789734Y-66136030D01*
X175210266Y-66136030D01*
X175622719Y-66053988D01*
X176011240Y-65893057D01*
X176360900Y-65659422D01*
X176658262Y-65362060D01*
X176891897Y-65012400D01*
X177017271Y-64709721D01*
X205365000Y-64709721D01*
X205365000Y-65130279D01*
X205447047Y-65542756D01*
X205607988Y-65931302D01*
X205841637Y-66280983D01*
X206139017Y-66578363D01*
X206488698Y-66812012D01*
X206877244Y-66972953D01*
X207289721Y-67055000D01*
X207710279Y-67055000D01*
X208122756Y-66972953D01*
X208511302Y-66812012D01*
X208860983Y-66578363D01*
X209158363Y-66280983D01*
X209392012Y-65931302D01*
X209552953Y-65542756D01*
X209635000Y-65130279D01*
X209635000Y-64709721D01*
X209552953Y-64297244D01*
X209392012Y-63908698D01*
X209158363Y-63559017D01*
X208860983Y-63261637D01*
X208511302Y-63027988D01*
X208122756Y-62867047D01*
X207710279Y-62785000D01*
X207289721Y-62785000D01*
X206877244Y-62867047D01*
X206488698Y-63027988D01*
X206139017Y-63261637D01*
X205841637Y-63559017D01*
X205607988Y-63908698D01*
X205447047Y-64297244D01*
X205365000Y-64709721D01*
X177017271Y-64709721D01*
X177052828Y-64623879D01*
X177134870Y-64211426D01*
X177134870Y-63790894D01*
X177052828Y-63378441D01*
X176891897Y-62989920D01*
X176658262Y-62640260D01*
X176360900Y-62342898D01*
X176011240Y-62109263D01*
X175622719Y-61948332D01*
X175210266Y-61866290D01*
X174789734Y-61866290D01*
X174377281Y-61948332D01*
X173988760Y-62109263D01*
X173639100Y-62342898D01*
X173341738Y-62640260D01*
X173108103Y-62989920D01*
X172947172Y-63378441D01*
X172865130Y-63790894D01*
X153997414Y-63790894D01*
X154035000Y-63601939D01*
X154035000Y-63398061D01*
X153995226Y-63198102D01*
X153917205Y-63009744D01*
X153803937Y-62840226D01*
X153659774Y-62696063D01*
X153490256Y-62582795D01*
X153301898Y-62504774D01*
X153101939Y-62465000D01*
X152898061Y-62465000D01*
X152698102Y-62504774D01*
X152509744Y-62582795D01*
X152340226Y-62696063D01*
X152196063Y-62840226D01*
X152082795Y-63009744D01*
X152004774Y-63198102D01*
X151965000Y-63398061D01*
X122473550Y-63398061D01*
X122439502Y-63285820D01*
X122380537Y-63175506D01*
X122301185Y-63078815D01*
X122204494Y-62999463D01*
X122094180Y-62940498D01*
X121974482Y-62904188D01*
X121850000Y-62891928D01*
X120150000Y-62891928D01*
X120025518Y-62904188D01*
X119905820Y-62940498D01*
X119795506Y-62999463D01*
X119698815Y-63078815D01*
X119619463Y-63175506D01*
X119560498Y-63285820D01*
X119524188Y-63405518D01*
X119511928Y-63530000D01*
X110999581Y-63530000D01*
X111035000Y-63351939D01*
X111035000Y-63148061D01*
X110995226Y-62948102D01*
X110917205Y-62759744D01*
X110910694Y-62750000D01*
X110917205Y-62740256D01*
X110995226Y-62551898D01*
X111035000Y-62351939D01*
X111035000Y-62148061D01*
X110995226Y-61948102D01*
X110917205Y-61759744D01*
X110803937Y-61590226D01*
X110659774Y-61446063D01*
X110490256Y-61332795D01*
X110301898Y-61254774D01*
X110101939Y-61215000D01*
X109898061Y-61215000D01*
X109698102Y-61254774D01*
X109509744Y-61332795D01*
X109340226Y-61446063D01*
X109196063Y-61590226D01*
X109082795Y-61759744D01*
X109004774Y-61948102D01*
X108965000Y-62148061D01*
X100685000Y-62148061D01*
X100685000Y-60685000D01*
X211815000Y-60685000D01*
X211815001Y-119315000D01*
%TA.AperFunction,Conductor*%
D22*
G36*
X211815001Y-119315000D02*
G01*
X100685000Y-119315000D01*
X100685000Y-114779872D01*
X102765000Y-114779872D01*
X102765000Y-115220128D01*
X102850890Y-115651925D01*
X103019369Y-116058669D01*
X103263962Y-116424729D01*
X103575271Y-116736038D01*
X103941331Y-116980631D01*
X104348075Y-117149110D01*
X104779872Y-117235000D01*
X105220128Y-117235000D01*
X105651925Y-117149110D01*
X106058669Y-116980631D01*
X106424729Y-116736038D01*
X106736038Y-116424729D01*
X106980631Y-116058669D01*
X107092508Y-115788574D01*
X172865130Y-115788574D01*
X172865130Y-116209106D01*
X172947172Y-116621559D01*
X173108103Y-117010080D01*
X173341738Y-117359740D01*
X173639100Y-117657102D01*
X173988760Y-117890737D01*
X174377281Y-118051668D01*
X174789734Y-118133710D01*
X175210266Y-118133710D01*
X175622719Y-118051668D01*
X176011240Y-117890737D01*
X176360900Y-117657102D01*
X176658262Y-117359740D01*
X176891897Y-117010080D01*
X177052828Y-116621559D01*
X177134870Y-116209106D01*
X177134870Y-115788574D01*
X177052828Y-115376121D01*
X176891897Y-114987600D01*
X176658262Y-114637940D01*
X176360900Y-114340578D01*
X176011240Y-114106943D01*
X175622719Y-113946012D01*
X175210266Y-113863970D01*
X174789734Y-113863970D01*
X174377281Y-113946012D01*
X173988760Y-114106943D01*
X173639100Y-114340578D01*
X173341738Y-114637940D01*
X173108103Y-114987600D01*
X172947172Y-115376121D01*
X172865130Y-115788574D01*
X107092508Y-115788574D01*
X107149110Y-115651925D01*
X107235000Y-115220128D01*
X107235000Y-114779872D01*
X107149110Y-114348075D01*
X106980631Y-113941331D01*
X106736038Y-113575271D01*
X106424729Y-113263962D01*
X106058669Y-113019369D01*
X105651925Y-112850890D01*
X105220128Y-112765000D01*
X104779872Y-112765000D01*
X104348075Y-112850890D01*
X103941331Y-113019369D01*
X103575271Y-113263962D01*
X103263962Y-113575271D01*
X103019369Y-113941331D01*
X102850890Y-114348075D01*
X102765000Y-114779872D01*
X100685000Y-114779872D01*
X100685000Y-108070000D01*
X103731928Y-108070000D01*
X103731928Y-109670000D01*
X103744188Y-109794482D01*
X103780498Y-109914180D01*
X103839463Y-110024494D01*
X103918815Y-110121185D01*
X104015506Y-110200537D01*
X104125820Y-110259502D01*
X104245518Y-110295812D01*
X104370000Y-110308072D01*
X105970000Y-110308072D01*
X106094482Y-110295812D01*
X106214180Y-110259502D01*
X106324494Y-110200537D01*
X106421185Y-110121185D01*
X106500537Y-110024494D01*
X106559502Y-109914180D01*
X106595812Y-109794482D01*
X106596643Y-109786039D01*
X106795241Y-109984637D01*
X107030273Y-110141680D01*
X107291426Y-110249853D01*
X107568665Y-110305000D01*
X107851335Y-110305000D01*
X108128574Y-110249853D01*
X108389727Y-110141680D01*
X108624759Y-109984637D01*
X108824637Y-109784759D01*
X108980000Y-109552241D01*
X109135363Y-109784759D01*
X109335241Y-109984637D01*
X109570273Y-110141680D01*
X109831426Y-110249853D01*
X110108665Y-110305000D01*
X110391335Y-110305000D01*
X110668574Y-110249853D01*
X110929727Y-110141680D01*
X111164759Y-109984637D01*
X111364637Y-109784759D01*
X111520000Y-109552241D01*
X111675363Y-109784759D01*
X111875241Y-109984637D01*
X112110273Y-110141680D01*
X112371426Y-110249853D01*
X112648665Y-110305000D01*
X112931335Y-110305000D01*
X113208574Y-110249853D01*
X113469727Y-110141680D01*
X113704759Y-109984637D01*
X113904637Y-109784759D01*
X114061680Y-109549727D01*
X114169853Y-109288574D01*
X114225000Y-109011335D01*
X114225000Y-108728665D01*
X114169853Y-108451426D01*
X114061680Y-108190273D01*
X113904637Y-107955241D01*
X113704759Y-107755363D01*
X113469727Y-107598320D01*
X113208574Y-107490147D01*
X112931335Y-107435000D01*
X112648665Y-107435000D01*
X112371426Y-107490147D01*
X112110273Y-107598320D01*
X111875241Y-107755363D01*
X111675363Y-107955241D01*
X111520000Y-108187759D01*
X111364637Y-107955241D01*
X111164759Y-107755363D01*
X110929727Y-107598320D01*
X110668574Y-107490147D01*
X110391335Y-107435000D01*
X110108665Y-107435000D01*
X109831426Y-107490147D01*
X109570273Y-107598320D01*
X109335241Y-107755363D01*
X109135363Y-107955241D01*
X108980000Y-108187759D01*
X108824637Y-107955241D01*
X108624759Y-107755363D01*
X108389727Y-107598320D01*
X108128574Y-107490147D01*
X107851335Y-107435000D01*
X107568665Y-107435000D01*
X107291426Y-107490147D01*
X107030273Y-107598320D01*
X106795241Y-107755363D01*
X106596643Y-107953961D01*
X106595812Y-107945518D01*
X106559502Y-107825820D01*
X106500537Y-107715506D01*
X106421185Y-107618815D01*
X106324494Y-107539463D01*
X106214180Y-107480498D01*
X106094482Y-107444188D01*
X105970000Y-107431928D01*
X104370000Y-107431928D01*
X104245518Y-107444188D01*
X104125820Y-107480498D01*
X104015506Y-107539463D01*
X103918815Y-107618815D01*
X103839463Y-107715506D01*
X103780498Y-107825820D01*
X103744188Y-107945518D01*
X103731928Y-108070000D01*
X100685000Y-108070000D01*
X100685000Y-101108665D01*
X103735000Y-101108665D01*
X103735000Y-101391335D01*
X103790147Y-101668574D01*
X103898320Y-101929727D01*
X104055363Y-102164759D01*
X104255241Y-102364637D01*
X104490273Y-102521680D01*
X104751426Y-102629853D01*
X105028665Y-102685000D01*
X105311335Y-102685000D01*
X105588574Y-102629853D01*
X105849727Y-102521680D01*
X106084759Y-102364637D01*
X106284637Y-102164759D01*
X106440000Y-101932241D01*
X106595363Y-102164759D01*
X106795241Y-102364637D01*
X107030273Y-102521680D01*
X107291426Y-102629853D01*
X107568665Y-102685000D01*
X107851335Y-102685000D01*
X108128574Y-102629853D01*
X108389727Y-102521680D01*
X108624759Y-102364637D01*
X108824637Y-102164759D01*
X108980000Y-101932241D01*
X109135363Y-102164759D01*
X109335241Y-102364637D01*
X109570273Y-102521680D01*
X109831426Y-102629853D01*
X110108665Y-102685000D01*
X110391335Y-102685000D01*
X110668574Y-102629853D01*
X110929727Y-102521680D01*
X111164759Y-102364637D01*
X111364637Y-102164759D01*
X111520000Y-101932241D01*
X111675363Y-102164759D01*
X111875241Y-102364637D01*
X112110273Y-102521680D01*
X112371426Y-102629853D01*
X112648665Y-102685000D01*
X112931335Y-102685000D01*
X113208574Y-102629853D01*
X113469727Y-102521680D01*
X113704759Y-102364637D01*
X113904637Y-102164759D01*
X114061680Y-101929727D01*
X114169853Y-101668574D01*
X114225000Y-101391335D01*
X114225000Y-101108665D01*
X114169853Y-100831426D01*
X114061680Y-100570273D01*
X113904637Y-100335241D01*
X113704759Y-100135363D01*
X113469727Y-99978320D01*
X113208574Y-99870147D01*
X112931335Y-99815000D01*
X112648665Y-99815000D01*
X112371426Y-99870147D01*
X112110273Y-99978320D01*
X111875241Y-100135363D01*
X111675363Y-100335241D01*
X111520000Y-100567759D01*
X111364637Y-100335241D01*
X111164759Y-100135363D01*
X110929727Y-99978320D01*
X110668574Y-99870147D01*
X110391335Y-99815000D01*
X110108665Y-99815000D01*
X109831426Y-99870147D01*
X109570273Y-99978320D01*
X109335241Y-100135363D01*
X109135363Y-100335241D01*
X108980000Y-100567759D01*
X108824637Y-100335241D01*
X108624759Y-100135363D01*
X108389727Y-99978320D01*
X108128574Y-99870147D01*
X107851335Y-99815000D01*
X107568665Y-99815000D01*
X107291426Y-99870147D01*
X107030273Y-99978320D01*
X106795241Y-100135363D01*
X106595363Y-100335241D01*
X106440000Y-100567759D01*
X106284637Y-100335241D01*
X106084759Y-100135363D01*
X105849727Y-99978320D01*
X105588574Y-99870147D01*
X105311335Y-99815000D01*
X105028665Y-99815000D01*
X104751426Y-99870147D01*
X104490273Y-99978320D01*
X104255241Y-100135363D01*
X104055363Y-100335241D01*
X103898320Y-100570273D01*
X103790147Y-100831426D01*
X103735000Y-101108665D01*
X100685000Y-101108665D01*
X100685000Y-99150000D01*
X119511928Y-99150000D01*
X119511928Y-100850000D01*
X119524188Y-100974482D01*
X119560498Y-101094180D01*
X119619463Y-101204494D01*
X119698815Y-101301185D01*
X119795506Y-101380537D01*
X119905820Y-101439502D01*
X119978380Y-101461513D01*
X119846525Y-101593368D01*
X119684010Y-101836589D01*
X119572068Y-102106842D01*
X119515000Y-102393740D01*
X119515000Y-102686260D01*
X119572068Y-102973158D01*
X119684010Y-103243411D01*
X119846525Y-103486632D01*
X120053368Y-103693475D01*
X120227760Y-103810000D01*
X120053368Y-103926525D01*
X119846525Y-104133368D01*
X119684010Y-104376589D01*
X119572068Y-104646842D01*
X119515000Y-104933740D01*
X119515000Y-105226260D01*
X119572068Y-105513158D01*
X119684010Y-105783411D01*
X119846525Y-106026632D01*
X120053368Y-106233475D01*
X120227760Y-106350000D01*
X120053368Y-106466525D01*
X119846525Y-106673368D01*
X119684010Y-106916589D01*
X119572068Y-107186842D01*
X119515000Y-107473740D01*
X119515000Y-107766260D01*
X119572068Y-108053158D01*
X119684010Y-108323411D01*
X119846525Y-108566632D01*
X120053368Y-108773475D01*
X120227760Y-108890000D01*
X120053368Y-109006525D01*
X119846525Y-109213368D01*
X119684010Y-109456589D01*
X119572068Y-109726842D01*
X119515000Y-110013740D01*
X119515000Y-110306260D01*
X119572068Y-110593158D01*
X119684010Y-110863411D01*
X119846525Y-111106632D01*
X120053368Y-111313475D01*
X120227760Y-111430000D01*
X120053368Y-111546525D01*
X119846525Y-111753368D01*
X119684010Y-111996589D01*
X119572068Y-112266842D01*
X119515000Y-112553740D01*
X119515000Y-112846260D01*
X119572068Y-113133158D01*
X119684010Y-113403411D01*
X119846525Y-113646632D01*
X120053368Y-113853475D01*
X120296589Y-114015990D01*
X120566842Y-114127932D01*
X120853740Y-114185000D01*
X121146260Y-114185000D01*
X121433158Y-114127932D01*
X121703411Y-114015990D01*
X121946632Y-113853475D01*
X122153475Y-113646632D01*
X122315990Y-113403411D01*
X122380337Y-113248062D01*
X125864999Y-113248062D01*
X125864999Y-113451940D01*
X125904773Y-113651899D01*
X125982794Y-113840257D01*
X126096062Y-114009775D01*
X126240225Y-114153938D01*
X126409743Y-114267206D01*
X126598101Y-114345227D01*
X126798060Y-114385001D01*
X127001938Y-114385001D01*
X127201897Y-114345227D01*
X127390255Y-114267206D01*
X127559773Y-114153938D01*
X127703936Y-114009775D01*
X127817204Y-113840257D01*
X127895225Y-113651899D01*
X127934999Y-113451940D01*
X127934999Y-113248062D01*
X127895225Y-113048103D01*
X127817204Y-112859745D01*
X127703936Y-112690227D01*
X127559773Y-112546064D01*
X127390255Y-112432796D01*
X127201897Y-112354775D01*
X127001938Y-112315001D01*
X126798060Y-112315001D01*
X126598101Y-112354775D01*
X126409743Y-112432796D01*
X126240225Y-112546064D01*
X126096062Y-112690227D01*
X125982794Y-112859745D01*
X125904773Y-113048103D01*
X125864999Y-113248062D01*
X122380337Y-113248062D01*
X122427932Y-113133158D01*
X122485000Y-112846260D01*
X122485000Y-112553740D01*
X122427932Y-112266842D01*
X122315990Y-111996589D01*
X122153475Y-111753368D01*
X122040107Y-111640000D01*
X143461928Y-111640000D01*
X143461928Y-113440000D01*
X143474188Y-113564482D01*
X143510498Y-113684180D01*
X143569463Y-113794494D01*
X143648815Y-113891185D01*
X143745506Y-113970537D01*
X143855820Y-114029502D01*
X143975518Y-114065812D01*
X144100000Y-114078072D01*
X145900000Y-114078072D01*
X146024482Y-114065812D01*
X146144180Y-114029502D01*
X146254494Y-113970537D01*
X146351185Y-113891185D01*
X146430537Y-113794494D01*
X146489502Y-113684180D01*
X146525812Y-113564482D01*
X146538072Y-113440000D01*
X146538072Y-111640000D01*
X146525812Y-111515518D01*
X146489502Y-111395820D01*
X146430537Y-111285506D01*
X146351185Y-111188815D01*
X146254494Y-111109463D01*
X146144180Y-111050498D01*
X146125873Y-111044944D01*
X146192312Y-110978505D01*
X146360299Y-110727095D01*
X146476011Y-110447743D01*
X146535000Y-110151184D01*
X146535000Y-109848816D01*
X146476011Y-109552257D01*
X146360299Y-109272905D01*
X146192312Y-109021495D01*
X145978505Y-108807688D01*
X145727095Y-108639701D01*
X145447743Y-108523989D01*
X145151184Y-108465000D01*
X144848816Y-108465000D01*
X144552257Y-108523989D01*
X144272905Y-108639701D01*
X144021495Y-108807688D01*
X143807688Y-109021495D01*
X143639701Y-109272905D01*
X143523989Y-109552257D01*
X143465000Y-109848816D01*
X143465000Y-110151184D01*
X143523989Y-110447743D01*
X143639701Y-110727095D01*
X143807688Y-110978505D01*
X143874127Y-111044944D01*
X143855820Y-111050498D01*
X143745506Y-111109463D01*
X143648815Y-111188815D01*
X143569463Y-111285506D01*
X143510498Y-111395820D01*
X143474188Y-111515518D01*
X143461928Y-111640000D01*
X122040107Y-111640000D01*
X121946632Y-111546525D01*
X121772240Y-111430000D01*
X121946632Y-111313475D01*
X122153475Y-111106632D01*
X122315990Y-110863411D01*
X122427932Y-110593158D01*
X122485000Y-110306260D01*
X122485000Y-110013740D01*
X122427932Y-109726842D01*
X122315990Y-109456589D01*
X122153475Y-109213368D01*
X121946632Y-109006525D01*
X121772240Y-108890000D01*
X121946632Y-108773475D01*
X122153475Y-108566632D01*
X122315990Y-108323411D01*
X122388622Y-108148061D01*
X125465000Y-108148061D01*
X125465000Y-108351939D01*
X125504774Y-108551898D01*
X125582795Y-108740256D01*
X125696063Y-108909774D01*
X125840226Y-109053937D01*
X126009744Y-109167205D01*
X126198102Y-109245226D01*
X126398061Y-109285000D01*
X126601939Y-109285000D01*
X126801898Y-109245226D01*
X126990256Y-109167205D01*
X127159774Y-109053937D01*
X127303937Y-108909774D01*
X127417205Y-108740256D01*
X127495226Y-108551898D01*
X127535000Y-108351939D01*
X127535000Y-108148061D01*
X127495226Y-107948102D01*
X127417205Y-107759744D01*
X127303937Y-107590226D01*
X127159774Y-107446063D01*
X126990256Y-107332795D01*
X126801898Y-107254774D01*
X126601939Y-107215000D01*
X126398061Y-107215000D01*
X126198102Y-107254774D01*
X126009744Y-107332795D01*
X125840226Y-107446063D01*
X125696063Y-107590226D01*
X125582795Y-107759744D01*
X125504774Y-107948102D01*
X125465000Y-108148061D01*
X122388622Y-108148061D01*
X122427932Y-108053158D01*
X122485000Y-107766260D01*
X122485000Y-107473740D01*
X122427932Y-107186842D01*
X122315990Y-106916589D01*
X122153475Y-106673368D01*
X122040107Y-106560000D01*
X148461928Y-106560000D01*
X148461928Y-108360000D01*
X148474188Y-108484482D01*
X148510498Y-108604180D01*
X148569463Y-108714494D01*
X148648815Y-108811185D01*
X148745506Y-108890537D01*
X148855820Y-108949502D01*
X148874127Y-108955056D01*
X148807688Y-109021495D01*
X148639701Y-109272905D01*
X148523989Y-109552257D01*
X148465000Y-109848816D01*
X148465000Y-110151184D01*
X148523989Y-110447743D01*
X148639701Y-110727095D01*
X148807688Y-110978505D01*
X149021495Y-111192312D01*
X149137763Y-111270000D01*
X149021495Y-111347688D01*
X148807688Y-111561495D01*
X148639701Y-111812905D01*
X148523989Y-112092257D01*
X148465000Y-112388816D01*
X148465000Y-112691184D01*
X148523989Y-112987743D01*
X148639701Y-113267095D01*
X148807688Y-113518505D01*
X149021495Y-113732312D01*
X149272905Y-113900299D01*
X149552257Y-114016011D01*
X149848816Y-114075000D01*
X150151184Y-114075000D01*
X150447743Y-114016011D01*
X150727095Y-113900299D01*
X150978505Y-113732312D01*
X151192312Y-113518505D01*
X151204676Y-113500000D01*
X204861928Y-113500000D01*
X204861928Y-116500000D01*
X204874188Y-116624482D01*
X204910498Y-116744180D01*
X204969463Y-116854494D01*
X205048815Y-116951185D01*
X205145506Y-117030537D01*
X205255820Y-117089502D01*
X205375518Y-117125812D01*
X205500000Y-117138072D01*
X208500000Y-117138072D01*
X208624482Y-117125812D01*
X208744180Y-117089502D01*
X208854494Y-117030537D01*
X208951185Y-116951185D01*
X209030537Y-116854494D01*
X209089502Y-116744180D01*
X209125812Y-116624482D01*
X209138072Y-116500000D01*
X209138072Y-113500000D01*
X209125812Y-113375518D01*
X209089502Y-113255820D01*
X209030537Y-113145506D01*
X208951185Y-113048815D01*
X208854494Y-112969463D01*
X208744180Y-112910498D01*
X208624482Y-112874188D01*
X208500000Y-112861928D01*
X205500000Y-112861928D01*
X205375518Y-112874188D01*
X205255820Y-112910498D01*
X205145506Y-112969463D01*
X205048815Y-113048815D01*
X204969463Y-113145506D01*
X204910498Y-113255820D01*
X204874188Y-113375518D01*
X204861928Y-113500000D01*
X151204676Y-113500000D01*
X151360299Y-113267095D01*
X151476011Y-112987743D01*
X151535000Y-112691184D01*
X151535000Y-112388816D01*
X151476011Y-112092257D01*
X151360299Y-111812905D01*
X151192312Y-111561495D01*
X150978505Y-111347688D01*
X150862237Y-111270000D01*
X150978505Y-111192312D01*
X151192312Y-110978505D01*
X151360299Y-110727095D01*
X151476011Y-110447743D01*
X151535000Y-110151184D01*
X151535000Y-109848816D01*
X151476011Y-109552257D01*
X151360299Y-109272905D01*
X151192312Y-109021495D01*
X151125873Y-108955056D01*
X151144180Y-108949502D01*
X151254494Y-108890537D01*
X151351185Y-108811185D01*
X151430537Y-108714494D01*
X151489502Y-108604180D01*
X151525812Y-108484482D01*
X151538072Y-108360000D01*
X151538072Y-107779872D01*
X195765000Y-107779872D01*
X195765000Y-108220128D01*
X195850890Y-108651925D01*
X196019369Y-109058669D01*
X196263962Y-109424729D01*
X196575271Y-109736038D01*
X196941331Y-109980631D01*
X197348075Y-110149110D01*
X197779872Y-110235000D01*
X198220128Y-110235000D01*
X198651925Y-110149110D01*
X199058669Y-109980631D01*
X199424729Y-109736038D01*
X199736038Y-109424729D01*
X199980631Y-109058669D01*
X200149110Y-108651925D01*
X200235000Y-108220128D01*
X200235000Y-107779872D01*
X200149110Y-107348075D01*
X199980631Y-106941331D01*
X199736038Y-106575271D01*
X199424729Y-106263962D01*
X199058669Y-106019369D01*
X198651925Y-105850890D01*
X198220128Y-105765000D01*
X197779872Y-105765000D01*
X197348075Y-105850890D01*
X196941331Y-106019369D01*
X196575271Y-106263962D01*
X196263962Y-106575271D01*
X196019369Y-106941331D01*
X195850890Y-107348075D01*
X195765000Y-107779872D01*
X151538072Y-107779872D01*
X151538072Y-106560000D01*
X151525812Y-106435518D01*
X151489502Y-106315820D01*
X151430537Y-106205506D01*
X151351185Y-106108815D01*
X151254494Y-106029463D01*
X151144180Y-105970498D01*
X151024482Y-105934188D01*
X150900000Y-105921928D01*
X149100000Y-105921928D01*
X148975518Y-105934188D01*
X148855820Y-105970498D01*
X148745506Y-106029463D01*
X148648815Y-106108815D01*
X148569463Y-106205506D01*
X148510498Y-106315820D01*
X148474188Y-106435518D01*
X148461928Y-106560000D01*
X122040107Y-106560000D01*
X121946632Y-106466525D01*
X121772240Y-106350000D01*
X121946632Y-106233475D01*
X122153475Y-106026632D01*
X122315990Y-105783411D01*
X122427932Y-105513158D01*
X122485000Y-105226260D01*
X122485000Y-104933740D01*
X122427932Y-104646842D01*
X122315990Y-104376589D01*
X122153475Y-104133368D01*
X121946632Y-103926525D01*
X121772240Y-103810000D01*
X121946632Y-103693475D01*
X122153475Y-103486632D01*
X122315990Y-103243411D01*
X122427932Y-102973158D01*
X122485000Y-102686260D01*
X122485000Y-102393740D01*
X122427932Y-102106842D01*
X122315990Y-101836589D01*
X122153475Y-101593368D01*
X122021620Y-101461513D01*
X122094180Y-101439502D01*
X122204494Y-101380537D01*
X122301185Y-101301185D01*
X122380537Y-101204494D01*
X122439502Y-101094180D01*
X122475812Y-100974482D01*
X122488072Y-100850000D01*
X122488072Y-99150000D01*
X122475812Y-99025518D01*
X122439502Y-98905820D01*
X122380537Y-98795506D01*
X122301185Y-98698815D01*
X122204494Y-98619463D01*
X122094180Y-98560498D01*
X121974482Y-98524188D01*
X121850000Y-98511928D01*
X120150000Y-98511928D01*
X120025518Y-98524188D01*
X119905820Y-98560498D01*
X119795506Y-98619463D01*
X119698815Y-98698815D01*
X119619463Y-98795506D01*
X119560498Y-98905820D01*
X119524188Y-99025518D01*
X119511928Y-99150000D01*
X100685000Y-99150000D01*
X100685000Y-98398061D01*
X151965000Y-98398061D01*
X151965000Y-98601939D01*
X152004774Y-98801898D01*
X152082795Y-98990256D01*
X152089306Y-99000000D01*
X152082795Y-99009744D01*
X152004774Y-99198102D01*
X151965000Y-99398061D01*
X151965000Y-99601939D01*
X152004774Y-99801898D01*
X152082795Y-99990256D01*
X152089306Y-100000000D01*
X152082795Y-100009744D01*
X152004774Y-100198102D01*
X151965000Y-100398061D01*
X151965000Y-100601939D01*
X152004774Y-100801898D01*
X152082795Y-100990256D01*
X152089306Y-101000000D01*
X152082795Y-101009744D01*
X152004774Y-101198102D01*
X151965000Y-101398061D01*
X151965000Y-101601939D01*
X152004774Y-101801898D01*
X152082795Y-101990256D01*
X152089306Y-102000000D01*
X152082795Y-102009744D01*
X152004774Y-102198102D01*
X151965000Y-102398061D01*
X151965000Y-102601939D01*
X152004774Y-102801898D01*
X152082795Y-102990256D01*
X152089306Y-103000000D01*
X152082795Y-103009744D01*
X152004774Y-103198102D01*
X151965000Y-103398061D01*
X151965000Y-103601939D01*
X152004774Y-103801898D01*
X152082795Y-103990256D01*
X152196063Y-104159774D01*
X152340226Y-104303937D01*
X152509744Y-104417205D01*
X152698102Y-104495226D01*
X152898061Y-104535000D01*
X153101939Y-104535000D01*
X153301898Y-104495226D01*
X153490256Y-104417205D01*
X153659774Y-104303937D01*
X153803937Y-104159774D01*
X153917205Y-103990256D01*
X153995226Y-103801898D01*
X154035000Y-103601939D01*
X154035000Y-103398061D01*
X153995226Y-103198102D01*
X153917205Y-103009744D01*
X153910694Y-103000000D01*
X153917205Y-102990256D01*
X153995226Y-102801898D01*
X154035000Y-102601939D01*
X154035000Y-102398061D01*
X153995226Y-102198102D01*
X153917205Y-102009744D01*
X153910694Y-102000000D01*
X153917205Y-101990256D01*
X153995226Y-101801898D01*
X154035000Y-101601939D01*
X154035000Y-101398061D01*
X153995226Y-101198102D01*
X153917205Y-101009744D01*
X153910694Y-101000000D01*
X153917205Y-100990256D01*
X153995226Y-100801898D01*
X154035000Y-100601939D01*
X154035000Y-100398061D01*
X153995226Y-100198102D01*
X153917205Y-100009744D01*
X153910694Y-100000000D01*
X153917205Y-99990256D01*
X153995226Y-99801898D01*
X154035000Y-99601939D01*
X154035000Y-99398061D01*
X153995226Y-99198102D01*
X153917205Y-99009744D01*
X153910694Y-99000000D01*
X153917205Y-98990256D01*
X153995226Y-98801898D01*
X153997414Y-98790894D01*
X172865130Y-98790894D01*
X172865130Y-99211426D01*
X172947172Y-99623879D01*
X173108103Y-100012400D01*
X173341738Y-100362060D01*
X173639100Y-100659422D01*
X173988760Y-100893057D01*
X174377281Y-101053988D01*
X174789734Y-101136030D01*
X175210266Y-101136030D01*
X175545901Y-101069268D01*
X201415000Y-101069268D01*
X201415000Y-101430732D01*
X201485518Y-101785250D01*
X201623844Y-102119199D01*
X201824662Y-102419744D01*
X202080256Y-102675338D01*
X202380801Y-102876156D01*
X202714750Y-103014482D01*
X203069268Y-103085000D01*
X203430732Y-103085000D01*
X203785250Y-103014482D01*
X204119199Y-102876156D01*
X204419744Y-102675338D01*
X204675338Y-102419744D01*
X204876156Y-102119199D01*
X205014482Y-101785250D01*
X205085000Y-101430732D01*
X205085000Y-101069268D01*
X205014482Y-100714750D01*
X204876156Y-100380801D01*
X204675338Y-100080256D01*
X204419744Y-99824662D01*
X204119199Y-99623844D01*
X203785250Y-99485518D01*
X203430732Y-99415000D01*
X203069268Y-99415000D01*
X202714750Y-99485518D01*
X202380801Y-99623844D01*
X202080256Y-99824662D01*
X201824662Y-100080256D01*
X201623844Y-100380801D01*
X201485518Y-100714750D01*
X201415000Y-101069268D01*
X175545901Y-101069268D01*
X175622719Y-101053988D01*
X176011240Y-100893057D01*
X176360900Y-100659422D01*
X176658262Y-100362060D01*
X176891897Y-100012400D01*
X177052828Y-99623879D01*
X177134870Y-99211426D01*
X177134870Y-98790894D01*
X177052828Y-98378441D01*
X177019534Y-98298061D01*
X183965000Y-98298061D01*
X183965000Y-98501939D01*
X184004774Y-98701898D01*
X184082795Y-98890256D01*
X184156123Y-99000000D01*
X184082795Y-99109744D01*
X184004774Y-99298102D01*
X183965000Y-99498061D01*
X183965000Y-99701939D01*
X184004774Y-99901898D01*
X184082795Y-100090256D01*
X184196063Y-100259774D01*
X184340226Y-100403937D01*
X184509744Y-100517205D01*
X184698102Y-100595226D01*
X184898061Y-100635000D01*
X185101939Y-100635000D01*
X185301898Y-100595226D01*
X185490256Y-100517205D01*
X185659774Y-100403937D01*
X185803937Y-100259774D01*
X185917205Y-100090256D01*
X185940093Y-100035000D01*
X186101939Y-100035000D01*
X186301898Y-99995226D01*
X186490256Y-99917205D01*
X186659774Y-99803937D01*
X186803937Y-99659774D01*
X186917205Y-99490256D01*
X186995226Y-99301898D01*
X187035000Y-99101939D01*
X187035000Y-98898061D01*
X186995226Y-98698102D01*
X186917205Y-98509744D01*
X186803937Y-98340226D01*
X186659774Y-98196063D01*
X186490256Y-98082795D01*
X186301898Y-98004774D01*
X186101939Y-97965000D01*
X185940093Y-97965000D01*
X185917205Y-97909744D01*
X185803937Y-97740226D01*
X185659774Y-97596063D01*
X185490256Y-97482795D01*
X185301898Y-97404774D01*
X185101939Y-97365000D01*
X184898061Y-97365000D01*
X184698102Y-97404774D01*
X184509744Y-97482795D01*
X184340226Y-97596063D01*
X184196063Y-97740226D01*
X184082795Y-97909744D01*
X184004774Y-98098102D01*
X183965000Y-98298061D01*
X177019534Y-98298061D01*
X176891897Y-97989920D01*
X176658262Y-97640260D01*
X176360900Y-97342898D01*
X176011240Y-97109263D01*
X175622719Y-96948332D01*
X175210266Y-96866290D01*
X174789734Y-96866290D01*
X174377281Y-96948332D01*
X173988760Y-97109263D01*
X173639100Y-97342898D01*
X173341738Y-97640260D01*
X173108103Y-97989920D01*
X172947172Y-98378441D01*
X172865130Y-98790894D01*
X153997414Y-98790894D01*
X154035000Y-98601939D01*
X154035000Y-98398061D01*
X153995226Y-98198102D01*
X153917205Y-98009744D01*
X153803937Y-97840226D01*
X153659774Y-97696063D01*
X153490256Y-97582795D01*
X153301898Y-97504774D01*
X153101939Y-97465000D01*
X152898061Y-97465000D01*
X152698102Y-97504774D01*
X152509744Y-97582795D01*
X152340226Y-97696063D01*
X152196063Y-97840226D01*
X152082795Y-98009744D01*
X152004774Y-98198102D01*
X151965000Y-98398061D01*
X100685000Y-98398061D01*
X100685000Y-94900000D01*
X103721928Y-94900000D01*
X103721928Y-96600000D01*
X103734188Y-96724482D01*
X103770498Y-96844180D01*
X103829463Y-96954494D01*
X103908815Y-97051185D01*
X104005506Y-97130537D01*
X104115820Y-97189502D01*
X104235518Y-97225812D01*
X104360000Y-97238072D01*
X106060000Y-97238072D01*
X106184482Y-97225812D01*
X106304180Y-97189502D01*
X106414494Y-97130537D01*
X106511185Y-97051185D01*
X106590537Y-96954494D01*
X106649502Y-96844180D01*
X106671513Y-96771620D01*
X106803368Y-96903475D01*
X107046589Y-97065990D01*
X107316842Y-97177932D01*
X107603740Y-97235000D01*
X107896260Y-97235000D01*
X108183158Y-97177932D01*
X108453411Y-97065990D01*
X108696632Y-96903475D01*
X108903475Y-96696632D01*
X109020000Y-96522240D01*
X109136525Y-96696632D01*
X109343368Y-96903475D01*
X109586589Y-97065990D01*
X109856842Y-97177932D01*
X110143740Y-97235000D01*
X110436260Y-97235000D01*
X110723158Y-97177932D01*
X110993411Y-97065990D01*
X111236632Y-96903475D01*
X111443475Y-96696632D01*
X111560000Y-96522240D01*
X111676525Y-96696632D01*
X111883368Y-96903475D01*
X112126589Y-97065990D01*
X112396842Y-97177932D01*
X112683740Y-97235000D01*
X112976260Y-97235000D01*
X113263158Y-97177932D01*
X113533411Y-97065990D01*
X113776632Y-96903475D01*
X113983475Y-96696632D01*
X114145990Y-96453411D01*
X114257932Y-96183158D01*
X114315000Y-95896260D01*
X114315000Y-95603740D01*
X114257932Y-95316842D01*
X114145990Y-95046589D01*
X113983475Y-94803368D01*
X113776632Y-94596525D01*
X113533411Y-94434010D01*
X113263158Y-94322068D01*
X112976260Y-94265000D01*
X112683740Y-94265000D01*
X112396842Y-94322068D01*
X112126589Y-94434010D01*
X111883368Y-94596525D01*
X111676525Y-94803368D01*
X111560000Y-94977760D01*
X111443475Y-94803368D01*
X111236632Y-94596525D01*
X110993411Y-94434010D01*
X110723158Y-94322068D01*
X110436260Y-94265000D01*
X110143740Y-94265000D01*
X109856842Y-94322068D01*
X109586589Y-94434010D01*
X109343368Y-94596525D01*
X109136525Y-94803368D01*
X109020000Y-94977760D01*
X108903475Y-94803368D01*
X108696632Y-94596525D01*
X108453411Y-94434010D01*
X108183158Y-94322068D01*
X107896260Y-94265000D01*
X107603740Y-94265000D01*
X107316842Y-94322068D01*
X107046589Y-94434010D01*
X106803368Y-94596525D01*
X106671513Y-94728380D01*
X106649502Y-94655820D01*
X106590537Y-94545506D01*
X106511185Y-94448815D01*
X106414494Y-94369463D01*
X106304180Y-94310498D01*
X106184482Y-94274188D01*
X106060000Y-94261928D01*
X104360000Y-94261928D01*
X104235518Y-94274188D01*
X104115820Y-94310498D01*
X104005506Y-94369463D01*
X103908815Y-94448815D01*
X103829463Y-94545506D01*
X103770498Y-94655820D01*
X103734188Y-94775518D01*
X103721928Y-94900000D01*
X100685000Y-94900000D01*
X100685000Y-91590000D01*
X119511928Y-91590000D01*
X119511928Y-93290000D01*
X119524188Y-93414482D01*
X119560498Y-93534180D01*
X119619463Y-93644494D01*
X119698815Y-93741185D01*
X119795506Y-93820537D01*
X119905820Y-93879502D01*
X120025518Y-93915812D01*
X120150000Y-93928072D01*
X121850000Y-93928072D01*
X121974482Y-93915812D01*
X122094180Y-93879502D01*
X122204494Y-93820537D01*
X122301185Y-93741185D01*
X122380537Y-93644494D01*
X122439502Y-93534180D01*
X122475812Y-93414482D01*
X122488072Y-93290000D01*
X122488072Y-91590000D01*
X122475812Y-91465518D01*
X122439502Y-91345820D01*
X122380537Y-91235506D01*
X122301185Y-91138815D01*
X122204494Y-91059463D01*
X122094180Y-91000498D01*
X121974482Y-90964188D01*
X121850000Y-90951928D01*
X120150000Y-90951928D01*
X120025518Y-90964188D01*
X119905820Y-91000498D01*
X119795506Y-91059463D01*
X119698815Y-91138815D01*
X119619463Y-91235506D01*
X119560498Y-91345820D01*
X119524188Y-91465518D01*
X119511928Y-91590000D01*
X100685000Y-91590000D01*
X100685000Y-89320000D01*
X103731928Y-89320000D01*
X103731928Y-90920000D01*
X103744188Y-91044482D01*
X103780498Y-91164180D01*
X103839463Y-91274494D01*
X103918815Y-91371185D01*
X104015506Y-91450537D01*
X104125820Y-91509502D01*
X104245518Y-91545812D01*
X104370000Y-91558072D01*
X105970000Y-91558072D01*
X106094482Y-91545812D01*
X106214180Y-91509502D01*
X106324494Y-91450537D01*
X106421185Y-91371185D01*
X106500537Y-91274494D01*
X106559502Y-91164180D01*
X106595812Y-91044482D01*
X106596643Y-91036039D01*
X106795241Y-91234637D01*
X107030273Y-91391680D01*
X107291426Y-91499853D01*
X107568665Y-91555000D01*
X107851335Y-91555000D01*
X108128574Y-91499853D01*
X108389727Y-91391680D01*
X108624759Y-91234637D01*
X108824637Y-91034759D01*
X108980000Y-90802241D01*
X109135363Y-91034759D01*
X109335241Y-91234637D01*
X109570273Y-91391680D01*
X109831426Y-91499853D01*
X110108665Y-91555000D01*
X110391335Y-91555000D01*
X110668574Y-91499853D01*
X110929727Y-91391680D01*
X111164759Y-91234637D01*
X111364637Y-91034759D01*
X111520000Y-90802241D01*
X111675363Y-91034759D01*
X111875241Y-91234637D01*
X112110273Y-91391680D01*
X112371426Y-91499853D01*
X112648665Y-91555000D01*
X112931335Y-91555000D01*
X113208574Y-91499853D01*
X113469727Y-91391680D01*
X113704759Y-91234637D01*
X113904637Y-91034759D01*
X114061680Y-90799727D01*
X114169853Y-90538574D01*
X114225000Y-90261335D01*
X114225000Y-89978665D01*
X114193294Y-89819268D01*
X169415000Y-89819268D01*
X169415000Y-90180732D01*
X169485518Y-90535250D01*
X169623844Y-90869199D01*
X169824662Y-91169744D01*
X170080256Y-91425338D01*
X170380801Y-91626156D01*
X170714750Y-91764482D01*
X171069268Y-91835000D01*
X171430732Y-91835000D01*
X171785250Y-91764482D01*
X172119199Y-91626156D01*
X172419744Y-91425338D01*
X172675338Y-91169744D01*
X172876156Y-90869199D01*
X173014482Y-90535250D01*
X173085000Y-90180732D01*
X173085000Y-89898061D01*
X182965000Y-89898061D01*
X182965000Y-90101939D01*
X183004774Y-90301898D01*
X183082795Y-90490256D01*
X183196063Y-90659774D01*
X183340226Y-90803937D01*
X183509744Y-90917205D01*
X183698102Y-90995226D01*
X183898061Y-91035000D01*
X184101939Y-91035000D01*
X184301898Y-90995226D01*
X184490256Y-90917205D01*
X184518907Y-90898061D01*
X188215000Y-90898061D01*
X188215000Y-91101939D01*
X188254774Y-91301898D01*
X188332795Y-91490256D01*
X188446063Y-91659774D01*
X188590226Y-91803937D01*
X188759744Y-91917205D01*
X188948102Y-91995226D01*
X189148061Y-92035000D01*
X189351939Y-92035000D01*
X189551898Y-91995226D01*
X189740256Y-91917205D01*
X189909774Y-91803937D01*
X190053937Y-91659774D01*
X190167205Y-91490256D01*
X190245226Y-91301898D01*
X190285000Y-91101939D01*
X190285000Y-90898061D01*
X190245226Y-90698102D01*
X190167205Y-90509744D01*
X190053937Y-90340226D01*
X189909774Y-90196063D01*
X189740256Y-90082795D01*
X189551898Y-90004774D01*
X189351939Y-89965000D01*
X189148061Y-89965000D01*
X188948102Y-90004774D01*
X188759744Y-90082795D01*
X188590226Y-90196063D01*
X188446063Y-90340226D01*
X188332795Y-90509744D01*
X188254774Y-90698102D01*
X188215000Y-90898061D01*
X184518907Y-90898061D01*
X184659774Y-90803937D01*
X184803937Y-90659774D01*
X184917205Y-90490256D01*
X184995226Y-90301898D01*
X185035000Y-90101939D01*
X185035000Y-89898061D01*
X184995226Y-89698102D01*
X184917205Y-89509744D01*
X184803937Y-89340226D01*
X184659774Y-89196063D01*
X184490256Y-89082795D01*
X184301898Y-89004774D01*
X184101939Y-88965000D01*
X183898061Y-88965000D01*
X183698102Y-89004774D01*
X183509744Y-89082795D01*
X183340226Y-89196063D01*
X183196063Y-89340226D01*
X183082795Y-89509744D01*
X183004774Y-89698102D01*
X182965000Y-89898061D01*
X173085000Y-89898061D01*
X173085000Y-89819268D01*
X173014482Y-89464750D01*
X172876156Y-89130801D01*
X172675338Y-88830256D01*
X172419744Y-88574662D01*
X172119199Y-88373844D01*
X171785250Y-88235518D01*
X171430732Y-88165000D01*
X171069268Y-88165000D01*
X170714750Y-88235518D01*
X170380801Y-88373844D01*
X170080256Y-88574662D01*
X169824662Y-88830256D01*
X169623844Y-89130801D01*
X169485518Y-89464750D01*
X169415000Y-89819268D01*
X114193294Y-89819268D01*
X114169853Y-89701426D01*
X114061680Y-89440273D01*
X113904637Y-89205241D01*
X113704759Y-89005363D01*
X113469727Y-88848320D01*
X113208574Y-88740147D01*
X112931335Y-88685000D01*
X112648665Y-88685000D01*
X112371426Y-88740147D01*
X112110273Y-88848320D01*
X111875241Y-89005363D01*
X111675363Y-89205241D01*
X111520000Y-89437759D01*
X111364637Y-89205241D01*
X111164759Y-89005363D01*
X110929727Y-88848320D01*
X110668574Y-88740147D01*
X110391335Y-88685000D01*
X110108665Y-88685000D01*
X109831426Y-88740147D01*
X109570273Y-88848320D01*
X109335241Y-89005363D01*
X109135363Y-89205241D01*
X108980000Y-89437759D01*
X108824637Y-89205241D01*
X108624759Y-89005363D01*
X108389727Y-88848320D01*
X108128574Y-88740147D01*
X107851335Y-88685000D01*
X107568665Y-88685000D01*
X107291426Y-88740147D01*
X107030273Y-88848320D01*
X106795241Y-89005363D01*
X106596643Y-89203961D01*
X106595812Y-89195518D01*
X106559502Y-89075820D01*
X106500537Y-88965506D01*
X106421185Y-88868815D01*
X106324494Y-88789463D01*
X106214180Y-88730498D01*
X106094482Y-88694188D01*
X105970000Y-88681928D01*
X104370000Y-88681928D01*
X104245518Y-88694188D01*
X104125820Y-88730498D01*
X104015506Y-88789463D01*
X103918815Y-88868815D01*
X103839463Y-88965506D01*
X103780498Y-89075820D01*
X103744188Y-89195518D01*
X103731928Y-89320000D01*
X100685000Y-89320000D01*
X100685000Y-86440000D01*
X119511928Y-86440000D01*
X119511928Y-88140000D01*
X119524188Y-88264482D01*
X119560498Y-88384180D01*
X119619463Y-88494494D01*
X119698815Y-88591185D01*
X119795506Y-88670537D01*
X119905820Y-88729502D01*
X120025518Y-88765812D01*
X120150000Y-88778072D01*
X121850000Y-88778072D01*
X121974482Y-88765812D01*
X122094180Y-88729502D01*
X122204494Y-88670537D01*
X122301185Y-88591185D01*
X122380537Y-88494494D01*
X122439502Y-88384180D01*
X122475812Y-88264482D01*
X122487278Y-88148061D01*
X184465000Y-88148061D01*
X184465000Y-88351939D01*
X184504774Y-88551898D01*
X184582795Y-88740256D01*
X184696063Y-88909774D01*
X184840226Y-89053937D01*
X185009744Y-89167205D01*
X185198102Y-89245226D01*
X185398061Y-89285000D01*
X185601939Y-89285000D01*
X185801898Y-89245226D01*
X185990256Y-89167205D01*
X186159774Y-89053937D01*
X186303937Y-88909774D01*
X186311763Y-88898061D01*
X192215000Y-88898061D01*
X192215000Y-89101939D01*
X192254774Y-89301898D01*
X192332795Y-89490256D01*
X192446063Y-89659774D01*
X192590226Y-89803937D01*
X192759744Y-89917205D01*
X192948102Y-89995226D01*
X193148061Y-90035000D01*
X193351939Y-90035000D01*
X193551898Y-89995226D01*
X193740256Y-89917205D01*
X193909774Y-89803937D01*
X194053937Y-89659774D01*
X194167205Y-89490256D01*
X194245226Y-89301898D01*
X194285000Y-89101939D01*
X194285000Y-88898061D01*
X194245226Y-88698102D01*
X194167205Y-88509744D01*
X194053937Y-88340226D01*
X193909774Y-88196063D01*
X193740256Y-88082795D01*
X193551898Y-88004774D01*
X193351939Y-87965000D01*
X193148061Y-87965000D01*
X192948102Y-88004774D01*
X192759744Y-88082795D01*
X192590226Y-88196063D01*
X192446063Y-88340226D01*
X192332795Y-88509744D01*
X192254774Y-88698102D01*
X192215000Y-88898061D01*
X186311763Y-88898061D01*
X186417205Y-88740256D01*
X186495226Y-88551898D01*
X186535000Y-88351939D01*
X186535000Y-88148061D01*
X186495226Y-87948102D01*
X186417205Y-87759744D01*
X186303937Y-87590226D01*
X186159774Y-87446063D01*
X185990256Y-87332795D01*
X185801898Y-87254774D01*
X185601939Y-87215000D01*
X185398061Y-87215000D01*
X185198102Y-87254774D01*
X185009744Y-87332795D01*
X184840226Y-87446063D01*
X184696063Y-87590226D01*
X184582795Y-87759744D01*
X184504774Y-87948102D01*
X184465000Y-88148061D01*
X122487278Y-88148061D01*
X122488072Y-88140000D01*
X122488072Y-86440000D01*
X122475812Y-86315518D01*
X122439502Y-86195820D01*
X122380537Y-86085506D01*
X122301185Y-85988815D01*
X122204494Y-85909463D01*
X122183163Y-85898061D01*
X186715000Y-85898061D01*
X186715000Y-86101939D01*
X186754774Y-86301898D01*
X186832795Y-86490256D01*
X186946063Y-86659774D01*
X187090226Y-86803937D01*
X187259744Y-86917205D01*
X187448102Y-86995226D01*
X187648061Y-87035000D01*
X187851939Y-87035000D01*
X188051898Y-86995226D01*
X188240256Y-86917205D01*
X188409774Y-86803937D01*
X188553937Y-86659774D01*
X188667205Y-86490256D01*
X188745226Y-86301898D01*
X188785000Y-86101939D01*
X188785000Y-85898061D01*
X188745226Y-85698102D01*
X188667205Y-85509744D01*
X188553937Y-85340226D01*
X188409774Y-85196063D01*
X188240256Y-85082795D01*
X188051898Y-85004774D01*
X187851939Y-84965000D01*
X187648061Y-84965000D01*
X187448102Y-85004774D01*
X187259744Y-85082795D01*
X187090226Y-85196063D01*
X186946063Y-85340226D01*
X186832795Y-85509744D01*
X186754774Y-85698102D01*
X186715000Y-85898061D01*
X122183163Y-85898061D01*
X122094180Y-85850498D01*
X122021620Y-85828487D01*
X122153475Y-85696632D01*
X122315990Y-85453411D01*
X122427932Y-85183158D01*
X122485000Y-84896260D01*
X122485000Y-84603740D01*
X122427932Y-84316842D01*
X122315990Y-84046589D01*
X122153475Y-83803368D01*
X121946632Y-83596525D01*
X121703411Y-83434010D01*
X121433158Y-83322068D01*
X121146260Y-83265000D01*
X120853740Y-83265000D01*
X120566842Y-83322068D01*
X120296589Y-83434010D01*
X120053368Y-83596525D01*
X119846525Y-83803368D01*
X119684010Y-84046589D01*
X119572068Y-84316842D01*
X119515000Y-84603740D01*
X119515000Y-84896260D01*
X119572068Y-85183158D01*
X119684010Y-85453411D01*
X119846525Y-85696632D01*
X119978380Y-85828487D01*
X119905820Y-85850498D01*
X119795506Y-85909463D01*
X119698815Y-85988815D01*
X119619463Y-86085506D01*
X119560498Y-86195820D01*
X119524188Y-86315518D01*
X119511928Y-86440000D01*
X100685000Y-86440000D01*
X100685000Y-82358665D01*
X103735000Y-82358665D01*
X103735000Y-82641335D01*
X103790147Y-82918574D01*
X103898320Y-83179727D01*
X104055363Y-83414759D01*
X104255241Y-83614637D01*
X104490273Y-83771680D01*
X104751426Y-83879853D01*
X105028665Y-83935000D01*
X105311335Y-83935000D01*
X105588574Y-83879853D01*
X105849727Y-83771680D01*
X106084759Y-83614637D01*
X106284637Y-83414759D01*
X106440000Y-83182241D01*
X106595363Y-83414759D01*
X106795241Y-83614637D01*
X107030273Y-83771680D01*
X107291426Y-83879853D01*
X107568665Y-83935000D01*
X107851335Y-83935000D01*
X108128574Y-83879853D01*
X108389727Y-83771680D01*
X108624759Y-83614637D01*
X108824637Y-83414759D01*
X108980000Y-83182241D01*
X109135363Y-83414759D01*
X109335241Y-83614637D01*
X109570273Y-83771680D01*
X109831426Y-83879853D01*
X110108665Y-83935000D01*
X110391335Y-83935000D01*
X110668574Y-83879853D01*
X110929727Y-83771680D01*
X111164759Y-83614637D01*
X111364637Y-83414759D01*
X111521680Y-83179727D01*
X111629853Y-82918574D01*
X111685000Y-82641335D01*
X111685000Y-82358665D01*
X111629853Y-82081426D01*
X111521680Y-81820273D01*
X111364637Y-81585241D01*
X111164759Y-81385363D01*
X110929727Y-81228320D01*
X110668574Y-81120147D01*
X110391335Y-81065000D01*
X110108665Y-81065000D01*
X109831426Y-81120147D01*
X109570273Y-81228320D01*
X109335241Y-81385363D01*
X109135363Y-81585241D01*
X108980000Y-81817759D01*
X108824637Y-81585241D01*
X108624759Y-81385363D01*
X108389727Y-81228320D01*
X108128574Y-81120147D01*
X107851335Y-81065000D01*
X107568665Y-81065000D01*
X107291426Y-81120147D01*
X107030273Y-81228320D01*
X106795241Y-81385363D01*
X106595363Y-81585241D01*
X106440000Y-81817759D01*
X106284637Y-81585241D01*
X106084759Y-81385363D01*
X105849727Y-81228320D01*
X105588574Y-81120147D01*
X105311335Y-81065000D01*
X105028665Y-81065000D01*
X104751426Y-81120147D01*
X104490273Y-81228320D01*
X104255241Y-81385363D01*
X104055363Y-81585241D01*
X103898320Y-81820273D01*
X103790147Y-82081426D01*
X103735000Y-82358665D01*
X100685000Y-82358665D01*
X100685000Y-70500000D01*
X102861928Y-70500000D01*
X102861928Y-73500000D01*
X102874188Y-73624482D01*
X102910498Y-73744180D01*
X102969463Y-73854494D01*
X103048815Y-73951185D01*
X103145506Y-74030537D01*
X103255820Y-74089502D01*
X103375518Y-74125812D01*
X103500000Y-74138072D01*
X106500000Y-74138072D01*
X106624482Y-74125812D01*
X106744180Y-74089502D01*
X106854494Y-74030537D01*
X106951185Y-73951185D01*
X107030537Y-73854494D01*
X107089502Y-73744180D01*
X107125812Y-73624482D01*
X107138072Y-73500000D01*
X107138072Y-70500000D01*
X107125812Y-70375518D01*
X107089502Y-70255820D01*
X107030537Y-70145506D01*
X106951185Y-70048815D01*
X106854494Y-69969463D01*
X106744180Y-69910498D01*
X106624482Y-69874188D01*
X106500000Y-69861928D01*
X103500000Y-69861928D01*
X103375518Y-69874188D01*
X103255820Y-69910498D01*
X103145506Y-69969463D01*
X103048815Y-70048815D01*
X102969463Y-70145506D01*
X102910498Y-70255820D01*
X102874188Y-70375518D01*
X102861928Y-70500000D01*
X100685000Y-70500000D01*
X100685000Y-69313740D01*
X119515000Y-69313740D01*
X119515000Y-69606260D01*
X119572068Y-69893158D01*
X119684010Y-70163411D01*
X119846525Y-70406632D01*
X120053368Y-70613475D01*
X120227760Y-70730000D01*
X120053368Y-70846525D01*
X119846525Y-71053368D01*
X119684010Y-71296589D01*
X119572068Y-71566842D01*
X119515000Y-71853740D01*
X119515000Y-72146260D01*
X119572068Y-72433158D01*
X119684010Y-72703411D01*
X119846525Y-72946632D01*
X120053368Y-73153475D01*
X120227760Y-73270000D01*
X120053368Y-73386525D01*
X119846525Y-73593368D01*
X119684010Y-73836589D01*
X119572068Y-74106842D01*
X119515000Y-74393740D01*
X119515000Y-74686260D01*
X119572068Y-74973158D01*
X119684010Y-75243411D01*
X119846525Y-75486632D01*
X120053368Y-75693475D01*
X120227760Y-75810000D01*
X120053368Y-75926525D01*
X119846525Y-76133368D01*
X119684010Y-76376589D01*
X119572068Y-76646842D01*
X119515000Y-76933740D01*
X119515000Y-77226260D01*
X119572068Y-77513158D01*
X119684010Y-77783411D01*
X119846525Y-78026632D01*
X120053368Y-78233475D01*
X120227760Y-78350000D01*
X120053368Y-78466525D01*
X119846525Y-78673368D01*
X119684010Y-78916589D01*
X119572068Y-79186842D01*
X119515000Y-79473740D01*
X119515000Y-79766260D01*
X119572068Y-80053158D01*
X119684010Y-80323411D01*
X119846525Y-80566632D01*
X120053368Y-80773475D01*
X120296589Y-80935990D01*
X120566842Y-81047932D01*
X120853740Y-81105000D01*
X121146260Y-81105000D01*
X121433158Y-81047932D01*
X121703411Y-80935990D01*
X121924034Y-80788574D01*
X172865130Y-80788574D01*
X172865130Y-81209106D01*
X172947172Y-81621559D01*
X173108103Y-82010080D01*
X173341738Y-82359740D01*
X173639100Y-82657102D01*
X173988760Y-82890737D01*
X174377281Y-83051668D01*
X174789734Y-83133710D01*
X175210266Y-83133710D01*
X175622719Y-83051668D01*
X176011240Y-82890737D01*
X176360900Y-82657102D01*
X176658262Y-82359740D01*
X176891897Y-82010080D01*
X177052828Y-81621559D01*
X177134870Y-81209106D01*
X177134870Y-80788574D01*
X177052828Y-80376121D01*
X176958363Y-80148061D01*
X183965000Y-80148061D01*
X183965000Y-80351939D01*
X184004774Y-80551898D01*
X184082795Y-80740256D01*
X184196063Y-80909774D01*
X184286289Y-81000000D01*
X184196063Y-81090226D01*
X184082795Y-81259744D01*
X184004774Y-81448102D01*
X183965000Y-81648061D01*
X183965000Y-81851939D01*
X184004774Y-82051898D01*
X184082795Y-82240256D01*
X184196063Y-82409774D01*
X184340226Y-82553937D01*
X184509744Y-82667205D01*
X184698102Y-82745226D01*
X184898061Y-82785000D01*
X185101939Y-82785000D01*
X185301898Y-82745226D01*
X185490256Y-82667205D01*
X185659774Y-82553937D01*
X185803937Y-82409774D01*
X185917205Y-82240256D01*
X185995226Y-82051898D01*
X186004276Y-82006400D01*
X186148061Y-82035000D01*
X186351939Y-82035000D01*
X186551898Y-81995226D01*
X186740256Y-81917205D01*
X186909774Y-81803937D01*
X187053937Y-81659774D01*
X187167205Y-81490256D01*
X187245226Y-81301898D01*
X187285000Y-81101939D01*
X187285000Y-80898061D01*
X187245226Y-80698102D01*
X187167205Y-80509744D01*
X187053937Y-80340226D01*
X186909774Y-80196063D01*
X186740256Y-80082795D01*
X186551898Y-80004774D01*
X186351939Y-79965000D01*
X186148061Y-79965000D01*
X186004276Y-79993600D01*
X185995226Y-79948102D01*
X185917205Y-79759744D01*
X185803937Y-79590226D01*
X185659774Y-79446063D01*
X185490256Y-79332795D01*
X185301898Y-79254774D01*
X185101939Y-79215000D01*
X184898061Y-79215000D01*
X184698102Y-79254774D01*
X184509744Y-79332795D01*
X184340226Y-79446063D01*
X184196063Y-79590226D01*
X184082795Y-79759744D01*
X184004774Y-79948102D01*
X183965000Y-80148061D01*
X176958363Y-80148061D01*
X176891897Y-79987600D01*
X176658262Y-79637940D01*
X176360900Y-79340578D01*
X176011240Y-79106943D01*
X175622719Y-78946012D01*
X175210266Y-78863970D01*
X174789734Y-78863970D01*
X174377281Y-78946012D01*
X173988760Y-79106943D01*
X173639100Y-79340578D01*
X173341738Y-79637940D01*
X173108103Y-79987600D01*
X172947172Y-80376121D01*
X172865130Y-80788574D01*
X121924034Y-80788574D01*
X121946632Y-80773475D01*
X122153475Y-80566632D01*
X122315990Y-80323411D01*
X122427932Y-80053158D01*
X122485000Y-79766260D01*
X122485000Y-79473740D01*
X122427932Y-79186842D01*
X122315990Y-78916589D01*
X122153475Y-78673368D01*
X121946632Y-78466525D01*
X121772240Y-78350000D01*
X121946632Y-78233475D01*
X122032046Y-78148061D01*
X125465000Y-78148061D01*
X125465000Y-78351939D01*
X125504774Y-78551898D01*
X125582795Y-78740256D01*
X125696063Y-78909774D01*
X125840226Y-79053937D01*
X126009744Y-79167205D01*
X126198102Y-79245226D01*
X126398061Y-79285000D01*
X126601939Y-79285000D01*
X126801898Y-79245226D01*
X126990256Y-79167205D01*
X127159774Y-79053937D01*
X127303937Y-78909774D01*
X127417205Y-78740256D01*
X127495226Y-78551898D01*
X127535000Y-78351939D01*
X127535000Y-78148061D01*
X127495226Y-77948102D01*
X127417205Y-77759744D01*
X127303937Y-77590226D01*
X127159774Y-77446063D01*
X126990256Y-77332795D01*
X126801898Y-77254774D01*
X126601939Y-77215000D01*
X126398061Y-77215000D01*
X126198102Y-77254774D01*
X126009744Y-77332795D01*
X125840226Y-77446063D01*
X125696063Y-77590226D01*
X125582795Y-77759744D01*
X125504774Y-77948102D01*
X125465000Y-78148061D01*
X122032046Y-78148061D01*
X122153475Y-78026632D01*
X122315990Y-77783411D01*
X122427932Y-77513158D01*
X122485000Y-77226260D01*
X122485000Y-76933740D01*
X122427932Y-76646842D01*
X122425098Y-76640000D01*
X143461928Y-76640000D01*
X143461928Y-78440000D01*
X143474188Y-78564482D01*
X143510498Y-78684180D01*
X143569463Y-78794494D01*
X143648815Y-78891185D01*
X143745506Y-78970537D01*
X143855820Y-79029502D01*
X143975518Y-79065812D01*
X144100000Y-79078072D01*
X145900000Y-79078072D01*
X146024482Y-79065812D01*
X146144180Y-79029502D01*
X146254494Y-78970537D01*
X146351185Y-78891185D01*
X146430537Y-78794494D01*
X146489502Y-78684180D01*
X146525812Y-78564482D01*
X146538072Y-78440000D01*
X146538072Y-76640000D01*
X146525812Y-76515518D01*
X146489502Y-76395820D01*
X146430537Y-76285506D01*
X146351185Y-76188815D01*
X146254494Y-76109463D01*
X146144180Y-76050498D01*
X146125873Y-76044944D01*
X146192312Y-75978505D01*
X146360299Y-75727095D01*
X146476011Y-75447743D01*
X146535000Y-75151184D01*
X146535000Y-74848816D01*
X146476011Y-74552257D01*
X146360299Y-74272905D01*
X146192312Y-74021495D01*
X145978505Y-73807688D01*
X145727095Y-73639701D01*
X145447743Y-73523989D01*
X145151184Y-73465000D01*
X144848816Y-73465000D01*
X144552257Y-73523989D01*
X144272905Y-73639701D01*
X144021495Y-73807688D01*
X143807688Y-74021495D01*
X143639701Y-74272905D01*
X143523989Y-74552257D01*
X143465000Y-74848816D01*
X143465000Y-75151184D01*
X143523989Y-75447743D01*
X143639701Y-75727095D01*
X143807688Y-75978505D01*
X143874127Y-76044944D01*
X143855820Y-76050498D01*
X143745506Y-76109463D01*
X143648815Y-76188815D01*
X143569463Y-76285506D01*
X143510498Y-76395820D01*
X143474188Y-76515518D01*
X143461928Y-76640000D01*
X122425098Y-76640000D01*
X122315990Y-76376589D01*
X122153475Y-76133368D01*
X121946632Y-75926525D01*
X121772240Y-75810000D01*
X121946632Y-75693475D01*
X122153475Y-75486632D01*
X122315990Y-75243411D01*
X122427932Y-74973158D01*
X122485000Y-74686260D01*
X122485000Y-74393740D01*
X122427932Y-74106842D01*
X122315990Y-73836589D01*
X122153475Y-73593368D01*
X121946632Y-73386525D01*
X121772240Y-73270000D01*
X121946632Y-73153475D01*
X121952046Y-73148061D01*
X125465000Y-73148061D01*
X125465000Y-73351939D01*
X125504774Y-73551898D01*
X125582795Y-73740256D01*
X125696063Y-73909774D01*
X125840226Y-74053937D01*
X126009744Y-74167205D01*
X126198102Y-74245226D01*
X126398061Y-74285000D01*
X126601939Y-74285000D01*
X126801898Y-74245226D01*
X126990256Y-74167205D01*
X127159774Y-74053937D01*
X127303937Y-73909774D01*
X127417205Y-73740256D01*
X127495226Y-73551898D01*
X127535000Y-73351939D01*
X127535000Y-73148061D01*
X127495226Y-72948102D01*
X127417205Y-72759744D01*
X127303937Y-72590226D01*
X127159774Y-72446063D01*
X126990256Y-72332795D01*
X126801898Y-72254774D01*
X126601939Y-72215000D01*
X126398061Y-72215000D01*
X126198102Y-72254774D01*
X126009744Y-72332795D01*
X125840226Y-72446063D01*
X125696063Y-72590226D01*
X125582795Y-72759744D01*
X125504774Y-72948102D01*
X125465000Y-73148061D01*
X121952046Y-73148061D01*
X122153475Y-72946632D01*
X122315990Y-72703411D01*
X122427932Y-72433158D01*
X122485000Y-72146260D01*
X122485000Y-71853740D01*
X122427932Y-71566842D01*
X122425098Y-71560000D01*
X148461928Y-71560000D01*
X148461928Y-73360000D01*
X148474188Y-73484482D01*
X148510498Y-73604180D01*
X148569463Y-73714494D01*
X148648815Y-73811185D01*
X148745506Y-73890537D01*
X148855820Y-73949502D01*
X148874127Y-73955056D01*
X148807688Y-74021495D01*
X148639701Y-74272905D01*
X148523989Y-74552257D01*
X148465000Y-74848816D01*
X148465000Y-75151184D01*
X148523989Y-75447743D01*
X148639701Y-75727095D01*
X148807688Y-75978505D01*
X149021495Y-76192312D01*
X149137763Y-76270000D01*
X149021495Y-76347688D01*
X148807688Y-76561495D01*
X148639701Y-76812905D01*
X148523989Y-77092257D01*
X148465000Y-77388816D01*
X148465000Y-77691184D01*
X148523989Y-77987743D01*
X148639701Y-78267095D01*
X148807688Y-78518505D01*
X149021495Y-78732312D01*
X149272905Y-78900299D01*
X149552257Y-79016011D01*
X149848816Y-79075000D01*
X150151184Y-79075000D01*
X150447743Y-79016011D01*
X150727095Y-78900299D01*
X150978505Y-78732312D01*
X151141549Y-78569268D01*
X201415000Y-78569268D01*
X201415000Y-78930732D01*
X201485518Y-79285250D01*
X201623844Y-79619199D01*
X201824662Y-79919744D01*
X202080256Y-80175338D01*
X202380801Y-80376156D01*
X202714750Y-80514482D01*
X203069268Y-80585000D01*
X203430732Y-80585000D01*
X203785250Y-80514482D01*
X204119199Y-80376156D01*
X204419744Y-80175338D01*
X204675338Y-79919744D01*
X204876156Y-79619199D01*
X205014482Y-79285250D01*
X205085000Y-78930732D01*
X205085000Y-78569268D01*
X205014482Y-78214750D01*
X204876156Y-77880801D01*
X204675338Y-77580256D01*
X204419744Y-77324662D01*
X204119199Y-77123844D01*
X203785250Y-76985518D01*
X203430732Y-76915000D01*
X203069268Y-76915000D01*
X202714750Y-76985518D01*
X202380801Y-77123844D01*
X202080256Y-77324662D01*
X201824662Y-77580256D01*
X201623844Y-77880801D01*
X201485518Y-78214750D01*
X201415000Y-78569268D01*
X151141549Y-78569268D01*
X151192312Y-78518505D01*
X151360299Y-78267095D01*
X151476011Y-77987743D01*
X151535000Y-77691184D01*
X151535000Y-77388816D01*
X151476011Y-77092257D01*
X151360299Y-76812905D01*
X151192312Y-76561495D01*
X150978505Y-76347688D01*
X150862237Y-76270000D01*
X150978505Y-76192312D01*
X151192312Y-75978505D01*
X151360299Y-75727095D01*
X151476011Y-75447743D01*
X151535000Y-75151184D01*
X151535000Y-74848816D01*
X151476011Y-74552257D01*
X151360299Y-74272905D01*
X151192312Y-74021495D01*
X151125873Y-73955056D01*
X151144180Y-73949502D01*
X151254494Y-73890537D01*
X151351185Y-73811185D01*
X151430537Y-73714494D01*
X151489502Y-73604180D01*
X151525812Y-73484482D01*
X151538072Y-73360000D01*
X151538072Y-71779872D01*
X195765000Y-71779872D01*
X195765000Y-72220128D01*
X195850890Y-72651925D01*
X196019369Y-73058669D01*
X196263962Y-73424729D01*
X196575271Y-73736038D01*
X196941331Y-73980631D01*
X197348075Y-74149110D01*
X197779872Y-74235000D01*
X198220128Y-74235000D01*
X198651925Y-74149110D01*
X199058669Y-73980631D01*
X199424729Y-73736038D01*
X199736038Y-73424729D01*
X199980631Y-73058669D01*
X200149110Y-72651925D01*
X200235000Y-72220128D01*
X200235000Y-71779872D01*
X200149110Y-71348075D01*
X199980631Y-70941331D01*
X199736038Y-70575271D01*
X199424729Y-70263962D01*
X199058669Y-70019369D01*
X198651925Y-69850890D01*
X198220128Y-69765000D01*
X197779872Y-69765000D01*
X197348075Y-69850890D01*
X196941331Y-70019369D01*
X196575271Y-70263962D01*
X196263962Y-70575271D01*
X196019369Y-70941331D01*
X195850890Y-71348075D01*
X195765000Y-71779872D01*
X151538072Y-71779872D01*
X151538072Y-71560000D01*
X151525812Y-71435518D01*
X151489502Y-71315820D01*
X151430537Y-71205506D01*
X151351185Y-71108815D01*
X151254494Y-71029463D01*
X151144180Y-70970498D01*
X151024482Y-70934188D01*
X150900000Y-70921928D01*
X149100000Y-70921928D01*
X148975518Y-70934188D01*
X148855820Y-70970498D01*
X148745506Y-71029463D01*
X148648815Y-71108815D01*
X148569463Y-71205506D01*
X148510498Y-71315820D01*
X148474188Y-71435518D01*
X148461928Y-71560000D01*
X122425098Y-71560000D01*
X122315990Y-71296589D01*
X122153475Y-71053368D01*
X121946632Y-70846525D01*
X121772240Y-70730000D01*
X121946632Y-70613475D01*
X122153475Y-70406632D01*
X122315990Y-70163411D01*
X122427932Y-69893158D01*
X122485000Y-69606260D01*
X122485000Y-69398061D01*
X125465000Y-69398061D01*
X125465000Y-69601939D01*
X125504774Y-69801898D01*
X125582795Y-69990256D01*
X125696063Y-70159774D01*
X125840226Y-70303937D01*
X126009744Y-70417205D01*
X126198102Y-70495226D01*
X126398061Y-70535000D01*
X126601939Y-70535000D01*
X126801898Y-70495226D01*
X126990256Y-70417205D01*
X127159774Y-70303937D01*
X127303937Y-70159774D01*
X127417205Y-69990256D01*
X127495226Y-69801898D01*
X127535000Y-69601939D01*
X127535000Y-69398061D01*
X127495226Y-69198102D01*
X127417205Y-69009744D01*
X127303937Y-68840226D01*
X127159774Y-68696063D01*
X126990256Y-68582795D01*
X126801898Y-68504774D01*
X126601939Y-68465000D01*
X126398061Y-68465000D01*
X126198102Y-68504774D01*
X126009744Y-68582795D01*
X125840226Y-68696063D01*
X125696063Y-68840226D01*
X125582795Y-69009744D01*
X125504774Y-69198102D01*
X125465000Y-69398061D01*
X122485000Y-69398061D01*
X122485000Y-69313740D01*
X122427932Y-69026842D01*
X122315990Y-68756589D01*
X122153475Y-68513368D01*
X121946632Y-68306525D01*
X121703411Y-68144010D01*
X121433158Y-68032068D01*
X121146260Y-67975000D01*
X120853740Y-67975000D01*
X120566842Y-68032068D01*
X120296589Y-68144010D01*
X120053368Y-68306525D01*
X119846525Y-68513368D01*
X119684010Y-68756589D01*
X119572068Y-69026842D01*
X119515000Y-69313740D01*
X100685000Y-69313740D01*
X100685000Y-64779872D01*
X102765000Y-64779872D01*
X102765000Y-65220128D01*
X102850890Y-65651925D01*
X103019369Y-66058669D01*
X103263962Y-66424729D01*
X103575271Y-66736038D01*
X103941331Y-66980631D01*
X104348075Y-67149110D01*
X104779872Y-67235000D01*
X105220128Y-67235000D01*
X105651925Y-67149110D01*
X106058669Y-66980631D01*
X106424729Y-66736038D01*
X106736038Y-66424729D01*
X106980631Y-66058669D01*
X107149110Y-65651925D01*
X107235000Y-65220128D01*
X107235000Y-64779872D01*
X107149110Y-64348075D01*
X106980631Y-63941331D01*
X106736038Y-63575271D01*
X106424729Y-63263962D01*
X106058669Y-63019369D01*
X105651925Y-62850890D01*
X105220128Y-62765000D01*
X104779872Y-62765000D01*
X104348075Y-62850890D01*
X103941331Y-63019369D01*
X103575271Y-63263962D01*
X103263962Y-63575271D01*
X103019369Y-63941331D01*
X102850890Y-64348075D01*
X102765000Y-64779872D01*
X100685000Y-64779872D01*
X100685000Y-62148061D01*
X108965000Y-62148061D01*
X108965000Y-62351939D01*
X109004774Y-62551898D01*
X109082795Y-62740256D01*
X109089306Y-62750000D01*
X109082795Y-62759744D01*
X109004774Y-62948102D01*
X108965000Y-63148061D01*
X108965000Y-63351939D01*
X109004774Y-63551898D01*
X109082795Y-63740256D01*
X109196063Y-63909774D01*
X109340226Y-64053937D01*
X109509744Y-64167205D01*
X109698102Y-64245226D01*
X109898061Y-64285000D01*
X110101939Y-64285000D01*
X110301898Y-64245226D01*
X110490256Y-64167205D01*
X110659774Y-64053937D01*
X110803937Y-63909774D01*
X110917205Y-63740256D01*
X110995226Y-63551898D01*
X110999581Y-63530000D01*
X119511928Y-63530000D01*
X119511928Y-65230000D01*
X119524188Y-65354482D01*
X119560498Y-65474180D01*
X119619463Y-65584494D01*
X119698815Y-65681185D01*
X119795506Y-65760537D01*
X119905820Y-65819502D01*
X120025518Y-65855812D01*
X120150000Y-65868072D01*
X121850000Y-65868072D01*
X121974482Y-65855812D01*
X122094180Y-65819502D01*
X122204494Y-65760537D01*
X122301185Y-65681185D01*
X122380537Y-65584494D01*
X122439502Y-65474180D01*
X122475812Y-65354482D01*
X122488072Y-65230000D01*
X122488072Y-63530000D01*
X122475812Y-63405518D01*
X122473550Y-63398061D01*
X151965000Y-63398061D01*
X151965000Y-63601939D01*
X152004774Y-63801898D01*
X152082795Y-63990256D01*
X152089306Y-64000000D01*
X152082795Y-64009744D01*
X152004774Y-64198102D01*
X151965000Y-64398061D01*
X151965000Y-64601939D01*
X152004774Y-64801898D01*
X152082795Y-64990256D01*
X152089306Y-65000000D01*
X152082795Y-65009744D01*
X152004774Y-65198102D01*
X151965000Y-65398061D01*
X151965000Y-65601939D01*
X152004774Y-65801898D01*
X152082795Y-65990256D01*
X152089306Y-66000000D01*
X152082795Y-66009744D01*
X152004774Y-66198102D01*
X151965000Y-66398061D01*
X151965000Y-66601939D01*
X152004774Y-66801898D01*
X152082795Y-66990256D01*
X152089306Y-67000000D01*
X152082795Y-67009744D01*
X152004774Y-67198102D01*
X151965000Y-67398061D01*
X151965000Y-67601939D01*
X152004774Y-67801898D01*
X152082795Y-67990256D01*
X152089306Y-68000000D01*
X152082795Y-68009744D01*
X152004774Y-68198102D01*
X151965000Y-68398061D01*
X151965000Y-68601939D01*
X152004774Y-68801898D01*
X152082795Y-68990256D01*
X152196063Y-69159774D01*
X152340226Y-69303937D01*
X152509744Y-69417205D01*
X152698102Y-69495226D01*
X152898061Y-69535000D01*
X153101939Y-69535000D01*
X153301898Y-69495226D01*
X153490256Y-69417205D01*
X153659774Y-69303937D01*
X153803937Y-69159774D01*
X153917205Y-68990256D01*
X153995226Y-68801898D01*
X154035000Y-68601939D01*
X154035000Y-68500000D01*
X205361928Y-68500000D01*
X205361928Y-71500000D01*
X205374188Y-71624482D01*
X205410498Y-71744180D01*
X205469463Y-71854494D01*
X205548815Y-71951185D01*
X205645506Y-72030537D01*
X205755820Y-72089502D01*
X205875518Y-72125812D01*
X206000000Y-72138072D01*
X209000000Y-72138072D01*
X209124482Y-72125812D01*
X209244180Y-72089502D01*
X209354494Y-72030537D01*
X209451185Y-71951185D01*
X209530537Y-71854494D01*
X209589502Y-71744180D01*
X209625812Y-71624482D01*
X209638072Y-71500000D01*
X209638072Y-68500000D01*
X209625812Y-68375518D01*
X209589502Y-68255820D01*
X209530537Y-68145506D01*
X209451185Y-68048815D01*
X209354494Y-67969463D01*
X209244180Y-67910498D01*
X209124482Y-67874188D01*
X209000000Y-67861928D01*
X206000000Y-67861928D01*
X205875518Y-67874188D01*
X205755820Y-67910498D01*
X205645506Y-67969463D01*
X205548815Y-68048815D01*
X205469463Y-68145506D01*
X205410498Y-68255820D01*
X205374188Y-68375518D01*
X205361928Y-68500000D01*
X154035000Y-68500000D01*
X154035000Y-68398061D01*
X153995226Y-68198102D01*
X153917205Y-68009744D01*
X153910694Y-68000000D01*
X153917205Y-67990256D01*
X153995226Y-67801898D01*
X154035000Y-67601939D01*
X154035000Y-67398061D01*
X153995226Y-67198102D01*
X153917205Y-67009744D01*
X153910694Y-67000000D01*
X153917205Y-66990256D01*
X153995226Y-66801898D01*
X154035000Y-66601939D01*
X154035000Y-66398061D01*
X153995226Y-66198102D01*
X153917205Y-66009744D01*
X153910694Y-66000000D01*
X153917205Y-65990256D01*
X153995226Y-65801898D01*
X154035000Y-65601939D01*
X154035000Y-65398061D01*
X153995226Y-65198102D01*
X153917205Y-65009744D01*
X153910694Y-65000000D01*
X153917205Y-64990256D01*
X153995226Y-64801898D01*
X154035000Y-64601939D01*
X154035000Y-64398061D01*
X153995226Y-64198102D01*
X153917205Y-64009744D01*
X153910694Y-64000000D01*
X153917205Y-63990256D01*
X153995226Y-63801898D01*
X153997414Y-63790894D01*
X172865130Y-63790894D01*
X172865130Y-64211426D01*
X172947172Y-64623879D01*
X173108103Y-65012400D01*
X173341738Y-65362060D01*
X173639100Y-65659422D01*
X173988760Y-65893057D01*
X174377281Y-66053988D01*
X174789734Y-66136030D01*
X175210266Y-66136030D01*
X175622719Y-66053988D01*
X176011240Y-65893057D01*
X176360900Y-65659422D01*
X176658262Y-65362060D01*
X176891897Y-65012400D01*
X177017271Y-64709721D01*
X205365000Y-64709721D01*
X205365000Y-65130279D01*
X205447047Y-65542756D01*
X205607988Y-65931302D01*
X205841637Y-66280983D01*
X206139017Y-66578363D01*
X206488698Y-66812012D01*
X206877244Y-66972953D01*
X207289721Y-67055000D01*
X207710279Y-67055000D01*
X208122756Y-66972953D01*
X208511302Y-66812012D01*
X208860983Y-66578363D01*
X209158363Y-66280983D01*
X209392012Y-65931302D01*
X209552953Y-65542756D01*
X209635000Y-65130279D01*
X209635000Y-64709721D01*
X209552953Y-64297244D01*
X209392012Y-63908698D01*
X209158363Y-63559017D01*
X208860983Y-63261637D01*
X208511302Y-63027988D01*
X208122756Y-62867047D01*
X207710279Y-62785000D01*
X207289721Y-62785000D01*
X206877244Y-62867047D01*
X206488698Y-63027988D01*
X206139017Y-63261637D01*
X205841637Y-63559017D01*
X205607988Y-63908698D01*
X205447047Y-64297244D01*
X205365000Y-64709721D01*
X177017271Y-64709721D01*
X177052828Y-64623879D01*
X177134870Y-64211426D01*
X177134870Y-63790894D01*
X177052828Y-63378441D01*
X176891897Y-62989920D01*
X176658262Y-62640260D01*
X176360900Y-62342898D01*
X176011240Y-62109263D01*
X175622719Y-61948332D01*
X175210266Y-61866290D01*
X174789734Y-61866290D01*
X174377281Y-61948332D01*
X173988760Y-62109263D01*
X173639100Y-62342898D01*
X173341738Y-62640260D01*
X173108103Y-62989920D01*
X172947172Y-63378441D01*
X172865130Y-63790894D01*
X153997414Y-63790894D01*
X154035000Y-63601939D01*
X154035000Y-63398061D01*
X153995226Y-63198102D01*
X153917205Y-63009744D01*
X153803937Y-62840226D01*
X153659774Y-62696063D01*
X153490256Y-62582795D01*
X153301898Y-62504774D01*
X153101939Y-62465000D01*
X152898061Y-62465000D01*
X152698102Y-62504774D01*
X152509744Y-62582795D01*
X152340226Y-62696063D01*
X152196063Y-62840226D01*
X152082795Y-63009744D01*
X152004774Y-63198102D01*
X151965000Y-63398061D01*
X122473550Y-63398061D01*
X122439502Y-63285820D01*
X122380537Y-63175506D01*
X122301185Y-63078815D01*
X122204494Y-62999463D01*
X122094180Y-62940498D01*
X121974482Y-62904188D01*
X121850000Y-62891928D01*
X120150000Y-62891928D01*
X120025518Y-62904188D01*
X119905820Y-62940498D01*
X119795506Y-62999463D01*
X119698815Y-63078815D01*
X119619463Y-63175506D01*
X119560498Y-63285820D01*
X119524188Y-63405518D01*
X119511928Y-63530000D01*
X110999581Y-63530000D01*
X111035000Y-63351939D01*
X111035000Y-63148061D01*
X110995226Y-62948102D01*
X110917205Y-62759744D01*
X110910694Y-62750000D01*
X110917205Y-62740256D01*
X110995226Y-62551898D01*
X111035000Y-62351939D01*
X111035000Y-62148061D01*
X110995226Y-61948102D01*
X110917205Y-61759744D01*
X110803937Y-61590226D01*
X110659774Y-61446063D01*
X110490256Y-61332795D01*
X110301898Y-61254774D01*
X110101939Y-61215000D01*
X109898061Y-61215000D01*
X109698102Y-61254774D01*
X109509744Y-61332795D01*
X109340226Y-61446063D01*
X109196063Y-61590226D01*
X109082795Y-61759744D01*
X109004774Y-61948102D01*
X108965000Y-62148061D01*
X100685000Y-62148061D01*
X100685000Y-60685000D01*
X211815000Y-60685000D01*
X211815001Y-119315000D01*
G37*
%TD.AperFunction*%
%TD*%
M02*
