%TF.GenerationSoftware,KiCad,Pcbnew,(5.1.10)-1*%
%TF.CreationDate,2022-06-03T10:18:56+01:00*%
%TF.ProjectId,GTI_V3,4754495f-5633-42e6-9b69-6361645f7063,rev?*%
%TF.SameCoordinates,Original*%
%TF.FileFunction,Copper,L1,Top*%
%TF.FilePolarity,Positive*%
%FSLAX46Y46*%
G04 Gerber Fmt 4.6, Leading zero omitted, Abs format (unit mm)*
G04 Created by KiCad (PCBNEW (5.1.10)-1) date 2022-06-03 10:18:56*
%MOMM*%
%LPD*%
G01*
G04 APERTURE LIST*
%TA.AperFunction,SMDPad,CuDef*%
%ADD10R,1.200000X0.750000*%
%TD*%
%TA.AperFunction,ComponentPad*%
%ADD11R,1.700000X1.700000*%
%TD*%
%TA.AperFunction,ComponentPad*%
%ADD12O,1.700000X1.700000*%
%TD*%
%TA.AperFunction,ComponentPad*%
%ADD13O,1.600000X1.600000*%
%TD*%
%TA.AperFunction,ComponentPad*%
%ADD14R,1.600000X1.600000*%
%TD*%
%TA.AperFunction,SMDPad,CuDef*%
%ADD15R,3.800000X2.000000*%
%TD*%
%TA.AperFunction,SMDPad,CuDef*%
%ADD16R,1.500000X2.000000*%
%TD*%
%TA.AperFunction,SMDPad,CuDef*%
%ADD17R,0.900000X1.200000*%
%TD*%
%TA.AperFunction,ComponentPad*%
%ADD18R,3.000000X3.000000*%
%TD*%
%TA.AperFunction,ComponentPad*%
%ADD19C,3.000000*%
%TD*%
%TA.AperFunction,SMDPad,CuDef*%
%ADD20R,0.750000X1.200000*%
%TD*%
%TA.AperFunction,ComponentPad*%
%ADD21C,2.400000*%
%TD*%
%TA.AperFunction,ComponentPad*%
%ADD22O,1.800000X1.800000*%
%TD*%
%TA.AperFunction,ComponentPad*%
%ADD23R,1.800000X1.800000*%
%TD*%
%TA.AperFunction,SMDPad,CuDef*%
%ADD24R,1.922000X0.700000*%
%TD*%
%TA.AperFunction,SMDPad,CuDef*%
%ADD25R,1.200000X0.900000*%
%TD*%
%TA.AperFunction,SMDPad,CuDef*%
%ADD26R,1.550000X2.350000*%
%TD*%
%TA.AperFunction,ComponentPad*%
%ADD27C,2.999740*%
%TD*%
%TA.AperFunction,ViaPad*%
%ADD28C,0.800000*%
%TD*%
%TA.AperFunction,Conductor*%
%ADD29C,0.650000*%
%TD*%
%TA.AperFunction,Conductor*%
%ADD30C,0.250000*%
%TD*%
%TA.AperFunction,Conductor*%
%ADD31C,0.750000*%
%TD*%
%TA.AperFunction,Conductor*%
%ADD32C,1.000000*%
%TD*%
%TA.AperFunction,Conductor*%
%ADD33C,1.750000*%
%TD*%
%TA.AperFunction,Conductor*%
%ADD34C,2.000000*%
%TD*%
%TA.AperFunction,Conductor*%
%ADD35C,0.254000*%
%TD*%
%TA.AperFunction,Conductor*%
%ADD36C,0.100000*%
%TD*%
G04 APERTURE END LIST*
D10*
%TO.P,C29,1*%
%TO.N,+12V*%
X126450000Y-63000000D03*
%TO.P,C29,2*%
%TO.N,GND*%
X124550000Y-63000000D03*
%TD*%
%TO.P,C28,1*%
%TO.N,+12V*%
X127200000Y-103000000D03*
%TO.P,C28,2*%
%TO.N,GND*%
X125300000Y-103000000D03*
%TD*%
D11*
%TO.P,J8,1*%
%TO.N,/VBUS_Sense*%
X121000000Y-92440000D03*
D12*
%TO.P,J8,2*%
%TO.N,GND*%
X121000000Y-94980000D03*
%TD*%
D11*
%TO.P,J3,1*%
%TO.N,+3V3*%
X121000000Y-64380000D03*
D12*
%TO.P,J3,2*%
%TO.N,GND*%
X121000000Y-66920000D03*
%TO.P,J3,3*%
%TO.N,Net-(IC1-Pad12)*%
X121000000Y-69460000D03*
%TO.P,J3,4*%
%TO.N,Net-(IC1-Pad13)*%
X121000000Y-72000000D03*
%TO.P,J3,5*%
%TO.N,Net-(IC1-Pad14)*%
X121000000Y-74540000D03*
%TO.P,J3,6*%
%TO.N,/V_Sense_A*%
X121000000Y-77080000D03*
%TO.P,J3,7*%
%TO.N,/I_Sense_A*%
X121000000Y-79620000D03*
%TD*%
D13*
%TO.P,U6,8*%
%TO.N,/Ext_Vdd*%
X105170000Y-101250000D03*
%TO.P,U6,4*%
%TO.N,N/C*%
X112790000Y-108870000D03*
%TO.P,U6,7*%
%TO.N,Net-(U6-Pad7)*%
X107710000Y-101250000D03*
%TO.P,U6,3*%
%TO.N,Net-(R30-Pad2)*%
X110250000Y-108870000D03*
%TO.P,U6,6*%
%TO.N,/Ext_Rx*%
X110250000Y-101250000D03*
%TO.P,U6,2*%
%TO.N,+3V3*%
X107710000Y-108870000D03*
%TO.P,U6,5*%
%TO.N,/Ext_Gnd*%
X112790000Y-101250000D03*
D14*
%TO.P,U6,1*%
%TO.N,Net-(U6-Pad1)*%
X105170000Y-108870000D03*
%TD*%
D13*
%TO.P,U5,8*%
%TO.N,+3V3*%
X105170000Y-82500000D03*
%TO.P,U5,4*%
%TO.N,N/C*%
X112790000Y-90120000D03*
%TO.P,U5,7*%
%TO.N,Net-(U5-Pad7)*%
X107710000Y-82500000D03*
%TO.P,U5,3*%
%TO.N,/Ext_Tx*%
X110250000Y-90120000D03*
%TO.P,U5,6*%
%TO.N,/Rx*%
X110250000Y-82500000D03*
%TO.P,U5,2*%
%TO.N,Net-(R28-Pad1)*%
X107710000Y-90120000D03*
%TO.P,U5,5*%
%TO.N,GND*%
X112790000Y-82500000D03*
D14*
%TO.P,U5,1*%
%TO.N,Net-(U5-Pad1)*%
X105170000Y-90120000D03*
%TD*%
D15*
%TO.P,U2,2*%
%TO.N,+12V*%
X115000000Y-78150000D03*
D16*
X115000000Y-71850000D03*
%TO.P,U2,3*%
%TO.N,VCC*%
X112700000Y-71850000D03*
%TO.P,U2,1*%
%TO.N,GND*%
X117300000Y-71850000D03*
%TD*%
D15*
%TO.P,U1,2*%
%TO.N,+3V3*%
X113000000Y-62700000D03*
D16*
X113000000Y-69000000D03*
%TO.P,U1,3*%
%TO.N,+12V*%
X115300000Y-69000000D03*
%TO.P,U1,1*%
%TO.N,GND*%
X110700000Y-69000000D03*
%TD*%
D17*
%TO.P,R27,1*%
%TO.N,/Rx*%
X116250000Y-84650000D03*
%TO.P,R27,2*%
%TO.N,+3V3*%
X116250000Y-86850000D03*
%TD*%
D11*
%TO.P,J7,1*%
%TO.N,/Ext_Vdd*%
X105210000Y-95750000D03*
D12*
%TO.P,J7,2*%
%TO.N,/Ext_Tx*%
X107750000Y-95750000D03*
%TO.P,J7,3*%
%TO.N,/Ext_Rx*%
X110290000Y-95750000D03*
%TO.P,J7,4*%
%TO.N,/Ext_Gnd*%
X112830000Y-95750000D03*
%TD*%
D18*
%TO.P,J5,1*%
%TO.N,Net-(C13-Pad2)*%
X207500000Y-70000000D03*
D19*
%TO.P,J5,2*%
%TO.N,Net-(C13-Pad1)*%
X207500000Y-64920000D03*
%TD*%
D11*
%TO.P,J4,1*%
%TO.N,/Tx*%
X121000000Y-87290000D03*
D12*
%TO.P,J4,2*%
%TO.N,/Rx*%
X121000000Y-84750000D03*
%TD*%
D18*
%TO.P,J2,1*%
%TO.N,VBUS*%
X207000000Y-115000000D03*
D19*
%TO.P,J2,2*%
%TO.N,GND*%
X207000000Y-109920000D03*
%TD*%
D18*
%TO.P,J1,1*%
%TO.N,VCC*%
X105000000Y-72000000D03*
D19*
%TO.P,J1,2*%
%TO.N,GND*%
X105000000Y-77080000D03*
%TD*%
D20*
%TO.P,C3,1*%
%TO.N,VCC*%
X110250000Y-72050000D03*
%TO.P,C3,2*%
%TO.N,GND*%
X110250000Y-73950000D03*
%TD*%
%TO.P,C2,1*%
%TO.N,+12V*%
X116250000Y-80800000D03*
%TO.P,C2,2*%
%TO.N,GND*%
X116250000Y-82700000D03*
%TD*%
%TO.P,C1,1*%
%TO.N,+3V3*%
X117750000Y-62800000D03*
%TO.P,C1,2*%
%TO.N,GND*%
X117750000Y-64700000D03*
%TD*%
D21*
%TO.P,C13,2*%
%TO.N,Net-(C13-Pad2)*%
X203250000Y-101250000D03*
%TO.P,C13,1*%
%TO.N,Net-(C13-Pad1)*%
X203250000Y-78750000D03*
%TD*%
D20*
%TO.P,C16,2*%
%TO.N,Net-(C15-Pad2)*%
X138000000Y-109150000D03*
%TO.P,C16,1*%
%TO.N,Net-(C15-Pad1)*%
X138000000Y-107250000D03*
%TD*%
D21*
%TO.P,C23,1*%
%TO.N,VBUS*%
X171250000Y-90000000D03*
%TO.P,C23,2*%
%TO.N,GND*%
X143750000Y-90000000D03*
%TD*%
D11*
%TO.P,J6,1*%
%TO.N,/I_Sense_B*%
X121000000Y-100000000D03*
D12*
%TO.P,J6,2*%
%TO.N,/V_Sense_B*%
X121000000Y-102540000D03*
%TO.P,J6,3*%
%TO.N,+3V3*%
X121000000Y-105080000D03*
%TO.P,J6,4*%
%TO.N,Net-(IC2-Pad12)*%
X121000000Y-107620000D03*
%TO.P,J6,5*%
%TO.N,Net-(IC2-Pad13)*%
X121000000Y-110160000D03*
%TO.P,J6,6*%
%TO.N,Net-(IC2-Pad14)*%
X121000000Y-112700000D03*
%TO.P,J6,7*%
%TO.N,GND*%
X121000000Y-115240000D03*
%TD*%
%TO.P,U3,8*%
%TO.N,+3V3*%
%TA.AperFunction,SMDPad,CuDef*%
G36*
G01*
X193147000Y-86240000D02*
X193663000Y-86240000D01*
G75*
G02*
X193705000Y-86282000I0J-42000D01*
G01*
X193705000Y-88168000D01*
G75*
G02*
X193663000Y-88210000I-42000J0D01*
G01*
X193147000Y-88210000D01*
G75*
G02*
X193105000Y-88168000I0J42000D01*
G01*
X193105000Y-86282000D01*
G75*
G02*
X193147000Y-86240000I42000J0D01*
G01*
G37*
%TD.AperFunction*%
%TO.P,U3,7*%
%TO.N,/I_Sense_A*%
%TA.AperFunction,SMDPad,CuDef*%
G36*
G01*
X191877000Y-86240000D02*
X192393000Y-86240000D01*
G75*
G02*
X192435000Y-86282000I0J-42000D01*
G01*
X192435000Y-88168000D01*
G75*
G02*
X192393000Y-88210000I-42000J0D01*
G01*
X191877000Y-88210000D01*
G75*
G02*
X191835000Y-88168000I0J42000D01*
G01*
X191835000Y-86282000D01*
G75*
G02*
X191877000Y-86240000I42000J0D01*
G01*
G37*
%TD.AperFunction*%
%TO.P,U3,6*%
%TO.N,Net-(U3-Pad6)*%
%TA.AperFunction,SMDPad,CuDef*%
G36*
G01*
X190607000Y-86240000D02*
X191123000Y-86240000D01*
G75*
G02*
X191165000Y-86282000I0J-42000D01*
G01*
X191165000Y-88168000D01*
G75*
G02*
X191123000Y-88210000I-42000J0D01*
G01*
X190607000Y-88210000D01*
G75*
G02*
X190565000Y-88168000I0J42000D01*
G01*
X190565000Y-86282000D01*
G75*
G02*
X190607000Y-86240000I42000J0D01*
G01*
G37*
%TD.AperFunction*%
%TO.P,U3,5*%
%TO.N,GNDA*%
%TA.AperFunction,SMDPad,CuDef*%
G36*
G01*
X189337000Y-86240000D02*
X189853000Y-86240000D01*
G75*
G02*
X189895000Y-86282000I0J-42000D01*
G01*
X189895000Y-88168000D01*
G75*
G02*
X189853000Y-88210000I-42000J0D01*
G01*
X189337000Y-88210000D01*
G75*
G02*
X189295000Y-88168000I0J42000D01*
G01*
X189295000Y-86282000D01*
G75*
G02*
X189337000Y-86240000I42000J0D01*
G01*
G37*
%TD.AperFunction*%
%TO.P,U3,4*%
%TO.N,Net-(C10-Pad1)*%
%TA.AperFunction,SMDPad,CuDef*%
G36*
G01*
X189337000Y-81290000D02*
X189853000Y-81290000D01*
G75*
G02*
X189895000Y-81332000I0J-42000D01*
G01*
X189895000Y-83218000D01*
G75*
G02*
X189853000Y-83260000I-42000J0D01*
G01*
X189337000Y-83260000D01*
G75*
G02*
X189295000Y-83218000I0J42000D01*
G01*
X189295000Y-81332000D01*
G75*
G02*
X189337000Y-81290000I42000J0D01*
G01*
G37*
%TD.AperFunction*%
%TO.P,U3,3*%
%TA.AperFunction,SMDPad,CuDef*%
G36*
G01*
X190607000Y-81290000D02*
X191123000Y-81290000D01*
G75*
G02*
X191165000Y-81332000I0J-42000D01*
G01*
X191165000Y-83218000D01*
G75*
G02*
X191123000Y-83260000I-42000J0D01*
G01*
X190607000Y-83260000D01*
G75*
G02*
X190565000Y-83218000I0J42000D01*
G01*
X190565000Y-81332000D01*
G75*
G02*
X190607000Y-81290000I42000J0D01*
G01*
G37*
%TD.AperFunction*%
%TO.P,U3,2*%
%TO.N,Net-(C13-Pad1)*%
%TA.AperFunction,SMDPad,CuDef*%
G36*
G01*
X191877000Y-81290000D02*
X192393000Y-81290000D01*
G75*
G02*
X192435000Y-81332000I0J-42000D01*
G01*
X192435000Y-83218000D01*
G75*
G02*
X192393000Y-83260000I-42000J0D01*
G01*
X191877000Y-83260000D01*
G75*
G02*
X191835000Y-83218000I0J42000D01*
G01*
X191835000Y-81332000D01*
G75*
G02*
X191877000Y-81290000I42000J0D01*
G01*
G37*
%TD.AperFunction*%
%TO.P,U3,1*%
%TA.AperFunction,SMDPad,CuDef*%
G36*
G01*
X193147000Y-81290000D02*
X193663000Y-81290000D01*
G75*
G02*
X193705000Y-81332000I0J-42000D01*
G01*
X193705000Y-83218000D01*
G75*
G02*
X193663000Y-83260000I-42000J0D01*
G01*
X193147000Y-83260000D01*
G75*
G02*
X193105000Y-83218000I0J42000D01*
G01*
X193105000Y-81332000D01*
G75*
G02*
X193147000Y-81290000I42000J0D01*
G01*
G37*
%TD.AperFunction*%
%TD*%
%TO.P,U4,8*%
%TO.N,+3V3*%
%TA.AperFunction,SMDPad,CuDef*%
G36*
G01*
X189853000Y-93760000D02*
X189337000Y-93760000D01*
G75*
G02*
X189295000Y-93718000I0J42000D01*
G01*
X189295000Y-91832000D01*
G75*
G02*
X189337000Y-91790000I42000J0D01*
G01*
X189853000Y-91790000D01*
G75*
G02*
X189895000Y-91832000I0J-42000D01*
G01*
X189895000Y-93718000D01*
G75*
G02*
X189853000Y-93760000I-42000J0D01*
G01*
G37*
%TD.AperFunction*%
%TO.P,U4,7*%
%TO.N,/I_Sense_B*%
%TA.AperFunction,SMDPad,CuDef*%
G36*
G01*
X191123000Y-93760000D02*
X190607000Y-93760000D01*
G75*
G02*
X190565000Y-93718000I0J42000D01*
G01*
X190565000Y-91832000D01*
G75*
G02*
X190607000Y-91790000I42000J0D01*
G01*
X191123000Y-91790000D01*
G75*
G02*
X191165000Y-91832000I0J-42000D01*
G01*
X191165000Y-93718000D01*
G75*
G02*
X191123000Y-93760000I-42000J0D01*
G01*
G37*
%TD.AperFunction*%
%TO.P,U4,6*%
%TO.N,Net-(U4-Pad6)*%
%TA.AperFunction,SMDPad,CuDef*%
G36*
G01*
X192393000Y-93760000D02*
X191877000Y-93760000D01*
G75*
G02*
X191835000Y-93718000I0J42000D01*
G01*
X191835000Y-91832000D01*
G75*
G02*
X191877000Y-91790000I42000J0D01*
G01*
X192393000Y-91790000D01*
G75*
G02*
X192435000Y-91832000I0J-42000D01*
G01*
X192435000Y-93718000D01*
G75*
G02*
X192393000Y-93760000I-42000J0D01*
G01*
G37*
%TD.AperFunction*%
%TO.P,U4,5*%
%TO.N,GNDA*%
%TA.AperFunction,SMDPad,CuDef*%
G36*
G01*
X193663000Y-93760000D02*
X193147000Y-93760000D01*
G75*
G02*
X193105000Y-93718000I0J42000D01*
G01*
X193105000Y-91832000D01*
G75*
G02*
X193147000Y-91790000I42000J0D01*
G01*
X193663000Y-91790000D01*
G75*
G02*
X193705000Y-91832000I0J-42000D01*
G01*
X193705000Y-93718000D01*
G75*
G02*
X193663000Y-93760000I-42000J0D01*
G01*
G37*
%TD.AperFunction*%
%TO.P,U4,4*%
%TO.N,Net-(C13-Pad2)*%
%TA.AperFunction,SMDPad,CuDef*%
G36*
G01*
X193663000Y-98710000D02*
X193147000Y-98710000D01*
G75*
G02*
X193105000Y-98668000I0J42000D01*
G01*
X193105000Y-96782000D01*
G75*
G02*
X193147000Y-96740000I42000J0D01*
G01*
X193663000Y-96740000D01*
G75*
G02*
X193705000Y-96782000I0J-42000D01*
G01*
X193705000Y-98668000D01*
G75*
G02*
X193663000Y-98710000I-42000J0D01*
G01*
G37*
%TD.AperFunction*%
%TO.P,U4,3*%
%TA.AperFunction,SMDPad,CuDef*%
G36*
G01*
X192393000Y-98710000D02*
X191877000Y-98710000D01*
G75*
G02*
X191835000Y-98668000I0J42000D01*
G01*
X191835000Y-96782000D01*
G75*
G02*
X191877000Y-96740000I42000J0D01*
G01*
X192393000Y-96740000D01*
G75*
G02*
X192435000Y-96782000I0J-42000D01*
G01*
X192435000Y-98668000D01*
G75*
G02*
X192393000Y-98710000I-42000J0D01*
G01*
G37*
%TD.AperFunction*%
%TO.P,U4,2*%
%TO.N,Net-(C19-Pad1)*%
%TA.AperFunction,SMDPad,CuDef*%
G36*
G01*
X191123000Y-98710000D02*
X190607000Y-98710000D01*
G75*
G02*
X190565000Y-98668000I0J42000D01*
G01*
X190565000Y-96782000D01*
G75*
G02*
X190607000Y-96740000I42000J0D01*
G01*
X191123000Y-96740000D01*
G75*
G02*
X191165000Y-96782000I0J-42000D01*
G01*
X191165000Y-98668000D01*
G75*
G02*
X191123000Y-98710000I-42000J0D01*
G01*
G37*
%TD.AperFunction*%
%TO.P,U4,1*%
%TA.AperFunction,SMDPad,CuDef*%
G36*
G01*
X189853000Y-98710000D02*
X189337000Y-98710000D01*
G75*
G02*
X189295000Y-98668000I0J42000D01*
G01*
X189295000Y-96782000D01*
G75*
G02*
X189337000Y-96740000I42000J0D01*
G01*
X189853000Y-96740000D01*
G75*
G02*
X189895000Y-96782000I0J-42000D01*
G01*
X189895000Y-98668000D01*
G75*
G02*
X189853000Y-98710000I-42000J0D01*
G01*
G37*
%TD.AperFunction*%
%TD*%
D22*
%TO.P,Q4,3*%
%TO.N,GND*%
X145000000Y-107460000D03*
%TO.P,Q4,2*%
%TO.N,Net-(C15-Pad2)*%
X145000000Y-110000000D03*
D23*
%TO.P,Q4,1*%
%TO.N,Net-(Q4-Pad1)*%
X145000000Y-112540000D03*
%TD*%
D24*
%TO.P,IC2,1*%
%TO.N,Net-(IC2-Pad1)*%
X134428000Y-114640000D03*
%TO.P,IC2,2*%
%TO.N,GND*%
X134428000Y-113370000D03*
%TO.P,IC2,3*%
%TO.N,Net-(C17-Pad1)*%
X134428000Y-112100000D03*
%TO.P,IC2,4*%
%TO.N,Net-(IC2-Pad4)*%
X134428000Y-110830000D03*
%TO.P,IC2,5*%
%TO.N,Net-(IC2-Pad5)*%
X134428000Y-109560000D03*
%TO.P,IC2,6*%
%TO.N,Net-(C15-Pad2)*%
X134428000Y-108290000D03*
%TO.P,IC2,7*%
%TO.N,Net-(C15-Pad1)*%
X134428000Y-107020000D03*
%TO.P,IC2,8*%
%TO.N,Net-(IC2-Pad8)*%
X134428000Y-105750000D03*
%TO.P,IC2,9*%
%TO.N,Net-(IC2-Pad9)*%
X125000000Y-105750000D03*
%TO.P,IC2,10*%
%TO.N,Net-(IC2-Pad10)*%
X125000000Y-107020000D03*
%TO.P,IC2,11*%
%TO.N,+3V3*%
X125000000Y-108290000D03*
%TO.P,IC2,12*%
%TO.N,Net-(IC2-Pad12)*%
X125000000Y-109560000D03*
%TO.P,IC2,13*%
%TO.N,Net-(IC2-Pad13)*%
X125000000Y-110830000D03*
%TO.P,IC2,14*%
%TO.N,Net-(IC2-Pad14)*%
X125000000Y-112100000D03*
%TO.P,IC2,15*%
%TO.N,+3V3*%
X125000000Y-113370000D03*
%TO.P,IC2,16*%
%TO.N,Net-(IC2-Pad16)*%
X125000000Y-114640000D03*
%TD*%
D22*
%TO.P,Q3,3*%
%TO.N,Net-(C15-Pad2)*%
X150000000Y-112540000D03*
%TO.P,Q3,2*%
%TO.N,VBUS*%
X150000000Y-110000000D03*
D23*
%TO.P,Q3,1*%
%TO.N,Net-(Q3-Pad1)*%
X150000000Y-107460000D03*
%TD*%
D20*
%TO.P,C18,2*%
%TO.N,GND*%
X138000000Y-112950000D03*
%TO.P,C18,1*%
%TO.N,Net-(C17-Pad1)*%
X138000000Y-111050000D03*
%TD*%
%TO.P,C17,2*%
%TO.N,GND*%
X136500000Y-112950000D03*
%TO.P,C17,1*%
%TO.N,Net-(C17-Pad1)*%
X136500000Y-111050000D03*
%TD*%
D10*
%TO.P,C21,2*%
%TO.N,GND*%
X124300000Y-116500000D03*
%TO.P,C21,1*%
%TO.N,+3V3*%
X126200000Y-116500000D03*
%TD*%
D25*
%TO.P,R24,2*%
%TO.N,Net-(IC2-Pad1)*%
X136800000Y-114750000D03*
%TO.P,R24,1*%
%TO.N,Net-(Q4-Pad1)*%
X139000000Y-114750000D03*
%TD*%
D17*
%TO.P,R23,2*%
%TO.N,Net-(C15-Pad2)*%
X140750000Y-108350000D03*
%TO.P,R23,1*%
%TO.N,Net-(Q3-Pad1)*%
X140750000Y-106150000D03*
%TD*%
%TO.P,R26,2*%
%TO.N,GND*%
X140750000Y-112300000D03*
%TO.P,R26,1*%
%TO.N,Net-(Q4-Pad1)*%
X140750000Y-114500000D03*
%TD*%
D26*
%TO.P,D2,1*%
%TO.N,Net-(C15-Pad1)*%
X131750000Y-102500000D03*
%TO.P,D2,2*%
%TO.N,Net-(D2-Pad2)*%
X131750000Y-98200000D03*
%TD*%
D25*
%TO.P,R20,2*%
%TO.N,+12V*%
X126500000Y-101250000D03*
%TO.P,R20,1*%
%TO.N,Net-(C17-Pad1)*%
X128700000Y-101250000D03*
%TD*%
%TO.P,R19,2*%
%TO.N,+12V*%
X126500000Y-99500000D03*
%TO.P,R19,1*%
%TO.N,Net-(D2-Pad2)*%
X128700000Y-99500000D03*
%TD*%
%TO.P,R21,2*%
%TO.N,Net-(IC2-Pad8)*%
X136750000Y-105500000D03*
%TO.P,R21,1*%
%TO.N,Net-(Q3-Pad1)*%
X138950000Y-105500000D03*
%TD*%
D27*
%TO.P,L2,2*%
%TO.N,Net-(C19-Pad1)*%
X175000000Y-99001160D03*
%TO.P,L2,1*%
%TO.N,Net-(C15-Pad2)*%
X175000000Y-115998840D03*
%TD*%
D10*
%TO.P,C12,2*%
%TO.N,GND*%
X124300000Y-68750000D03*
%TO.P,C12,1*%
%TO.N,+3V3*%
X126200000Y-68750000D03*
%TD*%
D20*
%TO.P,C15,2*%
%TO.N,Net-(C15-Pad2)*%
X136500000Y-109150000D03*
%TO.P,C15,1*%
%TO.N,Net-(C15-Pad1)*%
X136500000Y-107250000D03*
%TD*%
D17*
%TO.P,R8,1*%
%TO.N,Net-(Q2-Pad1)*%
X140750000Y-79500000D03*
%TO.P,R8,2*%
%TO.N,GND*%
X140750000Y-77300000D03*
%TD*%
D25*
%TO.P,R6,1*%
%TO.N,Net-(Q2-Pad1)*%
X138950000Y-79750000D03*
%TO.P,R6,2*%
%TO.N,Net-(IC1-Pad1)*%
X136750000Y-79750000D03*
%TD*%
D17*
%TO.P,R5,1*%
%TO.N,Net-(Q1-Pad1)*%
X140750000Y-71150000D03*
%TO.P,R5,2*%
%TO.N,Net-(C11-Pad1)*%
X140750000Y-73350000D03*
%TD*%
D25*
%TO.P,R3,1*%
%TO.N,Net-(Q1-Pad1)*%
X138950000Y-70500000D03*
%TO.P,R3,2*%
%TO.N,Net-(IC1-Pad8)*%
X136750000Y-70500000D03*
%TD*%
%TO.P,R2,1*%
%TO.N,Net-(C8-Pad1)*%
X128700000Y-66250000D03*
%TO.P,R2,2*%
%TO.N,+12V*%
X126500000Y-66250000D03*
%TD*%
%TO.P,R1,1*%
%TO.N,Net-(D1-Pad2)*%
X128700000Y-64500000D03*
%TO.P,R1,2*%
%TO.N,+12V*%
X126500000Y-64500000D03*
%TD*%
D27*
%TO.P,L1,1*%
%TO.N,Net-(C11-Pad1)*%
X175000000Y-64001160D03*
%TO.P,L1,2*%
%TO.N,Net-(C10-Pad1)*%
X175000000Y-80998840D03*
%TD*%
D20*
%TO.P,C9,1*%
%TO.N,Net-(C8-Pad1)*%
X138000000Y-76050000D03*
%TO.P,C9,2*%
%TO.N,GND*%
X138000000Y-77950000D03*
%TD*%
%TO.P,C8,1*%
%TO.N,Net-(C8-Pad1)*%
X136500000Y-76050000D03*
%TO.P,C8,2*%
%TO.N,GND*%
X136500000Y-77950000D03*
%TD*%
%TO.P,C7,1*%
%TO.N,+3V3*%
X188000000Y-90950000D03*
%TO.P,C7,2*%
%TO.N,GNDA*%
X188000000Y-89050000D03*
%TD*%
%TO.P,C6,1*%
%TO.N,Net-(C5-Pad1)*%
X138000000Y-72250000D03*
%TO.P,C6,2*%
%TO.N,Net-(C11-Pad1)*%
X138000000Y-74150000D03*
%TD*%
%TO.P,C5,1*%
%TO.N,Net-(C5-Pad1)*%
X136500000Y-72250000D03*
%TO.P,C5,2*%
%TO.N,Net-(C11-Pad1)*%
X136500000Y-74150000D03*
%TD*%
D26*
%TO.P,D1,2*%
%TO.N,Net-(D1-Pad2)*%
X131750000Y-63200000D03*
%TO.P,D1,1*%
%TO.N,Net-(C5-Pad1)*%
X131750000Y-67500000D03*
%TD*%
D23*
%TO.P,Q2,1*%
%TO.N,Net-(Q2-Pad1)*%
X145000000Y-77540000D03*
D22*
%TO.P,Q2,2*%
%TO.N,Net-(C11-Pad1)*%
X145000000Y-75000000D03*
%TO.P,Q2,3*%
%TO.N,GND*%
X145000000Y-72460000D03*
%TD*%
%TO.P,Q1,3*%
%TO.N,Net-(C11-Pad1)*%
X150000000Y-77540000D03*
%TO.P,Q1,2*%
%TO.N,VBUS*%
X150000000Y-75000000D03*
D23*
%TO.P,Q1,1*%
%TO.N,Net-(Q1-Pad1)*%
X150000000Y-72460000D03*
%TD*%
D24*
%TO.P,IC1,16*%
%TO.N,Net-(IC1-Pad16)*%
X125072000Y-79560000D03*
%TO.P,IC1,15*%
%TO.N,+3V3*%
X125072000Y-78290000D03*
%TO.P,IC1,14*%
%TO.N,Net-(IC1-Pad14)*%
X125072000Y-77020000D03*
%TO.P,IC1,13*%
%TO.N,Net-(IC1-Pad13)*%
X125072000Y-75750000D03*
%TO.P,IC1,12*%
%TO.N,Net-(IC1-Pad12)*%
X125072000Y-74480000D03*
%TO.P,IC1,11*%
%TO.N,+3V3*%
X125072000Y-73210000D03*
%TO.P,IC1,10*%
%TO.N,Net-(IC1-Pad10)*%
X125072000Y-71940000D03*
%TO.P,IC1,9*%
%TO.N,Net-(IC1-Pad9)*%
X125072000Y-70670000D03*
%TO.P,IC1,8*%
%TO.N,Net-(IC1-Pad8)*%
X134500000Y-70670000D03*
%TO.P,IC1,7*%
%TO.N,Net-(C5-Pad1)*%
X134500000Y-71940000D03*
%TO.P,IC1,6*%
%TO.N,Net-(C11-Pad1)*%
X134500000Y-73210000D03*
%TO.P,IC1,5*%
%TO.N,Net-(IC1-Pad5)*%
X134500000Y-74480000D03*
%TO.P,IC1,4*%
%TO.N,Net-(IC1-Pad4)*%
X134500000Y-75750000D03*
%TO.P,IC1,3*%
%TO.N,Net-(C8-Pad1)*%
X134500000Y-77020000D03*
%TO.P,IC1,2*%
%TO.N,GND*%
X134500000Y-78290000D03*
%TO.P,IC1,1*%
%TO.N,Net-(IC1-Pad1)*%
X134500000Y-79560000D03*
%TD*%
D28*
%TO.N,VBUS*%
X153000000Y-63500000D03*
X153000000Y-64500000D03*
X153000000Y-65500000D03*
X153000000Y-66500000D03*
X153000000Y-67500000D03*
X153000000Y-68500000D03*
X153000000Y-98500000D03*
X153000000Y-99500000D03*
X153000000Y-100500000D03*
X153000000Y-101500000D03*
X153000000Y-102500000D03*
X153000000Y-103500000D03*
%TO.N,+3V3*%
X193250000Y-89000000D03*
X189250000Y-91000000D03*
X110000000Y-62250000D03*
X110000000Y-63250000D03*
X126500000Y-108250000D03*
X126500000Y-78250000D03*
X126500000Y-73250000D03*
X126500000Y-69500000D03*
X126899999Y-113350001D03*
%TO.N,GNDA*%
X185500000Y-88250000D03*
%TO.N,GND*%
X124500000Y-64250000D03*
X110750000Y-67000000D03*
X182250000Y-110750000D03*
X201750000Y-95000000D03*
X201750000Y-84750000D03*
X139250000Y-112950000D03*
X139300000Y-77950000D03*
X142000000Y-63500000D03*
X142000000Y-64500000D03*
X142000000Y-65500000D03*
X142000000Y-66500000D03*
X142000000Y-67500000D03*
X142000000Y-68500000D03*
X142000000Y-98500000D03*
X142000000Y-99500000D03*
X142000000Y-100500000D03*
X142000000Y-101500000D03*
X142000000Y-102500000D03*
X142000000Y-103500000D03*
X178500000Y-104000000D03*
X179500000Y-104000000D03*
X180500000Y-104000000D03*
X181500000Y-104000000D03*
X182500000Y-104000000D03*
X183500000Y-104000000D03*
X178500000Y-75750000D03*
X179500000Y-75750000D03*
X180500000Y-75750000D03*
X181500000Y-75750000D03*
X182500000Y-75750000D03*
X183500000Y-75750000D03*
X141750000Y-77250000D03*
X141750000Y-112250000D03*
X132500000Y-113250000D03*
X132750000Y-78250000D03*
X126000000Y-104250000D03*
%TO.N,Net-(C10-Pad1)*%
X185000000Y-80250000D03*
X185000000Y-81750000D03*
X186250000Y-81000000D03*
%TO.N,/I_Sense_A*%
X187750000Y-86000000D03*
%TO.N,/I_Sense_B*%
X184000000Y-90000000D03*
%TO.N,Net-(C19-Pad1)*%
X185000000Y-98400000D03*
X185000000Y-99600000D03*
X186000000Y-99000000D03*
%TD*%
D29*
%TO.N,Net-(IC1-Pad14)*%
X123480000Y-77020000D02*
X121000000Y-74540000D01*
X125072000Y-77020000D02*
X123480000Y-77020000D01*
%TO.N,Net-(IC1-Pad13)*%
X125072000Y-75750000D02*
X123750000Y-75750000D01*
X122649990Y-73649990D02*
X121000000Y-72000000D01*
X122649990Y-74649990D02*
X122649990Y-73649990D01*
X123750000Y-75750000D02*
X122649990Y-74649990D01*
D30*
%TO.N,Net-(IC1-Pad12)*%
X124445998Y-74480000D02*
X125072000Y-74480000D01*
D29*
X124085998Y-74480000D02*
X123500000Y-73894002D01*
X125072000Y-74480000D02*
X124085998Y-74480000D01*
X123500000Y-71960000D02*
X121000000Y-69460000D01*
X123500000Y-73894002D02*
X123500000Y-71960000D01*
%TO.N,Net-(IC1-Pad8)*%
X134500000Y-70670000D02*
X135830000Y-70670000D01*
X136000000Y-70500000D02*
X136750000Y-70500000D01*
X135830000Y-70670000D02*
X136000000Y-70500000D01*
%TO.N,Net-(IC1-Pad1)*%
X134500000Y-79560000D02*
X135810000Y-79560000D01*
X136000000Y-79750000D02*
X136750000Y-79750000D01*
X135810000Y-79560000D02*
X136000000Y-79750000D01*
%TO.N,Net-(IC2-Pad14)*%
X121600000Y-112100000D02*
X121000000Y-112700000D01*
X125000000Y-112100000D02*
X121600000Y-112100000D01*
%TO.N,Net-(IC2-Pad13)*%
X121670000Y-110830000D02*
X121000000Y-110160000D01*
X125000000Y-110830000D02*
X121670000Y-110830000D01*
%TO.N,Net-(IC2-Pad12)*%
X122940000Y-109560000D02*
X121000000Y-107620000D01*
X125000000Y-109560000D02*
X122940000Y-109560000D01*
%TO.N,Net-(IC2-Pad8)*%
X134428000Y-105750000D02*
X135750000Y-105750000D01*
X136000000Y-105500000D02*
X136750000Y-105500000D01*
X135750000Y-105750000D02*
X136000000Y-105500000D01*
%TO.N,Net-(IC2-Pad1)*%
X134428000Y-114640000D02*
X135890000Y-114640000D01*
X136000000Y-114750000D02*
X136800000Y-114750000D01*
X135890000Y-114640000D02*
X136000000Y-114750000D01*
%TO.N,Net-(Q1-Pad1)*%
X148040000Y-70500000D02*
X150000000Y-72460000D01*
X140750000Y-70750000D02*
X140500000Y-70500000D01*
X140750000Y-71150000D02*
X140750000Y-70750000D01*
X140500000Y-70500000D02*
X148040000Y-70500000D01*
X138950000Y-70500000D02*
X140500000Y-70500000D01*
%TO.N,Net-(Q2-Pad1)*%
X142790000Y-79750000D02*
X145000000Y-77540000D01*
X138950000Y-79750000D02*
X142790000Y-79750000D01*
%TO.N,Net-(Q3-Pad1)*%
X138950000Y-105500000D02*
X140750000Y-105500000D01*
X148040000Y-105500000D02*
X140750000Y-105500000D01*
X150000000Y-107460000D02*
X148040000Y-105500000D01*
X140750000Y-106150000D02*
X140750000Y-105500000D01*
%TO.N,Net-(Q4-Pad1)*%
X139000000Y-114750000D02*
X140750000Y-114750000D01*
X142790000Y-114750000D02*
X145000000Y-112540000D01*
X140750000Y-114750000D02*
X142790000Y-114750000D01*
%TO.N,Net-(D1-Pad2)*%
X130450000Y-64500000D02*
X131750000Y-63200000D01*
X128700000Y-64500000D02*
X130450000Y-64500000D01*
%TO.N,Net-(D2-Pad2)*%
X130450000Y-99500000D02*
X131750000Y-98200000D01*
X128700000Y-99500000D02*
X130450000Y-99500000D01*
D30*
%TO.N,+3V3*%
X189595000Y-92775000D02*
X189595000Y-91345000D01*
X189200000Y-90950000D02*
X188000000Y-90950000D01*
X189595000Y-91345000D02*
X189250000Y-91000000D01*
X189250000Y-91000000D02*
X189200000Y-90950000D01*
X193405000Y-88845000D02*
X193250000Y-89000000D01*
X193405000Y-87225000D02*
X193405000Y-88845000D01*
X188000000Y-90950000D02*
X187700000Y-90950000D01*
X124445998Y-73210000D02*
X125072000Y-73210000D01*
D31*
X119320000Y-62700000D02*
X121000000Y-64380000D01*
X113000000Y-62700000D02*
X119320000Y-62700000D01*
X113000000Y-69000000D02*
X113000000Y-62700000D01*
X112700000Y-63000000D02*
X113000000Y-62700000D01*
X110450000Y-62700000D02*
X110000000Y-62250000D01*
X113000000Y-62700000D02*
X110450000Y-62700000D01*
X110550000Y-62700000D02*
X110000000Y-63250000D01*
X113000000Y-62700000D02*
X110550000Y-62700000D01*
X109520000Y-86850000D02*
X105170000Y-82500000D01*
X116250000Y-86850000D02*
X109520000Y-86850000D01*
D29*
X126460000Y-108290000D02*
X126500000Y-108250000D01*
X125000000Y-108290000D02*
X126460000Y-108290000D01*
X125112000Y-73250000D02*
X125072000Y-73210000D01*
X126500000Y-73250000D02*
X125112000Y-73250000D01*
X125112000Y-78250000D02*
X125072000Y-78290000D01*
X126500000Y-78250000D02*
X125112000Y-78250000D01*
X126200000Y-68750000D02*
X126200000Y-69200000D01*
X126200000Y-69200000D02*
X126500000Y-69500000D01*
X126679998Y-113370000D02*
X125000000Y-113370000D01*
X126899999Y-113350001D02*
X126679998Y-113370000D01*
D31*
X126899999Y-108649999D02*
X126500000Y-108250000D01*
X126899999Y-113350001D02*
X126899999Y-108649999D01*
X126899999Y-115800001D02*
X126200000Y-116500000D01*
X126899999Y-113350001D02*
X126899999Y-115800001D01*
D30*
%TO.N,GNDA*%
X188000000Y-89050000D02*
X189200000Y-89050000D01*
X189200000Y-89050000D02*
X189595000Y-88655000D01*
X189595000Y-88655000D02*
X189595000Y-87225000D01*
X193405000Y-91790000D02*
X193405000Y-92775000D01*
X190665000Y-89050000D02*
X193405000Y-91790000D01*
X189200000Y-89050000D02*
X190665000Y-89050000D01*
X124680000Y-100180000D02*
X124680004Y-100180004D01*
X186300000Y-89050000D02*
X185500000Y-88250000D01*
X188000000Y-89050000D02*
X186300000Y-89050000D01*
D29*
%TO.N,Net-(C5-Pad1)*%
X138000000Y-72250000D02*
X136500000Y-72250000D01*
X136190000Y-71940000D02*
X136500000Y-72250000D01*
X134500000Y-71940000D02*
X136190000Y-71940000D01*
X132889000Y-71940000D02*
X134500000Y-71940000D01*
X131750000Y-70801000D02*
X132889000Y-71940000D01*
X131750000Y-67500000D02*
X131750000Y-70801000D01*
D31*
%TO.N,GND*%
X107120000Y-77080000D02*
X110250000Y-73950000D01*
X105000000Y-77080000D02*
X107120000Y-77080000D01*
X110750000Y-68950000D02*
X110700000Y-69000000D01*
X110750000Y-67000000D02*
X110750000Y-68950000D01*
X112990000Y-82700000D02*
X112790000Y-82500000D01*
X116250000Y-82700000D02*
X112990000Y-82700000D01*
D29*
X117750000Y-71400000D02*
X117300000Y-71850000D01*
X121000000Y-66920000D02*
X118920000Y-66920000D01*
X117750000Y-65750000D02*
X117750000Y-64700000D01*
X118920000Y-66920000D02*
X117750000Y-65750000D01*
X117300000Y-68540000D02*
X118920000Y-66920000D01*
X117300000Y-71850000D02*
X117300000Y-68540000D01*
X122470000Y-66920000D02*
X124300000Y-68750000D01*
X121000000Y-66920000D02*
X122470000Y-66920000D01*
X136080000Y-113370000D02*
X136500000Y-112950000D01*
X134428000Y-113370000D02*
X136080000Y-113370000D01*
X136500000Y-112950000D02*
X138000000Y-112950000D01*
X140350000Y-112950000D02*
X140750000Y-112550000D01*
X138000000Y-112950000D02*
X139050000Y-112950000D01*
X139050000Y-112950000D02*
X140350000Y-112950000D01*
X136160000Y-78290000D02*
X136500000Y-77950000D01*
X134500000Y-78290000D02*
X136160000Y-78290000D01*
X136500000Y-77950000D02*
X138000000Y-77950000D01*
X140100000Y-77950000D02*
X140750000Y-77300000D01*
X138000000Y-77950000D02*
X139300000Y-77950000D01*
X139300000Y-77950000D02*
X140100000Y-77950000D01*
X140750000Y-77300000D02*
X141700000Y-77300000D01*
X141700000Y-77300000D02*
X141750000Y-77250000D01*
X140750000Y-112300000D02*
X141700000Y-112300000D01*
X141700000Y-112300000D02*
X141750000Y-112250000D01*
X132790000Y-78290000D02*
X132750000Y-78250000D01*
X134500000Y-78290000D02*
X132790000Y-78290000D01*
X132620000Y-113370000D02*
X132500000Y-113250000D01*
X134428000Y-113370000D02*
X132620000Y-113370000D01*
X124500000Y-64250000D02*
X124500000Y-62991200D01*
D31*
X122260000Y-116500000D02*
X121000000Y-115240000D01*
X124300000Y-116500000D02*
X122260000Y-116500000D01*
X125300000Y-103550000D02*
X126000000Y-104250000D01*
X125300000Y-103000000D02*
X125300000Y-103550000D01*
%TO.N,+12V*%
X115000000Y-69300000D02*
X115300000Y-69000000D01*
X115000000Y-71850000D02*
X115000000Y-69300000D01*
X115000000Y-71850000D02*
X115000000Y-78150000D01*
X116250000Y-79400000D02*
X115000000Y-78150000D01*
X116250000Y-80800000D02*
X116250000Y-79400000D01*
D32*
X126500000Y-99500000D02*
X126500000Y-93750000D01*
X126500000Y-93750000D02*
X124250000Y-91500000D01*
X124250000Y-91500000D02*
X124250000Y-83250000D01*
X124250000Y-83250000D02*
X123000000Y-82000000D01*
X118850000Y-82000000D02*
X115000000Y-78150000D01*
X123000000Y-82000000D02*
X118850000Y-82000000D01*
X126500000Y-66750000D02*
X126500000Y-66250000D01*
X127750000Y-68000000D02*
X126500000Y-66750000D01*
X127750000Y-79750000D02*
X127750000Y-68000000D01*
X124250000Y-83250000D02*
X127750000Y-79750000D01*
X126500000Y-66250000D02*
X126500000Y-64500000D01*
X126500000Y-99500000D02*
X126500000Y-101250000D01*
X126450000Y-64450000D02*
X126500000Y-64500000D01*
X126450000Y-63250000D02*
X126450000Y-64700000D01*
D31*
X127200000Y-101950000D02*
X126500000Y-101250000D01*
X127200000Y-103000000D02*
X127200000Y-101950000D01*
D30*
%TO.N,/I_Sense_A*%
X188149999Y-85600001D02*
X187750000Y-86000000D01*
X191495001Y-85600001D02*
X188149999Y-85600001D01*
X192135000Y-86240000D02*
X191495001Y-85600001D01*
X192135000Y-87225000D02*
X192135000Y-86240000D01*
%TO.N,/I_Sense_B*%
X189323002Y-90000000D02*
X184000000Y-90000000D01*
X190865000Y-92775000D02*
X190865000Y-91541998D01*
X190865000Y-91541998D02*
X189323002Y-90000000D01*
D31*
%TO.N,VCC*%
X112550000Y-72000000D02*
X112700000Y-71850000D01*
X105000000Y-72000000D02*
X112550000Y-72000000D01*
D33*
%TO.N,Net-(C11-Pad1)*%
X161461160Y-77540000D02*
X175000000Y-64001160D01*
X150000000Y-77540000D02*
X161461160Y-77540000D01*
D29*
X135560000Y-73210000D02*
X136500000Y-74150000D01*
X134500000Y-73210000D02*
X135560000Y-73210000D01*
X136500000Y-74150000D02*
X138000000Y-74150000D01*
X144150000Y-74150000D02*
X145000000Y-75000000D01*
X140750000Y-74050000D02*
X140850000Y-74150000D01*
X140750000Y-73350000D02*
X140750000Y-74050000D01*
X140850000Y-74150000D02*
X144150000Y-74150000D01*
X138000000Y-74150000D02*
X140850000Y-74150000D01*
D33*
X149040000Y-77540000D02*
X150000000Y-77540000D01*
X146500000Y-75000000D02*
X149040000Y-77540000D01*
X145000000Y-75000000D02*
X146500000Y-75000000D01*
D29*
%TO.N,Net-(C8-Pad1)*%
X135530000Y-77020000D02*
X136500000Y-76050000D01*
X134500000Y-77020000D02*
X135530000Y-77020000D01*
X136500000Y-76050000D02*
X138000000Y-76050000D01*
X133513998Y-77020000D02*
X134500000Y-77020000D01*
X129000000Y-72506002D02*
X133513998Y-77020000D01*
X129000000Y-66550000D02*
X129000000Y-72506002D01*
X128700000Y-66250000D02*
X129000000Y-66550000D01*
D34*
%TO.N,Net-(C13-Pad2)*%
X207500000Y-97000000D02*
X207500000Y-70000000D01*
X203250000Y-101250000D02*
X207500000Y-97000000D01*
%TO.N,Net-(C13-Pad1)*%
X203250000Y-65750000D02*
X204080000Y-64920000D01*
X203250000Y-78750000D02*
X203250000Y-65750000D01*
X204080000Y-64920000D02*
X207500000Y-64920000D01*
D33*
%TO.N,Net-(C15-Pad2)*%
X171541160Y-112540000D02*
X175000000Y-115998840D01*
X150000000Y-112540000D02*
X171541160Y-112540000D01*
D29*
X138000000Y-109150000D02*
X136500000Y-109150000D01*
X135640000Y-108290000D02*
X136500000Y-109150000D01*
X134428000Y-108290000D02*
X135640000Y-108290000D01*
X138000000Y-109150000D02*
X139800000Y-109150000D01*
X144150000Y-109150000D02*
X145000000Y-110000000D01*
X140750000Y-109050000D02*
X140850000Y-109150000D01*
X140750000Y-108350000D02*
X140750000Y-109050000D01*
X140850000Y-109150000D02*
X144150000Y-109150000D01*
X139800000Y-109150000D02*
X140850000Y-109150000D01*
D33*
X149040000Y-112540000D02*
X150000000Y-112540000D01*
X146500000Y-110000000D02*
X149040000Y-112540000D01*
X145000000Y-110000000D02*
X146500000Y-110000000D01*
D29*
%TO.N,Net-(C15-Pad1)*%
X136270000Y-107020000D02*
X136500000Y-107250000D01*
X134428000Y-107020000D02*
X136270000Y-107020000D01*
X136500000Y-107250000D02*
X138000000Y-107250000D01*
X132817000Y-107020000D02*
X134428000Y-107020000D01*
X131750000Y-105953000D02*
X132817000Y-107020000D01*
X131750000Y-102500000D02*
X131750000Y-105953000D01*
%TO.N,Net-(C17-Pad1)*%
X135450000Y-112100000D02*
X136500000Y-111050000D01*
X134428000Y-112100000D02*
X135450000Y-112100000D01*
X136500000Y-111050000D02*
X138000000Y-111050000D01*
X132817000Y-112100000D02*
X134428000Y-112100000D01*
X129000000Y-108283000D02*
X132817000Y-112100000D01*
X129000000Y-101550000D02*
X129000000Y-108283000D01*
X128700000Y-101250000D02*
X129000000Y-101550000D01*
D31*
%TO.N,/Rx*%
X120810000Y-84650000D02*
X121000000Y-84460000D01*
X116250000Y-84650000D02*
X120810000Y-84650000D01*
X112400000Y-84650000D02*
X110250000Y-82500000D01*
X116250000Y-84650000D02*
X112400000Y-84650000D01*
%TO.N,/Ext_Tx*%
X107750000Y-92620000D02*
X110250000Y-90120000D01*
X107750000Y-95750000D02*
X107750000Y-92620000D01*
%TD*%
D35*
%TO.N,Net-(C19-Pad1)*%
X191023000Y-99873000D02*
X174127000Y-99873000D01*
X174127000Y-98127000D01*
X188750000Y-98127000D01*
X188774776Y-98124560D01*
X188798601Y-98117333D01*
X188820557Y-98105597D01*
X188839803Y-98089803D01*
X188855597Y-98070557D01*
X188867917Y-98047167D01*
X189335984Y-96877000D01*
X191023000Y-96877000D01*
X191023000Y-99873000D01*
%TA.AperFunction,Conductor*%
D36*
G36*
X191023000Y-99873000D02*
G01*
X174127000Y-99873000D01*
X174127000Y-98127000D01*
X188750000Y-98127000D01*
X188774776Y-98124560D01*
X188798601Y-98117333D01*
X188820557Y-98105597D01*
X188839803Y-98089803D01*
X188855597Y-98070557D01*
X188867917Y-98047167D01*
X189335984Y-96877000D01*
X191023000Y-96877000D01*
X191023000Y-99873000D01*
G37*
%TD.AperFunction*%
%TD*%
D35*
%TO.N,Net-(C10-Pad1)*%
X191023000Y-83123000D02*
X189359407Y-83123000D01*
X188867092Y-81950821D01*
X188855248Y-81928923D01*
X188839359Y-81909756D01*
X188820036Y-81894057D01*
X188798022Y-81882429D01*
X188774162Y-81875320D01*
X188750000Y-81873000D01*
X174127000Y-81873000D01*
X174127000Y-80127000D01*
X191023000Y-80127000D01*
X191023000Y-83123000D01*
%TA.AperFunction,Conductor*%
D36*
G36*
X191023000Y-83123000D02*
G01*
X189359407Y-83123000D01*
X188867092Y-81950821D01*
X188855248Y-81928923D01*
X188839359Y-81909756D01*
X188820036Y-81894057D01*
X188798022Y-81882429D01*
X188774162Y-81875320D01*
X188750000Y-81873000D01*
X174127000Y-81873000D01*
X174127000Y-80127000D01*
X191023000Y-80127000D01*
X191023000Y-83123000D01*
G37*
%TD.AperFunction*%
%TD*%
D35*
%TO.N,Net-(C13-Pad2)*%
X193623000Y-100000000D02*
X193625440Y-100024776D01*
X193632667Y-100048601D01*
X193644403Y-100070557D01*
X193660197Y-100089803D01*
X193679443Y-100105597D01*
X193701399Y-100117333D01*
X193725224Y-100124560D01*
X193750000Y-100127000D01*
X204373000Y-100127000D01*
X204373000Y-102373000D01*
X191977000Y-102373000D01*
X191977000Y-96877000D01*
X193623000Y-96877000D01*
X193623000Y-100000000D01*
%TA.AperFunction,Conductor*%
D36*
G36*
X193623000Y-100000000D02*
G01*
X193625440Y-100024776D01*
X193632667Y-100048601D01*
X193644403Y-100070557D01*
X193660197Y-100089803D01*
X193679443Y-100105597D01*
X193701399Y-100117333D01*
X193725224Y-100124560D01*
X193750000Y-100127000D01*
X204373000Y-100127000D01*
X204373000Y-102373000D01*
X191977000Y-102373000D01*
X191977000Y-96877000D01*
X193623000Y-96877000D01*
X193623000Y-100000000D01*
G37*
%TD.AperFunction*%
%TD*%
D35*
%TO.N,Net-(C13-Pad1)*%
X204373000Y-79873000D02*
X193750000Y-79873000D01*
X193725224Y-79875440D01*
X193701399Y-79882667D01*
X193679443Y-79894403D01*
X193660197Y-79910197D01*
X193644403Y-79929443D01*
X193632667Y-79951399D01*
X193625440Y-79975224D01*
X193623000Y-80000000D01*
X193623000Y-83123000D01*
X191977000Y-83123000D01*
X191977000Y-77627000D01*
X204373000Y-77627000D01*
X204373000Y-79873000D01*
%TA.AperFunction,Conductor*%
D36*
G36*
X204373000Y-79873000D02*
G01*
X193750000Y-79873000D01*
X193725224Y-79875440D01*
X193701399Y-79882667D01*
X193679443Y-79894403D01*
X193660197Y-79910197D01*
X193644403Y-79929443D01*
X193632667Y-79951399D01*
X193625440Y-79975224D01*
X193623000Y-80000000D01*
X193623000Y-83123000D01*
X191977000Y-83123000D01*
X191977000Y-77627000D01*
X204373000Y-77627000D01*
X204373000Y-79873000D01*
G37*
%TD.AperFunction*%
%TD*%
M02*
