%TF.GenerationSoftware,KiCad,Pcbnew,(5.1.10)-1*%
%TF.CreationDate,2022-06-03T10:18:56+01:00*%
%TF.ProjectId,GTI_V3,4754495f-5633-42e6-9b69-6361645f7063,rev?*%
%TF.SameCoordinates,Original*%
%TF.FileFunction,Soldermask,Bot*%
%TF.FilePolarity,Negative*%
%FSLAX46Y46*%
G04 Gerber Fmt 4.6, Leading zero omitted, Abs format (unit mm)*
G04 Created by KiCad (PCBNEW (5.1.10)-1) date 2022-06-03 10:18:56*
%MOMM*%
%LPD*%
G01*
G04 APERTURE LIST*
%ADD10R,1.200000X0.900000*%
%ADD11C,3.200000*%
%ADD12R,1.500000X1.300000*%
%ADD13R,1.500000X1.250000*%
%ADD14R,1.700000X1.700000*%
%ADD15O,1.700000X1.700000*%
%ADD16R,0.900000X1.200000*%
%ADD17R,0.750000X1.200000*%
%ADD18O,1.600000X1.600000*%
%ADD19R,1.600000X1.600000*%
%ADD20R,3.000000X3.000000*%
%ADD21C,3.000000*%
%ADD22R,1.200000X0.750000*%
%ADD23R,6.350000X2.400000*%
%ADD24C,2.400000*%
%ADD25R,2.400000X6.350000*%
%ADD26R,1.300000X1.500000*%
%ADD27O,1.800000X1.800000*%
%ADD28R,1.800000X1.800000*%
%ADD29C,2.999740*%
G04 APERTURE END LIST*
D10*
%TO.C,R31*%
X124150000Y-92500000D03*
X126350000Y-92500000D03*
%TD*%
D11*
%TO.C,REF\u002A\u002A*%
X105000000Y-115000000D03*
%TD*%
%TO.C,REF\u002A\u002A*%
X105000000Y-65000000D03*
%TD*%
%TO.C,REF\u002A\u002A*%
X198000000Y-72000000D03*
%TD*%
%TO.C,REF\u002A\u002A*%
X198000000Y-108000000D03*
%TD*%
D12*
%TO.C,R25*%
X142600000Y-107500000D03*
X139900000Y-107500000D03*
%TD*%
%TO.C,R22*%
X152400000Y-112500000D03*
X155100000Y-112500000D03*
%TD*%
%TO.C,R7*%
X142600000Y-72500000D03*
X139900000Y-72500000D03*
%TD*%
%TO.C,R4*%
X152400000Y-77500000D03*
X155100000Y-77500000D03*
%TD*%
D13*
%TO.C,C20*%
X142500000Y-110000000D03*
X140000000Y-110000000D03*
%TD*%
%TO.C,C14*%
X152500000Y-110000000D03*
X155000000Y-110000000D03*
%TD*%
%TO.C,C11*%
X142500000Y-75000000D03*
X140000000Y-75000000D03*
%TD*%
%TO.C,C4*%
X152500000Y-75000000D03*
X155000000Y-75000000D03*
%TD*%
D14*
%TO.C,J8*%
X121000000Y-92440000D03*
D15*
X121000000Y-94980000D03*
%TD*%
D12*
%TO.C,R36*%
X203350000Y-115000000D03*
X200650000Y-115000000D03*
%TD*%
%TO.C,R35*%
X198350000Y-115000000D03*
X195650000Y-115000000D03*
%TD*%
%TO.C,R34*%
X193350000Y-115000000D03*
X190650000Y-115000000D03*
%TD*%
%TO.C,R33*%
X188350000Y-115000000D03*
X185650000Y-115000000D03*
%TD*%
D16*
%TO.C,R32*%
X185500000Y-110650000D03*
X185500000Y-112850000D03*
%TD*%
D17*
%TO.C,C27*%
X183500000Y-112700000D03*
X183500000Y-110800000D03*
%TD*%
D14*
%TO.C,J3*%
X121000000Y-64380000D03*
D15*
X121000000Y-66920000D03*
X121000000Y-69460000D03*
X121000000Y-72000000D03*
X121000000Y-74540000D03*
X121000000Y-77080000D03*
X121000000Y-79620000D03*
%TD*%
D18*
%TO.C,U6*%
X105170000Y-101250000D03*
X112790000Y-108870000D03*
X107710000Y-101250000D03*
X110250000Y-108870000D03*
X110250000Y-101250000D03*
X107710000Y-108870000D03*
X112790000Y-101250000D03*
D19*
X105170000Y-108870000D03*
%TD*%
D18*
%TO.C,U5*%
X105170000Y-82500000D03*
X112790000Y-90120000D03*
X107710000Y-82500000D03*
X110250000Y-90120000D03*
X110250000Y-82500000D03*
X107710000Y-90120000D03*
X112790000Y-82500000D03*
D19*
X105170000Y-90120000D03*
%TD*%
D10*
%TO.C,R30*%
X112600000Y-106750000D03*
X110400000Y-106750000D03*
%TD*%
%TO.C,R29*%
X108600000Y-99000000D03*
X106400000Y-99000000D03*
%TD*%
%TO.C,R28*%
X107350000Y-92500000D03*
X105150000Y-92500000D03*
%TD*%
D14*
%TO.C,J7*%
X105210000Y-95750000D03*
D15*
X107750000Y-95750000D03*
X110290000Y-95750000D03*
X112830000Y-95750000D03*
%TD*%
D20*
%TO.C,J5*%
X207500000Y-70000000D03*
D21*
X207500000Y-64920000D03*
%TD*%
D14*
%TO.C,J4*%
X121000000Y-87290000D03*
D15*
X121000000Y-84750000D03*
%TD*%
D20*
%TO.C,J2*%
X207000000Y-115000000D03*
D21*
X207000000Y-109920000D03*
%TD*%
D20*
%TO.C,J1*%
X105000000Y-72000000D03*
D21*
X105000000Y-77080000D03*
%TD*%
D22*
%TO.C,C26*%
X108050000Y-103250000D03*
X109950000Y-103250000D03*
%TD*%
%TO.C,C22*%
X108050000Y-84500000D03*
X109950000Y-84500000D03*
%TD*%
D23*
%TO.C,C10*%
X181000000Y-81000000D03*
X181000000Y-74000000D03*
%TD*%
D24*
%TO.C,C13*%
X203250000Y-101250000D03*
X203250000Y-78750000D03*
%TD*%
D23*
%TO.C,C19*%
X181000000Y-106000000D03*
X181000000Y-99000000D03*
%TD*%
D24*
%TO.C,C23*%
X171250000Y-90000000D03*
X143750000Y-90000000D03*
%TD*%
D25*
%TO.C,C24*%
X151000000Y-66000000D03*
X144000000Y-66000000D03*
%TD*%
%TO.C,C25*%
X144000000Y-101000000D03*
X151000000Y-101000000D03*
%TD*%
D14*
%TO.C,J6*%
X121000000Y-100000000D03*
D15*
X121000000Y-102540000D03*
X121000000Y-105080000D03*
X121000000Y-107620000D03*
X121000000Y-110160000D03*
X121000000Y-112700000D03*
X121000000Y-115240000D03*
%TD*%
D12*
%TO.C,R18*%
X206050000Y-101250000D03*
X208750000Y-101250000D03*
%TD*%
D26*
%TO.C,R17*%
X208750000Y-99000000D03*
X208750000Y-96300000D03*
%TD*%
%TO.C,R16*%
X208750000Y-93850000D03*
X208750000Y-91150000D03*
%TD*%
D12*
%TO.C,R15*%
X206500000Y-91250000D03*
X203800000Y-91250000D03*
%TD*%
%TO.C,R13*%
X206050000Y-78750000D03*
X208750000Y-78750000D03*
%TD*%
D26*
%TO.C,R12*%
X208750000Y-81000000D03*
X208750000Y-83700000D03*
%TD*%
%TO.C,R11*%
X208750000Y-86000000D03*
X208750000Y-88700000D03*
%TD*%
D12*
%TO.C,R10*%
X206500000Y-88500000D03*
X203800000Y-88500000D03*
%TD*%
D27*
%TO.C,Q4*%
X145000000Y-107460000D03*
X145000000Y-110000000D03*
D28*
X145000000Y-112540000D03*
%TD*%
D27*
%TO.C,Q3*%
X150000000Y-112540000D03*
X150000000Y-110000000D03*
D28*
X150000000Y-107460000D03*
%TD*%
D29*
%TO.C,L2*%
X175000000Y-99001160D03*
X175000000Y-115998840D03*
%TD*%
D16*
%TO.C,R14*%
X201750000Y-93450000D03*
X201750000Y-91250000D03*
%TD*%
%TO.C,R9*%
X201750000Y-86300000D03*
X201750000Y-88500000D03*
%TD*%
D29*
%TO.C,L1*%
X175000000Y-64001160D03*
X175000000Y-80998840D03*
%TD*%
D28*
%TO.C,Q2*%
X145000000Y-77540000D03*
D27*
X145000000Y-75000000D03*
X145000000Y-72460000D03*
%TD*%
%TO.C,Q1*%
X150000000Y-77540000D03*
X150000000Y-75000000D03*
D28*
X150000000Y-72460000D03*
%TD*%
M02*
