%TF.GenerationSoftware,KiCad,Pcbnew,(5.1.10)-1*%
%TF.CreationDate,2022-06-03T10:18:56+01:00*%
%TF.ProjectId,GTI_V3,4754495f-5633-42e6-9b69-6361645f7063,rev?*%
%TF.SameCoordinates,Original*%
%TF.FileFunction,Copper,L3,Inr*%
%TF.FilePolarity,Positive*%
%FSLAX46Y46*%
G04 Gerber Fmt 4.6, Leading zero omitted, Abs format (unit mm)*
G04 Created by KiCad (PCBNEW (5.1.10)-1) date 2022-06-03 10:18:56*
%MOMM*%
%LPD*%
G01*
G04 APERTURE LIST*
%TA.AperFunction,ComponentPad*%
%ADD10R,1.700000X1.700000*%
%TD*%
%TA.AperFunction,ComponentPad*%
%ADD11O,1.700000X1.700000*%
%TD*%
%TA.AperFunction,ComponentPad*%
%ADD12O,1.600000X1.600000*%
%TD*%
%TA.AperFunction,ComponentPad*%
%ADD13R,1.600000X1.600000*%
%TD*%
%TA.AperFunction,ComponentPad*%
%ADD14R,3.000000X3.000000*%
%TD*%
%TA.AperFunction,ComponentPad*%
%ADD15C,3.000000*%
%TD*%
%TA.AperFunction,ComponentPad*%
%ADD16C,2.400000*%
%TD*%
%TA.AperFunction,ComponentPad*%
%ADD17O,1.800000X1.800000*%
%TD*%
%TA.AperFunction,ComponentPad*%
%ADD18R,1.800000X1.800000*%
%TD*%
%TA.AperFunction,ComponentPad*%
%ADD19C,2.999740*%
%TD*%
%TA.AperFunction,ViaPad*%
%ADD20C,0.800000*%
%TD*%
%TA.AperFunction,Conductor*%
%ADD21C,1.750000*%
%TD*%
%TA.AperFunction,Conductor*%
%ADD22C,0.250000*%
%TD*%
%TA.AperFunction,Conductor*%
%ADD23C,0.254000*%
%TD*%
%TA.AperFunction,Conductor*%
%ADD24C,0.100000*%
%TD*%
G04 APERTURE END LIST*
D10*
%TO.N,/VBUS_Sense*%
%TO.C,J8*%
X121000000Y-92440000D03*
D11*
%TO.N,GND*%
X121000000Y-94980000D03*
%TD*%
D10*
%TO.N,+3V3*%
%TO.C,J3*%
X121000000Y-64380000D03*
D11*
%TO.N,GND*%
X121000000Y-66920000D03*
%TO.N,Net-(IC1-Pad12)*%
X121000000Y-69460000D03*
%TO.N,Net-(IC1-Pad13)*%
X121000000Y-72000000D03*
%TO.N,Net-(IC1-Pad14)*%
X121000000Y-74540000D03*
%TO.N,/V_Sense_A*%
X121000000Y-77080000D03*
%TO.N,/I_Sense_A*%
X121000000Y-79620000D03*
%TD*%
D12*
%TO.N,/Ext_Vdd*%
%TO.C,U6*%
X105170000Y-101250000D03*
%TO.N,N/C*%
X112790000Y-108870000D03*
%TO.N,Net-(U6-Pad7)*%
X107710000Y-101250000D03*
%TO.N,Net-(R30-Pad2)*%
X110250000Y-108870000D03*
%TO.N,/Ext_Rx*%
X110250000Y-101250000D03*
%TO.N,+3V3*%
X107710000Y-108870000D03*
%TO.N,/Ext_Gnd*%
X112790000Y-101250000D03*
D13*
%TO.N,Net-(U6-Pad1)*%
X105170000Y-108870000D03*
%TD*%
D12*
%TO.N,+3V3*%
%TO.C,U5*%
X105170000Y-82500000D03*
%TO.N,N/C*%
X112790000Y-90120000D03*
%TO.N,Net-(U5-Pad7)*%
X107710000Y-82500000D03*
%TO.N,/Ext_Tx*%
X110250000Y-90120000D03*
%TO.N,/Rx*%
X110250000Y-82500000D03*
%TO.N,Net-(R28-Pad1)*%
X107710000Y-90120000D03*
%TO.N,GND*%
X112790000Y-82500000D03*
D13*
%TO.N,Net-(U5-Pad1)*%
X105170000Y-90120000D03*
%TD*%
D10*
%TO.N,/Ext_Vdd*%
%TO.C,J7*%
X105210000Y-95750000D03*
D11*
%TO.N,/Ext_Tx*%
X107750000Y-95750000D03*
%TO.N,/Ext_Rx*%
X110290000Y-95750000D03*
%TO.N,/Ext_Gnd*%
X112830000Y-95750000D03*
%TD*%
D14*
%TO.N,Net-(C13-Pad2)*%
%TO.C,J5*%
X207500000Y-70000000D03*
D15*
%TO.N,Net-(C13-Pad1)*%
X207500000Y-64920000D03*
%TD*%
D10*
%TO.N,/Tx*%
%TO.C,J4*%
X121000000Y-87290000D03*
D11*
%TO.N,/Rx*%
X121000000Y-84750000D03*
%TD*%
D14*
%TO.N,VBUS*%
%TO.C,J2*%
X207000000Y-115000000D03*
D15*
%TO.N,GND*%
X207000000Y-109920000D03*
%TD*%
D14*
%TO.N,VCC*%
%TO.C,J1*%
X105000000Y-72000000D03*
D15*
%TO.N,GND*%
X105000000Y-77080000D03*
%TD*%
D16*
%TO.N,Net-(C13-Pad2)*%
%TO.C,C13*%
X203250000Y-101250000D03*
%TO.N,Net-(C13-Pad1)*%
X203250000Y-78750000D03*
%TD*%
%TO.N,VBUS*%
%TO.C,C23*%
X171250000Y-90000000D03*
%TO.N,GND*%
X143750000Y-90000000D03*
%TD*%
D10*
%TO.N,/I_Sense_B*%
%TO.C,J6*%
X121000000Y-100000000D03*
D11*
%TO.N,/V_Sense_B*%
X121000000Y-102540000D03*
%TO.N,+3V3*%
X121000000Y-105080000D03*
%TO.N,Net-(IC2-Pad12)*%
X121000000Y-107620000D03*
%TO.N,Net-(IC2-Pad13)*%
X121000000Y-110160000D03*
%TO.N,Net-(IC2-Pad14)*%
X121000000Y-112700000D03*
%TO.N,GND*%
X121000000Y-115240000D03*
%TD*%
D17*
%TO.N,GND*%
%TO.C,Q4*%
X145000000Y-107460000D03*
%TO.N,Net-(C15-Pad2)*%
X145000000Y-110000000D03*
D18*
%TO.N,Net-(Q4-Pad1)*%
X145000000Y-112540000D03*
%TD*%
D17*
%TO.N,Net-(C15-Pad2)*%
%TO.C,Q3*%
X150000000Y-112540000D03*
%TO.N,VBUS*%
X150000000Y-110000000D03*
D18*
%TO.N,Net-(Q3-Pad1)*%
X150000000Y-107460000D03*
%TD*%
D19*
%TO.N,Net-(C19-Pad1)*%
%TO.C,L2*%
X175000000Y-99001160D03*
%TO.N,Net-(C15-Pad2)*%
X175000000Y-115998840D03*
%TD*%
%TO.N,Net-(C11-Pad1)*%
%TO.C,L1*%
X175000000Y-64001160D03*
%TO.N,Net-(C10-Pad1)*%
X175000000Y-80998840D03*
%TD*%
D18*
%TO.N,Net-(Q2-Pad1)*%
%TO.C,Q2*%
X145000000Y-77540000D03*
D17*
%TO.N,Net-(C11-Pad1)*%
X145000000Y-75000000D03*
%TO.N,GND*%
X145000000Y-72460000D03*
%TD*%
%TO.N,Net-(C11-Pad1)*%
%TO.C,Q1*%
X150000000Y-77540000D03*
%TO.N,VBUS*%
X150000000Y-75000000D03*
D18*
%TO.N,Net-(Q1-Pad1)*%
X150000000Y-72460000D03*
%TD*%
D20*
%TO.N,VBUS*%
X153000000Y-63500000D03*
X153000000Y-64500000D03*
X153000000Y-65500000D03*
X153000000Y-66500000D03*
X153000000Y-67500000D03*
X153000000Y-68500000D03*
X153000000Y-98500000D03*
X153000000Y-99500000D03*
X153000000Y-100500000D03*
X153000000Y-101500000D03*
X153000000Y-102500000D03*
X153000000Y-103500000D03*
%TO.N,+3V3*%
X193250000Y-89000000D03*
X189250000Y-91000000D03*
X110000000Y-62250000D03*
X110000000Y-63250000D03*
X126500000Y-108250000D03*
X126500000Y-78250000D03*
X126500000Y-73250000D03*
X126500000Y-69500000D03*
X126899999Y-113350001D03*
%TO.N,GNDA*%
X185500000Y-88250000D03*
%TO.N,GND*%
X124500000Y-64250000D03*
X110750000Y-67000000D03*
X182250000Y-110750000D03*
X201750000Y-95000000D03*
X201750000Y-84750000D03*
X139250000Y-112950000D03*
X139300000Y-77950000D03*
X142000000Y-63500000D03*
X142000000Y-64500000D03*
X142000000Y-65500000D03*
X142000000Y-66500000D03*
X142000000Y-67500000D03*
X142000000Y-68500000D03*
X142000000Y-98500000D03*
X142000000Y-99500000D03*
X142000000Y-100500000D03*
X142000000Y-101500000D03*
X142000000Y-102500000D03*
X142000000Y-103500000D03*
X178500000Y-104000000D03*
X179500000Y-104000000D03*
X180500000Y-104000000D03*
X181500000Y-104000000D03*
X182500000Y-104000000D03*
X183500000Y-104000000D03*
X178500000Y-75750000D03*
X179500000Y-75750000D03*
X180500000Y-75750000D03*
X181500000Y-75750000D03*
X182500000Y-75750000D03*
X183500000Y-75750000D03*
X141750000Y-77250000D03*
X141750000Y-112250000D03*
X132500000Y-113250000D03*
X132750000Y-78250000D03*
X126000000Y-104250000D03*
%TO.N,Net-(C10-Pad1)*%
X185000000Y-80250000D03*
X185000000Y-81750000D03*
X186250000Y-81000000D03*
%TO.N,/I_Sense_A*%
X187750000Y-86000000D03*
%TO.N,/I_Sense_B*%
X184000000Y-90000000D03*
%TO.N,Net-(C19-Pad1)*%
X185000000Y-98400000D03*
X185000000Y-99600000D03*
X186000000Y-99000000D03*
%TD*%
D21*
%TO.N,VBUS*%
X150000000Y-110000000D02*
X153728200Y-110000000D01*
X150000000Y-75000000D02*
X153625400Y-75000000D01*
D22*
X150000000Y-75000000D02*
X148596200Y-75000000D01*
X148596200Y-75000000D02*
X147574000Y-76022200D01*
X150000000Y-75000000D02*
X148367600Y-75000000D01*
X148367600Y-75000000D02*
X147548600Y-75819000D01*
X147548600Y-75819000D02*
X147548600Y-79756000D01*
X150000000Y-75000000D02*
X148152000Y-75000000D01*
X148152000Y-75000000D02*
X147472400Y-74320400D01*
X147472400Y-74320400D02*
X147472400Y-69773800D01*
X150000000Y-110000000D02*
X148622800Y-110000000D01*
X148622800Y-110000000D02*
X147574000Y-111048800D01*
X147574000Y-111048800D02*
X147574000Y-114554000D01*
X150000000Y-110000000D02*
X148100000Y-110000000D01*
X148100000Y-110000000D02*
X147472400Y-109372400D01*
X147472400Y-109372400D02*
X147472400Y-105156000D01*
%TD*%
D23*
%TO.N,VBUS*%
X141039855Y-61703696D02*
X140707863Y-61925526D01*
X140425526Y-62207863D01*
X140203696Y-62539855D01*
X140050896Y-62908746D01*
X139973000Y-63300358D01*
X139973000Y-63699642D01*
X140032745Y-64000000D01*
X139973000Y-64300358D01*
X139973000Y-64699642D01*
X140032745Y-65000000D01*
X139973000Y-65300358D01*
X139973000Y-65699642D01*
X140032745Y-66000000D01*
X139973000Y-66300358D01*
X139973000Y-66699642D01*
X140032745Y-67000000D01*
X139973000Y-67300358D01*
X139973000Y-67699642D01*
X140032745Y-68000000D01*
X139973000Y-68300358D01*
X139973000Y-68699642D01*
X140050896Y-69091254D01*
X140203696Y-69460145D01*
X140425526Y-69792137D01*
X140707863Y-70074474D01*
X141039855Y-70296304D01*
X141408746Y-70449104D01*
X141800358Y-70527000D01*
X142199642Y-70527000D01*
X142591254Y-70449104D01*
X142960145Y-70296304D01*
X143292137Y-70074474D01*
X143574474Y-69792137D01*
X143796304Y-69460145D01*
X143949104Y-69091254D01*
X144027000Y-68699642D01*
X144027000Y-68300358D01*
X143967255Y-68000000D01*
X144027000Y-67699642D01*
X144027000Y-67300358D01*
X143967255Y-67000000D01*
X144027000Y-66699642D01*
X144027000Y-66300358D01*
X143967255Y-66000000D01*
X144027000Y-65699642D01*
X144027000Y-65300358D01*
X143967255Y-65000000D01*
X144027000Y-64699642D01*
X144027000Y-64300358D01*
X143967255Y-64000000D01*
X144027000Y-63699642D01*
X144027000Y-63300358D01*
X143949104Y-62908746D01*
X143796304Y-62539855D01*
X143574474Y-62207863D01*
X143292137Y-61925526D01*
X142960145Y-61703696D01*
X142895695Y-61677000D01*
X172902097Y-61677000D01*
X172571201Y-62007896D01*
X172229003Y-62520031D01*
X171993293Y-63089086D01*
X171873130Y-63693190D01*
X171873130Y-64309130D01*
X171993293Y-64913234D01*
X172229003Y-65482289D01*
X172571201Y-65994424D01*
X173006736Y-66429959D01*
X173518871Y-66772157D01*
X174087926Y-67007867D01*
X174692030Y-67128030D01*
X175307970Y-67128030D01*
X175912074Y-67007867D01*
X176481129Y-66772157D01*
X176993264Y-66429959D01*
X177428799Y-65994424D01*
X177770997Y-65482289D01*
X178006707Y-64913234D01*
X178126870Y-64309130D01*
X178126870Y-63693190D01*
X178006707Y-63089086D01*
X177770997Y-62520031D01*
X177428799Y-62007896D01*
X177097903Y-61677000D01*
X183873000Y-61677000D01*
X183873000Y-73757483D01*
X183699642Y-73723000D01*
X183300358Y-73723000D01*
X183000000Y-73782745D01*
X182699642Y-73723000D01*
X182300358Y-73723000D01*
X182000000Y-73782745D01*
X181699642Y-73723000D01*
X181300358Y-73723000D01*
X181000000Y-73782745D01*
X180699642Y-73723000D01*
X180300358Y-73723000D01*
X180000000Y-73782745D01*
X179699642Y-73723000D01*
X179300358Y-73723000D01*
X179000000Y-73782745D01*
X178699642Y-73723000D01*
X178300358Y-73723000D01*
X177908746Y-73800896D01*
X177539855Y-73953696D01*
X177207863Y-74175526D01*
X176925526Y-74457863D01*
X176703696Y-74789855D01*
X176550896Y-75158746D01*
X176473000Y-75550358D01*
X176473000Y-75949642D01*
X176550896Y-76341254D01*
X176703696Y-76710145D01*
X176925526Y-77042137D01*
X177207863Y-77324474D01*
X177539855Y-77546304D01*
X177908746Y-77699104D01*
X178300358Y-77777000D01*
X178699642Y-77777000D01*
X179000000Y-77717255D01*
X179300358Y-77777000D01*
X179699642Y-77777000D01*
X180000000Y-77717255D01*
X180300358Y-77777000D01*
X180699642Y-77777000D01*
X181000000Y-77717255D01*
X181300358Y-77777000D01*
X181699642Y-77777000D01*
X182000000Y-77717255D01*
X182300358Y-77777000D01*
X182699642Y-77777000D01*
X183000000Y-77717255D01*
X183300358Y-77777000D01*
X183699642Y-77777000D01*
X183873000Y-77742517D01*
X183873000Y-78565185D01*
X183707863Y-78675526D01*
X183425526Y-78957863D01*
X183203696Y-79289855D01*
X183050896Y-79658746D01*
X182973000Y-80050358D01*
X182973000Y-80449642D01*
X183050896Y-80841254D01*
X183116651Y-81000000D01*
X183050896Y-81158746D01*
X182973000Y-81550358D01*
X182973000Y-81949642D01*
X183050896Y-82341254D01*
X183203696Y-82710145D01*
X183425526Y-83042137D01*
X183707863Y-83324474D01*
X183873000Y-83434815D01*
X183873000Y-87036474D01*
X183703696Y-87289855D01*
X183550896Y-87658746D01*
X183475536Y-88037611D01*
X183408746Y-88050896D01*
X183039855Y-88203696D01*
X182707863Y-88425526D01*
X182425526Y-88707863D01*
X182203696Y-89039855D01*
X182050896Y-89408746D01*
X181973000Y-89800358D01*
X181973000Y-90199642D01*
X182050896Y-90591254D01*
X182203696Y-90960145D01*
X182425526Y-91292137D01*
X182707863Y-91574474D01*
X183039855Y-91796304D01*
X183408746Y-91949104D01*
X183800358Y-92027000D01*
X183873000Y-92027000D01*
X183873000Y-96715185D01*
X183707863Y-96825526D01*
X183425526Y-97107863D01*
X183203696Y-97439855D01*
X183050896Y-97808746D01*
X182973000Y-98200358D01*
X182973000Y-98599642D01*
X183050896Y-98991254D01*
X183054519Y-99000000D01*
X183050896Y-99008746D01*
X182973000Y-99400358D01*
X182973000Y-99799642D01*
X183050896Y-100191254D01*
X183203696Y-100560145D01*
X183425526Y-100892137D01*
X183707863Y-101174474D01*
X183873000Y-101284815D01*
X183873000Y-102007483D01*
X183699642Y-101973000D01*
X183300358Y-101973000D01*
X183000000Y-102032745D01*
X182699642Y-101973000D01*
X182300358Y-101973000D01*
X182000000Y-102032745D01*
X181699642Y-101973000D01*
X181300358Y-101973000D01*
X181000000Y-102032745D01*
X180699642Y-101973000D01*
X180300358Y-101973000D01*
X180000000Y-102032745D01*
X179699642Y-101973000D01*
X179300358Y-101973000D01*
X179000000Y-102032745D01*
X178699642Y-101973000D01*
X178300358Y-101973000D01*
X177908746Y-102050896D01*
X177539855Y-102203696D01*
X177207863Y-102425526D01*
X176925526Y-102707863D01*
X176703696Y-103039855D01*
X176550896Y-103408746D01*
X176473000Y-103800358D01*
X176473000Y-104199642D01*
X176550896Y-104591254D01*
X176703696Y-104960145D01*
X176925526Y-105292137D01*
X177207863Y-105574474D01*
X177539855Y-105796304D01*
X177908746Y-105949104D01*
X178300358Y-106027000D01*
X178699642Y-106027000D01*
X179000000Y-105967255D01*
X179300358Y-106027000D01*
X179699642Y-106027000D01*
X180000000Y-105967255D01*
X180300358Y-106027000D01*
X180699642Y-106027000D01*
X181000000Y-105967255D01*
X181300358Y-106027000D01*
X181699642Y-106027000D01*
X182000000Y-105967255D01*
X182300358Y-106027000D01*
X182699642Y-106027000D01*
X183000000Y-105967255D01*
X183300358Y-106027000D01*
X183699642Y-106027000D01*
X183873000Y-105992517D01*
X183873000Y-109530487D01*
X183824474Y-109457863D01*
X183542137Y-109175526D01*
X183210145Y-108953696D01*
X182841254Y-108800896D01*
X182449642Y-108723000D01*
X182050358Y-108723000D01*
X181658746Y-108800896D01*
X181289855Y-108953696D01*
X180957863Y-109175526D01*
X180675526Y-109457863D01*
X180453696Y-109789855D01*
X180300896Y-110158746D01*
X180223000Y-110550358D01*
X180223000Y-110949642D01*
X180300896Y-111341254D01*
X180453696Y-111710145D01*
X180675526Y-112042137D01*
X180957863Y-112324474D01*
X181289855Y-112546304D01*
X181658746Y-112699104D01*
X182050358Y-112777000D01*
X182449642Y-112777000D01*
X182841254Y-112699104D01*
X183210145Y-112546304D01*
X183542137Y-112324474D01*
X183824474Y-112042137D01*
X183873000Y-111969513D01*
X183873000Y-113000000D01*
X183875440Y-113024776D01*
X183882667Y-113048601D01*
X183894403Y-113070557D01*
X183910197Y-113089803D01*
X183929443Y-113105597D01*
X183951399Y-113117333D01*
X183975224Y-113124560D01*
X184000000Y-113127000D01*
X209873000Y-113127000D01*
X209873000Y-118323000D01*
X177097903Y-118323000D01*
X177428799Y-117992104D01*
X177770997Y-117479969D01*
X178006707Y-116910914D01*
X178126870Y-116306810D01*
X178126870Y-115690870D01*
X178006707Y-115086766D01*
X177770997Y-114517711D01*
X177428799Y-114005576D01*
X176993264Y-113570041D01*
X176481129Y-113227843D01*
X175912074Y-112992133D01*
X175307970Y-112871970D01*
X174692030Y-112871970D01*
X174087926Y-112992133D01*
X173518871Y-113227843D01*
X173006736Y-113570041D01*
X172571201Y-114005576D01*
X172229003Y-114517711D01*
X171993293Y-115086766D01*
X171873130Y-115690870D01*
X171873130Y-116306810D01*
X171993293Y-116910914D01*
X172229003Y-117479969D01*
X172571201Y-117992104D01*
X172902097Y-118323000D01*
X133127000Y-118323000D01*
X133127000Y-115184297D01*
X133460145Y-115046304D01*
X133792137Y-114824474D01*
X134074474Y-114542137D01*
X134296304Y-114210145D01*
X134449104Y-113841254D01*
X134527000Y-113449642D01*
X134527000Y-113050358D01*
X134467327Y-112750358D01*
X137223000Y-112750358D01*
X137223000Y-113149642D01*
X137300896Y-113541254D01*
X137453696Y-113910145D01*
X137675526Y-114242137D01*
X137957863Y-114524474D01*
X138289855Y-114746304D01*
X138658746Y-114899104D01*
X139050358Y-114977000D01*
X139449642Y-114977000D01*
X139841254Y-114899104D01*
X140210145Y-114746304D01*
X140542137Y-114524474D01*
X140824474Y-114242137D01*
X140919456Y-114099987D01*
X141158746Y-114199104D01*
X141550358Y-114277000D01*
X141949642Y-114277000D01*
X142341254Y-114199104D01*
X142602970Y-114090698D01*
X142740654Y-114348286D01*
X142943971Y-114596029D01*
X143191714Y-114799346D01*
X143474362Y-114950425D01*
X143781052Y-115043458D01*
X144100000Y-115074872D01*
X145900000Y-115074872D01*
X146218948Y-115043458D01*
X146525638Y-114950425D01*
X146808286Y-114799346D01*
X147056029Y-114596029D01*
X147259346Y-114348286D01*
X147410425Y-114065638D01*
X147503458Y-113758948D01*
X147534872Y-113440000D01*
X147534872Y-113099940D01*
X147570111Y-113277099D01*
X147760602Y-113736983D01*
X148037151Y-114150869D01*
X148389131Y-114502849D01*
X148803017Y-114779398D01*
X149262901Y-114969889D01*
X149751112Y-115067000D01*
X150248888Y-115067000D01*
X150737099Y-114969889D01*
X151196983Y-114779398D01*
X151610869Y-114502849D01*
X151962849Y-114150869D01*
X152239398Y-113736983D01*
X152429889Y-113277099D01*
X152527000Y-112788888D01*
X152527000Y-112291112D01*
X152429889Y-111802901D01*
X152239398Y-111343017D01*
X151962849Y-110929131D01*
X151610869Y-110577151D01*
X151196983Y-110300602D01*
X150737099Y-110110111D01*
X150248888Y-110013000D01*
X149751112Y-110013000D01*
X149262901Y-110110111D01*
X148803017Y-110300602D01*
X148389131Y-110577151D01*
X148037151Y-110929131D01*
X147760602Y-111343017D01*
X147570111Y-111802901D01*
X147534872Y-111980060D01*
X147534872Y-111640000D01*
X147503458Y-111321052D01*
X147410425Y-111014362D01*
X147356687Y-110913825D01*
X147429889Y-110737099D01*
X147527000Y-110248888D01*
X147527000Y-109751112D01*
X147429889Y-109262901D01*
X147239398Y-108803017D01*
X147190610Y-108730000D01*
X147239398Y-108656983D01*
X147429889Y-108197099D01*
X147465128Y-108019940D01*
X147465128Y-108360000D01*
X147496542Y-108678948D01*
X147589575Y-108985638D01*
X147740654Y-109268286D01*
X147943971Y-109516029D01*
X148191714Y-109719346D01*
X148474362Y-109870425D01*
X148781052Y-109963458D01*
X149100000Y-109994872D01*
X150900000Y-109994872D01*
X151218948Y-109963458D01*
X151525638Y-109870425D01*
X151808286Y-109719346D01*
X152056029Y-109516029D01*
X152259346Y-109268286D01*
X152410425Y-108985638D01*
X152503458Y-108678948D01*
X152534872Y-108360000D01*
X152534872Y-106560000D01*
X152503458Y-106241052D01*
X152410425Y-105934362D01*
X152259346Y-105651714D01*
X152056029Y-105403971D01*
X151808286Y-105200654D01*
X151525638Y-105049575D01*
X151218948Y-104956542D01*
X150900000Y-104925128D01*
X149100000Y-104925128D01*
X148781052Y-104956542D01*
X148474362Y-105049575D01*
X148191714Y-105200654D01*
X147943971Y-105403971D01*
X147740654Y-105651714D01*
X147589575Y-105934362D01*
X147496542Y-106241052D01*
X147465128Y-106560000D01*
X147465128Y-106900060D01*
X147429889Y-106722901D01*
X147239398Y-106263017D01*
X146962849Y-105849131D01*
X146610869Y-105497151D01*
X146196983Y-105220602D01*
X145737099Y-105030111D01*
X145248888Y-104933000D01*
X144751112Y-104933000D01*
X144262901Y-105030111D01*
X143803017Y-105220602D01*
X143389131Y-105497151D01*
X143037151Y-105849131D01*
X142760602Y-106263017D01*
X142570111Y-106722901D01*
X142473000Y-107211112D01*
X142473000Y-107708888D01*
X142570111Y-108197099D01*
X142760602Y-108656983D01*
X142809390Y-108730000D01*
X142760602Y-108803017D01*
X142570111Y-109262901D01*
X142473000Y-109751112D01*
X142473000Y-110248888D01*
X142496103Y-110365037D01*
X142341254Y-110300896D01*
X141949642Y-110223000D01*
X141550358Y-110223000D01*
X141158746Y-110300896D01*
X140789855Y-110453696D01*
X140457863Y-110675526D01*
X140175526Y-110957863D01*
X140080544Y-111100013D01*
X139841254Y-111000896D01*
X139449642Y-110923000D01*
X139050358Y-110923000D01*
X138658746Y-111000896D01*
X138289855Y-111153696D01*
X137957863Y-111375526D01*
X137675526Y-111657863D01*
X137453696Y-111989855D01*
X137300896Y-112358746D01*
X137223000Y-112750358D01*
X134467327Y-112750358D01*
X134449104Y-112658746D01*
X134296304Y-112289855D01*
X134074474Y-111957863D01*
X133792137Y-111675526D01*
X133460145Y-111453696D01*
X133127000Y-111315703D01*
X133127000Y-98300358D01*
X139973000Y-98300358D01*
X139973000Y-98699642D01*
X140032745Y-99000000D01*
X139973000Y-99300358D01*
X139973000Y-99699642D01*
X140032745Y-100000000D01*
X139973000Y-100300358D01*
X139973000Y-100699642D01*
X140032745Y-101000000D01*
X139973000Y-101300358D01*
X139973000Y-101699642D01*
X140032745Y-102000000D01*
X139973000Y-102300358D01*
X139973000Y-102699642D01*
X140032745Y-103000000D01*
X139973000Y-103300358D01*
X139973000Y-103699642D01*
X140050896Y-104091254D01*
X140203696Y-104460145D01*
X140425526Y-104792137D01*
X140707863Y-105074474D01*
X141039855Y-105296304D01*
X141408746Y-105449104D01*
X141800358Y-105527000D01*
X142199642Y-105527000D01*
X142591254Y-105449104D01*
X142960145Y-105296304D01*
X143292137Y-105074474D01*
X143574474Y-104792137D01*
X143796304Y-104460145D01*
X143949104Y-104091254D01*
X144027000Y-103699642D01*
X144027000Y-103300358D01*
X143967255Y-103000000D01*
X144027000Y-102699642D01*
X144027000Y-102300358D01*
X143967255Y-102000000D01*
X144027000Y-101699642D01*
X144027000Y-101300358D01*
X143967255Y-101000000D01*
X144027000Y-100699642D01*
X144027000Y-100300358D01*
X143967255Y-100000000D01*
X144027000Y-99699642D01*
X144027000Y-99300358D01*
X143967255Y-99000000D01*
X144027000Y-98699642D01*
X144027000Y-98693190D01*
X171873130Y-98693190D01*
X171873130Y-99309130D01*
X171993293Y-99913234D01*
X172229003Y-100482289D01*
X172571201Y-100994424D01*
X173006736Y-101429959D01*
X173518871Y-101772157D01*
X174087926Y-102007867D01*
X174692030Y-102128030D01*
X175307970Y-102128030D01*
X175912074Y-102007867D01*
X176481129Y-101772157D01*
X176993264Y-101429959D01*
X177428799Y-100994424D01*
X177770997Y-100482289D01*
X178006707Y-99913234D01*
X178126870Y-99309130D01*
X178126870Y-98693190D01*
X178006707Y-98089086D01*
X177770997Y-97520031D01*
X177428799Y-97007896D01*
X176993264Y-96572361D01*
X176481129Y-96230163D01*
X175912074Y-95994453D01*
X175307970Y-95874290D01*
X174692030Y-95874290D01*
X174087926Y-95994453D01*
X173518871Y-96230163D01*
X173006736Y-96572361D01*
X172571201Y-97007896D01*
X172229003Y-97520031D01*
X171993293Y-98089086D01*
X171873130Y-98693190D01*
X144027000Y-98693190D01*
X144027000Y-98300358D01*
X143949104Y-97908746D01*
X143796304Y-97539855D01*
X143574474Y-97207863D01*
X143292137Y-96925526D01*
X142960145Y-96703696D01*
X142591254Y-96550896D01*
X142199642Y-96473000D01*
X141800358Y-96473000D01*
X141408746Y-96550896D01*
X141039855Y-96703696D01*
X140707863Y-96925526D01*
X140425526Y-97207863D01*
X140203696Y-97539855D01*
X140050896Y-97908746D01*
X139973000Y-98300358D01*
X133127000Y-98300358D01*
X133127000Y-89721565D01*
X140923000Y-89721565D01*
X140923000Y-90278435D01*
X141031640Y-90824606D01*
X141244745Y-91339087D01*
X141554125Y-91802108D01*
X141947892Y-92195875D01*
X142410913Y-92505255D01*
X142925394Y-92718360D01*
X143471565Y-92827000D01*
X144028435Y-92827000D01*
X144574606Y-92718360D01*
X145089087Y-92505255D01*
X145552108Y-92195875D01*
X145945875Y-91802108D01*
X146255255Y-91339087D01*
X146468360Y-90824606D01*
X146577000Y-90278435D01*
X146577000Y-89721565D01*
X146468360Y-89175394D01*
X146255255Y-88660913D01*
X145945875Y-88197892D01*
X145552108Y-87804125D01*
X145089087Y-87494745D01*
X144574606Y-87281640D01*
X144028435Y-87173000D01*
X143471565Y-87173000D01*
X142925394Y-87281640D01*
X142410913Y-87494745D01*
X141947892Y-87804125D01*
X141554125Y-88197892D01*
X141244745Y-88660913D01*
X141031640Y-89175394D01*
X140923000Y-89721565D01*
X133127000Y-89721565D01*
X133127000Y-80690870D01*
X171873130Y-80690870D01*
X171873130Y-81306810D01*
X171993293Y-81910914D01*
X172229003Y-82479969D01*
X172571201Y-82992104D01*
X173006736Y-83427639D01*
X173518871Y-83769837D01*
X174087926Y-84005547D01*
X174692030Y-84125710D01*
X175307970Y-84125710D01*
X175912074Y-84005547D01*
X176481129Y-83769837D01*
X176993264Y-83427639D01*
X177428799Y-82992104D01*
X177770997Y-82479969D01*
X178006707Y-81910914D01*
X178126870Y-81306810D01*
X178126870Y-80690870D01*
X178006707Y-80086766D01*
X177770997Y-79517711D01*
X177428799Y-79005576D01*
X176993264Y-78570041D01*
X176481129Y-78227843D01*
X175912074Y-77992133D01*
X175307970Y-77871970D01*
X174692030Y-77871970D01*
X174087926Y-77992133D01*
X173518871Y-78227843D01*
X173006736Y-78570041D01*
X172571201Y-79005576D01*
X172229003Y-79517711D01*
X171993293Y-80086766D01*
X171873130Y-80690870D01*
X133127000Y-80690870D01*
X133127000Y-80241722D01*
X133341254Y-80199104D01*
X133710145Y-80046304D01*
X134042137Y-79824474D01*
X134324474Y-79542137D01*
X134546304Y-79210145D01*
X134699104Y-78841254D01*
X134777000Y-78449642D01*
X134777000Y-78050358D01*
X134717327Y-77750358D01*
X137273000Y-77750358D01*
X137273000Y-78149642D01*
X137350896Y-78541254D01*
X137503696Y-78910145D01*
X137725526Y-79242137D01*
X138007863Y-79524474D01*
X138339855Y-79746304D01*
X138708746Y-79899104D01*
X139100358Y-79977000D01*
X139499642Y-79977000D01*
X139891254Y-79899104D01*
X140260145Y-79746304D01*
X140592137Y-79524474D01*
X140874474Y-79242137D01*
X140958617Y-79116208D01*
X141158746Y-79199104D01*
X141550358Y-79277000D01*
X141949642Y-79277000D01*
X142341254Y-79199104D01*
X142602970Y-79090698D01*
X142740654Y-79348286D01*
X142943971Y-79596029D01*
X143191714Y-79799346D01*
X143474362Y-79950425D01*
X143781052Y-80043458D01*
X144100000Y-80074872D01*
X145900000Y-80074872D01*
X146218948Y-80043458D01*
X146525638Y-79950425D01*
X146808286Y-79799346D01*
X147056029Y-79596029D01*
X147259346Y-79348286D01*
X147410425Y-79065638D01*
X147503458Y-78758948D01*
X147534872Y-78440000D01*
X147534872Y-78099940D01*
X147570111Y-78277099D01*
X147760602Y-78736983D01*
X148037151Y-79150869D01*
X148389131Y-79502849D01*
X148803017Y-79779398D01*
X149262901Y-79969889D01*
X149751112Y-80067000D01*
X150248888Y-80067000D01*
X150737099Y-79969889D01*
X151196983Y-79779398D01*
X151610869Y-79502849D01*
X151962849Y-79150869D01*
X152239398Y-78736983D01*
X152429889Y-78277099D01*
X152527000Y-77788888D01*
X152527000Y-77291112D01*
X152429889Y-76802901D01*
X152239398Y-76343017D01*
X151962849Y-75929131D01*
X151610869Y-75577151D01*
X151196983Y-75300602D01*
X150737099Y-75110111D01*
X150248888Y-75013000D01*
X149751112Y-75013000D01*
X149262901Y-75110111D01*
X148803017Y-75300602D01*
X148389131Y-75577151D01*
X148037151Y-75929131D01*
X147760602Y-76343017D01*
X147570111Y-76802901D01*
X147534872Y-76980060D01*
X147534872Y-76640000D01*
X147503458Y-76321052D01*
X147410425Y-76014362D01*
X147356687Y-75913825D01*
X147429889Y-75737099D01*
X147527000Y-75248888D01*
X147527000Y-74751112D01*
X147429889Y-74262901D01*
X147239398Y-73803017D01*
X147190610Y-73730000D01*
X147239398Y-73656983D01*
X147429889Y-73197099D01*
X147465128Y-73019940D01*
X147465128Y-73360000D01*
X147496542Y-73678948D01*
X147589575Y-73985638D01*
X147740654Y-74268286D01*
X147943971Y-74516029D01*
X148191714Y-74719346D01*
X148474362Y-74870425D01*
X148781052Y-74963458D01*
X149100000Y-74994872D01*
X150900000Y-74994872D01*
X151218948Y-74963458D01*
X151525638Y-74870425D01*
X151808286Y-74719346D01*
X152056029Y-74516029D01*
X152259346Y-74268286D01*
X152410425Y-73985638D01*
X152503458Y-73678948D01*
X152534872Y-73360000D01*
X152534872Y-71560000D01*
X152503458Y-71241052D01*
X152410425Y-70934362D01*
X152259346Y-70651714D01*
X152056029Y-70403971D01*
X151808286Y-70200654D01*
X151525638Y-70049575D01*
X151218948Y-69956542D01*
X150900000Y-69925128D01*
X149100000Y-69925128D01*
X148781052Y-69956542D01*
X148474362Y-70049575D01*
X148191714Y-70200654D01*
X147943971Y-70403971D01*
X147740654Y-70651714D01*
X147589575Y-70934362D01*
X147496542Y-71241052D01*
X147465128Y-71560000D01*
X147465128Y-71900060D01*
X147429889Y-71722901D01*
X147239398Y-71263017D01*
X146962849Y-70849131D01*
X146610869Y-70497151D01*
X146196983Y-70220602D01*
X145737099Y-70030111D01*
X145248888Y-69933000D01*
X144751112Y-69933000D01*
X144262901Y-70030111D01*
X143803017Y-70220602D01*
X143389131Y-70497151D01*
X143037151Y-70849131D01*
X142760602Y-71263017D01*
X142570111Y-71722901D01*
X142473000Y-72211112D01*
X142473000Y-72708888D01*
X142570111Y-73197099D01*
X142760602Y-73656983D01*
X142809390Y-73730000D01*
X142760602Y-73803017D01*
X142570111Y-74262901D01*
X142473000Y-74751112D01*
X142473000Y-75248888D01*
X142496103Y-75365037D01*
X142341254Y-75300896D01*
X141949642Y-75223000D01*
X141550358Y-75223000D01*
X141158746Y-75300896D01*
X140789855Y-75453696D01*
X140457863Y-75675526D01*
X140175526Y-75957863D01*
X140091383Y-76083792D01*
X139891254Y-76000896D01*
X139499642Y-75923000D01*
X139100358Y-75923000D01*
X138708746Y-76000896D01*
X138339855Y-76153696D01*
X138007863Y-76375526D01*
X137725526Y-76657863D01*
X137503696Y-76989855D01*
X137350896Y-77358746D01*
X137273000Y-77750358D01*
X134717327Y-77750358D01*
X134699104Y-77658746D01*
X134546304Y-77289855D01*
X134324474Y-76957863D01*
X134042137Y-76675526D01*
X133710145Y-76453696D01*
X133341254Y-76300896D01*
X133127000Y-76258278D01*
X133127000Y-61677000D01*
X141104305Y-61677000D01*
X141039855Y-61703696D01*
%TA.AperFunction,Conductor*%
D24*
G36*
X141039855Y-61703696D02*
G01*
X140707863Y-61925526D01*
X140425526Y-62207863D01*
X140203696Y-62539855D01*
X140050896Y-62908746D01*
X139973000Y-63300358D01*
X139973000Y-63699642D01*
X140032745Y-64000000D01*
X139973000Y-64300358D01*
X139973000Y-64699642D01*
X140032745Y-65000000D01*
X139973000Y-65300358D01*
X139973000Y-65699642D01*
X140032745Y-66000000D01*
X139973000Y-66300358D01*
X139973000Y-66699642D01*
X140032745Y-67000000D01*
X139973000Y-67300358D01*
X139973000Y-67699642D01*
X140032745Y-68000000D01*
X139973000Y-68300358D01*
X139973000Y-68699642D01*
X140050896Y-69091254D01*
X140203696Y-69460145D01*
X140425526Y-69792137D01*
X140707863Y-70074474D01*
X141039855Y-70296304D01*
X141408746Y-70449104D01*
X141800358Y-70527000D01*
X142199642Y-70527000D01*
X142591254Y-70449104D01*
X142960145Y-70296304D01*
X143292137Y-70074474D01*
X143574474Y-69792137D01*
X143796304Y-69460145D01*
X143949104Y-69091254D01*
X144027000Y-68699642D01*
X144027000Y-68300358D01*
X143967255Y-68000000D01*
X144027000Y-67699642D01*
X144027000Y-67300358D01*
X143967255Y-67000000D01*
X144027000Y-66699642D01*
X144027000Y-66300358D01*
X143967255Y-66000000D01*
X144027000Y-65699642D01*
X144027000Y-65300358D01*
X143967255Y-65000000D01*
X144027000Y-64699642D01*
X144027000Y-64300358D01*
X143967255Y-64000000D01*
X144027000Y-63699642D01*
X144027000Y-63300358D01*
X143949104Y-62908746D01*
X143796304Y-62539855D01*
X143574474Y-62207863D01*
X143292137Y-61925526D01*
X142960145Y-61703696D01*
X142895695Y-61677000D01*
X172902097Y-61677000D01*
X172571201Y-62007896D01*
X172229003Y-62520031D01*
X171993293Y-63089086D01*
X171873130Y-63693190D01*
X171873130Y-64309130D01*
X171993293Y-64913234D01*
X172229003Y-65482289D01*
X172571201Y-65994424D01*
X173006736Y-66429959D01*
X173518871Y-66772157D01*
X174087926Y-67007867D01*
X174692030Y-67128030D01*
X175307970Y-67128030D01*
X175912074Y-67007867D01*
X176481129Y-66772157D01*
X176993264Y-66429959D01*
X177428799Y-65994424D01*
X177770997Y-65482289D01*
X178006707Y-64913234D01*
X178126870Y-64309130D01*
X178126870Y-63693190D01*
X178006707Y-63089086D01*
X177770997Y-62520031D01*
X177428799Y-62007896D01*
X177097903Y-61677000D01*
X183873000Y-61677000D01*
X183873000Y-73757483D01*
X183699642Y-73723000D01*
X183300358Y-73723000D01*
X183000000Y-73782745D01*
X182699642Y-73723000D01*
X182300358Y-73723000D01*
X182000000Y-73782745D01*
X181699642Y-73723000D01*
X181300358Y-73723000D01*
X181000000Y-73782745D01*
X180699642Y-73723000D01*
X180300358Y-73723000D01*
X180000000Y-73782745D01*
X179699642Y-73723000D01*
X179300358Y-73723000D01*
X179000000Y-73782745D01*
X178699642Y-73723000D01*
X178300358Y-73723000D01*
X177908746Y-73800896D01*
X177539855Y-73953696D01*
X177207863Y-74175526D01*
X176925526Y-74457863D01*
X176703696Y-74789855D01*
X176550896Y-75158746D01*
X176473000Y-75550358D01*
X176473000Y-75949642D01*
X176550896Y-76341254D01*
X176703696Y-76710145D01*
X176925526Y-77042137D01*
X177207863Y-77324474D01*
X177539855Y-77546304D01*
X177908746Y-77699104D01*
X178300358Y-77777000D01*
X178699642Y-77777000D01*
X179000000Y-77717255D01*
X179300358Y-77777000D01*
X179699642Y-77777000D01*
X180000000Y-77717255D01*
X180300358Y-77777000D01*
X180699642Y-77777000D01*
X181000000Y-77717255D01*
X181300358Y-77777000D01*
X181699642Y-77777000D01*
X182000000Y-77717255D01*
X182300358Y-77777000D01*
X182699642Y-77777000D01*
X183000000Y-77717255D01*
X183300358Y-77777000D01*
X183699642Y-77777000D01*
X183873000Y-77742517D01*
X183873000Y-78565185D01*
X183707863Y-78675526D01*
X183425526Y-78957863D01*
X183203696Y-79289855D01*
X183050896Y-79658746D01*
X182973000Y-80050358D01*
X182973000Y-80449642D01*
X183050896Y-80841254D01*
X183116651Y-81000000D01*
X183050896Y-81158746D01*
X182973000Y-81550358D01*
X182973000Y-81949642D01*
X183050896Y-82341254D01*
X183203696Y-82710145D01*
X183425526Y-83042137D01*
X183707863Y-83324474D01*
X183873000Y-83434815D01*
X183873000Y-87036474D01*
X183703696Y-87289855D01*
X183550896Y-87658746D01*
X183475536Y-88037611D01*
X183408746Y-88050896D01*
X183039855Y-88203696D01*
X182707863Y-88425526D01*
X182425526Y-88707863D01*
X182203696Y-89039855D01*
X182050896Y-89408746D01*
X181973000Y-89800358D01*
X181973000Y-90199642D01*
X182050896Y-90591254D01*
X182203696Y-90960145D01*
X182425526Y-91292137D01*
X182707863Y-91574474D01*
X183039855Y-91796304D01*
X183408746Y-91949104D01*
X183800358Y-92027000D01*
X183873000Y-92027000D01*
X183873000Y-96715185D01*
X183707863Y-96825526D01*
X183425526Y-97107863D01*
X183203696Y-97439855D01*
X183050896Y-97808746D01*
X182973000Y-98200358D01*
X182973000Y-98599642D01*
X183050896Y-98991254D01*
X183054519Y-99000000D01*
X183050896Y-99008746D01*
X182973000Y-99400358D01*
X182973000Y-99799642D01*
X183050896Y-100191254D01*
X183203696Y-100560145D01*
X183425526Y-100892137D01*
X183707863Y-101174474D01*
X183873000Y-101284815D01*
X183873000Y-102007483D01*
X183699642Y-101973000D01*
X183300358Y-101973000D01*
X183000000Y-102032745D01*
X182699642Y-101973000D01*
X182300358Y-101973000D01*
X182000000Y-102032745D01*
X181699642Y-101973000D01*
X181300358Y-101973000D01*
X181000000Y-102032745D01*
X180699642Y-101973000D01*
X180300358Y-101973000D01*
X180000000Y-102032745D01*
X179699642Y-101973000D01*
X179300358Y-101973000D01*
X179000000Y-102032745D01*
X178699642Y-101973000D01*
X178300358Y-101973000D01*
X177908746Y-102050896D01*
X177539855Y-102203696D01*
X177207863Y-102425526D01*
X176925526Y-102707863D01*
X176703696Y-103039855D01*
X176550896Y-103408746D01*
X176473000Y-103800358D01*
X176473000Y-104199642D01*
X176550896Y-104591254D01*
X176703696Y-104960145D01*
X176925526Y-105292137D01*
X177207863Y-105574474D01*
X177539855Y-105796304D01*
X177908746Y-105949104D01*
X178300358Y-106027000D01*
X178699642Y-106027000D01*
X179000000Y-105967255D01*
X179300358Y-106027000D01*
X179699642Y-106027000D01*
X180000000Y-105967255D01*
X180300358Y-106027000D01*
X180699642Y-106027000D01*
X181000000Y-105967255D01*
X181300358Y-106027000D01*
X181699642Y-106027000D01*
X182000000Y-105967255D01*
X182300358Y-106027000D01*
X182699642Y-106027000D01*
X183000000Y-105967255D01*
X183300358Y-106027000D01*
X183699642Y-106027000D01*
X183873000Y-105992517D01*
X183873000Y-109530487D01*
X183824474Y-109457863D01*
X183542137Y-109175526D01*
X183210145Y-108953696D01*
X182841254Y-108800896D01*
X182449642Y-108723000D01*
X182050358Y-108723000D01*
X181658746Y-108800896D01*
X181289855Y-108953696D01*
X180957863Y-109175526D01*
X180675526Y-109457863D01*
X180453696Y-109789855D01*
X180300896Y-110158746D01*
X180223000Y-110550358D01*
X180223000Y-110949642D01*
X180300896Y-111341254D01*
X180453696Y-111710145D01*
X180675526Y-112042137D01*
X180957863Y-112324474D01*
X181289855Y-112546304D01*
X181658746Y-112699104D01*
X182050358Y-112777000D01*
X182449642Y-112777000D01*
X182841254Y-112699104D01*
X183210145Y-112546304D01*
X183542137Y-112324474D01*
X183824474Y-112042137D01*
X183873000Y-111969513D01*
X183873000Y-113000000D01*
X183875440Y-113024776D01*
X183882667Y-113048601D01*
X183894403Y-113070557D01*
X183910197Y-113089803D01*
X183929443Y-113105597D01*
X183951399Y-113117333D01*
X183975224Y-113124560D01*
X184000000Y-113127000D01*
X209873000Y-113127000D01*
X209873000Y-118323000D01*
X177097903Y-118323000D01*
X177428799Y-117992104D01*
X177770997Y-117479969D01*
X178006707Y-116910914D01*
X178126870Y-116306810D01*
X178126870Y-115690870D01*
X178006707Y-115086766D01*
X177770997Y-114517711D01*
X177428799Y-114005576D01*
X176993264Y-113570041D01*
X176481129Y-113227843D01*
X175912074Y-112992133D01*
X175307970Y-112871970D01*
X174692030Y-112871970D01*
X174087926Y-112992133D01*
X173518871Y-113227843D01*
X173006736Y-113570041D01*
X172571201Y-114005576D01*
X172229003Y-114517711D01*
X171993293Y-115086766D01*
X171873130Y-115690870D01*
X171873130Y-116306810D01*
X171993293Y-116910914D01*
X172229003Y-117479969D01*
X172571201Y-117992104D01*
X172902097Y-118323000D01*
X133127000Y-118323000D01*
X133127000Y-115184297D01*
X133460145Y-115046304D01*
X133792137Y-114824474D01*
X134074474Y-114542137D01*
X134296304Y-114210145D01*
X134449104Y-113841254D01*
X134527000Y-113449642D01*
X134527000Y-113050358D01*
X134467327Y-112750358D01*
X137223000Y-112750358D01*
X137223000Y-113149642D01*
X137300896Y-113541254D01*
X137453696Y-113910145D01*
X137675526Y-114242137D01*
X137957863Y-114524474D01*
X138289855Y-114746304D01*
X138658746Y-114899104D01*
X139050358Y-114977000D01*
X139449642Y-114977000D01*
X139841254Y-114899104D01*
X140210145Y-114746304D01*
X140542137Y-114524474D01*
X140824474Y-114242137D01*
X140919456Y-114099987D01*
X141158746Y-114199104D01*
X141550358Y-114277000D01*
X141949642Y-114277000D01*
X142341254Y-114199104D01*
X142602970Y-114090698D01*
X142740654Y-114348286D01*
X142943971Y-114596029D01*
X143191714Y-114799346D01*
X143474362Y-114950425D01*
X143781052Y-115043458D01*
X144100000Y-115074872D01*
X145900000Y-115074872D01*
X146218948Y-115043458D01*
X146525638Y-114950425D01*
X146808286Y-114799346D01*
X147056029Y-114596029D01*
X147259346Y-114348286D01*
X147410425Y-114065638D01*
X147503458Y-113758948D01*
X147534872Y-113440000D01*
X147534872Y-113099940D01*
X147570111Y-113277099D01*
X147760602Y-113736983D01*
X148037151Y-114150869D01*
X148389131Y-114502849D01*
X148803017Y-114779398D01*
X149262901Y-114969889D01*
X149751112Y-115067000D01*
X150248888Y-115067000D01*
X150737099Y-114969889D01*
X151196983Y-114779398D01*
X151610869Y-114502849D01*
X151962849Y-114150869D01*
X152239398Y-113736983D01*
X152429889Y-113277099D01*
X152527000Y-112788888D01*
X152527000Y-112291112D01*
X152429889Y-111802901D01*
X152239398Y-111343017D01*
X151962849Y-110929131D01*
X151610869Y-110577151D01*
X151196983Y-110300602D01*
X150737099Y-110110111D01*
X150248888Y-110013000D01*
X149751112Y-110013000D01*
X149262901Y-110110111D01*
X148803017Y-110300602D01*
X148389131Y-110577151D01*
X148037151Y-110929131D01*
X147760602Y-111343017D01*
X147570111Y-111802901D01*
X147534872Y-111980060D01*
X147534872Y-111640000D01*
X147503458Y-111321052D01*
X147410425Y-111014362D01*
X147356687Y-110913825D01*
X147429889Y-110737099D01*
X147527000Y-110248888D01*
X147527000Y-109751112D01*
X147429889Y-109262901D01*
X147239398Y-108803017D01*
X147190610Y-108730000D01*
X147239398Y-108656983D01*
X147429889Y-108197099D01*
X147465128Y-108019940D01*
X147465128Y-108360000D01*
X147496542Y-108678948D01*
X147589575Y-108985638D01*
X147740654Y-109268286D01*
X147943971Y-109516029D01*
X148191714Y-109719346D01*
X148474362Y-109870425D01*
X148781052Y-109963458D01*
X149100000Y-109994872D01*
X150900000Y-109994872D01*
X151218948Y-109963458D01*
X151525638Y-109870425D01*
X151808286Y-109719346D01*
X152056029Y-109516029D01*
X152259346Y-109268286D01*
X152410425Y-108985638D01*
X152503458Y-108678948D01*
X152534872Y-108360000D01*
X152534872Y-106560000D01*
X152503458Y-106241052D01*
X152410425Y-105934362D01*
X152259346Y-105651714D01*
X152056029Y-105403971D01*
X151808286Y-105200654D01*
X151525638Y-105049575D01*
X151218948Y-104956542D01*
X150900000Y-104925128D01*
X149100000Y-104925128D01*
X148781052Y-104956542D01*
X148474362Y-105049575D01*
X148191714Y-105200654D01*
X147943971Y-105403971D01*
X147740654Y-105651714D01*
X147589575Y-105934362D01*
X147496542Y-106241052D01*
X147465128Y-106560000D01*
X147465128Y-106900060D01*
X147429889Y-106722901D01*
X147239398Y-106263017D01*
X146962849Y-105849131D01*
X146610869Y-105497151D01*
X146196983Y-105220602D01*
X145737099Y-105030111D01*
X145248888Y-104933000D01*
X144751112Y-104933000D01*
X144262901Y-105030111D01*
X143803017Y-105220602D01*
X143389131Y-105497151D01*
X143037151Y-105849131D01*
X142760602Y-106263017D01*
X142570111Y-106722901D01*
X142473000Y-107211112D01*
X142473000Y-107708888D01*
X142570111Y-108197099D01*
X142760602Y-108656983D01*
X142809390Y-108730000D01*
X142760602Y-108803017D01*
X142570111Y-109262901D01*
X142473000Y-109751112D01*
X142473000Y-110248888D01*
X142496103Y-110365037D01*
X142341254Y-110300896D01*
X141949642Y-110223000D01*
X141550358Y-110223000D01*
X141158746Y-110300896D01*
X140789855Y-110453696D01*
X140457863Y-110675526D01*
X140175526Y-110957863D01*
X140080544Y-111100013D01*
X139841254Y-111000896D01*
X139449642Y-110923000D01*
X139050358Y-110923000D01*
X138658746Y-111000896D01*
X138289855Y-111153696D01*
X137957863Y-111375526D01*
X137675526Y-111657863D01*
X137453696Y-111989855D01*
X137300896Y-112358746D01*
X137223000Y-112750358D01*
X134467327Y-112750358D01*
X134449104Y-112658746D01*
X134296304Y-112289855D01*
X134074474Y-111957863D01*
X133792137Y-111675526D01*
X133460145Y-111453696D01*
X133127000Y-111315703D01*
X133127000Y-98300358D01*
X139973000Y-98300358D01*
X139973000Y-98699642D01*
X140032745Y-99000000D01*
X139973000Y-99300358D01*
X139973000Y-99699642D01*
X140032745Y-100000000D01*
X139973000Y-100300358D01*
X139973000Y-100699642D01*
X140032745Y-101000000D01*
X139973000Y-101300358D01*
X139973000Y-101699642D01*
X140032745Y-102000000D01*
X139973000Y-102300358D01*
X139973000Y-102699642D01*
X140032745Y-103000000D01*
X139973000Y-103300358D01*
X139973000Y-103699642D01*
X140050896Y-104091254D01*
X140203696Y-104460145D01*
X140425526Y-104792137D01*
X140707863Y-105074474D01*
X141039855Y-105296304D01*
X141408746Y-105449104D01*
X141800358Y-105527000D01*
X142199642Y-105527000D01*
X142591254Y-105449104D01*
X142960145Y-105296304D01*
X143292137Y-105074474D01*
X143574474Y-104792137D01*
X143796304Y-104460145D01*
X143949104Y-104091254D01*
X144027000Y-103699642D01*
X144027000Y-103300358D01*
X143967255Y-103000000D01*
X144027000Y-102699642D01*
X144027000Y-102300358D01*
X143967255Y-102000000D01*
X144027000Y-101699642D01*
X144027000Y-101300358D01*
X143967255Y-101000000D01*
X144027000Y-100699642D01*
X144027000Y-100300358D01*
X143967255Y-100000000D01*
X144027000Y-99699642D01*
X144027000Y-99300358D01*
X143967255Y-99000000D01*
X144027000Y-98699642D01*
X144027000Y-98693190D01*
X171873130Y-98693190D01*
X171873130Y-99309130D01*
X171993293Y-99913234D01*
X172229003Y-100482289D01*
X172571201Y-100994424D01*
X173006736Y-101429959D01*
X173518871Y-101772157D01*
X174087926Y-102007867D01*
X174692030Y-102128030D01*
X175307970Y-102128030D01*
X175912074Y-102007867D01*
X176481129Y-101772157D01*
X176993264Y-101429959D01*
X177428799Y-100994424D01*
X177770997Y-100482289D01*
X178006707Y-99913234D01*
X178126870Y-99309130D01*
X178126870Y-98693190D01*
X178006707Y-98089086D01*
X177770997Y-97520031D01*
X177428799Y-97007896D01*
X176993264Y-96572361D01*
X176481129Y-96230163D01*
X175912074Y-95994453D01*
X175307970Y-95874290D01*
X174692030Y-95874290D01*
X174087926Y-95994453D01*
X173518871Y-96230163D01*
X173006736Y-96572361D01*
X172571201Y-97007896D01*
X172229003Y-97520031D01*
X171993293Y-98089086D01*
X171873130Y-98693190D01*
X144027000Y-98693190D01*
X144027000Y-98300358D01*
X143949104Y-97908746D01*
X143796304Y-97539855D01*
X143574474Y-97207863D01*
X143292137Y-96925526D01*
X142960145Y-96703696D01*
X142591254Y-96550896D01*
X142199642Y-96473000D01*
X141800358Y-96473000D01*
X141408746Y-96550896D01*
X141039855Y-96703696D01*
X140707863Y-96925526D01*
X140425526Y-97207863D01*
X140203696Y-97539855D01*
X140050896Y-97908746D01*
X139973000Y-98300358D01*
X133127000Y-98300358D01*
X133127000Y-89721565D01*
X140923000Y-89721565D01*
X140923000Y-90278435D01*
X141031640Y-90824606D01*
X141244745Y-91339087D01*
X141554125Y-91802108D01*
X141947892Y-92195875D01*
X142410913Y-92505255D01*
X142925394Y-92718360D01*
X143471565Y-92827000D01*
X144028435Y-92827000D01*
X144574606Y-92718360D01*
X145089087Y-92505255D01*
X145552108Y-92195875D01*
X145945875Y-91802108D01*
X146255255Y-91339087D01*
X146468360Y-90824606D01*
X146577000Y-90278435D01*
X146577000Y-89721565D01*
X146468360Y-89175394D01*
X146255255Y-88660913D01*
X145945875Y-88197892D01*
X145552108Y-87804125D01*
X145089087Y-87494745D01*
X144574606Y-87281640D01*
X144028435Y-87173000D01*
X143471565Y-87173000D01*
X142925394Y-87281640D01*
X142410913Y-87494745D01*
X141947892Y-87804125D01*
X141554125Y-88197892D01*
X141244745Y-88660913D01*
X141031640Y-89175394D01*
X140923000Y-89721565D01*
X133127000Y-89721565D01*
X133127000Y-80690870D01*
X171873130Y-80690870D01*
X171873130Y-81306810D01*
X171993293Y-81910914D01*
X172229003Y-82479969D01*
X172571201Y-82992104D01*
X173006736Y-83427639D01*
X173518871Y-83769837D01*
X174087926Y-84005547D01*
X174692030Y-84125710D01*
X175307970Y-84125710D01*
X175912074Y-84005547D01*
X176481129Y-83769837D01*
X176993264Y-83427639D01*
X177428799Y-82992104D01*
X177770997Y-82479969D01*
X178006707Y-81910914D01*
X178126870Y-81306810D01*
X178126870Y-80690870D01*
X178006707Y-80086766D01*
X177770997Y-79517711D01*
X177428799Y-79005576D01*
X176993264Y-78570041D01*
X176481129Y-78227843D01*
X175912074Y-77992133D01*
X175307970Y-77871970D01*
X174692030Y-77871970D01*
X174087926Y-77992133D01*
X173518871Y-78227843D01*
X173006736Y-78570041D01*
X172571201Y-79005576D01*
X172229003Y-79517711D01*
X171993293Y-80086766D01*
X171873130Y-80690870D01*
X133127000Y-80690870D01*
X133127000Y-80241722D01*
X133341254Y-80199104D01*
X133710145Y-80046304D01*
X134042137Y-79824474D01*
X134324474Y-79542137D01*
X134546304Y-79210145D01*
X134699104Y-78841254D01*
X134777000Y-78449642D01*
X134777000Y-78050358D01*
X134717327Y-77750358D01*
X137273000Y-77750358D01*
X137273000Y-78149642D01*
X137350896Y-78541254D01*
X137503696Y-78910145D01*
X137725526Y-79242137D01*
X138007863Y-79524474D01*
X138339855Y-79746304D01*
X138708746Y-79899104D01*
X139100358Y-79977000D01*
X139499642Y-79977000D01*
X139891254Y-79899104D01*
X140260145Y-79746304D01*
X140592137Y-79524474D01*
X140874474Y-79242137D01*
X140958617Y-79116208D01*
X141158746Y-79199104D01*
X141550358Y-79277000D01*
X141949642Y-79277000D01*
X142341254Y-79199104D01*
X142602970Y-79090698D01*
X142740654Y-79348286D01*
X142943971Y-79596029D01*
X143191714Y-79799346D01*
X143474362Y-79950425D01*
X143781052Y-80043458D01*
X144100000Y-80074872D01*
X145900000Y-80074872D01*
X146218948Y-80043458D01*
X146525638Y-79950425D01*
X146808286Y-79799346D01*
X147056029Y-79596029D01*
X147259346Y-79348286D01*
X147410425Y-79065638D01*
X147503458Y-78758948D01*
X147534872Y-78440000D01*
X147534872Y-78099940D01*
X147570111Y-78277099D01*
X147760602Y-78736983D01*
X148037151Y-79150869D01*
X148389131Y-79502849D01*
X148803017Y-79779398D01*
X149262901Y-79969889D01*
X149751112Y-80067000D01*
X150248888Y-80067000D01*
X150737099Y-79969889D01*
X151196983Y-79779398D01*
X151610869Y-79502849D01*
X151962849Y-79150869D01*
X152239398Y-78736983D01*
X152429889Y-78277099D01*
X152527000Y-77788888D01*
X152527000Y-77291112D01*
X152429889Y-76802901D01*
X152239398Y-76343017D01*
X151962849Y-75929131D01*
X151610869Y-75577151D01*
X151196983Y-75300602D01*
X150737099Y-75110111D01*
X150248888Y-75013000D01*
X149751112Y-75013000D01*
X149262901Y-75110111D01*
X148803017Y-75300602D01*
X148389131Y-75577151D01*
X148037151Y-75929131D01*
X147760602Y-76343017D01*
X147570111Y-76802901D01*
X147534872Y-76980060D01*
X147534872Y-76640000D01*
X147503458Y-76321052D01*
X147410425Y-76014362D01*
X147356687Y-75913825D01*
X147429889Y-75737099D01*
X147527000Y-75248888D01*
X147527000Y-74751112D01*
X147429889Y-74262901D01*
X147239398Y-73803017D01*
X147190610Y-73730000D01*
X147239398Y-73656983D01*
X147429889Y-73197099D01*
X147465128Y-73019940D01*
X147465128Y-73360000D01*
X147496542Y-73678948D01*
X147589575Y-73985638D01*
X147740654Y-74268286D01*
X147943971Y-74516029D01*
X148191714Y-74719346D01*
X148474362Y-74870425D01*
X148781052Y-74963458D01*
X149100000Y-74994872D01*
X150900000Y-74994872D01*
X151218948Y-74963458D01*
X151525638Y-74870425D01*
X151808286Y-74719346D01*
X152056029Y-74516029D01*
X152259346Y-74268286D01*
X152410425Y-73985638D01*
X152503458Y-73678948D01*
X152534872Y-73360000D01*
X152534872Y-71560000D01*
X152503458Y-71241052D01*
X152410425Y-70934362D01*
X152259346Y-70651714D01*
X152056029Y-70403971D01*
X151808286Y-70200654D01*
X151525638Y-70049575D01*
X151218948Y-69956542D01*
X150900000Y-69925128D01*
X149100000Y-69925128D01*
X148781052Y-69956542D01*
X148474362Y-70049575D01*
X148191714Y-70200654D01*
X147943971Y-70403971D01*
X147740654Y-70651714D01*
X147589575Y-70934362D01*
X147496542Y-71241052D01*
X147465128Y-71560000D01*
X147465128Y-71900060D01*
X147429889Y-71722901D01*
X147239398Y-71263017D01*
X146962849Y-70849131D01*
X146610869Y-70497151D01*
X146196983Y-70220602D01*
X145737099Y-70030111D01*
X145248888Y-69933000D01*
X144751112Y-69933000D01*
X144262901Y-70030111D01*
X143803017Y-70220602D01*
X143389131Y-70497151D01*
X143037151Y-70849131D01*
X142760602Y-71263017D01*
X142570111Y-71722901D01*
X142473000Y-72211112D01*
X142473000Y-72708888D01*
X142570111Y-73197099D01*
X142760602Y-73656983D01*
X142809390Y-73730000D01*
X142760602Y-73803017D01*
X142570111Y-74262901D01*
X142473000Y-74751112D01*
X142473000Y-75248888D01*
X142496103Y-75365037D01*
X142341254Y-75300896D01*
X141949642Y-75223000D01*
X141550358Y-75223000D01*
X141158746Y-75300896D01*
X140789855Y-75453696D01*
X140457863Y-75675526D01*
X140175526Y-75957863D01*
X140091383Y-76083792D01*
X139891254Y-76000896D01*
X139499642Y-75923000D01*
X139100358Y-75923000D01*
X138708746Y-76000896D01*
X138339855Y-76153696D01*
X138007863Y-76375526D01*
X137725526Y-76657863D01*
X137503696Y-76989855D01*
X137350896Y-77358746D01*
X137273000Y-77750358D01*
X134717327Y-77750358D01*
X134699104Y-77658746D01*
X134546304Y-77289855D01*
X134324474Y-76957863D01*
X134042137Y-76675526D01*
X133710145Y-76453696D01*
X133341254Y-76300896D01*
X133127000Y-76258278D01*
X133127000Y-61677000D01*
X141104305Y-61677000D01*
X141039855Y-61703696D01*
G37*
%TD.AperFunction*%
%TD*%
D23*
%TO.N,+3V3*%
X126873000Y-103529181D02*
X126718421Y-103374602D01*
X126533835Y-103251266D01*
X126328734Y-103166310D01*
X126111000Y-103123000D01*
X125889000Y-103123000D01*
X125671266Y-103166310D01*
X125466165Y-103251266D01*
X125281579Y-103374602D01*
X125124602Y-103531579D01*
X125001266Y-103716165D01*
X124916310Y-103921266D01*
X124873000Y-104139000D01*
X124873000Y-104361000D01*
X124916310Y-104578734D01*
X125001266Y-104783835D01*
X125124602Y-104968421D01*
X125281579Y-105125398D01*
X125466165Y-105248734D01*
X125671266Y-105333690D01*
X125889000Y-105377000D01*
X126111000Y-105377000D01*
X126328734Y-105333690D01*
X126533835Y-105248734D01*
X126718421Y-105125398D01*
X126873000Y-104970819D01*
X126873000Y-119223000D01*
X100777000Y-119223000D01*
X100777000Y-114770811D01*
X102673000Y-114770811D01*
X102673000Y-115229189D01*
X102762426Y-115678761D01*
X102937840Y-116102248D01*
X103192501Y-116483376D01*
X103516624Y-116807499D01*
X103897752Y-117062160D01*
X104321239Y-117237574D01*
X104770811Y-117327000D01*
X105229189Y-117327000D01*
X105678761Y-117237574D01*
X106102248Y-117062160D01*
X106483376Y-116807499D01*
X106807499Y-116483376D01*
X107062160Y-116102248D01*
X107237574Y-115678761D01*
X107327000Y-115229189D01*
X107327000Y-114770811D01*
X107237574Y-114321239D01*
X107062160Y-113897752D01*
X106807499Y-113516624D01*
X106483376Y-113192501D01*
X106102248Y-112937840D01*
X105678761Y-112762426D01*
X105229189Y-112673000D01*
X104770811Y-112673000D01*
X104321239Y-112762426D01*
X103897752Y-112937840D01*
X103516624Y-113192501D01*
X103192501Y-113516624D01*
X102937840Y-113897752D01*
X102762426Y-114321239D01*
X102673000Y-114770811D01*
X100777000Y-114770811D01*
X100777000Y-108070000D01*
X103639483Y-108070000D01*
X103639483Y-109670000D01*
X103653520Y-109812517D01*
X103695090Y-109949557D01*
X103762597Y-110075853D01*
X103853446Y-110186554D01*
X103964147Y-110277403D01*
X104090443Y-110344910D01*
X104227483Y-110386480D01*
X104370000Y-110400517D01*
X105970000Y-110400517D01*
X106112517Y-110386480D01*
X106249557Y-110344910D01*
X106375853Y-110277403D01*
X106486554Y-110186554D01*
X106577403Y-110075853D01*
X106644910Y-109949557D01*
X106674042Y-109853521D01*
X106746586Y-109933519D01*
X106972580Y-110101037D01*
X107226913Y-110221246D01*
X107360961Y-110261904D01*
X107583000Y-110139915D01*
X107583000Y-108997000D01*
X107563000Y-108997000D01*
X107563000Y-108743000D01*
X107583000Y-108743000D01*
X107583000Y-107600085D01*
X107837000Y-107600085D01*
X107837000Y-108743000D01*
X107857000Y-108743000D01*
X107857000Y-108997000D01*
X107837000Y-108997000D01*
X107837000Y-110139915D01*
X108059039Y-110261904D01*
X108193087Y-110221246D01*
X108447420Y-110101037D01*
X108673414Y-109933519D01*
X108862385Y-109725131D01*
X108920323Y-109628525D01*
X109063901Y-109843406D01*
X109276594Y-110056099D01*
X109526694Y-110223210D01*
X109804590Y-110338319D01*
X110099604Y-110397000D01*
X110400396Y-110397000D01*
X110695410Y-110338319D01*
X110973306Y-110223210D01*
X111223406Y-110056099D01*
X111436099Y-109843406D01*
X111520000Y-109717839D01*
X111603901Y-109843406D01*
X111816594Y-110056099D01*
X112066694Y-110223210D01*
X112344590Y-110338319D01*
X112639604Y-110397000D01*
X112940396Y-110397000D01*
X113235410Y-110338319D01*
X113513306Y-110223210D01*
X113763406Y-110056099D01*
X113976099Y-109843406D01*
X114143210Y-109593306D01*
X114258319Y-109315410D01*
X114317000Y-109020396D01*
X114317000Y-108719604D01*
X114258319Y-108424590D01*
X114143210Y-108146694D01*
X113976099Y-107896594D01*
X113763406Y-107683901D01*
X113513306Y-107516790D01*
X113387500Y-107464679D01*
X119423000Y-107464679D01*
X119423000Y-107775321D01*
X119483604Y-108079994D01*
X119602481Y-108366989D01*
X119775064Y-108625279D01*
X119994721Y-108844936D01*
X120062164Y-108890000D01*
X119994721Y-108935064D01*
X119775064Y-109154721D01*
X119602481Y-109413011D01*
X119483604Y-109700006D01*
X119423000Y-110004679D01*
X119423000Y-110315321D01*
X119483604Y-110619994D01*
X119602481Y-110906989D01*
X119775064Y-111165279D01*
X119994721Y-111384936D01*
X120062164Y-111430000D01*
X119994721Y-111475064D01*
X119775064Y-111694721D01*
X119602481Y-111953011D01*
X119483604Y-112240006D01*
X119423000Y-112544679D01*
X119423000Y-112855321D01*
X119483604Y-113159994D01*
X119602481Y-113446989D01*
X119775064Y-113705279D01*
X119994721Y-113924936D01*
X120062164Y-113970000D01*
X119994721Y-114015064D01*
X119775064Y-114234721D01*
X119602481Y-114493011D01*
X119483604Y-114780006D01*
X119423000Y-115084679D01*
X119423000Y-115395321D01*
X119483604Y-115699994D01*
X119602481Y-115986989D01*
X119775064Y-116245279D01*
X119994721Y-116464936D01*
X120253011Y-116637519D01*
X120540006Y-116756396D01*
X120844679Y-116817000D01*
X121155321Y-116817000D01*
X121459994Y-116756396D01*
X121746989Y-116637519D01*
X122005279Y-116464936D01*
X122224936Y-116245279D01*
X122397519Y-115986989D01*
X122516396Y-115699994D01*
X122577000Y-115395321D01*
X122577000Y-115084679D01*
X122516396Y-114780006D01*
X122397519Y-114493011D01*
X122224936Y-114234721D01*
X122005279Y-114015064D01*
X121937836Y-113970000D01*
X122005279Y-113924936D01*
X122224936Y-113705279D01*
X122397519Y-113446989D01*
X122516396Y-113159994D01*
X122577000Y-112855321D01*
X122577000Y-112544679D01*
X122516396Y-112240006D01*
X122397519Y-111953011D01*
X122224936Y-111694721D01*
X122005279Y-111475064D01*
X121937836Y-111430000D01*
X122005279Y-111384936D01*
X122224936Y-111165279D01*
X122397519Y-110906989D01*
X122516396Y-110619994D01*
X122577000Y-110315321D01*
X122577000Y-110004679D01*
X122516396Y-109700006D01*
X122397519Y-109413011D01*
X122224936Y-109154721D01*
X122005279Y-108935064D01*
X121937836Y-108890000D01*
X122005279Y-108844936D01*
X122224936Y-108625279D01*
X122397519Y-108366989D01*
X122516396Y-108079994D01*
X122577000Y-107775321D01*
X122577000Y-107464679D01*
X122516396Y-107160006D01*
X122397519Y-106873011D01*
X122224936Y-106614721D01*
X122005279Y-106395064D01*
X121852014Y-106292656D01*
X121881355Y-106275178D01*
X122097588Y-106080269D01*
X122271641Y-105846920D01*
X122396825Y-105584099D01*
X122441476Y-105436890D01*
X122320155Y-105207000D01*
X121127000Y-105207000D01*
X121127000Y-105227000D01*
X120873000Y-105227000D01*
X120873000Y-105207000D01*
X119679845Y-105207000D01*
X119558524Y-105436890D01*
X119603175Y-105584099D01*
X119728359Y-105846920D01*
X119902412Y-106080269D01*
X120118645Y-106275178D01*
X120147986Y-106292656D01*
X119994721Y-106395064D01*
X119775064Y-106614721D01*
X119602481Y-106873011D01*
X119483604Y-107160006D01*
X119423000Y-107464679D01*
X113387500Y-107464679D01*
X113235410Y-107401681D01*
X112940396Y-107343000D01*
X112639604Y-107343000D01*
X112344590Y-107401681D01*
X112066694Y-107516790D01*
X111816594Y-107683901D01*
X111603901Y-107896594D01*
X111520000Y-108022161D01*
X111436099Y-107896594D01*
X111223406Y-107683901D01*
X110973306Y-107516790D01*
X110695410Y-107401681D01*
X110400396Y-107343000D01*
X110099604Y-107343000D01*
X109804590Y-107401681D01*
X109526694Y-107516790D01*
X109276594Y-107683901D01*
X109063901Y-107896594D01*
X108920323Y-108111475D01*
X108862385Y-108014869D01*
X108673414Y-107806481D01*
X108447420Y-107638963D01*
X108193087Y-107518754D01*
X108059039Y-107478096D01*
X107837000Y-107600085D01*
X107583000Y-107600085D01*
X107360961Y-107478096D01*
X107226913Y-107518754D01*
X106972580Y-107638963D01*
X106746586Y-107806481D01*
X106674042Y-107886479D01*
X106644910Y-107790443D01*
X106577403Y-107664147D01*
X106486554Y-107553446D01*
X106375853Y-107462597D01*
X106249557Y-107395090D01*
X106112517Y-107353520D01*
X105970000Y-107339483D01*
X104370000Y-107339483D01*
X104227483Y-107353520D01*
X104090443Y-107395090D01*
X103964147Y-107462597D01*
X103853446Y-107553446D01*
X103762597Y-107664147D01*
X103695090Y-107790443D01*
X103653520Y-107927483D01*
X103639483Y-108070000D01*
X100777000Y-108070000D01*
X100777000Y-101099604D01*
X103643000Y-101099604D01*
X103643000Y-101400396D01*
X103701681Y-101695410D01*
X103816790Y-101973306D01*
X103983901Y-102223406D01*
X104196594Y-102436099D01*
X104446694Y-102603210D01*
X104724590Y-102718319D01*
X105019604Y-102777000D01*
X105320396Y-102777000D01*
X105615410Y-102718319D01*
X105893306Y-102603210D01*
X106143406Y-102436099D01*
X106356099Y-102223406D01*
X106440000Y-102097839D01*
X106523901Y-102223406D01*
X106736594Y-102436099D01*
X106986694Y-102603210D01*
X107264590Y-102718319D01*
X107559604Y-102777000D01*
X107860396Y-102777000D01*
X108155410Y-102718319D01*
X108433306Y-102603210D01*
X108683406Y-102436099D01*
X108896099Y-102223406D01*
X108980000Y-102097839D01*
X109063901Y-102223406D01*
X109276594Y-102436099D01*
X109526694Y-102603210D01*
X109804590Y-102718319D01*
X110099604Y-102777000D01*
X110400396Y-102777000D01*
X110695410Y-102718319D01*
X110973306Y-102603210D01*
X111223406Y-102436099D01*
X111436099Y-102223406D01*
X111520000Y-102097839D01*
X111603901Y-102223406D01*
X111816594Y-102436099D01*
X112066694Y-102603210D01*
X112344590Y-102718319D01*
X112639604Y-102777000D01*
X112940396Y-102777000D01*
X113235410Y-102718319D01*
X113513306Y-102603210D01*
X113763406Y-102436099D01*
X113976099Y-102223406D01*
X114143210Y-101973306D01*
X114258319Y-101695410D01*
X114317000Y-101400396D01*
X114317000Y-101099604D01*
X114258319Y-100804590D01*
X114143210Y-100526694D01*
X113976099Y-100276594D01*
X113763406Y-100063901D01*
X113513306Y-99896790D01*
X113235410Y-99781681D01*
X112940396Y-99723000D01*
X112639604Y-99723000D01*
X112344590Y-99781681D01*
X112066694Y-99896790D01*
X111816594Y-100063901D01*
X111603901Y-100276594D01*
X111520000Y-100402161D01*
X111436099Y-100276594D01*
X111223406Y-100063901D01*
X110973306Y-99896790D01*
X110695410Y-99781681D01*
X110400396Y-99723000D01*
X110099604Y-99723000D01*
X109804590Y-99781681D01*
X109526694Y-99896790D01*
X109276594Y-100063901D01*
X109063901Y-100276594D01*
X108980000Y-100402161D01*
X108896099Y-100276594D01*
X108683406Y-100063901D01*
X108433306Y-99896790D01*
X108155410Y-99781681D01*
X107860396Y-99723000D01*
X107559604Y-99723000D01*
X107264590Y-99781681D01*
X106986694Y-99896790D01*
X106736594Y-100063901D01*
X106523901Y-100276594D01*
X106440000Y-100402161D01*
X106356099Y-100276594D01*
X106143406Y-100063901D01*
X105893306Y-99896790D01*
X105615410Y-99781681D01*
X105320396Y-99723000D01*
X105019604Y-99723000D01*
X104724590Y-99781681D01*
X104446694Y-99896790D01*
X104196594Y-100063901D01*
X103983901Y-100276594D01*
X103816790Y-100526694D01*
X103701681Y-100804590D01*
X103643000Y-101099604D01*
X100777000Y-101099604D01*
X100777000Y-99150000D01*
X119419483Y-99150000D01*
X119419483Y-100850000D01*
X119433520Y-100992517D01*
X119475090Y-101129557D01*
X119542597Y-101255853D01*
X119633446Y-101366554D01*
X119744147Y-101457403D01*
X119814681Y-101495104D01*
X119775064Y-101534721D01*
X119602481Y-101793011D01*
X119483604Y-102080006D01*
X119423000Y-102384679D01*
X119423000Y-102695321D01*
X119483604Y-102999994D01*
X119602481Y-103286989D01*
X119775064Y-103545279D01*
X119994721Y-103764936D01*
X120147986Y-103867344D01*
X120118645Y-103884822D01*
X119902412Y-104079731D01*
X119728359Y-104313080D01*
X119603175Y-104575901D01*
X119558524Y-104723110D01*
X119679845Y-104953000D01*
X120873000Y-104953000D01*
X120873000Y-104933000D01*
X121127000Y-104933000D01*
X121127000Y-104953000D01*
X122320155Y-104953000D01*
X122441476Y-104723110D01*
X122396825Y-104575901D01*
X122271641Y-104313080D01*
X122097588Y-104079731D01*
X121881355Y-103884822D01*
X121852014Y-103867344D01*
X122005279Y-103764936D01*
X122224936Y-103545279D01*
X122397519Y-103286989D01*
X122516396Y-102999994D01*
X122577000Y-102695321D01*
X122577000Y-102384679D01*
X122516396Y-102080006D01*
X122397519Y-101793011D01*
X122224936Y-101534721D01*
X122185319Y-101495104D01*
X122255853Y-101457403D01*
X122366554Y-101366554D01*
X122457403Y-101255853D01*
X122524910Y-101129557D01*
X122566480Y-100992517D01*
X122580517Y-100850000D01*
X122580517Y-99150000D01*
X122566480Y-99007483D01*
X122524910Y-98870443D01*
X122457403Y-98744147D01*
X122366554Y-98633446D01*
X122255853Y-98542597D01*
X122129557Y-98475090D01*
X121992517Y-98433520D01*
X121850000Y-98419483D01*
X120150000Y-98419483D01*
X120007483Y-98433520D01*
X119870443Y-98475090D01*
X119744147Y-98542597D01*
X119633446Y-98633446D01*
X119542597Y-98744147D01*
X119475090Y-98870443D01*
X119433520Y-99007483D01*
X119419483Y-99150000D01*
X100777000Y-99150000D01*
X100777000Y-94900000D01*
X103629483Y-94900000D01*
X103629483Y-96600000D01*
X103643520Y-96742517D01*
X103685090Y-96879557D01*
X103752597Y-97005853D01*
X103843446Y-97116554D01*
X103954147Y-97207403D01*
X104080443Y-97274910D01*
X104217483Y-97316480D01*
X104360000Y-97330517D01*
X106060000Y-97330517D01*
X106202517Y-97316480D01*
X106339557Y-97274910D01*
X106465853Y-97207403D01*
X106576554Y-97116554D01*
X106667403Y-97005853D01*
X106705104Y-96935319D01*
X106744721Y-96974936D01*
X107003011Y-97147519D01*
X107290006Y-97266396D01*
X107594679Y-97327000D01*
X107905321Y-97327000D01*
X108209994Y-97266396D01*
X108496989Y-97147519D01*
X108755279Y-96974936D01*
X108974936Y-96755279D01*
X109020000Y-96687836D01*
X109065064Y-96755279D01*
X109284721Y-96974936D01*
X109543011Y-97147519D01*
X109830006Y-97266396D01*
X110134679Y-97327000D01*
X110445321Y-97327000D01*
X110749994Y-97266396D01*
X111036989Y-97147519D01*
X111295279Y-96974936D01*
X111514936Y-96755279D01*
X111560000Y-96687836D01*
X111605064Y-96755279D01*
X111824721Y-96974936D01*
X112083011Y-97147519D01*
X112370006Y-97266396D01*
X112674679Y-97327000D01*
X112985321Y-97327000D01*
X113289994Y-97266396D01*
X113576989Y-97147519D01*
X113835279Y-96974936D01*
X114054936Y-96755279D01*
X114227519Y-96496989D01*
X114346396Y-96209994D01*
X114407000Y-95905321D01*
X114407000Y-95594679D01*
X114346396Y-95290006D01*
X114227519Y-95003011D01*
X114054936Y-94744721D01*
X113835279Y-94525064D01*
X113576989Y-94352481D01*
X113289994Y-94233604D01*
X112985321Y-94173000D01*
X112674679Y-94173000D01*
X112370006Y-94233604D01*
X112083011Y-94352481D01*
X111824721Y-94525064D01*
X111605064Y-94744721D01*
X111560000Y-94812164D01*
X111514936Y-94744721D01*
X111295279Y-94525064D01*
X111036989Y-94352481D01*
X110749994Y-94233604D01*
X110445321Y-94173000D01*
X110134679Y-94173000D01*
X109830006Y-94233604D01*
X109543011Y-94352481D01*
X109284721Y-94525064D01*
X109065064Y-94744721D01*
X109020000Y-94812164D01*
X108974936Y-94744721D01*
X108755279Y-94525064D01*
X108496989Y-94352481D01*
X108209994Y-94233604D01*
X107905321Y-94173000D01*
X107594679Y-94173000D01*
X107290006Y-94233604D01*
X107003011Y-94352481D01*
X106744721Y-94525064D01*
X106705104Y-94564681D01*
X106667403Y-94494147D01*
X106576554Y-94383446D01*
X106465853Y-94292597D01*
X106339557Y-94225090D01*
X106202517Y-94183520D01*
X106060000Y-94169483D01*
X104360000Y-94169483D01*
X104217483Y-94183520D01*
X104080443Y-94225090D01*
X103954147Y-94292597D01*
X103843446Y-94383446D01*
X103752597Y-94494147D01*
X103685090Y-94620443D01*
X103643520Y-94757483D01*
X103629483Y-94900000D01*
X100777000Y-94900000D01*
X100777000Y-89320000D01*
X103639483Y-89320000D01*
X103639483Y-90920000D01*
X103653520Y-91062517D01*
X103695090Y-91199557D01*
X103762597Y-91325853D01*
X103853446Y-91436554D01*
X103964147Y-91527403D01*
X104090443Y-91594910D01*
X104227483Y-91636480D01*
X104370000Y-91650517D01*
X105970000Y-91650517D01*
X106112517Y-91636480D01*
X106249557Y-91594910D01*
X106375853Y-91527403D01*
X106486554Y-91436554D01*
X106577403Y-91325853D01*
X106639735Y-91209240D01*
X106736594Y-91306099D01*
X106986694Y-91473210D01*
X107264590Y-91588319D01*
X107559604Y-91647000D01*
X107860396Y-91647000D01*
X108155410Y-91588319D01*
X108433306Y-91473210D01*
X108683406Y-91306099D01*
X108896099Y-91093406D01*
X108980000Y-90967839D01*
X109063901Y-91093406D01*
X109276594Y-91306099D01*
X109526694Y-91473210D01*
X109804590Y-91588319D01*
X110099604Y-91647000D01*
X110400396Y-91647000D01*
X110695410Y-91588319D01*
X110973306Y-91473210D01*
X111223406Y-91306099D01*
X111436099Y-91093406D01*
X111520000Y-90967839D01*
X111603901Y-91093406D01*
X111816594Y-91306099D01*
X112066694Y-91473210D01*
X112344590Y-91588319D01*
X112639604Y-91647000D01*
X112940396Y-91647000D01*
X113226958Y-91590000D01*
X119419483Y-91590000D01*
X119419483Y-93290000D01*
X119433520Y-93432517D01*
X119475090Y-93569557D01*
X119542597Y-93695853D01*
X119633446Y-93806554D01*
X119744147Y-93897403D01*
X119814681Y-93935104D01*
X119775064Y-93974721D01*
X119602481Y-94233011D01*
X119483604Y-94520006D01*
X119423000Y-94824679D01*
X119423000Y-95135321D01*
X119483604Y-95439994D01*
X119602481Y-95726989D01*
X119775064Y-95985279D01*
X119994721Y-96204936D01*
X120253011Y-96377519D01*
X120540006Y-96496396D01*
X120844679Y-96557000D01*
X121155321Y-96557000D01*
X121459994Y-96496396D01*
X121746989Y-96377519D01*
X122005279Y-96204936D01*
X122224936Y-95985279D01*
X122397519Y-95726989D01*
X122516396Y-95439994D01*
X122577000Y-95135321D01*
X122577000Y-94824679D01*
X122516396Y-94520006D01*
X122397519Y-94233011D01*
X122224936Y-93974721D01*
X122185319Y-93935104D01*
X122255853Y-93897403D01*
X122366554Y-93806554D01*
X122457403Y-93695853D01*
X122524910Y-93569557D01*
X122566480Y-93432517D01*
X122580517Y-93290000D01*
X122580517Y-91590000D01*
X122566480Y-91447483D01*
X122524910Y-91310443D01*
X122457403Y-91184147D01*
X122366554Y-91073446D01*
X122255853Y-90982597D01*
X122129557Y-90915090D01*
X121992517Y-90873520D01*
X121850000Y-90859483D01*
X120150000Y-90859483D01*
X120007483Y-90873520D01*
X119870443Y-90915090D01*
X119744147Y-90982597D01*
X119633446Y-91073446D01*
X119542597Y-91184147D01*
X119475090Y-91310443D01*
X119433520Y-91447483D01*
X119419483Y-91590000D01*
X113226958Y-91590000D01*
X113235410Y-91588319D01*
X113513306Y-91473210D01*
X113763406Y-91306099D01*
X113976099Y-91093406D01*
X114143210Y-90843306D01*
X114258319Y-90565410D01*
X114317000Y-90270396D01*
X114317000Y-89969604D01*
X114258319Y-89674590D01*
X114143210Y-89396694D01*
X113976099Y-89146594D01*
X113763406Y-88933901D01*
X113513306Y-88766790D01*
X113235410Y-88651681D01*
X112940396Y-88593000D01*
X112639604Y-88593000D01*
X112344590Y-88651681D01*
X112066694Y-88766790D01*
X111816594Y-88933901D01*
X111603901Y-89146594D01*
X111520000Y-89272161D01*
X111436099Y-89146594D01*
X111223406Y-88933901D01*
X110973306Y-88766790D01*
X110695410Y-88651681D01*
X110400396Y-88593000D01*
X110099604Y-88593000D01*
X109804590Y-88651681D01*
X109526694Y-88766790D01*
X109276594Y-88933901D01*
X109063901Y-89146594D01*
X108980000Y-89272161D01*
X108896099Y-89146594D01*
X108683406Y-88933901D01*
X108433306Y-88766790D01*
X108155410Y-88651681D01*
X107860396Y-88593000D01*
X107559604Y-88593000D01*
X107264590Y-88651681D01*
X106986694Y-88766790D01*
X106736594Y-88933901D01*
X106639735Y-89030760D01*
X106577403Y-88914147D01*
X106486554Y-88803446D01*
X106375853Y-88712597D01*
X106249557Y-88645090D01*
X106112517Y-88603520D01*
X105970000Y-88589483D01*
X104370000Y-88589483D01*
X104227483Y-88603520D01*
X104090443Y-88645090D01*
X103964147Y-88712597D01*
X103853446Y-88803446D01*
X103762597Y-88914147D01*
X103695090Y-89040443D01*
X103653520Y-89177483D01*
X103639483Y-89320000D01*
X100777000Y-89320000D01*
X100777000Y-86440000D01*
X119419483Y-86440000D01*
X119419483Y-88140000D01*
X119433520Y-88282517D01*
X119475090Y-88419557D01*
X119542597Y-88545853D01*
X119633446Y-88656554D01*
X119744147Y-88747403D01*
X119870443Y-88814910D01*
X120007483Y-88856480D01*
X120150000Y-88870517D01*
X121850000Y-88870517D01*
X121992517Y-88856480D01*
X122129557Y-88814910D01*
X122255853Y-88747403D01*
X122366554Y-88656554D01*
X122457403Y-88545853D01*
X122524910Y-88419557D01*
X122566480Y-88282517D01*
X122580517Y-88140000D01*
X122580517Y-86440000D01*
X122566480Y-86297483D01*
X122524910Y-86160443D01*
X122457403Y-86034147D01*
X122366554Y-85923446D01*
X122255853Y-85832597D01*
X122185319Y-85794896D01*
X122224936Y-85755279D01*
X122397519Y-85496989D01*
X122516396Y-85209994D01*
X122577000Y-84905321D01*
X122577000Y-84594679D01*
X122516396Y-84290006D01*
X122397519Y-84003011D01*
X122224936Y-83744721D01*
X122005279Y-83525064D01*
X121746989Y-83352481D01*
X121459994Y-83233604D01*
X121155321Y-83173000D01*
X120844679Y-83173000D01*
X120540006Y-83233604D01*
X120253011Y-83352481D01*
X119994721Y-83525064D01*
X119775064Y-83744721D01*
X119602481Y-84003011D01*
X119483604Y-84290006D01*
X119423000Y-84594679D01*
X119423000Y-84905321D01*
X119483604Y-85209994D01*
X119602481Y-85496989D01*
X119775064Y-85755279D01*
X119814681Y-85794896D01*
X119744147Y-85832597D01*
X119633446Y-85923446D01*
X119542597Y-86034147D01*
X119475090Y-86160443D01*
X119433520Y-86297483D01*
X119419483Y-86440000D01*
X100777000Y-86440000D01*
X100777000Y-82849040D01*
X103778091Y-82849040D01*
X103872930Y-83113881D01*
X104017615Y-83355131D01*
X104206586Y-83563519D01*
X104432580Y-83731037D01*
X104686913Y-83851246D01*
X104820961Y-83891904D01*
X105043000Y-83769915D01*
X105043000Y-82627000D01*
X103899376Y-82627000D01*
X103778091Y-82849040D01*
X100777000Y-82849040D01*
X100777000Y-82150960D01*
X103778091Y-82150960D01*
X103899376Y-82373000D01*
X105043000Y-82373000D01*
X105043000Y-81230085D01*
X105297000Y-81230085D01*
X105297000Y-82373000D01*
X105317000Y-82373000D01*
X105317000Y-82627000D01*
X105297000Y-82627000D01*
X105297000Y-83769915D01*
X105519039Y-83891904D01*
X105653087Y-83851246D01*
X105907420Y-83731037D01*
X106133414Y-83563519D01*
X106322385Y-83355131D01*
X106380323Y-83258525D01*
X106523901Y-83473406D01*
X106736594Y-83686099D01*
X106986694Y-83853210D01*
X107264590Y-83968319D01*
X107559604Y-84027000D01*
X107860396Y-84027000D01*
X108155410Y-83968319D01*
X108433306Y-83853210D01*
X108683406Y-83686099D01*
X108896099Y-83473406D01*
X108980000Y-83347839D01*
X109063901Y-83473406D01*
X109276594Y-83686099D01*
X109526694Y-83853210D01*
X109804590Y-83968319D01*
X110099604Y-84027000D01*
X110400396Y-84027000D01*
X110695410Y-83968319D01*
X110973306Y-83853210D01*
X111223406Y-83686099D01*
X111436099Y-83473406D01*
X111520000Y-83347839D01*
X111603901Y-83473406D01*
X111816594Y-83686099D01*
X112066694Y-83853210D01*
X112344590Y-83968319D01*
X112639604Y-84027000D01*
X112940396Y-84027000D01*
X113235410Y-83968319D01*
X113513306Y-83853210D01*
X113763406Y-83686099D01*
X113976099Y-83473406D01*
X114143210Y-83223306D01*
X114258319Y-82945410D01*
X114317000Y-82650396D01*
X114317000Y-82349604D01*
X114258319Y-82054590D01*
X114143210Y-81776694D01*
X113976099Y-81526594D01*
X113763406Y-81313901D01*
X113513306Y-81146790D01*
X113235410Y-81031681D01*
X112940396Y-80973000D01*
X112639604Y-80973000D01*
X112344590Y-81031681D01*
X112066694Y-81146790D01*
X111816594Y-81313901D01*
X111603901Y-81526594D01*
X111520000Y-81652161D01*
X111436099Y-81526594D01*
X111223406Y-81313901D01*
X110973306Y-81146790D01*
X110695410Y-81031681D01*
X110400396Y-80973000D01*
X110099604Y-80973000D01*
X109804590Y-81031681D01*
X109526694Y-81146790D01*
X109276594Y-81313901D01*
X109063901Y-81526594D01*
X108980000Y-81652161D01*
X108896099Y-81526594D01*
X108683406Y-81313901D01*
X108433306Y-81146790D01*
X108155410Y-81031681D01*
X107860396Y-80973000D01*
X107559604Y-80973000D01*
X107264590Y-81031681D01*
X106986694Y-81146790D01*
X106736594Y-81313901D01*
X106523901Y-81526594D01*
X106380323Y-81741475D01*
X106322385Y-81644869D01*
X106133414Y-81436481D01*
X105907420Y-81268963D01*
X105653087Y-81148754D01*
X105519039Y-81108096D01*
X105297000Y-81230085D01*
X105043000Y-81230085D01*
X104820961Y-81108096D01*
X104686913Y-81148754D01*
X104432580Y-81268963D01*
X104206586Y-81436481D01*
X104017615Y-81644869D01*
X103872930Y-81886119D01*
X103778091Y-82150960D01*
X100777000Y-82150960D01*
X100777000Y-76860660D01*
X102773000Y-76860660D01*
X102773000Y-77299340D01*
X102858582Y-77729592D01*
X103026458Y-78134880D01*
X103270176Y-78499630D01*
X103580370Y-78809824D01*
X103945120Y-79053542D01*
X104350408Y-79221418D01*
X104780660Y-79307000D01*
X105219340Y-79307000D01*
X105649592Y-79221418D01*
X106054880Y-79053542D01*
X106419630Y-78809824D01*
X106729824Y-78499630D01*
X106973542Y-78134880D01*
X107141418Y-77729592D01*
X107227000Y-77299340D01*
X107227000Y-76860660D01*
X107141418Y-76430408D01*
X106973542Y-76025120D01*
X106729824Y-75660370D01*
X106419630Y-75350176D01*
X106054880Y-75106458D01*
X105649592Y-74938582D01*
X105219340Y-74853000D01*
X104780660Y-74853000D01*
X104350408Y-74938582D01*
X103945120Y-75106458D01*
X103580370Y-75350176D01*
X103270176Y-75660370D01*
X103026458Y-76025120D01*
X102858582Y-76430408D01*
X102773000Y-76860660D01*
X100777000Y-76860660D01*
X100777000Y-70500000D01*
X102769483Y-70500000D01*
X102769483Y-73500000D01*
X102783520Y-73642517D01*
X102825090Y-73779557D01*
X102892597Y-73905853D01*
X102983446Y-74016554D01*
X103094147Y-74107403D01*
X103220443Y-74174910D01*
X103357483Y-74216480D01*
X103500000Y-74230517D01*
X106500000Y-74230517D01*
X106642517Y-74216480D01*
X106779557Y-74174910D01*
X106905853Y-74107403D01*
X107016554Y-74016554D01*
X107107403Y-73905853D01*
X107174910Y-73779557D01*
X107216480Y-73642517D01*
X107230517Y-73500000D01*
X107230517Y-70500000D01*
X107216480Y-70357483D01*
X107174910Y-70220443D01*
X107107403Y-70094147D01*
X107016554Y-69983446D01*
X106905853Y-69892597D01*
X106779557Y-69825090D01*
X106642517Y-69783520D01*
X106500000Y-69769483D01*
X103500000Y-69769483D01*
X103357483Y-69783520D01*
X103220443Y-69825090D01*
X103094147Y-69892597D01*
X102983446Y-69983446D01*
X102892597Y-70094147D01*
X102825090Y-70220443D01*
X102783520Y-70357483D01*
X102769483Y-70500000D01*
X100777000Y-70500000D01*
X100777000Y-64770811D01*
X102673000Y-64770811D01*
X102673000Y-65229189D01*
X102762426Y-65678761D01*
X102937840Y-66102248D01*
X103192501Y-66483376D01*
X103516624Y-66807499D01*
X103897752Y-67062160D01*
X104321239Y-67237574D01*
X104770811Y-67327000D01*
X105229189Y-67327000D01*
X105678761Y-67237574D01*
X106102248Y-67062160D01*
X106361400Y-66889000D01*
X109623000Y-66889000D01*
X109623000Y-67111000D01*
X109666310Y-67328734D01*
X109751266Y-67533835D01*
X109874602Y-67718421D01*
X110031579Y-67875398D01*
X110216165Y-67998734D01*
X110421266Y-68083690D01*
X110639000Y-68127000D01*
X110861000Y-68127000D01*
X111078734Y-68083690D01*
X111283835Y-67998734D01*
X111468421Y-67875398D01*
X111625398Y-67718421D01*
X111748734Y-67533835D01*
X111833690Y-67328734D01*
X111877000Y-67111000D01*
X111877000Y-66889000D01*
X111852272Y-66764679D01*
X119423000Y-66764679D01*
X119423000Y-67075321D01*
X119483604Y-67379994D01*
X119602481Y-67666989D01*
X119775064Y-67925279D01*
X119994721Y-68144936D01*
X120062164Y-68190000D01*
X119994721Y-68235064D01*
X119775064Y-68454721D01*
X119602481Y-68713011D01*
X119483604Y-69000006D01*
X119423000Y-69304679D01*
X119423000Y-69615321D01*
X119483604Y-69919994D01*
X119602481Y-70206989D01*
X119775064Y-70465279D01*
X119994721Y-70684936D01*
X120062164Y-70730000D01*
X119994721Y-70775064D01*
X119775064Y-70994721D01*
X119602481Y-71253011D01*
X119483604Y-71540006D01*
X119423000Y-71844679D01*
X119423000Y-72155321D01*
X119483604Y-72459994D01*
X119602481Y-72746989D01*
X119775064Y-73005279D01*
X119994721Y-73224936D01*
X120062164Y-73270000D01*
X119994721Y-73315064D01*
X119775064Y-73534721D01*
X119602481Y-73793011D01*
X119483604Y-74080006D01*
X119423000Y-74384679D01*
X119423000Y-74695321D01*
X119483604Y-74999994D01*
X119602481Y-75286989D01*
X119775064Y-75545279D01*
X119994721Y-75764936D01*
X120062164Y-75810000D01*
X119994721Y-75855064D01*
X119775064Y-76074721D01*
X119602481Y-76333011D01*
X119483604Y-76620006D01*
X119423000Y-76924679D01*
X119423000Y-77235321D01*
X119483604Y-77539994D01*
X119602481Y-77826989D01*
X119775064Y-78085279D01*
X119994721Y-78304936D01*
X120062164Y-78350000D01*
X119994721Y-78395064D01*
X119775064Y-78614721D01*
X119602481Y-78873011D01*
X119483604Y-79160006D01*
X119423000Y-79464679D01*
X119423000Y-79775321D01*
X119483604Y-80079994D01*
X119602481Y-80366989D01*
X119775064Y-80625279D01*
X119994721Y-80844936D01*
X120253011Y-81017519D01*
X120540006Y-81136396D01*
X120844679Y-81197000D01*
X121155321Y-81197000D01*
X121459994Y-81136396D01*
X121746989Y-81017519D01*
X122005279Y-80844936D01*
X122224936Y-80625279D01*
X122397519Y-80366989D01*
X122516396Y-80079994D01*
X122577000Y-79775321D01*
X122577000Y-79464679D01*
X122516396Y-79160006D01*
X122397519Y-78873011D01*
X122224936Y-78614721D01*
X122005279Y-78395064D01*
X121937836Y-78350000D01*
X122005279Y-78304936D01*
X122224936Y-78085279D01*
X122397519Y-77826989D01*
X122516396Y-77539994D01*
X122577000Y-77235321D01*
X122577000Y-76924679D01*
X122516396Y-76620006D01*
X122397519Y-76333011D01*
X122224936Y-76074721D01*
X122005279Y-75855064D01*
X121937836Y-75810000D01*
X122005279Y-75764936D01*
X122224936Y-75545279D01*
X122397519Y-75286989D01*
X122516396Y-74999994D01*
X122577000Y-74695321D01*
X122577000Y-74384679D01*
X122516396Y-74080006D01*
X122397519Y-73793011D01*
X122224936Y-73534721D01*
X122005279Y-73315064D01*
X121937836Y-73270000D01*
X122005279Y-73224936D01*
X122224936Y-73005279D01*
X122397519Y-72746989D01*
X122516396Y-72459994D01*
X122577000Y-72155321D01*
X122577000Y-71844679D01*
X122516396Y-71540006D01*
X122397519Y-71253011D01*
X122224936Y-70994721D01*
X122005279Y-70775064D01*
X121937836Y-70730000D01*
X122005279Y-70684936D01*
X122224936Y-70465279D01*
X122397519Y-70206989D01*
X122516396Y-69919994D01*
X122577000Y-69615321D01*
X122577000Y-69304679D01*
X122516396Y-69000006D01*
X122397519Y-68713011D01*
X122224936Y-68454721D01*
X122005279Y-68235064D01*
X121937836Y-68190000D01*
X122005279Y-68144936D01*
X122224936Y-67925279D01*
X122397519Y-67666989D01*
X122516396Y-67379994D01*
X122577000Y-67075321D01*
X122577000Y-66764679D01*
X122516396Y-66460006D01*
X122397519Y-66173011D01*
X122224936Y-65914721D01*
X122117338Y-65807123D01*
X122204494Y-65760537D01*
X122301185Y-65681185D01*
X122380537Y-65584494D01*
X122439502Y-65474180D01*
X122475812Y-65354482D01*
X122488072Y-65230000D01*
X122485000Y-64665750D01*
X122326250Y-64507000D01*
X121127000Y-64507000D01*
X121127000Y-64527000D01*
X120873000Y-64527000D01*
X120873000Y-64507000D01*
X119673750Y-64507000D01*
X119515000Y-64665750D01*
X119511928Y-65230000D01*
X119524188Y-65354482D01*
X119560498Y-65474180D01*
X119619463Y-65584494D01*
X119698815Y-65681185D01*
X119795506Y-65760537D01*
X119882662Y-65807123D01*
X119775064Y-65914721D01*
X119602481Y-66173011D01*
X119483604Y-66460006D01*
X119423000Y-66764679D01*
X111852272Y-66764679D01*
X111833690Y-66671266D01*
X111748734Y-66466165D01*
X111625398Y-66281579D01*
X111468421Y-66124602D01*
X111283835Y-66001266D01*
X111078734Y-65916310D01*
X110861000Y-65873000D01*
X110639000Y-65873000D01*
X110421266Y-65916310D01*
X110216165Y-66001266D01*
X110031579Y-66124602D01*
X109874602Y-66281579D01*
X109751266Y-66466165D01*
X109666310Y-66671266D01*
X109623000Y-66889000D01*
X106361400Y-66889000D01*
X106483376Y-66807499D01*
X106807499Y-66483376D01*
X107062160Y-66102248D01*
X107237574Y-65678761D01*
X107327000Y-65229189D01*
X107327000Y-64770811D01*
X107237574Y-64321239D01*
X107062160Y-63897752D01*
X106816437Y-63530000D01*
X119511928Y-63530000D01*
X119515000Y-64094250D01*
X119673750Y-64253000D01*
X120873000Y-64253000D01*
X120873000Y-63053750D01*
X121127000Y-63053750D01*
X121127000Y-64253000D01*
X122326250Y-64253000D01*
X122440250Y-64139000D01*
X123373000Y-64139000D01*
X123373000Y-64361000D01*
X123416310Y-64578734D01*
X123501266Y-64783835D01*
X123624602Y-64968421D01*
X123781579Y-65125398D01*
X123966165Y-65248734D01*
X124171266Y-65333690D01*
X124389000Y-65377000D01*
X124611000Y-65377000D01*
X124828734Y-65333690D01*
X125033835Y-65248734D01*
X125218421Y-65125398D01*
X125375398Y-64968421D01*
X125498734Y-64783835D01*
X125583690Y-64578734D01*
X125627000Y-64361000D01*
X125627000Y-64139000D01*
X125583690Y-63921266D01*
X125498734Y-63716165D01*
X125375398Y-63531579D01*
X125218421Y-63374602D01*
X125033835Y-63251266D01*
X124828734Y-63166310D01*
X124611000Y-63123000D01*
X124389000Y-63123000D01*
X124171266Y-63166310D01*
X123966165Y-63251266D01*
X123781579Y-63374602D01*
X123624602Y-63531579D01*
X123501266Y-63716165D01*
X123416310Y-63921266D01*
X123373000Y-64139000D01*
X122440250Y-64139000D01*
X122485000Y-64094250D01*
X122488072Y-63530000D01*
X122475812Y-63405518D01*
X122439502Y-63285820D01*
X122380537Y-63175506D01*
X122301185Y-63078815D01*
X122204494Y-62999463D01*
X122094180Y-62940498D01*
X121974482Y-62904188D01*
X121850000Y-62891928D01*
X121285750Y-62895000D01*
X121127000Y-63053750D01*
X120873000Y-63053750D01*
X120714250Y-62895000D01*
X120150000Y-62891928D01*
X120025518Y-62904188D01*
X119905820Y-62940498D01*
X119795506Y-62999463D01*
X119698815Y-63078815D01*
X119619463Y-63175506D01*
X119560498Y-63285820D01*
X119524188Y-63405518D01*
X119511928Y-63530000D01*
X106816437Y-63530000D01*
X106807499Y-63516624D01*
X106483376Y-63192501D01*
X106102248Y-62937840D01*
X105678761Y-62762426D01*
X105229189Y-62673000D01*
X104770811Y-62673000D01*
X104321239Y-62762426D01*
X103897752Y-62937840D01*
X103516624Y-63192501D01*
X103192501Y-63516624D01*
X102937840Y-63897752D01*
X102762426Y-64321239D01*
X102673000Y-64770811D01*
X100777000Y-64770811D01*
X100777000Y-60777000D01*
X126873000Y-60777000D01*
X126873000Y-103529181D01*
%TA.AperFunction,Conductor*%
D24*
G36*
X126873000Y-103529181D02*
G01*
X126718421Y-103374602D01*
X126533835Y-103251266D01*
X126328734Y-103166310D01*
X126111000Y-103123000D01*
X125889000Y-103123000D01*
X125671266Y-103166310D01*
X125466165Y-103251266D01*
X125281579Y-103374602D01*
X125124602Y-103531579D01*
X125001266Y-103716165D01*
X124916310Y-103921266D01*
X124873000Y-104139000D01*
X124873000Y-104361000D01*
X124916310Y-104578734D01*
X125001266Y-104783835D01*
X125124602Y-104968421D01*
X125281579Y-105125398D01*
X125466165Y-105248734D01*
X125671266Y-105333690D01*
X125889000Y-105377000D01*
X126111000Y-105377000D01*
X126328734Y-105333690D01*
X126533835Y-105248734D01*
X126718421Y-105125398D01*
X126873000Y-104970819D01*
X126873000Y-119223000D01*
X100777000Y-119223000D01*
X100777000Y-114770811D01*
X102673000Y-114770811D01*
X102673000Y-115229189D01*
X102762426Y-115678761D01*
X102937840Y-116102248D01*
X103192501Y-116483376D01*
X103516624Y-116807499D01*
X103897752Y-117062160D01*
X104321239Y-117237574D01*
X104770811Y-117327000D01*
X105229189Y-117327000D01*
X105678761Y-117237574D01*
X106102248Y-117062160D01*
X106483376Y-116807499D01*
X106807499Y-116483376D01*
X107062160Y-116102248D01*
X107237574Y-115678761D01*
X107327000Y-115229189D01*
X107327000Y-114770811D01*
X107237574Y-114321239D01*
X107062160Y-113897752D01*
X106807499Y-113516624D01*
X106483376Y-113192501D01*
X106102248Y-112937840D01*
X105678761Y-112762426D01*
X105229189Y-112673000D01*
X104770811Y-112673000D01*
X104321239Y-112762426D01*
X103897752Y-112937840D01*
X103516624Y-113192501D01*
X103192501Y-113516624D01*
X102937840Y-113897752D01*
X102762426Y-114321239D01*
X102673000Y-114770811D01*
X100777000Y-114770811D01*
X100777000Y-108070000D01*
X103639483Y-108070000D01*
X103639483Y-109670000D01*
X103653520Y-109812517D01*
X103695090Y-109949557D01*
X103762597Y-110075853D01*
X103853446Y-110186554D01*
X103964147Y-110277403D01*
X104090443Y-110344910D01*
X104227483Y-110386480D01*
X104370000Y-110400517D01*
X105970000Y-110400517D01*
X106112517Y-110386480D01*
X106249557Y-110344910D01*
X106375853Y-110277403D01*
X106486554Y-110186554D01*
X106577403Y-110075853D01*
X106644910Y-109949557D01*
X106674042Y-109853521D01*
X106746586Y-109933519D01*
X106972580Y-110101037D01*
X107226913Y-110221246D01*
X107360961Y-110261904D01*
X107583000Y-110139915D01*
X107583000Y-108997000D01*
X107563000Y-108997000D01*
X107563000Y-108743000D01*
X107583000Y-108743000D01*
X107583000Y-107600085D01*
X107837000Y-107600085D01*
X107837000Y-108743000D01*
X107857000Y-108743000D01*
X107857000Y-108997000D01*
X107837000Y-108997000D01*
X107837000Y-110139915D01*
X108059039Y-110261904D01*
X108193087Y-110221246D01*
X108447420Y-110101037D01*
X108673414Y-109933519D01*
X108862385Y-109725131D01*
X108920323Y-109628525D01*
X109063901Y-109843406D01*
X109276594Y-110056099D01*
X109526694Y-110223210D01*
X109804590Y-110338319D01*
X110099604Y-110397000D01*
X110400396Y-110397000D01*
X110695410Y-110338319D01*
X110973306Y-110223210D01*
X111223406Y-110056099D01*
X111436099Y-109843406D01*
X111520000Y-109717839D01*
X111603901Y-109843406D01*
X111816594Y-110056099D01*
X112066694Y-110223210D01*
X112344590Y-110338319D01*
X112639604Y-110397000D01*
X112940396Y-110397000D01*
X113235410Y-110338319D01*
X113513306Y-110223210D01*
X113763406Y-110056099D01*
X113976099Y-109843406D01*
X114143210Y-109593306D01*
X114258319Y-109315410D01*
X114317000Y-109020396D01*
X114317000Y-108719604D01*
X114258319Y-108424590D01*
X114143210Y-108146694D01*
X113976099Y-107896594D01*
X113763406Y-107683901D01*
X113513306Y-107516790D01*
X113387500Y-107464679D01*
X119423000Y-107464679D01*
X119423000Y-107775321D01*
X119483604Y-108079994D01*
X119602481Y-108366989D01*
X119775064Y-108625279D01*
X119994721Y-108844936D01*
X120062164Y-108890000D01*
X119994721Y-108935064D01*
X119775064Y-109154721D01*
X119602481Y-109413011D01*
X119483604Y-109700006D01*
X119423000Y-110004679D01*
X119423000Y-110315321D01*
X119483604Y-110619994D01*
X119602481Y-110906989D01*
X119775064Y-111165279D01*
X119994721Y-111384936D01*
X120062164Y-111430000D01*
X119994721Y-111475064D01*
X119775064Y-111694721D01*
X119602481Y-111953011D01*
X119483604Y-112240006D01*
X119423000Y-112544679D01*
X119423000Y-112855321D01*
X119483604Y-113159994D01*
X119602481Y-113446989D01*
X119775064Y-113705279D01*
X119994721Y-113924936D01*
X120062164Y-113970000D01*
X119994721Y-114015064D01*
X119775064Y-114234721D01*
X119602481Y-114493011D01*
X119483604Y-114780006D01*
X119423000Y-115084679D01*
X119423000Y-115395321D01*
X119483604Y-115699994D01*
X119602481Y-115986989D01*
X119775064Y-116245279D01*
X119994721Y-116464936D01*
X120253011Y-116637519D01*
X120540006Y-116756396D01*
X120844679Y-116817000D01*
X121155321Y-116817000D01*
X121459994Y-116756396D01*
X121746989Y-116637519D01*
X122005279Y-116464936D01*
X122224936Y-116245279D01*
X122397519Y-115986989D01*
X122516396Y-115699994D01*
X122577000Y-115395321D01*
X122577000Y-115084679D01*
X122516396Y-114780006D01*
X122397519Y-114493011D01*
X122224936Y-114234721D01*
X122005279Y-114015064D01*
X121937836Y-113970000D01*
X122005279Y-113924936D01*
X122224936Y-113705279D01*
X122397519Y-113446989D01*
X122516396Y-113159994D01*
X122577000Y-112855321D01*
X122577000Y-112544679D01*
X122516396Y-112240006D01*
X122397519Y-111953011D01*
X122224936Y-111694721D01*
X122005279Y-111475064D01*
X121937836Y-111430000D01*
X122005279Y-111384936D01*
X122224936Y-111165279D01*
X122397519Y-110906989D01*
X122516396Y-110619994D01*
X122577000Y-110315321D01*
X122577000Y-110004679D01*
X122516396Y-109700006D01*
X122397519Y-109413011D01*
X122224936Y-109154721D01*
X122005279Y-108935064D01*
X121937836Y-108890000D01*
X122005279Y-108844936D01*
X122224936Y-108625279D01*
X122397519Y-108366989D01*
X122516396Y-108079994D01*
X122577000Y-107775321D01*
X122577000Y-107464679D01*
X122516396Y-107160006D01*
X122397519Y-106873011D01*
X122224936Y-106614721D01*
X122005279Y-106395064D01*
X121852014Y-106292656D01*
X121881355Y-106275178D01*
X122097588Y-106080269D01*
X122271641Y-105846920D01*
X122396825Y-105584099D01*
X122441476Y-105436890D01*
X122320155Y-105207000D01*
X121127000Y-105207000D01*
X121127000Y-105227000D01*
X120873000Y-105227000D01*
X120873000Y-105207000D01*
X119679845Y-105207000D01*
X119558524Y-105436890D01*
X119603175Y-105584099D01*
X119728359Y-105846920D01*
X119902412Y-106080269D01*
X120118645Y-106275178D01*
X120147986Y-106292656D01*
X119994721Y-106395064D01*
X119775064Y-106614721D01*
X119602481Y-106873011D01*
X119483604Y-107160006D01*
X119423000Y-107464679D01*
X113387500Y-107464679D01*
X113235410Y-107401681D01*
X112940396Y-107343000D01*
X112639604Y-107343000D01*
X112344590Y-107401681D01*
X112066694Y-107516790D01*
X111816594Y-107683901D01*
X111603901Y-107896594D01*
X111520000Y-108022161D01*
X111436099Y-107896594D01*
X111223406Y-107683901D01*
X110973306Y-107516790D01*
X110695410Y-107401681D01*
X110400396Y-107343000D01*
X110099604Y-107343000D01*
X109804590Y-107401681D01*
X109526694Y-107516790D01*
X109276594Y-107683901D01*
X109063901Y-107896594D01*
X108920323Y-108111475D01*
X108862385Y-108014869D01*
X108673414Y-107806481D01*
X108447420Y-107638963D01*
X108193087Y-107518754D01*
X108059039Y-107478096D01*
X107837000Y-107600085D01*
X107583000Y-107600085D01*
X107360961Y-107478096D01*
X107226913Y-107518754D01*
X106972580Y-107638963D01*
X106746586Y-107806481D01*
X106674042Y-107886479D01*
X106644910Y-107790443D01*
X106577403Y-107664147D01*
X106486554Y-107553446D01*
X106375853Y-107462597D01*
X106249557Y-107395090D01*
X106112517Y-107353520D01*
X105970000Y-107339483D01*
X104370000Y-107339483D01*
X104227483Y-107353520D01*
X104090443Y-107395090D01*
X103964147Y-107462597D01*
X103853446Y-107553446D01*
X103762597Y-107664147D01*
X103695090Y-107790443D01*
X103653520Y-107927483D01*
X103639483Y-108070000D01*
X100777000Y-108070000D01*
X100777000Y-101099604D01*
X103643000Y-101099604D01*
X103643000Y-101400396D01*
X103701681Y-101695410D01*
X103816790Y-101973306D01*
X103983901Y-102223406D01*
X104196594Y-102436099D01*
X104446694Y-102603210D01*
X104724590Y-102718319D01*
X105019604Y-102777000D01*
X105320396Y-102777000D01*
X105615410Y-102718319D01*
X105893306Y-102603210D01*
X106143406Y-102436099D01*
X106356099Y-102223406D01*
X106440000Y-102097839D01*
X106523901Y-102223406D01*
X106736594Y-102436099D01*
X106986694Y-102603210D01*
X107264590Y-102718319D01*
X107559604Y-102777000D01*
X107860396Y-102777000D01*
X108155410Y-102718319D01*
X108433306Y-102603210D01*
X108683406Y-102436099D01*
X108896099Y-102223406D01*
X108980000Y-102097839D01*
X109063901Y-102223406D01*
X109276594Y-102436099D01*
X109526694Y-102603210D01*
X109804590Y-102718319D01*
X110099604Y-102777000D01*
X110400396Y-102777000D01*
X110695410Y-102718319D01*
X110973306Y-102603210D01*
X111223406Y-102436099D01*
X111436099Y-102223406D01*
X111520000Y-102097839D01*
X111603901Y-102223406D01*
X111816594Y-102436099D01*
X112066694Y-102603210D01*
X112344590Y-102718319D01*
X112639604Y-102777000D01*
X112940396Y-102777000D01*
X113235410Y-102718319D01*
X113513306Y-102603210D01*
X113763406Y-102436099D01*
X113976099Y-102223406D01*
X114143210Y-101973306D01*
X114258319Y-101695410D01*
X114317000Y-101400396D01*
X114317000Y-101099604D01*
X114258319Y-100804590D01*
X114143210Y-100526694D01*
X113976099Y-100276594D01*
X113763406Y-100063901D01*
X113513306Y-99896790D01*
X113235410Y-99781681D01*
X112940396Y-99723000D01*
X112639604Y-99723000D01*
X112344590Y-99781681D01*
X112066694Y-99896790D01*
X111816594Y-100063901D01*
X111603901Y-100276594D01*
X111520000Y-100402161D01*
X111436099Y-100276594D01*
X111223406Y-100063901D01*
X110973306Y-99896790D01*
X110695410Y-99781681D01*
X110400396Y-99723000D01*
X110099604Y-99723000D01*
X109804590Y-99781681D01*
X109526694Y-99896790D01*
X109276594Y-100063901D01*
X109063901Y-100276594D01*
X108980000Y-100402161D01*
X108896099Y-100276594D01*
X108683406Y-100063901D01*
X108433306Y-99896790D01*
X108155410Y-99781681D01*
X107860396Y-99723000D01*
X107559604Y-99723000D01*
X107264590Y-99781681D01*
X106986694Y-99896790D01*
X106736594Y-100063901D01*
X106523901Y-100276594D01*
X106440000Y-100402161D01*
X106356099Y-100276594D01*
X106143406Y-100063901D01*
X105893306Y-99896790D01*
X105615410Y-99781681D01*
X105320396Y-99723000D01*
X105019604Y-99723000D01*
X104724590Y-99781681D01*
X104446694Y-99896790D01*
X104196594Y-100063901D01*
X103983901Y-100276594D01*
X103816790Y-100526694D01*
X103701681Y-100804590D01*
X103643000Y-101099604D01*
X100777000Y-101099604D01*
X100777000Y-99150000D01*
X119419483Y-99150000D01*
X119419483Y-100850000D01*
X119433520Y-100992517D01*
X119475090Y-101129557D01*
X119542597Y-101255853D01*
X119633446Y-101366554D01*
X119744147Y-101457403D01*
X119814681Y-101495104D01*
X119775064Y-101534721D01*
X119602481Y-101793011D01*
X119483604Y-102080006D01*
X119423000Y-102384679D01*
X119423000Y-102695321D01*
X119483604Y-102999994D01*
X119602481Y-103286989D01*
X119775064Y-103545279D01*
X119994721Y-103764936D01*
X120147986Y-103867344D01*
X120118645Y-103884822D01*
X119902412Y-104079731D01*
X119728359Y-104313080D01*
X119603175Y-104575901D01*
X119558524Y-104723110D01*
X119679845Y-104953000D01*
X120873000Y-104953000D01*
X120873000Y-104933000D01*
X121127000Y-104933000D01*
X121127000Y-104953000D01*
X122320155Y-104953000D01*
X122441476Y-104723110D01*
X122396825Y-104575901D01*
X122271641Y-104313080D01*
X122097588Y-104079731D01*
X121881355Y-103884822D01*
X121852014Y-103867344D01*
X122005279Y-103764936D01*
X122224936Y-103545279D01*
X122397519Y-103286989D01*
X122516396Y-102999994D01*
X122577000Y-102695321D01*
X122577000Y-102384679D01*
X122516396Y-102080006D01*
X122397519Y-101793011D01*
X122224936Y-101534721D01*
X122185319Y-101495104D01*
X122255853Y-101457403D01*
X122366554Y-101366554D01*
X122457403Y-101255853D01*
X122524910Y-101129557D01*
X122566480Y-100992517D01*
X122580517Y-100850000D01*
X122580517Y-99150000D01*
X122566480Y-99007483D01*
X122524910Y-98870443D01*
X122457403Y-98744147D01*
X122366554Y-98633446D01*
X122255853Y-98542597D01*
X122129557Y-98475090D01*
X121992517Y-98433520D01*
X121850000Y-98419483D01*
X120150000Y-98419483D01*
X120007483Y-98433520D01*
X119870443Y-98475090D01*
X119744147Y-98542597D01*
X119633446Y-98633446D01*
X119542597Y-98744147D01*
X119475090Y-98870443D01*
X119433520Y-99007483D01*
X119419483Y-99150000D01*
X100777000Y-99150000D01*
X100777000Y-94900000D01*
X103629483Y-94900000D01*
X103629483Y-96600000D01*
X103643520Y-96742517D01*
X103685090Y-96879557D01*
X103752597Y-97005853D01*
X103843446Y-97116554D01*
X103954147Y-97207403D01*
X104080443Y-97274910D01*
X104217483Y-97316480D01*
X104360000Y-97330517D01*
X106060000Y-97330517D01*
X106202517Y-97316480D01*
X106339557Y-97274910D01*
X106465853Y-97207403D01*
X106576554Y-97116554D01*
X106667403Y-97005853D01*
X106705104Y-96935319D01*
X106744721Y-96974936D01*
X107003011Y-97147519D01*
X107290006Y-97266396D01*
X107594679Y-97327000D01*
X107905321Y-97327000D01*
X108209994Y-97266396D01*
X108496989Y-97147519D01*
X108755279Y-96974936D01*
X108974936Y-96755279D01*
X109020000Y-96687836D01*
X109065064Y-96755279D01*
X109284721Y-96974936D01*
X109543011Y-97147519D01*
X109830006Y-97266396D01*
X110134679Y-97327000D01*
X110445321Y-97327000D01*
X110749994Y-97266396D01*
X111036989Y-97147519D01*
X111295279Y-96974936D01*
X111514936Y-96755279D01*
X111560000Y-96687836D01*
X111605064Y-96755279D01*
X111824721Y-96974936D01*
X112083011Y-97147519D01*
X112370006Y-97266396D01*
X112674679Y-97327000D01*
X112985321Y-97327000D01*
X113289994Y-97266396D01*
X113576989Y-97147519D01*
X113835279Y-96974936D01*
X114054936Y-96755279D01*
X114227519Y-96496989D01*
X114346396Y-96209994D01*
X114407000Y-95905321D01*
X114407000Y-95594679D01*
X114346396Y-95290006D01*
X114227519Y-95003011D01*
X114054936Y-94744721D01*
X113835279Y-94525064D01*
X113576989Y-94352481D01*
X113289994Y-94233604D01*
X112985321Y-94173000D01*
X112674679Y-94173000D01*
X112370006Y-94233604D01*
X112083011Y-94352481D01*
X111824721Y-94525064D01*
X111605064Y-94744721D01*
X111560000Y-94812164D01*
X111514936Y-94744721D01*
X111295279Y-94525064D01*
X111036989Y-94352481D01*
X110749994Y-94233604D01*
X110445321Y-94173000D01*
X110134679Y-94173000D01*
X109830006Y-94233604D01*
X109543011Y-94352481D01*
X109284721Y-94525064D01*
X109065064Y-94744721D01*
X109020000Y-94812164D01*
X108974936Y-94744721D01*
X108755279Y-94525064D01*
X108496989Y-94352481D01*
X108209994Y-94233604D01*
X107905321Y-94173000D01*
X107594679Y-94173000D01*
X107290006Y-94233604D01*
X107003011Y-94352481D01*
X106744721Y-94525064D01*
X106705104Y-94564681D01*
X106667403Y-94494147D01*
X106576554Y-94383446D01*
X106465853Y-94292597D01*
X106339557Y-94225090D01*
X106202517Y-94183520D01*
X106060000Y-94169483D01*
X104360000Y-94169483D01*
X104217483Y-94183520D01*
X104080443Y-94225090D01*
X103954147Y-94292597D01*
X103843446Y-94383446D01*
X103752597Y-94494147D01*
X103685090Y-94620443D01*
X103643520Y-94757483D01*
X103629483Y-94900000D01*
X100777000Y-94900000D01*
X100777000Y-89320000D01*
X103639483Y-89320000D01*
X103639483Y-90920000D01*
X103653520Y-91062517D01*
X103695090Y-91199557D01*
X103762597Y-91325853D01*
X103853446Y-91436554D01*
X103964147Y-91527403D01*
X104090443Y-91594910D01*
X104227483Y-91636480D01*
X104370000Y-91650517D01*
X105970000Y-91650517D01*
X106112517Y-91636480D01*
X106249557Y-91594910D01*
X106375853Y-91527403D01*
X106486554Y-91436554D01*
X106577403Y-91325853D01*
X106639735Y-91209240D01*
X106736594Y-91306099D01*
X106986694Y-91473210D01*
X107264590Y-91588319D01*
X107559604Y-91647000D01*
X107860396Y-91647000D01*
X108155410Y-91588319D01*
X108433306Y-91473210D01*
X108683406Y-91306099D01*
X108896099Y-91093406D01*
X108980000Y-90967839D01*
X109063901Y-91093406D01*
X109276594Y-91306099D01*
X109526694Y-91473210D01*
X109804590Y-91588319D01*
X110099604Y-91647000D01*
X110400396Y-91647000D01*
X110695410Y-91588319D01*
X110973306Y-91473210D01*
X111223406Y-91306099D01*
X111436099Y-91093406D01*
X111520000Y-90967839D01*
X111603901Y-91093406D01*
X111816594Y-91306099D01*
X112066694Y-91473210D01*
X112344590Y-91588319D01*
X112639604Y-91647000D01*
X112940396Y-91647000D01*
X113226958Y-91590000D01*
X119419483Y-91590000D01*
X119419483Y-93290000D01*
X119433520Y-93432517D01*
X119475090Y-93569557D01*
X119542597Y-93695853D01*
X119633446Y-93806554D01*
X119744147Y-93897403D01*
X119814681Y-93935104D01*
X119775064Y-93974721D01*
X119602481Y-94233011D01*
X119483604Y-94520006D01*
X119423000Y-94824679D01*
X119423000Y-95135321D01*
X119483604Y-95439994D01*
X119602481Y-95726989D01*
X119775064Y-95985279D01*
X119994721Y-96204936D01*
X120253011Y-96377519D01*
X120540006Y-96496396D01*
X120844679Y-96557000D01*
X121155321Y-96557000D01*
X121459994Y-96496396D01*
X121746989Y-96377519D01*
X122005279Y-96204936D01*
X122224936Y-95985279D01*
X122397519Y-95726989D01*
X122516396Y-95439994D01*
X122577000Y-95135321D01*
X122577000Y-94824679D01*
X122516396Y-94520006D01*
X122397519Y-94233011D01*
X122224936Y-93974721D01*
X122185319Y-93935104D01*
X122255853Y-93897403D01*
X122366554Y-93806554D01*
X122457403Y-93695853D01*
X122524910Y-93569557D01*
X122566480Y-93432517D01*
X122580517Y-93290000D01*
X122580517Y-91590000D01*
X122566480Y-91447483D01*
X122524910Y-91310443D01*
X122457403Y-91184147D01*
X122366554Y-91073446D01*
X122255853Y-90982597D01*
X122129557Y-90915090D01*
X121992517Y-90873520D01*
X121850000Y-90859483D01*
X120150000Y-90859483D01*
X120007483Y-90873520D01*
X119870443Y-90915090D01*
X119744147Y-90982597D01*
X119633446Y-91073446D01*
X119542597Y-91184147D01*
X119475090Y-91310443D01*
X119433520Y-91447483D01*
X119419483Y-91590000D01*
X113226958Y-91590000D01*
X113235410Y-91588319D01*
X113513306Y-91473210D01*
X113763406Y-91306099D01*
X113976099Y-91093406D01*
X114143210Y-90843306D01*
X114258319Y-90565410D01*
X114317000Y-90270396D01*
X114317000Y-89969604D01*
X114258319Y-89674590D01*
X114143210Y-89396694D01*
X113976099Y-89146594D01*
X113763406Y-88933901D01*
X113513306Y-88766790D01*
X113235410Y-88651681D01*
X112940396Y-88593000D01*
X112639604Y-88593000D01*
X112344590Y-88651681D01*
X112066694Y-88766790D01*
X111816594Y-88933901D01*
X111603901Y-89146594D01*
X111520000Y-89272161D01*
X111436099Y-89146594D01*
X111223406Y-88933901D01*
X110973306Y-88766790D01*
X110695410Y-88651681D01*
X110400396Y-88593000D01*
X110099604Y-88593000D01*
X109804590Y-88651681D01*
X109526694Y-88766790D01*
X109276594Y-88933901D01*
X109063901Y-89146594D01*
X108980000Y-89272161D01*
X108896099Y-89146594D01*
X108683406Y-88933901D01*
X108433306Y-88766790D01*
X108155410Y-88651681D01*
X107860396Y-88593000D01*
X107559604Y-88593000D01*
X107264590Y-88651681D01*
X106986694Y-88766790D01*
X106736594Y-88933901D01*
X106639735Y-89030760D01*
X106577403Y-88914147D01*
X106486554Y-88803446D01*
X106375853Y-88712597D01*
X106249557Y-88645090D01*
X106112517Y-88603520D01*
X105970000Y-88589483D01*
X104370000Y-88589483D01*
X104227483Y-88603520D01*
X104090443Y-88645090D01*
X103964147Y-88712597D01*
X103853446Y-88803446D01*
X103762597Y-88914147D01*
X103695090Y-89040443D01*
X103653520Y-89177483D01*
X103639483Y-89320000D01*
X100777000Y-89320000D01*
X100777000Y-86440000D01*
X119419483Y-86440000D01*
X119419483Y-88140000D01*
X119433520Y-88282517D01*
X119475090Y-88419557D01*
X119542597Y-88545853D01*
X119633446Y-88656554D01*
X119744147Y-88747403D01*
X119870443Y-88814910D01*
X120007483Y-88856480D01*
X120150000Y-88870517D01*
X121850000Y-88870517D01*
X121992517Y-88856480D01*
X122129557Y-88814910D01*
X122255853Y-88747403D01*
X122366554Y-88656554D01*
X122457403Y-88545853D01*
X122524910Y-88419557D01*
X122566480Y-88282517D01*
X122580517Y-88140000D01*
X122580517Y-86440000D01*
X122566480Y-86297483D01*
X122524910Y-86160443D01*
X122457403Y-86034147D01*
X122366554Y-85923446D01*
X122255853Y-85832597D01*
X122185319Y-85794896D01*
X122224936Y-85755279D01*
X122397519Y-85496989D01*
X122516396Y-85209994D01*
X122577000Y-84905321D01*
X122577000Y-84594679D01*
X122516396Y-84290006D01*
X122397519Y-84003011D01*
X122224936Y-83744721D01*
X122005279Y-83525064D01*
X121746989Y-83352481D01*
X121459994Y-83233604D01*
X121155321Y-83173000D01*
X120844679Y-83173000D01*
X120540006Y-83233604D01*
X120253011Y-83352481D01*
X119994721Y-83525064D01*
X119775064Y-83744721D01*
X119602481Y-84003011D01*
X119483604Y-84290006D01*
X119423000Y-84594679D01*
X119423000Y-84905321D01*
X119483604Y-85209994D01*
X119602481Y-85496989D01*
X119775064Y-85755279D01*
X119814681Y-85794896D01*
X119744147Y-85832597D01*
X119633446Y-85923446D01*
X119542597Y-86034147D01*
X119475090Y-86160443D01*
X119433520Y-86297483D01*
X119419483Y-86440000D01*
X100777000Y-86440000D01*
X100777000Y-82849040D01*
X103778091Y-82849040D01*
X103872930Y-83113881D01*
X104017615Y-83355131D01*
X104206586Y-83563519D01*
X104432580Y-83731037D01*
X104686913Y-83851246D01*
X104820961Y-83891904D01*
X105043000Y-83769915D01*
X105043000Y-82627000D01*
X103899376Y-82627000D01*
X103778091Y-82849040D01*
X100777000Y-82849040D01*
X100777000Y-82150960D01*
X103778091Y-82150960D01*
X103899376Y-82373000D01*
X105043000Y-82373000D01*
X105043000Y-81230085D01*
X105297000Y-81230085D01*
X105297000Y-82373000D01*
X105317000Y-82373000D01*
X105317000Y-82627000D01*
X105297000Y-82627000D01*
X105297000Y-83769915D01*
X105519039Y-83891904D01*
X105653087Y-83851246D01*
X105907420Y-83731037D01*
X106133414Y-83563519D01*
X106322385Y-83355131D01*
X106380323Y-83258525D01*
X106523901Y-83473406D01*
X106736594Y-83686099D01*
X106986694Y-83853210D01*
X107264590Y-83968319D01*
X107559604Y-84027000D01*
X107860396Y-84027000D01*
X108155410Y-83968319D01*
X108433306Y-83853210D01*
X108683406Y-83686099D01*
X108896099Y-83473406D01*
X108980000Y-83347839D01*
X109063901Y-83473406D01*
X109276594Y-83686099D01*
X109526694Y-83853210D01*
X109804590Y-83968319D01*
X110099604Y-84027000D01*
X110400396Y-84027000D01*
X110695410Y-83968319D01*
X110973306Y-83853210D01*
X111223406Y-83686099D01*
X111436099Y-83473406D01*
X111520000Y-83347839D01*
X111603901Y-83473406D01*
X111816594Y-83686099D01*
X112066694Y-83853210D01*
X112344590Y-83968319D01*
X112639604Y-84027000D01*
X112940396Y-84027000D01*
X113235410Y-83968319D01*
X113513306Y-83853210D01*
X113763406Y-83686099D01*
X113976099Y-83473406D01*
X114143210Y-83223306D01*
X114258319Y-82945410D01*
X114317000Y-82650396D01*
X114317000Y-82349604D01*
X114258319Y-82054590D01*
X114143210Y-81776694D01*
X113976099Y-81526594D01*
X113763406Y-81313901D01*
X113513306Y-81146790D01*
X113235410Y-81031681D01*
X112940396Y-80973000D01*
X112639604Y-80973000D01*
X112344590Y-81031681D01*
X112066694Y-81146790D01*
X111816594Y-81313901D01*
X111603901Y-81526594D01*
X111520000Y-81652161D01*
X111436099Y-81526594D01*
X111223406Y-81313901D01*
X110973306Y-81146790D01*
X110695410Y-81031681D01*
X110400396Y-80973000D01*
X110099604Y-80973000D01*
X109804590Y-81031681D01*
X109526694Y-81146790D01*
X109276594Y-81313901D01*
X109063901Y-81526594D01*
X108980000Y-81652161D01*
X108896099Y-81526594D01*
X108683406Y-81313901D01*
X108433306Y-81146790D01*
X108155410Y-81031681D01*
X107860396Y-80973000D01*
X107559604Y-80973000D01*
X107264590Y-81031681D01*
X106986694Y-81146790D01*
X106736594Y-81313901D01*
X106523901Y-81526594D01*
X106380323Y-81741475D01*
X106322385Y-81644869D01*
X106133414Y-81436481D01*
X105907420Y-81268963D01*
X105653087Y-81148754D01*
X105519039Y-81108096D01*
X105297000Y-81230085D01*
X105043000Y-81230085D01*
X104820961Y-81108096D01*
X104686913Y-81148754D01*
X104432580Y-81268963D01*
X104206586Y-81436481D01*
X104017615Y-81644869D01*
X103872930Y-81886119D01*
X103778091Y-82150960D01*
X100777000Y-82150960D01*
X100777000Y-76860660D01*
X102773000Y-76860660D01*
X102773000Y-77299340D01*
X102858582Y-77729592D01*
X103026458Y-78134880D01*
X103270176Y-78499630D01*
X103580370Y-78809824D01*
X103945120Y-79053542D01*
X104350408Y-79221418D01*
X104780660Y-79307000D01*
X105219340Y-79307000D01*
X105649592Y-79221418D01*
X106054880Y-79053542D01*
X106419630Y-78809824D01*
X106729824Y-78499630D01*
X106973542Y-78134880D01*
X107141418Y-77729592D01*
X107227000Y-77299340D01*
X107227000Y-76860660D01*
X107141418Y-76430408D01*
X106973542Y-76025120D01*
X106729824Y-75660370D01*
X106419630Y-75350176D01*
X106054880Y-75106458D01*
X105649592Y-74938582D01*
X105219340Y-74853000D01*
X104780660Y-74853000D01*
X104350408Y-74938582D01*
X103945120Y-75106458D01*
X103580370Y-75350176D01*
X103270176Y-75660370D01*
X103026458Y-76025120D01*
X102858582Y-76430408D01*
X102773000Y-76860660D01*
X100777000Y-76860660D01*
X100777000Y-70500000D01*
X102769483Y-70500000D01*
X102769483Y-73500000D01*
X102783520Y-73642517D01*
X102825090Y-73779557D01*
X102892597Y-73905853D01*
X102983446Y-74016554D01*
X103094147Y-74107403D01*
X103220443Y-74174910D01*
X103357483Y-74216480D01*
X103500000Y-74230517D01*
X106500000Y-74230517D01*
X106642517Y-74216480D01*
X106779557Y-74174910D01*
X106905853Y-74107403D01*
X107016554Y-74016554D01*
X107107403Y-73905853D01*
X107174910Y-73779557D01*
X107216480Y-73642517D01*
X107230517Y-73500000D01*
X107230517Y-70500000D01*
X107216480Y-70357483D01*
X107174910Y-70220443D01*
X107107403Y-70094147D01*
X107016554Y-69983446D01*
X106905853Y-69892597D01*
X106779557Y-69825090D01*
X106642517Y-69783520D01*
X106500000Y-69769483D01*
X103500000Y-69769483D01*
X103357483Y-69783520D01*
X103220443Y-69825090D01*
X103094147Y-69892597D01*
X102983446Y-69983446D01*
X102892597Y-70094147D01*
X102825090Y-70220443D01*
X102783520Y-70357483D01*
X102769483Y-70500000D01*
X100777000Y-70500000D01*
X100777000Y-64770811D01*
X102673000Y-64770811D01*
X102673000Y-65229189D01*
X102762426Y-65678761D01*
X102937840Y-66102248D01*
X103192501Y-66483376D01*
X103516624Y-66807499D01*
X103897752Y-67062160D01*
X104321239Y-67237574D01*
X104770811Y-67327000D01*
X105229189Y-67327000D01*
X105678761Y-67237574D01*
X106102248Y-67062160D01*
X106361400Y-66889000D01*
X109623000Y-66889000D01*
X109623000Y-67111000D01*
X109666310Y-67328734D01*
X109751266Y-67533835D01*
X109874602Y-67718421D01*
X110031579Y-67875398D01*
X110216165Y-67998734D01*
X110421266Y-68083690D01*
X110639000Y-68127000D01*
X110861000Y-68127000D01*
X111078734Y-68083690D01*
X111283835Y-67998734D01*
X111468421Y-67875398D01*
X111625398Y-67718421D01*
X111748734Y-67533835D01*
X111833690Y-67328734D01*
X111877000Y-67111000D01*
X111877000Y-66889000D01*
X111852272Y-66764679D01*
X119423000Y-66764679D01*
X119423000Y-67075321D01*
X119483604Y-67379994D01*
X119602481Y-67666989D01*
X119775064Y-67925279D01*
X119994721Y-68144936D01*
X120062164Y-68190000D01*
X119994721Y-68235064D01*
X119775064Y-68454721D01*
X119602481Y-68713011D01*
X119483604Y-69000006D01*
X119423000Y-69304679D01*
X119423000Y-69615321D01*
X119483604Y-69919994D01*
X119602481Y-70206989D01*
X119775064Y-70465279D01*
X119994721Y-70684936D01*
X120062164Y-70730000D01*
X119994721Y-70775064D01*
X119775064Y-70994721D01*
X119602481Y-71253011D01*
X119483604Y-71540006D01*
X119423000Y-71844679D01*
X119423000Y-72155321D01*
X119483604Y-72459994D01*
X119602481Y-72746989D01*
X119775064Y-73005279D01*
X119994721Y-73224936D01*
X120062164Y-73270000D01*
X119994721Y-73315064D01*
X119775064Y-73534721D01*
X119602481Y-73793011D01*
X119483604Y-74080006D01*
X119423000Y-74384679D01*
X119423000Y-74695321D01*
X119483604Y-74999994D01*
X119602481Y-75286989D01*
X119775064Y-75545279D01*
X119994721Y-75764936D01*
X120062164Y-75810000D01*
X119994721Y-75855064D01*
X119775064Y-76074721D01*
X119602481Y-76333011D01*
X119483604Y-76620006D01*
X119423000Y-76924679D01*
X119423000Y-77235321D01*
X119483604Y-77539994D01*
X119602481Y-77826989D01*
X119775064Y-78085279D01*
X119994721Y-78304936D01*
X120062164Y-78350000D01*
X119994721Y-78395064D01*
X119775064Y-78614721D01*
X119602481Y-78873011D01*
X119483604Y-79160006D01*
X119423000Y-79464679D01*
X119423000Y-79775321D01*
X119483604Y-80079994D01*
X119602481Y-80366989D01*
X119775064Y-80625279D01*
X119994721Y-80844936D01*
X120253011Y-81017519D01*
X120540006Y-81136396D01*
X120844679Y-81197000D01*
X121155321Y-81197000D01*
X121459994Y-81136396D01*
X121746989Y-81017519D01*
X122005279Y-80844936D01*
X122224936Y-80625279D01*
X122397519Y-80366989D01*
X122516396Y-80079994D01*
X122577000Y-79775321D01*
X122577000Y-79464679D01*
X122516396Y-79160006D01*
X122397519Y-78873011D01*
X122224936Y-78614721D01*
X122005279Y-78395064D01*
X121937836Y-78350000D01*
X122005279Y-78304936D01*
X122224936Y-78085279D01*
X122397519Y-77826989D01*
X122516396Y-77539994D01*
X122577000Y-77235321D01*
X122577000Y-76924679D01*
X122516396Y-76620006D01*
X122397519Y-76333011D01*
X122224936Y-76074721D01*
X122005279Y-75855064D01*
X121937836Y-75810000D01*
X122005279Y-75764936D01*
X122224936Y-75545279D01*
X122397519Y-75286989D01*
X122516396Y-74999994D01*
X122577000Y-74695321D01*
X122577000Y-74384679D01*
X122516396Y-74080006D01*
X122397519Y-73793011D01*
X122224936Y-73534721D01*
X122005279Y-73315064D01*
X121937836Y-73270000D01*
X122005279Y-73224936D01*
X122224936Y-73005279D01*
X122397519Y-72746989D01*
X122516396Y-72459994D01*
X122577000Y-72155321D01*
X122577000Y-71844679D01*
X122516396Y-71540006D01*
X122397519Y-71253011D01*
X122224936Y-70994721D01*
X122005279Y-70775064D01*
X121937836Y-70730000D01*
X122005279Y-70684936D01*
X122224936Y-70465279D01*
X122397519Y-70206989D01*
X122516396Y-69919994D01*
X122577000Y-69615321D01*
X122577000Y-69304679D01*
X122516396Y-69000006D01*
X122397519Y-68713011D01*
X122224936Y-68454721D01*
X122005279Y-68235064D01*
X121937836Y-68190000D01*
X122005279Y-68144936D01*
X122224936Y-67925279D01*
X122397519Y-67666989D01*
X122516396Y-67379994D01*
X122577000Y-67075321D01*
X122577000Y-66764679D01*
X122516396Y-66460006D01*
X122397519Y-66173011D01*
X122224936Y-65914721D01*
X122117338Y-65807123D01*
X122204494Y-65760537D01*
X122301185Y-65681185D01*
X122380537Y-65584494D01*
X122439502Y-65474180D01*
X122475812Y-65354482D01*
X122488072Y-65230000D01*
X122485000Y-64665750D01*
X122326250Y-64507000D01*
X121127000Y-64507000D01*
X121127000Y-64527000D01*
X120873000Y-64527000D01*
X120873000Y-64507000D01*
X119673750Y-64507000D01*
X119515000Y-64665750D01*
X119511928Y-65230000D01*
X119524188Y-65354482D01*
X119560498Y-65474180D01*
X119619463Y-65584494D01*
X119698815Y-65681185D01*
X119795506Y-65760537D01*
X119882662Y-65807123D01*
X119775064Y-65914721D01*
X119602481Y-66173011D01*
X119483604Y-66460006D01*
X119423000Y-66764679D01*
X111852272Y-66764679D01*
X111833690Y-66671266D01*
X111748734Y-66466165D01*
X111625398Y-66281579D01*
X111468421Y-66124602D01*
X111283835Y-66001266D01*
X111078734Y-65916310D01*
X110861000Y-65873000D01*
X110639000Y-65873000D01*
X110421266Y-65916310D01*
X110216165Y-66001266D01*
X110031579Y-66124602D01*
X109874602Y-66281579D01*
X109751266Y-66466165D01*
X109666310Y-66671266D01*
X109623000Y-66889000D01*
X106361400Y-66889000D01*
X106483376Y-66807499D01*
X106807499Y-66483376D01*
X107062160Y-66102248D01*
X107237574Y-65678761D01*
X107327000Y-65229189D01*
X107327000Y-64770811D01*
X107237574Y-64321239D01*
X107062160Y-63897752D01*
X106816437Y-63530000D01*
X119511928Y-63530000D01*
X119515000Y-64094250D01*
X119673750Y-64253000D01*
X120873000Y-64253000D01*
X120873000Y-63053750D01*
X121127000Y-63053750D01*
X121127000Y-64253000D01*
X122326250Y-64253000D01*
X122440250Y-64139000D01*
X123373000Y-64139000D01*
X123373000Y-64361000D01*
X123416310Y-64578734D01*
X123501266Y-64783835D01*
X123624602Y-64968421D01*
X123781579Y-65125398D01*
X123966165Y-65248734D01*
X124171266Y-65333690D01*
X124389000Y-65377000D01*
X124611000Y-65377000D01*
X124828734Y-65333690D01*
X125033835Y-65248734D01*
X125218421Y-65125398D01*
X125375398Y-64968421D01*
X125498734Y-64783835D01*
X125583690Y-64578734D01*
X125627000Y-64361000D01*
X125627000Y-64139000D01*
X125583690Y-63921266D01*
X125498734Y-63716165D01*
X125375398Y-63531579D01*
X125218421Y-63374602D01*
X125033835Y-63251266D01*
X124828734Y-63166310D01*
X124611000Y-63123000D01*
X124389000Y-63123000D01*
X124171266Y-63166310D01*
X123966165Y-63251266D01*
X123781579Y-63374602D01*
X123624602Y-63531579D01*
X123501266Y-63716165D01*
X123416310Y-63921266D01*
X123373000Y-64139000D01*
X122440250Y-64139000D01*
X122485000Y-64094250D01*
X122488072Y-63530000D01*
X122475812Y-63405518D01*
X122439502Y-63285820D01*
X122380537Y-63175506D01*
X122301185Y-63078815D01*
X122204494Y-62999463D01*
X122094180Y-62940498D01*
X121974482Y-62904188D01*
X121850000Y-62891928D01*
X121285750Y-62895000D01*
X121127000Y-63053750D01*
X120873000Y-63053750D01*
X120714250Y-62895000D01*
X120150000Y-62891928D01*
X120025518Y-62904188D01*
X119905820Y-62940498D01*
X119795506Y-62999463D01*
X119698815Y-63078815D01*
X119619463Y-63175506D01*
X119560498Y-63285820D01*
X119524188Y-63405518D01*
X119511928Y-63530000D01*
X106816437Y-63530000D01*
X106807499Y-63516624D01*
X106483376Y-63192501D01*
X106102248Y-62937840D01*
X105678761Y-62762426D01*
X105229189Y-62673000D01*
X104770811Y-62673000D01*
X104321239Y-62762426D01*
X103897752Y-62937840D01*
X103516624Y-63192501D01*
X103192501Y-63516624D01*
X102937840Y-63897752D01*
X102762426Y-64321239D01*
X102673000Y-64770811D01*
X100777000Y-64770811D01*
X100777000Y-60777000D01*
X126873000Y-60777000D01*
X126873000Y-103529181D01*
G37*
%TD.AperFunction*%
%TD*%
M02*
