%TF.GenerationSoftware,KiCad,Pcbnew,(5.1.10)-1*%
%TF.CreationDate,2022-06-03T10:18:56+01:00*%
%TF.ProjectId,GTI_V3,4754495f-5633-42e6-9b69-6361645f7063,rev?*%
%TF.SameCoordinates,Original*%
%TF.FileFunction,Legend,Top*%
%TF.FilePolarity,Positive*%
%FSLAX46Y46*%
G04 Gerber Fmt 4.6, Leading zero omitted, Abs format (unit mm)*
G04 Created by KiCad (PCBNEW (5.1.10)-1) date 2022-06-03 10:18:56*
%MOMM*%
%LPD*%
G01*
G04 APERTURE LIST*
%ADD10C,0.150000*%
%ADD11C,0.120000*%
%ADD12C,0.200000*%
%ADD13C,0.127000*%
%ADD14C,0.254000*%
G04 APERTURE END LIST*
D10*
X180683333Y-61700000D02*
X180588095Y-61652380D01*
X180445238Y-61652380D01*
X180302380Y-61700000D01*
X180207142Y-61795238D01*
X180159523Y-61890476D01*
X180111904Y-62080952D01*
X180111904Y-62223809D01*
X180159523Y-62414285D01*
X180207142Y-62509523D01*
X180302380Y-62604761D01*
X180445238Y-62652380D01*
X180540476Y-62652380D01*
X180683333Y-62604761D01*
X180730952Y-62557142D01*
X180730952Y-62223809D01*
X180540476Y-62223809D01*
X181016666Y-61652380D02*
X181588095Y-61652380D01*
X181302380Y-62652380D02*
X181302380Y-61652380D01*
X181921428Y-62652380D02*
X181921428Y-61652380D01*
X183064285Y-61985714D02*
X183302380Y-62652380D01*
X183540476Y-61985714D01*
X183826190Y-61652380D02*
X184445238Y-61652380D01*
X184111904Y-62033333D01*
X184254761Y-62033333D01*
X184350000Y-62080952D01*
X184397619Y-62128571D01*
X184445238Y-62223809D01*
X184445238Y-62461904D01*
X184397619Y-62557142D01*
X184350000Y-62604761D01*
X184254761Y-62652380D01*
X183969047Y-62652380D01*
X183873809Y-62604761D01*
X183826190Y-62557142D01*
X185921428Y-61652380D02*
X185921428Y-62366666D01*
X185873809Y-62509523D01*
X185778571Y-62604761D01*
X185635714Y-62652380D01*
X185540476Y-62652380D01*
X186826190Y-62652380D02*
X186826190Y-62128571D01*
X186778571Y-62033333D01*
X186683333Y-61985714D01*
X186492857Y-61985714D01*
X186397619Y-62033333D01*
X186826190Y-62604761D02*
X186730952Y-62652380D01*
X186492857Y-62652380D01*
X186397619Y-62604761D01*
X186350000Y-62509523D01*
X186350000Y-62414285D01*
X186397619Y-62319047D01*
X186492857Y-62271428D01*
X186730952Y-62271428D01*
X186826190Y-62223809D01*
X187302380Y-62652380D02*
X187302380Y-61985714D01*
X187302380Y-62080952D02*
X187350000Y-62033333D01*
X187445238Y-61985714D01*
X187588095Y-61985714D01*
X187683333Y-62033333D01*
X187730952Y-62128571D01*
X187730952Y-62652380D01*
X187730952Y-62128571D02*
X187778571Y-62033333D01*
X187873809Y-61985714D01*
X188016666Y-61985714D01*
X188111904Y-62033333D01*
X188159523Y-62128571D01*
X188159523Y-62652380D01*
X189016666Y-62604761D02*
X188921428Y-62652380D01*
X188730952Y-62652380D01*
X188635714Y-62604761D01*
X188588095Y-62509523D01*
X188588095Y-62128571D01*
X188635714Y-62033333D01*
X188730952Y-61985714D01*
X188921428Y-61985714D01*
X189016666Y-62033333D01*
X189064285Y-62128571D01*
X189064285Y-62223809D01*
X188588095Y-62319047D01*
X189445238Y-62604761D02*
X189540476Y-62652380D01*
X189730952Y-62652380D01*
X189826190Y-62604761D01*
X189873809Y-62509523D01*
X189873809Y-62461904D01*
X189826190Y-62366666D01*
X189730952Y-62319047D01*
X189588095Y-62319047D01*
X189492857Y-62271428D01*
X189445238Y-62176190D01*
X189445238Y-62128571D01*
X189492857Y-62033333D01*
X189588095Y-61985714D01*
X189730952Y-61985714D01*
X189826190Y-62033333D01*
X191397619Y-62128571D02*
X191064285Y-62128571D01*
X191064285Y-62652380D02*
X191064285Y-61652380D01*
X191540476Y-61652380D01*
X192064285Y-62652380D02*
X191969047Y-62604761D01*
X191921428Y-62557142D01*
X191873809Y-62461904D01*
X191873809Y-62176190D01*
X191921428Y-62080952D01*
X191969047Y-62033333D01*
X192064285Y-61985714D01*
X192207142Y-61985714D01*
X192302380Y-62033333D01*
X192350000Y-62080952D01*
X192397619Y-62176190D01*
X192397619Y-62461904D01*
X192350000Y-62557142D01*
X192302380Y-62604761D01*
X192207142Y-62652380D01*
X192064285Y-62652380D01*
X192683333Y-61985714D02*
X193064285Y-61985714D01*
X192826190Y-61652380D02*
X192826190Y-62509523D01*
X192873809Y-62604761D01*
X192969047Y-62652380D01*
X193064285Y-62652380D01*
X193397619Y-62652380D02*
X193397619Y-61652380D01*
X193826190Y-62652380D02*
X193826190Y-62128571D01*
X193778571Y-62033333D01*
X193683333Y-61985714D01*
X193540476Y-61985714D01*
X193445238Y-62033333D01*
X193397619Y-62080952D01*
X194683333Y-62604761D02*
X194588095Y-62652380D01*
X194397619Y-62652380D01*
X194302380Y-62604761D01*
X194254761Y-62509523D01*
X194254761Y-62128571D01*
X194302380Y-62033333D01*
X194397619Y-61985714D01*
X194588095Y-61985714D01*
X194683333Y-62033333D01*
X194730952Y-62128571D01*
X194730952Y-62223809D01*
X194254761Y-62319047D01*
X195159523Y-62652380D02*
X195159523Y-61985714D01*
X195159523Y-62176190D02*
X195207142Y-62080952D01*
X195254761Y-62033333D01*
X195350000Y-61985714D01*
X195445238Y-61985714D01*
X195778571Y-62652380D02*
X195778571Y-61652380D01*
X195778571Y-62033333D02*
X195873809Y-61985714D01*
X196064285Y-61985714D01*
X196159523Y-62033333D01*
X196207142Y-62080952D01*
X196254761Y-62176190D01*
X196254761Y-62461904D01*
X196207142Y-62557142D01*
X196159523Y-62604761D01*
X196064285Y-62652380D01*
X195873809Y-62652380D01*
X195778571Y-62604761D01*
X196588095Y-61985714D02*
X196826190Y-62652380D01*
X197064285Y-61985714D02*
X196826190Y-62652380D01*
X196730952Y-62890476D01*
X196683333Y-62938095D01*
X196588095Y-62985714D01*
X198159523Y-61747619D02*
X198207142Y-61700000D01*
X198302380Y-61652380D01*
X198540476Y-61652380D01*
X198635714Y-61700000D01*
X198683333Y-61747619D01*
X198730952Y-61842857D01*
X198730952Y-61938095D01*
X198683333Y-62080952D01*
X198111904Y-62652380D01*
X198730952Y-62652380D01*
X199350000Y-61652380D02*
X199445238Y-61652380D01*
X199540476Y-61700000D01*
X199588095Y-61747619D01*
X199635714Y-61842857D01*
X199683333Y-62033333D01*
X199683333Y-62271428D01*
X199635714Y-62461904D01*
X199588095Y-62557142D01*
X199540476Y-62604761D01*
X199445238Y-62652380D01*
X199350000Y-62652380D01*
X199254761Y-62604761D01*
X199207142Y-62557142D01*
X199159523Y-62461904D01*
X199111904Y-62271428D01*
X199111904Y-62033333D01*
X199159523Y-61842857D01*
X199207142Y-61747619D01*
X199254761Y-61700000D01*
X199350000Y-61652380D01*
X200064285Y-61747619D02*
X200111904Y-61700000D01*
X200207142Y-61652380D01*
X200445238Y-61652380D01*
X200540476Y-61700000D01*
X200588095Y-61747619D01*
X200635714Y-61842857D01*
X200635714Y-61938095D01*
X200588095Y-62080952D01*
X200016666Y-62652380D01*
X200635714Y-62652380D01*
X201016666Y-61747619D02*
X201064285Y-61700000D01*
X201159523Y-61652380D01*
X201397619Y-61652380D01*
X201492857Y-61700000D01*
X201540476Y-61747619D01*
X201588095Y-61842857D01*
X201588095Y-61938095D01*
X201540476Y-62080952D01*
X200969047Y-62652380D01*
X201588095Y-62652380D01*
X123109523Y-86552380D02*
X123680952Y-86552380D01*
X123395238Y-87552380D02*
X123395238Y-86552380D01*
X123919047Y-87552380D02*
X124442857Y-86885714D01*
X123919047Y-86885714D02*
X124442857Y-87552380D01*
X123654761Y-84852380D02*
X123321428Y-84376190D01*
X123083333Y-84852380D02*
X123083333Y-83852380D01*
X123464285Y-83852380D01*
X123559523Y-83900000D01*
X123607142Y-83947619D01*
X123654761Y-84042857D01*
X123654761Y-84185714D01*
X123607142Y-84280952D01*
X123559523Y-84328571D01*
X123464285Y-84376190D01*
X123083333Y-84376190D01*
X123988095Y-84852380D02*
X124511904Y-84185714D01*
X123988095Y-84185714D02*
X124511904Y-84852380D01*
X116907142Y-94650000D02*
X116811904Y-94602380D01*
X116669047Y-94602380D01*
X116526190Y-94650000D01*
X116430952Y-94745238D01*
X116383333Y-94840476D01*
X116335714Y-95030952D01*
X116335714Y-95173809D01*
X116383333Y-95364285D01*
X116430952Y-95459523D01*
X116526190Y-95554761D01*
X116669047Y-95602380D01*
X116764285Y-95602380D01*
X116907142Y-95554761D01*
X116954761Y-95507142D01*
X116954761Y-95173809D01*
X116764285Y-95173809D01*
X117383333Y-94935714D02*
X117383333Y-95602380D01*
X117383333Y-95030952D02*
X117430952Y-94983333D01*
X117526190Y-94935714D01*
X117669047Y-94935714D01*
X117764285Y-94983333D01*
X117811904Y-95078571D01*
X117811904Y-95602380D01*
X118716666Y-95602380D02*
X118716666Y-94602380D01*
X118716666Y-95554761D02*
X118621428Y-95602380D01*
X118430952Y-95602380D01*
X118335714Y-95554761D01*
X118288095Y-95507142D01*
X118240476Y-95411904D01*
X118240476Y-95126190D01*
X118288095Y-95030952D01*
X118335714Y-94983333D01*
X118430952Y-94935714D01*
X118621428Y-94935714D01*
X118716666Y-94983333D01*
X114828571Y-91802380D02*
X115161904Y-92802380D01*
X115495238Y-91802380D01*
X115590476Y-92897619D02*
X116352380Y-92897619D01*
X116923809Y-92278571D02*
X117066666Y-92326190D01*
X117114285Y-92373809D01*
X117161904Y-92469047D01*
X117161904Y-92611904D01*
X117114285Y-92707142D01*
X117066666Y-92754761D01*
X116971428Y-92802380D01*
X116590476Y-92802380D01*
X116590476Y-91802380D01*
X116923809Y-91802380D01*
X117019047Y-91850000D01*
X117066666Y-91897619D01*
X117114285Y-91992857D01*
X117114285Y-92088095D01*
X117066666Y-92183333D01*
X117019047Y-92230952D01*
X116923809Y-92278571D01*
X116590476Y-92278571D01*
X118019047Y-92135714D02*
X118019047Y-92802380D01*
X117590476Y-92135714D02*
X117590476Y-92659523D01*
X117638095Y-92754761D01*
X117733333Y-92802380D01*
X117876190Y-92802380D01*
X117971428Y-92754761D01*
X118019047Y-92707142D01*
X118447619Y-92754761D02*
X118542857Y-92802380D01*
X118733333Y-92802380D01*
X118828571Y-92754761D01*
X118876190Y-92659523D01*
X118876190Y-92611904D01*
X118828571Y-92516666D01*
X118733333Y-92469047D01*
X118590476Y-92469047D01*
X118495238Y-92421428D01*
X118447619Y-92326190D01*
X118447619Y-92278571D01*
X118495238Y-92183333D01*
X118590476Y-92135714D01*
X118733333Y-92135714D01*
X118828571Y-92183333D01*
X109316666Y-92502380D02*
X109507142Y-92502380D01*
X109602380Y-92550000D01*
X109697619Y-92645238D01*
X109745238Y-92835714D01*
X109745238Y-93169047D01*
X109697619Y-93359523D01*
X109602380Y-93454761D01*
X109507142Y-93502380D01*
X109316666Y-93502380D01*
X109221428Y-93454761D01*
X109126190Y-93359523D01*
X109078571Y-93169047D01*
X109078571Y-92835714D01*
X109126190Y-92645238D01*
X109221428Y-92550000D01*
X109316666Y-92502380D01*
X110602380Y-92835714D02*
X110602380Y-93502380D01*
X110173809Y-92835714D02*
X110173809Y-93359523D01*
X110221428Y-93454761D01*
X110316666Y-93502380D01*
X110459523Y-93502380D01*
X110554761Y-93454761D01*
X110602380Y-93407142D01*
X110935714Y-92835714D02*
X111316666Y-92835714D01*
X111078571Y-92502380D02*
X111078571Y-93359523D01*
X111126190Y-93454761D01*
X111221428Y-93502380D01*
X111316666Y-93502380D01*
X107197619Y-93402380D02*
X107197619Y-92402380D01*
X107673809Y-92735714D02*
X107673809Y-93402380D01*
X107673809Y-92830952D02*
X107721428Y-92783333D01*
X107816666Y-92735714D01*
X107959523Y-92735714D01*
X108054761Y-92783333D01*
X108102380Y-92878571D01*
X108102380Y-93402380D01*
X103511904Y-92502380D02*
X103845238Y-93502380D01*
X104178571Y-92502380D01*
X104940476Y-93502380D02*
X104940476Y-92502380D01*
X104940476Y-93454761D02*
X104845238Y-93502380D01*
X104654761Y-93502380D01*
X104559523Y-93454761D01*
X104511904Y-93407142D01*
X104464285Y-93311904D01*
X104464285Y-93026190D01*
X104511904Y-92930952D01*
X104559523Y-92883333D01*
X104654761Y-92835714D01*
X104845238Y-92835714D01*
X104940476Y-92883333D01*
X105845238Y-93502380D02*
X105845238Y-92502380D01*
X105845238Y-93454761D02*
X105750000Y-93502380D01*
X105559523Y-93502380D01*
X105464285Y-93454761D01*
X105416666Y-93407142D01*
X105369047Y-93311904D01*
X105369047Y-93026190D01*
X105416666Y-92930952D01*
X105464285Y-92883333D01*
X105559523Y-92835714D01*
X105750000Y-92835714D01*
X105845238Y-92883333D01*
X113111904Y-92600000D02*
X113016666Y-92552380D01*
X112873809Y-92552380D01*
X112730952Y-92600000D01*
X112635714Y-92695238D01*
X112588095Y-92790476D01*
X112540476Y-92980952D01*
X112540476Y-93123809D01*
X112588095Y-93314285D01*
X112635714Y-93409523D01*
X112730952Y-93504761D01*
X112873809Y-93552380D01*
X112969047Y-93552380D01*
X113111904Y-93504761D01*
X113159523Y-93457142D01*
X113159523Y-93123809D01*
X112969047Y-93123809D01*
X118614285Y-72354761D02*
X118757142Y-72402380D01*
X118995238Y-72402380D01*
X119090476Y-72354761D01*
X119138095Y-72307142D01*
X119185714Y-72211904D01*
X119185714Y-72116666D01*
X119138095Y-72021428D01*
X119090476Y-71973809D01*
X118995238Y-71926190D01*
X118804761Y-71878571D01*
X118709523Y-71830952D01*
X118661904Y-71783333D01*
X118614285Y-71688095D01*
X118614285Y-71592857D01*
X118661904Y-71497619D01*
X118709523Y-71450000D01*
X118804761Y-71402380D01*
X119042857Y-71402380D01*
X119185714Y-71450000D01*
X119259523Y-74952380D02*
X118783333Y-74952380D01*
X118783333Y-73952380D01*
X118666666Y-76652380D02*
X119000000Y-77652380D01*
X119333333Y-76652380D01*
X118800000Y-80302380D02*
X118800000Y-79302380D01*
X118464285Y-69802380D02*
X118464285Y-68802380D01*
X118464285Y-69278571D02*
X119035714Y-69278571D01*
X119035714Y-69802380D02*
X119035714Y-68802380D01*
X117407142Y-66400000D02*
X117311904Y-66352380D01*
X117169047Y-66352380D01*
X117026190Y-66400000D01*
X116930952Y-66495238D01*
X116883333Y-66590476D01*
X116835714Y-66780952D01*
X116835714Y-66923809D01*
X116883333Y-67114285D01*
X116930952Y-67209523D01*
X117026190Y-67304761D01*
X117169047Y-67352380D01*
X117264285Y-67352380D01*
X117407142Y-67304761D01*
X117454761Y-67257142D01*
X117454761Y-66923809D01*
X117264285Y-66923809D01*
X117883333Y-66685714D02*
X117883333Y-67352380D01*
X117883333Y-66780952D02*
X117930952Y-66733333D01*
X118026190Y-66685714D01*
X118169047Y-66685714D01*
X118264285Y-66733333D01*
X118311904Y-66828571D01*
X118311904Y-67352380D01*
X119216666Y-67352380D02*
X119216666Y-66352380D01*
X119216666Y-67304761D02*
X119121428Y-67352380D01*
X118930952Y-67352380D01*
X118835714Y-67304761D01*
X118788095Y-67257142D01*
X118740476Y-67161904D01*
X118740476Y-66876190D01*
X118788095Y-66780952D01*
X118835714Y-66733333D01*
X118930952Y-66685714D01*
X119121428Y-66685714D01*
X119216666Y-66733333D01*
X116407142Y-115000000D02*
X116311904Y-114952380D01*
X116169047Y-114952380D01*
X116026190Y-115000000D01*
X115930952Y-115095238D01*
X115883333Y-115190476D01*
X115835714Y-115380952D01*
X115835714Y-115523809D01*
X115883333Y-115714285D01*
X115930952Y-115809523D01*
X116026190Y-115904761D01*
X116169047Y-115952380D01*
X116264285Y-115952380D01*
X116407142Y-115904761D01*
X116454761Y-115857142D01*
X116454761Y-115523809D01*
X116264285Y-115523809D01*
X116883333Y-115285714D02*
X116883333Y-115952380D01*
X116883333Y-115380952D02*
X116930952Y-115333333D01*
X117026190Y-115285714D01*
X117169047Y-115285714D01*
X117264285Y-115333333D01*
X117311904Y-115428571D01*
X117311904Y-115952380D01*
X118216666Y-115952380D02*
X118216666Y-114952380D01*
X118216666Y-115904761D02*
X118121428Y-115952380D01*
X117930952Y-115952380D01*
X117835714Y-115904761D01*
X117788095Y-115857142D01*
X117740476Y-115761904D01*
X117740476Y-115476190D01*
X117788095Y-115380952D01*
X117835714Y-115333333D01*
X117930952Y-115285714D01*
X118121428Y-115285714D01*
X118216666Y-115333333D01*
X118309523Y-113152380D02*
X117833333Y-113152380D01*
X117833333Y-112152380D01*
X117114285Y-110554761D02*
X117257142Y-110602380D01*
X117495238Y-110602380D01*
X117590476Y-110554761D01*
X117638095Y-110507142D01*
X117685714Y-110411904D01*
X117685714Y-110316666D01*
X117638095Y-110221428D01*
X117590476Y-110173809D01*
X117495238Y-110126190D01*
X117304761Y-110078571D01*
X117209523Y-110030952D01*
X117161904Y-109983333D01*
X117114285Y-109888095D01*
X117114285Y-109792857D01*
X117161904Y-109697619D01*
X117209523Y-109650000D01*
X117304761Y-109602380D01*
X117542857Y-109602380D01*
X117685714Y-109650000D01*
X118114285Y-110602380D02*
X118114285Y-109602380D01*
X118352380Y-109602380D01*
X118495238Y-109650000D01*
X118590476Y-109745238D01*
X118638095Y-109840476D01*
X118685714Y-110030952D01*
X118685714Y-110173809D01*
X118638095Y-110364285D01*
X118590476Y-110459523D01*
X118495238Y-110554761D01*
X118352380Y-110602380D01*
X118114285Y-110602380D01*
X118064285Y-108052380D02*
X118064285Y-107052380D01*
X118064285Y-107528571D02*
X118635714Y-107528571D01*
X118635714Y-108052380D02*
X118635714Y-107052380D01*
X115671428Y-104602380D02*
X116290476Y-104602380D01*
X115957142Y-104983333D01*
X116100000Y-104983333D01*
X116195238Y-105030952D01*
X116242857Y-105078571D01*
X116290476Y-105173809D01*
X116290476Y-105411904D01*
X116242857Y-105507142D01*
X116195238Y-105554761D01*
X116100000Y-105602380D01*
X115814285Y-105602380D01*
X115719047Y-105554761D01*
X115671428Y-105507142D01*
X116719047Y-105507142D02*
X116766666Y-105554761D01*
X116719047Y-105602380D01*
X116671428Y-105554761D01*
X116719047Y-105507142D01*
X116719047Y-105602380D01*
X117100000Y-104602380D02*
X117719047Y-104602380D01*
X117385714Y-104983333D01*
X117528571Y-104983333D01*
X117623809Y-105030952D01*
X117671428Y-105078571D01*
X117719047Y-105173809D01*
X117719047Y-105411904D01*
X117671428Y-105507142D01*
X117623809Y-105554761D01*
X117528571Y-105602380D01*
X117242857Y-105602380D01*
X117147619Y-105554761D01*
X117100000Y-105507142D01*
X118052380Y-104935714D02*
X118290476Y-105602380D01*
X118528571Y-104935714D01*
X117966666Y-102002380D02*
X118300000Y-103002380D01*
X118633333Y-102002380D01*
X118250000Y-100452380D02*
X118250000Y-99452380D01*
X104780952Y-81002380D02*
X104209523Y-81002380D01*
X104495238Y-81002380D02*
X104495238Y-80002380D01*
X104400000Y-80145238D01*
X104304761Y-80240476D01*
X104209523Y-80288095D01*
X105638095Y-80002380D02*
X105447619Y-80002380D01*
X105352380Y-80050000D01*
X105304761Y-80097619D01*
X105209523Y-80240476D01*
X105161904Y-80430952D01*
X105161904Y-80811904D01*
X105209523Y-80907142D01*
X105257142Y-80954761D01*
X105352380Y-81002380D01*
X105542857Y-81002380D01*
X105638095Y-80954761D01*
X105685714Y-80907142D01*
X105733333Y-80811904D01*
X105733333Y-80573809D01*
X105685714Y-80478571D01*
X105638095Y-80430952D01*
X105542857Y-80383333D01*
X105352380Y-80383333D01*
X105257142Y-80430952D01*
X105209523Y-80478571D01*
X105161904Y-80573809D01*
X106019047Y-80002380D02*
X106352380Y-81002380D01*
X106685714Y-80002380D01*
X206511904Y-73350000D02*
X206416666Y-73302380D01*
X206273809Y-73302380D01*
X206130952Y-73350000D01*
X206035714Y-73445238D01*
X205988095Y-73540476D01*
X205940476Y-73730952D01*
X205940476Y-73873809D01*
X205988095Y-74064285D01*
X206035714Y-74159523D01*
X206130952Y-74254761D01*
X206273809Y-74302380D01*
X206369047Y-74302380D01*
X206511904Y-74254761D01*
X206559523Y-74207142D01*
X206559523Y-73873809D01*
X206369047Y-73873809D01*
X206988095Y-74302380D02*
X206988095Y-73635714D01*
X206988095Y-73826190D02*
X207035714Y-73730952D01*
X207083333Y-73683333D01*
X207178571Y-73635714D01*
X207273809Y-73635714D01*
X207607142Y-74302380D02*
X207607142Y-73635714D01*
X207607142Y-73302380D02*
X207559523Y-73350000D01*
X207607142Y-73397619D01*
X207654761Y-73350000D01*
X207607142Y-73302380D01*
X207607142Y-73397619D01*
X208511904Y-74302380D02*
X208511904Y-73302380D01*
X208511904Y-74254761D02*
X208416666Y-74302380D01*
X208226190Y-74302380D01*
X208130952Y-74254761D01*
X208083333Y-74207142D01*
X208035714Y-74111904D01*
X208035714Y-73826190D01*
X208083333Y-73730952D01*
X208130952Y-73683333D01*
X208226190Y-73635714D01*
X208416666Y-73635714D01*
X208511904Y-73683333D01*
X204550000Y-106602380D02*
X204550000Y-105602380D01*
X204788095Y-105602380D01*
X204930952Y-105650000D01*
X205026190Y-105745238D01*
X205073809Y-105840476D01*
X205121428Y-106030952D01*
X205121428Y-106173809D01*
X205073809Y-106364285D01*
X205026190Y-106459523D01*
X204930952Y-106554761D01*
X204788095Y-106602380D01*
X204550000Y-106602380D01*
X206121428Y-106507142D02*
X206073809Y-106554761D01*
X205930952Y-106602380D01*
X205835714Y-106602380D01*
X205692857Y-106554761D01*
X205597619Y-106459523D01*
X205550000Y-106364285D01*
X205502380Y-106173809D01*
X205502380Y-106030952D01*
X205550000Y-105840476D01*
X205597619Y-105745238D01*
X205692857Y-105650000D01*
X205835714Y-105602380D01*
X205930952Y-105602380D01*
X206073809Y-105650000D01*
X206121428Y-105697619D01*
X207645238Y-106078571D02*
X207788095Y-106126190D01*
X207835714Y-106173809D01*
X207883333Y-106269047D01*
X207883333Y-106411904D01*
X207835714Y-106507142D01*
X207788095Y-106554761D01*
X207692857Y-106602380D01*
X207311904Y-106602380D01*
X207311904Y-105602380D01*
X207645238Y-105602380D01*
X207740476Y-105650000D01*
X207788095Y-105697619D01*
X207835714Y-105792857D01*
X207835714Y-105888095D01*
X207788095Y-105983333D01*
X207740476Y-106030952D01*
X207645238Y-106078571D01*
X207311904Y-106078571D01*
X208740476Y-105935714D02*
X208740476Y-106602380D01*
X208311904Y-105935714D02*
X208311904Y-106459523D01*
X208359523Y-106554761D01*
X208454761Y-106602380D01*
X208597619Y-106602380D01*
X208692857Y-106554761D01*
X208740476Y-106507142D01*
X209169047Y-106554761D02*
X209264285Y-106602380D01*
X209454761Y-106602380D01*
X209550000Y-106554761D01*
X209597619Y-106459523D01*
X209597619Y-106411904D01*
X209550000Y-106316666D01*
X209454761Y-106269047D01*
X209311904Y-106269047D01*
X209216666Y-106221428D01*
X209169047Y-106126190D01*
X209169047Y-106078571D01*
X209216666Y-105983333D01*
X209311904Y-105935714D01*
X209454761Y-105935714D01*
X209550000Y-105983333D01*
D11*
%TO.C,C29*%
X125850000Y-63600000D02*
X125150000Y-63600000D01*
X125150000Y-62400000D02*
X125850000Y-62400000D01*
%TO.C,C28*%
X126600000Y-103600000D02*
X125900000Y-103600000D01*
X125900000Y-102400000D02*
X126600000Y-102400000D01*
%TO.C,J8*%
X119670000Y-91110000D02*
X121000000Y-91110000D01*
X119670000Y-92440000D02*
X119670000Y-91110000D01*
X122330000Y-93710000D02*
X119670000Y-93710000D01*
X122330000Y-96310000D02*
X122330000Y-93710000D01*
X119670000Y-96310000D02*
X122330000Y-96310000D01*
X119670000Y-93710000D02*
X119670000Y-96310000D01*
%TO.C,J3*%
X119670000Y-63050000D02*
X121000000Y-63050000D01*
X119670000Y-64380000D02*
X119670000Y-63050000D01*
X122330000Y-65650000D02*
X119670000Y-65650000D01*
X122330000Y-80950000D02*
X122330000Y-65650000D01*
X119670000Y-80950000D02*
X122330000Y-80950000D01*
X119670000Y-65650000D02*
X119670000Y-80950000D01*
%TO.C,U6*%
X103840000Y-102410000D02*
X103840000Y-104060000D01*
X114120000Y-102410000D02*
X103840000Y-102410000D01*
X114120000Y-107710000D02*
X114120000Y-102410000D01*
X103840000Y-107710000D02*
X114120000Y-107710000D01*
X103840000Y-106060000D02*
X103840000Y-107710000D01*
X103840000Y-104060000D02*
G75*
G02*
X103840000Y-106060000I0J-1000000D01*
G01*
%TO.C,U5*%
X103840000Y-83660000D02*
X103840000Y-85310000D01*
X114120000Y-83660000D02*
X103840000Y-83660000D01*
X114120000Y-88960000D02*
X114120000Y-83660000D01*
X103840000Y-88960000D02*
X114120000Y-88960000D01*
X103840000Y-87310000D02*
X103840000Y-88960000D01*
X103840000Y-85310000D02*
G75*
G02*
X103840000Y-87310000I0J-1000000D01*
G01*
%TO.C,U2*%
X111590000Y-76910000D02*
X112850000Y-76910000D01*
X118410000Y-76910000D02*
X117150000Y-76910000D01*
X111590000Y-73150000D02*
X111590000Y-76910000D01*
X118410000Y-70900000D02*
X118410000Y-76910000D01*
%TO.C,U1*%
X116410000Y-63940000D02*
X115150000Y-63940000D01*
X109590000Y-63940000D02*
X110850000Y-63940000D01*
X116410000Y-67700000D02*
X116410000Y-63940000D01*
X109590000Y-69950000D02*
X109590000Y-63940000D01*
%TO.C,R27*%
X115570000Y-86250000D02*
X115570000Y-85250000D01*
X116930000Y-85250000D02*
X116930000Y-86250000D01*
%TO.C,J7*%
X106480000Y-97080000D02*
X114160000Y-97080000D01*
X114160000Y-97080000D02*
X114160000Y-94420000D01*
X114160000Y-94420000D02*
X106480000Y-94420000D01*
X106480000Y-94420000D02*
X106480000Y-97080000D01*
X105210000Y-97080000D02*
X103880000Y-97080000D01*
X103880000Y-97080000D02*
X103880000Y-95750000D01*
%TO.C,J5*%
X210040000Y-62380000D02*
X210040000Y-72540000D01*
X211310000Y-62380000D02*
X203690000Y-62380000D01*
X203690000Y-62380000D02*
X203690000Y-72540000D01*
X203690000Y-72540000D02*
X211310000Y-72540000D01*
X211310000Y-72540000D02*
X211310000Y-62380000D01*
%TO.C,J4*%
X122330000Y-86020000D02*
X122330000Y-83420000D01*
X122330000Y-83420000D02*
X119670000Y-83420000D01*
X119670000Y-83420000D02*
X119670000Y-86020000D01*
X119670000Y-86020000D02*
X122330000Y-86020000D01*
X122330000Y-87290000D02*
X122330000Y-88620000D01*
X122330000Y-88620000D02*
X121000000Y-88620000D01*
%TO.C,J2*%
X209540000Y-107380000D02*
X209540000Y-117540000D01*
X210810000Y-107380000D02*
X203190000Y-107380000D01*
X203190000Y-107380000D02*
X203190000Y-117540000D01*
X203190000Y-117540000D02*
X210810000Y-117540000D01*
X210810000Y-117540000D02*
X210810000Y-107380000D01*
%TO.C,J1*%
X102460000Y-79620000D02*
X102460000Y-69460000D01*
X101190000Y-79620000D02*
X108810000Y-79620000D01*
X108810000Y-79620000D02*
X108810000Y-69460000D01*
X108810000Y-69460000D02*
X101190000Y-69460000D01*
X101190000Y-69460000D02*
X101190000Y-79620000D01*
%TO.C,C3*%
X110850000Y-72650000D02*
X110850000Y-73350000D01*
X109650000Y-73350000D02*
X109650000Y-72650000D01*
%TO.C,C2*%
X116850000Y-81400000D02*
X116850000Y-82100000D01*
X115650000Y-82100000D02*
X115650000Y-81400000D01*
%TO.C,C1*%
X118350000Y-63400000D02*
X118350000Y-64100000D01*
X117150000Y-64100000D02*
X117150000Y-63400000D01*
%TO.C,C13*%
X201855000Y-102060000D02*
X196790000Y-102060000D01*
X209710000Y-102060000D02*
X204645000Y-102060000D01*
X201855000Y-77940000D02*
X196790000Y-77940000D01*
X209710000Y-77940000D02*
X204645000Y-77940000D01*
X196790000Y-77940000D02*
X196790000Y-102060000D01*
X209710000Y-77940000D02*
X209710000Y-102060000D01*
%TO.C,C16*%
X137400000Y-108550000D02*
X137400000Y-107850000D01*
X138600000Y-107850000D02*
X138600000Y-108550000D01*
%TO.C,C23*%
X173310000Y-96560000D02*
X141690000Y-96560000D01*
X173310000Y-83440000D02*
X141690000Y-83440000D01*
X173310000Y-96560000D02*
X173310000Y-83440000D01*
X141690000Y-96560000D02*
X141690000Y-83440000D01*
%TO.C,J6*%
X119670000Y-98670000D02*
X121000000Y-98670000D01*
X119670000Y-100000000D02*
X119670000Y-98670000D01*
X122330000Y-101270000D02*
X119670000Y-101270000D01*
X122330000Y-116570000D02*
X122330000Y-101270000D01*
X119670000Y-116570000D02*
X122330000Y-116570000D01*
X119670000Y-101270000D02*
X119670000Y-116570000D01*
D12*
%TO.C,U3*%
X194105000Y-80305000D02*
G75*
G03*
X194105000Y-80305000I-100000J0D01*
G01*
D13*
X194025000Y-82750000D02*
X194025000Y-86750000D01*
X188975000Y-82750000D02*
X188975000Y-86750000D01*
%TO.C,U4*%
X194025000Y-97250000D02*
X194025000Y-93250000D01*
X188975000Y-97250000D02*
X188975000Y-93250000D01*
D12*
X189095000Y-99695000D02*
G75*
G03*
X189095000Y-99695000I-100000J0D01*
G01*
D11*
%TO.C,Q4*%
X142380000Y-115120000D02*
X142380000Y-104880000D01*
X147021000Y-115120000D02*
X147021000Y-104880000D01*
X142380000Y-115120000D02*
X147021000Y-115120000D01*
X142380000Y-104880000D02*
X147021000Y-104880000D01*
X143890000Y-115120000D02*
X143890000Y-104880000D01*
X142380000Y-111850000D02*
X143890000Y-111850000D01*
X142380000Y-108149000D02*
X143890000Y-108149000D01*
D12*
%TO.C,IC2*%
X133116000Y-115337000D02*
X126312000Y-115337000D01*
X126312000Y-115337000D02*
X126312000Y-105053000D01*
X126312000Y-105053000D02*
X133116000Y-105053000D01*
X133116000Y-105053000D02*
X133116000Y-115337000D01*
X135389000Y-115340000D02*
X133466000Y-115340000D01*
D11*
%TO.C,Q3*%
X152620000Y-104880000D02*
X152620000Y-115120000D01*
X147979000Y-104880000D02*
X147979000Y-115120000D01*
X152620000Y-104880000D02*
X147979000Y-104880000D01*
X152620000Y-115120000D02*
X147979000Y-115120000D01*
X151110000Y-104880000D02*
X151110000Y-115120000D01*
X152620000Y-108150000D02*
X151110000Y-108150000D01*
X152620000Y-111851000D02*
X151110000Y-111851000D01*
%TO.C,C18*%
X137400000Y-112350000D02*
X137400000Y-111650000D01*
X138600000Y-111650000D02*
X138600000Y-112350000D01*
%TO.C,C17*%
X135900000Y-112350000D02*
X135900000Y-111650000D01*
X137100000Y-111650000D02*
X137100000Y-112350000D01*
%TO.C,C21*%
X124900000Y-115900000D02*
X125600000Y-115900000D01*
X125600000Y-117100000D02*
X124900000Y-117100000D01*
%TO.C,R24*%
X138400000Y-115430000D02*
X137400000Y-115430000D01*
X137400000Y-114070000D02*
X138400000Y-114070000D01*
%TO.C,R23*%
X141430000Y-106750000D02*
X141430000Y-107750000D01*
X140070000Y-107750000D02*
X140070000Y-106750000D01*
%TO.C,R26*%
X140070000Y-113900000D02*
X140070000Y-112900000D01*
X141430000Y-112900000D02*
X141430000Y-113900000D01*
D12*
%TO.C,D2*%
X130388000Y-97750000D02*
X130388000Y-103275000D01*
X133112000Y-102950000D02*
X133112000Y-97750000D01*
D11*
%TO.C,R20*%
X128100000Y-101930000D02*
X127100000Y-101930000D01*
X127100000Y-100570000D02*
X128100000Y-100570000D01*
%TO.C,R19*%
X128100000Y-100180000D02*
X127100000Y-100180000D01*
X127100000Y-98820000D02*
X128100000Y-98820000D01*
%TO.C,R21*%
X138350000Y-106180000D02*
X137350000Y-106180000D01*
X137350000Y-104820000D02*
X138350000Y-104820000D01*
D10*
%TO.C,L2*%
X181299200Y-107500000D02*
G75*
G03*
X181299200Y-107500000I-6299200J0D01*
G01*
X178898900Y-107500000D02*
G75*
G03*
X178898900Y-107500000I-3898900J0D01*
G01*
X175099060Y-103601100D02*
X175099060Y-101200800D01*
X177100580Y-101701180D02*
X175099060Y-103601100D01*
X176899920Y-104098940D02*
X177100580Y-101701180D01*
X179399280Y-103199780D02*
X176899920Y-104098940D01*
X178098800Y-105099700D02*
X179399280Y-103199780D01*
X180900420Y-105300360D02*
X178098800Y-105099700D01*
X178799840Y-106699900D02*
X180900420Y-105300360D01*
X181200140Y-107700660D02*
X178799840Y-106699900D01*
X178799840Y-108399160D02*
X181200140Y-107700660D01*
X180699760Y-110100960D02*
X178799840Y-108399160D01*
X178098800Y-109900300D02*
X180699760Y-110100960D01*
X179300220Y-112000880D02*
X178098800Y-109900300D01*
X176800860Y-111000120D02*
X179300220Y-112000880D01*
X176998980Y-113400420D02*
X176800860Y-111000120D01*
X175000000Y-111398900D02*
X176998980Y-113400420D01*
X175000000Y-113700140D02*
X175000000Y-111398900D01*
D11*
%TO.C,C12*%
X124900000Y-68150000D02*
X125600000Y-68150000D01*
X125600000Y-69350000D02*
X124900000Y-69350000D01*
%TO.C,C15*%
X135900000Y-108550000D02*
X135900000Y-107850000D01*
X137100000Y-107850000D02*
X137100000Y-108550000D01*
%TO.C,R8*%
X141430000Y-77900000D02*
X141430000Y-78900000D01*
X140070000Y-78900000D02*
X140070000Y-77900000D01*
%TO.C,R6*%
X137350000Y-79070000D02*
X138350000Y-79070000D01*
X138350000Y-80430000D02*
X137350000Y-80430000D01*
%TO.C,R5*%
X140070000Y-72750000D02*
X140070000Y-71750000D01*
X141430000Y-71750000D02*
X141430000Y-72750000D01*
%TO.C,R3*%
X137350000Y-69820000D02*
X138350000Y-69820000D01*
X138350000Y-71180000D02*
X137350000Y-71180000D01*
%TO.C,R2*%
X127100000Y-65570000D02*
X128100000Y-65570000D01*
X128100000Y-66930000D02*
X127100000Y-66930000D01*
%TO.C,R1*%
X127100000Y-63820000D02*
X128100000Y-63820000D01*
X128100000Y-65180000D02*
X127100000Y-65180000D01*
D10*
%TO.C,L1*%
X175000000Y-66299860D02*
X175000000Y-68601100D01*
X175000000Y-68601100D02*
X173001020Y-66599580D01*
X173001020Y-66599580D02*
X173199140Y-68999880D01*
X173199140Y-68999880D02*
X170699780Y-67999120D01*
X170699780Y-67999120D02*
X171901200Y-70099700D01*
X171901200Y-70099700D02*
X169300240Y-69899040D01*
X169300240Y-69899040D02*
X171200160Y-71600840D01*
X171200160Y-71600840D02*
X168799860Y-72299340D01*
X168799860Y-72299340D02*
X171200160Y-73300100D01*
X171200160Y-73300100D02*
X169099580Y-74699640D01*
X169099580Y-74699640D02*
X171901200Y-74900300D01*
X171901200Y-74900300D02*
X170600720Y-76800220D01*
X170600720Y-76800220D02*
X173100080Y-75901060D01*
X173100080Y-75901060D02*
X172899420Y-78298820D01*
X172899420Y-78298820D02*
X174900940Y-76398900D01*
X174900940Y-76398900D02*
X174900940Y-78799200D01*
X178898900Y-72500000D02*
G75*
G03*
X178898900Y-72500000I-3898900J0D01*
G01*
X181299200Y-72500000D02*
G75*
G03*
X181299200Y-72500000I-6299200J0D01*
G01*
D11*
%TO.C,C9*%
X138600000Y-76650000D02*
X138600000Y-77350000D01*
X137400000Y-77350000D02*
X137400000Y-76650000D01*
%TO.C,C8*%
X137100000Y-76650000D02*
X137100000Y-77350000D01*
X135900000Y-77350000D02*
X135900000Y-76650000D01*
%TO.C,C7*%
X187400000Y-90350000D02*
X187400000Y-89650000D01*
X188600000Y-89650000D02*
X188600000Y-90350000D01*
%TO.C,C6*%
X138600000Y-72850000D02*
X138600000Y-73550000D01*
X137400000Y-73550000D02*
X137400000Y-72850000D01*
%TO.C,C5*%
X137100000Y-72850000D02*
X137100000Y-73550000D01*
X135900000Y-73550000D02*
X135900000Y-72850000D01*
D12*
%TO.C,D1*%
X133112000Y-67950000D02*
X133112000Y-62750000D01*
X130388000Y-62750000D02*
X130388000Y-68275000D01*
D11*
%TO.C,Q2*%
X142380000Y-73149000D02*
X143890000Y-73149000D01*
X142380000Y-76850000D02*
X143890000Y-76850000D01*
X143890000Y-80120000D02*
X143890000Y-69880000D01*
X142380000Y-69880000D02*
X147021000Y-69880000D01*
X142380000Y-80120000D02*
X147021000Y-80120000D01*
X147021000Y-80120000D02*
X147021000Y-69880000D01*
X142380000Y-80120000D02*
X142380000Y-69880000D01*
%TO.C,Q1*%
X152620000Y-69880000D02*
X152620000Y-80120000D01*
X147979000Y-69880000D02*
X147979000Y-80120000D01*
X152620000Y-69880000D02*
X147979000Y-69880000D01*
X152620000Y-80120000D02*
X147979000Y-80120000D01*
X151110000Y-69880000D02*
X151110000Y-80120000D01*
X152620000Y-73150000D02*
X151110000Y-73150000D01*
X152620000Y-76851000D02*
X151110000Y-76851000D01*
D12*
%TO.C,IC1*%
X133188000Y-80257000D02*
X126384000Y-80257000D01*
X126384000Y-80257000D02*
X126384000Y-69973000D01*
X126384000Y-69973000D02*
X133188000Y-69973000D01*
X133188000Y-69973000D02*
X133188000Y-80257000D01*
X135461000Y-80260000D02*
X133538000Y-80260000D01*
%TO.C,C29*%
D10*
X124857142Y-61915942D02*
X124809523Y-61963561D01*
X124666666Y-62011180D01*
X124571428Y-62011180D01*
X124428571Y-61963561D01*
X124333333Y-61868323D01*
X124285714Y-61773085D01*
X124238095Y-61582609D01*
X124238095Y-61439752D01*
X124285714Y-61249276D01*
X124333333Y-61154038D01*
X124428571Y-61058800D01*
X124571428Y-61011180D01*
X124666666Y-61011180D01*
X124809523Y-61058800D01*
X124857142Y-61106419D01*
X125238095Y-61106419D02*
X125285714Y-61058800D01*
X125380952Y-61011180D01*
X125619047Y-61011180D01*
X125714285Y-61058800D01*
X125761904Y-61106419D01*
X125809523Y-61201657D01*
X125809523Y-61296895D01*
X125761904Y-61439752D01*
X125190476Y-62011180D01*
X125809523Y-62011180D01*
X126285714Y-62011180D02*
X126476190Y-62011180D01*
X126571428Y-61963561D01*
X126619047Y-61915942D01*
X126714285Y-61773085D01*
X126761904Y-61582609D01*
X126761904Y-61201657D01*
X126714285Y-61106419D01*
X126666666Y-61058800D01*
X126571428Y-61011180D01*
X126380952Y-61011180D01*
X126285714Y-61058800D01*
X126238095Y-61106419D01*
X126190476Y-61201657D01*
X126190476Y-61439752D01*
X126238095Y-61534990D01*
X126285714Y-61582609D01*
X126380952Y-61630228D01*
X126571428Y-61630228D01*
X126666666Y-61582609D01*
X126714285Y-61534990D01*
X126761904Y-61439752D01*
%TO.C,C28*%
X123607142Y-102107142D02*
X123559523Y-102154761D01*
X123416666Y-102202380D01*
X123321428Y-102202380D01*
X123178571Y-102154761D01*
X123083333Y-102059523D01*
X123035714Y-101964285D01*
X122988095Y-101773809D01*
X122988095Y-101630952D01*
X123035714Y-101440476D01*
X123083333Y-101345238D01*
X123178571Y-101250000D01*
X123321428Y-101202380D01*
X123416666Y-101202380D01*
X123559523Y-101250000D01*
X123607142Y-101297619D01*
X123988095Y-101297619D02*
X124035714Y-101250000D01*
X124130952Y-101202380D01*
X124369047Y-101202380D01*
X124464285Y-101250000D01*
X124511904Y-101297619D01*
X124559523Y-101392857D01*
X124559523Y-101488095D01*
X124511904Y-101630952D01*
X123940476Y-102202380D01*
X124559523Y-102202380D01*
X125130952Y-101630952D02*
X125035714Y-101583333D01*
X124988095Y-101535714D01*
X124940476Y-101440476D01*
X124940476Y-101392857D01*
X124988095Y-101297619D01*
X125035714Y-101250000D01*
X125130952Y-101202380D01*
X125321428Y-101202380D01*
X125416666Y-101250000D01*
X125464285Y-101297619D01*
X125511904Y-101392857D01*
X125511904Y-101440476D01*
X125464285Y-101535714D01*
X125416666Y-101583333D01*
X125321428Y-101630952D01*
X125130952Y-101630952D01*
X125035714Y-101678571D01*
X124988095Y-101726190D01*
X124940476Y-101821428D01*
X124940476Y-102011904D01*
X124988095Y-102107142D01*
X125035714Y-102154761D01*
X125130952Y-102202380D01*
X125321428Y-102202380D01*
X125416666Y-102154761D01*
X125464285Y-102107142D01*
X125511904Y-102011904D01*
X125511904Y-101821428D01*
X125464285Y-101726190D01*
X125416666Y-101678571D01*
X125321428Y-101630952D01*
%TO.C,J8*%
X123491666Y-90130380D02*
X123491666Y-90844666D01*
X123444047Y-90987523D01*
X123348809Y-91082761D01*
X123205952Y-91130380D01*
X123110714Y-91130380D01*
X124110714Y-90558952D02*
X124015476Y-90511333D01*
X123967857Y-90463714D01*
X123920238Y-90368476D01*
X123920238Y-90320857D01*
X123967857Y-90225619D01*
X124015476Y-90178000D01*
X124110714Y-90130380D01*
X124301190Y-90130380D01*
X124396428Y-90178000D01*
X124444047Y-90225619D01*
X124491666Y-90320857D01*
X124491666Y-90368476D01*
X124444047Y-90463714D01*
X124396428Y-90511333D01*
X124301190Y-90558952D01*
X124110714Y-90558952D01*
X124015476Y-90606571D01*
X123967857Y-90654190D01*
X123920238Y-90749428D01*
X123920238Y-90939904D01*
X123967857Y-91035142D01*
X124015476Y-91082761D01*
X124110714Y-91130380D01*
X124301190Y-91130380D01*
X124396428Y-91082761D01*
X124444047Y-91035142D01*
X124491666Y-90939904D01*
X124491666Y-90749428D01*
X124444047Y-90654190D01*
X124396428Y-90606571D01*
X124301190Y-90558952D01*
%TO.C,J3*%
X121666666Y-61452380D02*
X121666666Y-62166666D01*
X121619047Y-62309523D01*
X121523809Y-62404761D01*
X121380952Y-62452380D01*
X121285714Y-62452380D01*
X122047619Y-61452380D02*
X122666666Y-61452380D01*
X122333333Y-61833333D01*
X122476190Y-61833333D01*
X122571428Y-61880952D01*
X122619047Y-61928571D01*
X122666666Y-62023809D01*
X122666666Y-62261904D01*
X122619047Y-62357142D01*
X122571428Y-62404761D01*
X122476190Y-62452380D01*
X122190476Y-62452380D01*
X122095238Y-62404761D01*
X122047619Y-62357142D01*
%TO.C,U6*%
X102292380Y-105821904D02*
X103101904Y-105821904D01*
X103197142Y-105774285D01*
X103244761Y-105726666D01*
X103292380Y-105631428D01*
X103292380Y-105440952D01*
X103244761Y-105345714D01*
X103197142Y-105298095D01*
X103101904Y-105250476D01*
X102292380Y-105250476D01*
X102292380Y-104345714D02*
X102292380Y-104536190D01*
X102340000Y-104631428D01*
X102387619Y-104679047D01*
X102530476Y-104774285D01*
X102720952Y-104821904D01*
X103101904Y-104821904D01*
X103197142Y-104774285D01*
X103244761Y-104726666D01*
X103292380Y-104631428D01*
X103292380Y-104440952D01*
X103244761Y-104345714D01*
X103197142Y-104298095D01*
X103101904Y-104250476D01*
X102863809Y-104250476D01*
X102768571Y-104298095D01*
X102720952Y-104345714D01*
X102673333Y-104440952D01*
X102673333Y-104631428D01*
X102720952Y-104726666D01*
X102768571Y-104774285D01*
X102863809Y-104821904D01*
%TO.C,U5*%
X102292380Y-87071904D02*
X103101904Y-87071904D01*
X103197142Y-87024285D01*
X103244761Y-86976666D01*
X103292380Y-86881428D01*
X103292380Y-86690952D01*
X103244761Y-86595714D01*
X103197142Y-86548095D01*
X103101904Y-86500476D01*
X102292380Y-86500476D01*
X102292380Y-85548095D02*
X102292380Y-86024285D01*
X102768571Y-86071904D01*
X102720952Y-86024285D01*
X102673333Y-85929047D01*
X102673333Y-85690952D01*
X102720952Y-85595714D01*
X102768571Y-85548095D01*
X102863809Y-85500476D01*
X103101904Y-85500476D01*
X103197142Y-85548095D01*
X103244761Y-85595714D01*
X103292380Y-85690952D01*
X103292380Y-85929047D01*
X103244761Y-86024285D01*
X103197142Y-86071904D01*
%TO.C,U2*%
X111488095Y-79702380D02*
X111488095Y-80511904D01*
X111535714Y-80607142D01*
X111583333Y-80654761D01*
X111678571Y-80702380D01*
X111869047Y-80702380D01*
X111964285Y-80654761D01*
X112011904Y-80607142D01*
X112059523Y-80511904D01*
X112059523Y-79702380D01*
X112488095Y-79797619D02*
X112535714Y-79750000D01*
X112630952Y-79702380D01*
X112869047Y-79702380D01*
X112964285Y-79750000D01*
X113011904Y-79797619D01*
X113059523Y-79892857D01*
X113059523Y-79988095D01*
X113011904Y-80130952D01*
X112440476Y-80702380D01*
X113059523Y-80702380D01*
%TO.C,U1*%
X107488095Y-67702380D02*
X107488095Y-68511904D01*
X107535714Y-68607142D01*
X107583333Y-68654761D01*
X107678571Y-68702380D01*
X107869047Y-68702380D01*
X107964285Y-68654761D01*
X108011904Y-68607142D01*
X108059523Y-68511904D01*
X108059523Y-67702380D01*
X109059523Y-68702380D02*
X108488095Y-68702380D01*
X108773809Y-68702380D02*
X108773809Y-67702380D01*
X108678571Y-67845238D01*
X108583333Y-67940476D01*
X108488095Y-67988095D01*
%TO.C,R27*%
X118152380Y-86392857D02*
X117676190Y-86726190D01*
X118152380Y-86964285D02*
X117152380Y-86964285D01*
X117152380Y-86583333D01*
X117200000Y-86488095D01*
X117247619Y-86440476D01*
X117342857Y-86392857D01*
X117485714Y-86392857D01*
X117580952Y-86440476D01*
X117628571Y-86488095D01*
X117676190Y-86583333D01*
X117676190Y-86964285D01*
X117247619Y-86011904D02*
X117200000Y-85964285D01*
X117152380Y-85869047D01*
X117152380Y-85630952D01*
X117200000Y-85535714D01*
X117247619Y-85488095D01*
X117342857Y-85440476D01*
X117438095Y-85440476D01*
X117580952Y-85488095D01*
X118152380Y-86059523D01*
X118152380Y-85440476D01*
X117152380Y-85107142D02*
X117152380Y-84440476D01*
X118152380Y-84869047D01*
%TO.C,J7*%
X102332380Y-96083333D02*
X103046666Y-96083333D01*
X103189523Y-96130952D01*
X103284761Y-96226190D01*
X103332380Y-96369047D01*
X103332380Y-96464285D01*
X102332380Y-95702380D02*
X102332380Y-95035714D01*
X103332380Y-95464285D01*
%TO.C,J5*%
X201872380Y-67793333D02*
X202586666Y-67793333D01*
X202729523Y-67840952D01*
X202824761Y-67936190D01*
X202872380Y-68079047D01*
X202872380Y-68174285D01*
X201872380Y-66840952D02*
X201872380Y-67317142D01*
X202348571Y-67364761D01*
X202300952Y-67317142D01*
X202253333Y-67221904D01*
X202253333Y-66983809D01*
X202300952Y-66888571D01*
X202348571Y-66840952D01*
X202443809Y-66793333D01*
X202681904Y-66793333D01*
X202777142Y-66840952D01*
X202824761Y-66888571D01*
X202872380Y-66983809D01*
X202872380Y-67221904D01*
X202824761Y-67317142D01*
X202777142Y-67364761D01*
%TO.C,J4*%
X117516666Y-88642380D02*
X117516666Y-89356666D01*
X117469047Y-89499523D01*
X117373809Y-89594761D01*
X117230952Y-89642380D01*
X117135714Y-89642380D01*
X118421428Y-88975714D02*
X118421428Y-89642380D01*
X118183333Y-88594761D02*
X117945238Y-89309047D01*
X118564285Y-89309047D01*
%TO.C,J2*%
X201372380Y-112793333D02*
X202086666Y-112793333D01*
X202229523Y-112840952D01*
X202324761Y-112936190D01*
X202372380Y-113079047D01*
X202372380Y-113174285D01*
X201467619Y-112364761D02*
X201420000Y-112317142D01*
X201372380Y-112221904D01*
X201372380Y-111983809D01*
X201420000Y-111888571D01*
X201467619Y-111840952D01*
X201562857Y-111793333D01*
X201658095Y-111793333D01*
X201800952Y-111840952D01*
X202372380Y-112412380D01*
X202372380Y-111793333D01*
%TO.C,J1*%
X100916666Y-67952380D02*
X100916666Y-68666666D01*
X100869047Y-68809523D01*
X100773809Y-68904761D01*
X100630952Y-68952380D01*
X100535714Y-68952380D01*
X101916666Y-68952380D02*
X101345238Y-68952380D01*
X101630952Y-68952380D02*
X101630952Y-67952380D01*
X101535714Y-68095238D01*
X101440476Y-68190476D01*
X101345238Y-68238095D01*
%TO.C,C3*%
X110083333Y-76107142D02*
X110035714Y-76154761D01*
X109892857Y-76202380D01*
X109797619Y-76202380D01*
X109654761Y-76154761D01*
X109559523Y-76059523D01*
X109511904Y-75964285D01*
X109464285Y-75773809D01*
X109464285Y-75630952D01*
X109511904Y-75440476D01*
X109559523Y-75345238D01*
X109654761Y-75250000D01*
X109797619Y-75202380D01*
X109892857Y-75202380D01*
X110035714Y-75250000D01*
X110083333Y-75297619D01*
X110416666Y-75202380D02*
X111035714Y-75202380D01*
X110702380Y-75583333D01*
X110845238Y-75583333D01*
X110940476Y-75630952D01*
X110988095Y-75678571D01*
X111035714Y-75773809D01*
X111035714Y-76011904D01*
X110988095Y-76107142D01*
X110940476Y-76154761D01*
X110845238Y-76202380D01*
X110559523Y-76202380D01*
X110464285Y-76154761D01*
X110416666Y-76107142D01*
%TO.C,C2*%
X117857142Y-81916666D02*
X117904761Y-81964285D01*
X117952380Y-82107142D01*
X117952380Y-82202380D01*
X117904761Y-82345238D01*
X117809523Y-82440476D01*
X117714285Y-82488095D01*
X117523809Y-82535714D01*
X117380952Y-82535714D01*
X117190476Y-82488095D01*
X117095238Y-82440476D01*
X117000000Y-82345238D01*
X116952380Y-82202380D01*
X116952380Y-82107142D01*
X117000000Y-81964285D01*
X117047619Y-81916666D01*
X117047619Y-81535714D02*
X117000000Y-81488095D01*
X116952380Y-81392857D01*
X116952380Y-81154761D01*
X117000000Y-81059523D01*
X117047619Y-81011904D01*
X117142857Y-80964285D01*
X117238095Y-80964285D01*
X117380952Y-81011904D01*
X117952380Y-81583333D01*
X117952380Y-80964285D01*
%TO.C,C1*%
X119083333Y-61857142D02*
X119035714Y-61904761D01*
X118892857Y-61952380D01*
X118797619Y-61952380D01*
X118654761Y-61904761D01*
X118559523Y-61809523D01*
X118511904Y-61714285D01*
X118464285Y-61523809D01*
X118464285Y-61380952D01*
X118511904Y-61190476D01*
X118559523Y-61095238D01*
X118654761Y-61000000D01*
X118797619Y-60952380D01*
X118892857Y-60952380D01*
X119035714Y-61000000D01*
X119083333Y-61047619D01*
X120035714Y-61952380D02*
X119464285Y-61952380D01*
X119750000Y-61952380D02*
X119750000Y-60952380D01*
X119654761Y-61095238D01*
X119559523Y-61190476D01*
X119464285Y-61238095D01*
%TO.C,C13*%
X195857142Y-89892857D02*
X195904761Y-89940476D01*
X195952380Y-90083333D01*
X195952380Y-90178571D01*
X195904761Y-90321428D01*
X195809523Y-90416666D01*
X195714285Y-90464285D01*
X195523809Y-90511904D01*
X195380952Y-90511904D01*
X195190476Y-90464285D01*
X195095238Y-90416666D01*
X195000000Y-90321428D01*
X194952380Y-90178571D01*
X194952380Y-90083333D01*
X195000000Y-89940476D01*
X195047619Y-89892857D01*
X195952380Y-88940476D02*
X195952380Y-89511904D01*
X195952380Y-89226190D02*
X194952380Y-89226190D01*
X195095238Y-89321428D01*
X195190476Y-89416666D01*
X195238095Y-89511904D01*
X194952380Y-88607142D02*
X194952380Y-87988095D01*
X195333333Y-88321428D01*
X195333333Y-88178571D01*
X195380952Y-88083333D01*
X195428571Y-88035714D01*
X195523809Y-87988095D01*
X195761904Y-87988095D01*
X195857142Y-88035714D01*
X195904761Y-88083333D01*
X195952380Y-88178571D01*
X195952380Y-88464285D01*
X195904761Y-88559523D01*
X195857142Y-88607142D01*
%TO.C,C16*%
X138107142Y-108557142D02*
X138059523Y-108604761D01*
X137916666Y-108652380D01*
X137821428Y-108652380D01*
X137678571Y-108604761D01*
X137583333Y-108509523D01*
X137535714Y-108414285D01*
X137488095Y-108223809D01*
X137488095Y-108080952D01*
X137535714Y-107890476D01*
X137583333Y-107795238D01*
X137678571Y-107700000D01*
X137821428Y-107652380D01*
X137916666Y-107652380D01*
X138059523Y-107700000D01*
X138107142Y-107747619D01*
X139059523Y-108652380D02*
X138488095Y-108652380D01*
X138773809Y-108652380D02*
X138773809Y-107652380D01*
X138678571Y-107795238D01*
X138583333Y-107890476D01*
X138488095Y-107938095D01*
X139916666Y-107652380D02*
X139726190Y-107652380D01*
X139630952Y-107700000D01*
X139583333Y-107747619D01*
X139488095Y-107890476D01*
X139440476Y-108080952D01*
X139440476Y-108461904D01*
X139488095Y-108557142D01*
X139535714Y-108604761D01*
X139630952Y-108652380D01*
X139821428Y-108652380D01*
X139916666Y-108604761D01*
X139964285Y-108557142D01*
X140011904Y-108461904D01*
X140011904Y-108223809D01*
X139964285Y-108128571D01*
X139916666Y-108080952D01*
X139821428Y-108033333D01*
X139630952Y-108033333D01*
X139535714Y-108080952D01*
X139488095Y-108128571D01*
X139440476Y-108223809D01*
%TO.C,C23*%
X156857142Y-98167142D02*
X156809523Y-98214761D01*
X156666666Y-98262380D01*
X156571428Y-98262380D01*
X156428571Y-98214761D01*
X156333333Y-98119523D01*
X156285714Y-98024285D01*
X156238095Y-97833809D01*
X156238095Y-97690952D01*
X156285714Y-97500476D01*
X156333333Y-97405238D01*
X156428571Y-97310000D01*
X156571428Y-97262380D01*
X156666666Y-97262380D01*
X156809523Y-97310000D01*
X156857142Y-97357619D01*
X157238095Y-97357619D02*
X157285714Y-97310000D01*
X157380952Y-97262380D01*
X157619047Y-97262380D01*
X157714285Y-97310000D01*
X157761904Y-97357619D01*
X157809523Y-97452857D01*
X157809523Y-97548095D01*
X157761904Y-97690952D01*
X157190476Y-98262380D01*
X157809523Y-98262380D01*
X158142857Y-97262380D02*
X158761904Y-97262380D01*
X158428571Y-97643333D01*
X158571428Y-97643333D01*
X158666666Y-97690952D01*
X158714285Y-97738571D01*
X158761904Y-97833809D01*
X158761904Y-98071904D01*
X158714285Y-98167142D01*
X158666666Y-98214761D01*
X158571428Y-98262380D01*
X158285714Y-98262380D01*
X158190476Y-98214761D01*
X158142857Y-98167142D01*
%TO.C,J6*%
X123491666Y-97750380D02*
X123491666Y-98464666D01*
X123444047Y-98607523D01*
X123348809Y-98702761D01*
X123205952Y-98750380D01*
X123110714Y-98750380D01*
X124396428Y-97750380D02*
X124205952Y-97750380D01*
X124110714Y-97798000D01*
X124063095Y-97845619D01*
X123967857Y-97988476D01*
X123920238Y-98178952D01*
X123920238Y-98559904D01*
X123967857Y-98655142D01*
X124015476Y-98702761D01*
X124110714Y-98750380D01*
X124301190Y-98750380D01*
X124396428Y-98702761D01*
X124444047Y-98655142D01*
X124491666Y-98559904D01*
X124491666Y-98321809D01*
X124444047Y-98226571D01*
X124396428Y-98178952D01*
X124301190Y-98131333D01*
X124110714Y-98131333D01*
X124015476Y-98178952D01*
X123967857Y-98226571D01*
X123920238Y-98321809D01*
%TO.C,U3*%
X187452380Y-84761904D02*
X188261904Y-84761904D01*
X188357142Y-84714285D01*
X188404761Y-84666666D01*
X188452380Y-84571428D01*
X188452380Y-84380952D01*
X188404761Y-84285714D01*
X188357142Y-84238095D01*
X188261904Y-84190476D01*
X187452380Y-84190476D01*
X187452380Y-83809523D02*
X187452380Y-83190476D01*
X187833333Y-83523809D01*
X187833333Y-83380952D01*
X187880952Y-83285714D01*
X187928571Y-83238095D01*
X188023809Y-83190476D01*
X188261904Y-83190476D01*
X188357142Y-83238095D01*
X188404761Y-83285714D01*
X188452380Y-83380952D01*
X188452380Y-83666666D01*
X188404761Y-83761904D01*
X188357142Y-83809523D01*
%TO.C,U4*%
X187452380Y-96511904D02*
X188261904Y-96511904D01*
X188357142Y-96464285D01*
X188404761Y-96416666D01*
X188452380Y-96321428D01*
X188452380Y-96130952D01*
X188404761Y-96035714D01*
X188357142Y-95988095D01*
X188261904Y-95940476D01*
X187452380Y-95940476D01*
X187785714Y-95035714D02*
X188452380Y-95035714D01*
X187404761Y-95273809D02*
X188119047Y-95511904D01*
X188119047Y-94892857D01*
%TO.C,Q4*%
X144904761Y-104547619D02*
X144809523Y-104500000D01*
X144714285Y-104404761D01*
X144571428Y-104261904D01*
X144476190Y-104214285D01*
X144380952Y-104214285D01*
X144428571Y-104452380D02*
X144333333Y-104404761D01*
X144238095Y-104309523D01*
X144190476Y-104119047D01*
X144190476Y-103785714D01*
X144238095Y-103595238D01*
X144333333Y-103500000D01*
X144428571Y-103452380D01*
X144619047Y-103452380D01*
X144714285Y-103500000D01*
X144809523Y-103595238D01*
X144857142Y-103785714D01*
X144857142Y-104119047D01*
X144809523Y-104309523D01*
X144714285Y-104404761D01*
X144619047Y-104452380D01*
X144428571Y-104452380D01*
X145714285Y-103785714D02*
X145714285Y-104452380D01*
X145476190Y-103404761D02*
X145238095Y-104119047D01*
X145857142Y-104119047D01*
%TO.C,IC2*%
D14*
X128474238Y-110769523D02*
X128474238Y-109499523D01*
X129804714Y-110648571D02*
X129744238Y-110709047D01*
X129562809Y-110769523D01*
X129441857Y-110769523D01*
X129260428Y-110709047D01*
X129139476Y-110588095D01*
X129079000Y-110467142D01*
X129018523Y-110225238D01*
X129018523Y-110043809D01*
X129079000Y-109801904D01*
X129139476Y-109680952D01*
X129260428Y-109560000D01*
X129441857Y-109499523D01*
X129562809Y-109499523D01*
X129744238Y-109560000D01*
X129804714Y-109620476D01*
X130288523Y-109620476D02*
X130349000Y-109560000D01*
X130469952Y-109499523D01*
X130772333Y-109499523D01*
X130893285Y-109560000D01*
X130953761Y-109620476D01*
X131014238Y-109741428D01*
X131014238Y-109862380D01*
X130953761Y-110043809D01*
X130228047Y-110769523D01*
X131014238Y-110769523D01*
%TO.C,Q3*%
D10*
X149654761Y-104547619D02*
X149559523Y-104500000D01*
X149464285Y-104404761D01*
X149321428Y-104261904D01*
X149226190Y-104214285D01*
X149130952Y-104214285D01*
X149178571Y-104452380D02*
X149083333Y-104404761D01*
X148988095Y-104309523D01*
X148940476Y-104119047D01*
X148940476Y-103785714D01*
X148988095Y-103595238D01*
X149083333Y-103500000D01*
X149178571Y-103452380D01*
X149369047Y-103452380D01*
X149464285Y-103500000D01*
X149559523Y-103595238D01*
X149607142Y-103785714D01*
X149607142Y-104119047D01*
X149559523Y-104309523D01*
X149464285Y-104404761D01*
X149369047Y-104452380D01*
X149178571Y-104452380D01*
X149940476Y-103452380D02*
X150559523Y-103452380D01*
X150226190Y-103833333D01*
X150369047Y-103833333D01*
X150464285Y-103880952D01*
X150511904Y-103928571D01*
X150559523Y-104023809D01*
X150559523Y-104261904D01*
X150511904Y-104357142D01*
X150464285Y-104404761D01*
X150369047Y-104452380D01*
X150083333Y-104452380D01*
X149988095Y-104404761D01*
X149940476Y-104357142D01*
%TO.C,C18*%
X138107142Y-112357142D02*
X138059523Y-112404761D01*
X137916666Y-112452380D01*
X137821428Y-112452380D01*
X137678571Y-112404761D01*
X137583333Y-112309523D01*
X137535714Y-112214285D01*
X137488095Y-112023809D01*
X137488095Y-111880952D01*
X137535714Y-111690476D01*
X137583333Y-111595238D01*
X137678571Y-111500000D01*
X137821428Y-111452380D01*
X137916666Y-111452380D01*
X138059523Y-111500000D01*
X138107142Y-111547619D01*
X139059523Y-112452380D02*
X138488095Y-112452380D01*
X138773809Y-112452380D02*
X138773809Y-111452380D01*
X138678571Y-111595238D01*
X138583333Y-111690476D01*
X138488095Y-111738095D01*
X139630952Y-111880952D02*
X139535714Y-111833333D01*
X139488095Y-111785714D01*
X139440476Y-111690476D01*
X139440476Y-111642857D01*
X139488095Y-111547619D01*
X139535714Y-111500000D01*
X139630952Y-111452380D01*
X139821428Y-111452380D01*
X139916666Y-111500000D01*
X139964285Y-111547619D01*
X140011904Y-111642857D01*
X140011904Y-111690476D01*
X139964285Y-111785714D01*
X139916666Y-111833333D01*
X139821428Y-111880952D01*
X139630952Y-111880952D01*
X139535714Y-111928571D01*
X139488095Y-111976190D01*
X139440476Y-112071428D01*
X139440476Y-112261904D01*
X139488095Y-112357142D01*
X139535714Y-112404761D01*
X139630952Y-112452380D01*
X139821428Y-112452380D01*
X139916666Y-112404761D01*
X139964285Y-112357142D01*
X140011904Y-112261904D01*
X140011904Y-112071428D01*
X139964285Y-111976190D01*
X139916666Y-111928571D01*
X139821428Y-111880952D01*
%TO.C,C17*%
X138107142Y-111107142D02*
X138059523Y-111154761D01*
X137916666Y-111202380D01*
X137821428Y-111202380D01*
X137678571Y-111154761D01*
X137583333Y-111059523D01*
X137535714Y-110964285D01*
X137488095Y-110773809D01*
X137488095Y-110630952D01*
X137535714Y-110440476D01*
X137583333Y-110345238D01*
X137678571Y-110250000D01*
X137821428Y-110202380D01*
X137916666Y-110202380D01*
X138059523Y-110250000D01*
X138107142Y-110297619D01*
X139059523Y-111202380D02*
X138488095Y-111202380D01*
X138773809Y-111202380D02*
X138773809Y-110202380D01*
X138678571Y-110345238D01*
X138583333Y-110440476D01*
X138488095Y-110488095D01*
X139392857Y-110202380D02*
X140059523Y-110202380D01*
X139630952Y-111202380D01*
%TO.C,C21*%
X125357142Y-118357142D02*
X125309523Y-118404761D01*
X125166666Y-118452380D01*
X125071428Y-118452380D01*
X124928571Y-118404761D01*
X124833333Y-118309523D01*
X124785714Y-118214285D01*
X124738095Y-118023809D01*
X124738095Y-117880952D01*
X124785714Y-117690476D01*
X124833333Y-117595238D01*
X124928571Y-117500000D01*
X125071428Y-117452380D01*
X125166666Y-117452380D01*
X125309523Y-117500000D01*
X125357142Y-117547619D01*
X125738095Y-117547619D02*
X125785714Y-117500000D01*
X125880952Y-117452380D01*
X126119047Y-117452380D01*
X126214285Y-117500000D01*
X126261904Y-117547619D01*
X126309523Y-117642857D01*
X126309523Y-117738095D01*
X126261904Y-117880952D01*
X125690476Y-118452380D01*
X126309523Y-118452380D01*
X127261904Y-118452380D02*
X126690476Y-118452380D01*
X126976190Y-118452380D02*
X126976190Y-117452380D01*
X126880952Y-117595238D01*
X126785714Y-117690476D01*
X126690476Y-117738095D01*
%TO.C,R24*%
X137257142Y-116652380D02*
X136923809Y-116176190D01*
X136685714Y-116652380D02*
X136685714Y-115652380D01*
X137066666Y-115652380D01*
X137161904Y-115700000D01*
X137209523Y-115747619D01*
X137257142Y-115842857D01*
X137257142Y-115985714D01*
X137209523Y-116080952D01*
X137161904Y-116128571D01*
X137066666Y-116176190D01*
X136685714Y-116176190D01*
X137638095Y-115747619D02*
X137685714Y-115700000D01*
X137780952Y-115652380D01*
X138019047Y-115652380D01*
X138114285Y-115700000D01*
X138161904Y-115747619D01*
X138209523Y-115842857D01*
X138209523Y-115938095D01*
X138161904Y-116080952D01*
X137590476Y-116652380D01*
X138209523Y-116652380D01*
X139066666Y-115985714D02*
X139066666Y-116652380D01*
X138828571Y-115604761D02*
X138590476Y-116319047D01*
X139209523Y-116319047D01*
%TO.C,R23*%
X140607142Y-105202380D02*
X140273809Y-104726190D01*
X140035714Y-105202380D02*
X140035714Y-104202380D01*
X140416666Y-104202380D01*
X140511904Y-104250000D01*
X140559523Y-104297619D01*
X140607142Y-104392857D01*
X140607142Y-104535714D01*
X140559523Y-104630952D01*
X140511904Y-104678571D01*
X140416666Y-104726190D01*
X140035714Y-104726190D01*
X140988095Y-104297619D02*
X141035714Y-104250000D01*
X141130952Y-104202380D01*
X141369047Y-104202380D01*
X141464285Y-104250000D01*
X141511904Y-104297619D01*
X141559523Y-104392857D01*
X141559523Y-104488095D01*
X141511904Y-104630952D01*
X140940476Y-105202380D01*
X141559523Y-105202380D01*
X141892857Y-104202380D02*
X142511904Y-104202380D01*
X142178571Y-104583333D01*
X142321428Y-104583333D01*
X142416666Y-104630952D01*
X142464285Y-104678571D01*
X142511904Y-104773809D01*
X142511904Y-105011904D01*
X142464285Y-105107142D01*
X142416666Y-105154761D01*
X142321428Y-105202380D01*
X142035714Y-105202380D01*
X141940476Y-105154761D01*
X141892857Y-105107142D01*
%TO.C,R26*%
X142107142Y-116452380D02*
X141773809Y-115976190D01*
X141535714Y-116452380D02*
X141535714Y-115452380D01*
X141916666Y-115452380D01*
X142011904Y-115500000D01*
X142059523Y-115547619D01*
X142107142Y-115642857D01*
X142107142Y-115785714D01*
X142059523Y-115880952D01*
X142011904Y-115928571D01*
X141916666Y-115976190D01*
X141535714Y-115976190D01*
X142488095Y-115547619D02*
X142535714Y-115500000D01*
X142630952Y-115452380D01*
X142869047Y-115452380D01*
X142964285Y-115500000D01*
X143011904Y-115547619D01*
X143059523Y-115642857D01*
X143059523Y-115738095D01*
X143011904Y-115880952D01*
X142440476Y-116452380D01*
X143059523Y-116452380D01*
X143916666Y-115452380D02*
X143726190Y-115452380D01*
X143630952Y-115500000D01*
X143583333Y-115547619D01*
X143488095Y-115690476D01*
X143440476Y-115880952D01*
X143440476Y-116261904D01*
X143488095Y-116357142D01*
X143535714Y-116404761D01*
X143630952Y-116452380D01*
X143821428Y-116452380D01*
X143916666Y-116404761D01*
X143964285Y-116357142D01*
X144011904Y-116261904D01*
X144011904Y-116023809D01*
X143964285Y-115928571D01*
X143916666Y-115880952D01*
X143821428Y-115833333D01*
X143630952Y-115833333D01*
X143535714Y-115880952D01*
X143488095Y-115928571D01*
X143440476Y-116023809D01*
%TO.C,D2*%
D14*
X134062619Y-99324523D02*
X134062619Y-98054523D01*
X134365000Y-98054523D01*
X134546428Y-98115000D01*
X134667380Y-98235952D01*
X134727857Y-98356904D01*
X134788333Y-98598809D01*
X134788333Y-98780238D01*
X134727857Y-99022142D01*
X134667380Y-99143095D01*
X134546428Y-99264047D01*
X134365000Y-99324523D01*
X134062619Y-99324523D01*
X135272142Y-98175476D02*
X135332619Y-98115000D01*
X135453571Y-98054523D01*
X135755952Y-98054523D01*
X135876904Y-98115000D01*
X135937380Y-98175476D01*
X135997857Y-98296428D01*
X135997857Y-98417380D01*
X135937380Y-98598809D01*
X135211666Y-99324523D01*
X135997857Y-99324523D01*
%TO.C,R20*%
D10*
X129702380Y-103892857D02*
X129226190Y-104226190D01*
X129702380Y-104464285D02*
X128702380Y-104464285D01*
X128702380Y-104083333D01*
X128750000Y-103988095D01*
X128797619Y-103940476D01*
X128892857Y-103892857D01*
X129035714Y-103892857D01*
X129130952Y-103940476D01*
X129178571Y-103988095D01*
X129226190Y-104083333D01*
X129226190Y-104464285D01*
X128797619Y-103511904D02*
X128750000Y-103464285D01*
X128702380Y-103369047D01*
X128702380Y-103130952D01*
X128750000Y-103035714D01*
X128797619Y-102988095D01*
X128892857Y-102940476D01*
X128988095Y-102940476D01*
X129130952Y-102988095D01*
X129702380Y-103559523D01*
X129702380Y-102940476D01*
X128702380Y-102321428D02*
X128702380Y-102226190D01*
X128750000Y-102130952D01*
X128797619Y-102083333D01*
X128892857Y-102035714D01*
X129083333Y-101988095D01*
X129321428Y-101988095D01*
X129511904Y-102035714D01*
X129607142Y-102083333D01*
X129654761Y-102130952D01*
X129702380Y-102226190D01*
X129702380Y-102321428D01*
X129654761Y-102416666D01*
X129607142Y-102464285D01*
X129511904Y-102511904D01*
X129321428Y-102559523D01*
X129083333Y-102559523D01*
X128892857Y-102511904D01*
X128797619Y-102464285D01*
X128750000Y-102416666D01*
X128702380Y-102321428D01*
%TO.C,R19*%
X126857142Y-98452380D02*
X126523809Y-97976190D01*
X126285714Y-98452380D02*
X126285714Y-97452380D01*
X126666666Y-97452380D01*
X126761904Y-97500000D01*
X126809523Y-97547619D01*
X126857142Y-97642857D01*
X126857142Y-97785714D01*
X126809523Y-97880952D01*
X126761904Y-97928571D01*
X126666666Y-97976190D01*
X126285714Y-97976190D01*
X127809523Y-98452380D02*
X127238095Y-98452380D01*
X127523809Y-98452380D02*
X127523809Y-97452380D01*
X127428571Y-97595238D01*
X127333333Y-97690476D01*
X127238095Y-97738095D01*
X128285714Y-98452380D02*
X128476190Y-98452380D01*
X128571428Y-98404761D01*
X128619047Y-98357142D01*
X128714285Y-98214285D01*
X128761904Y-98023809D01*
X128761904Y-97642857D01*
X128714285Y-97547619D01*
X128666666Y-97500000D01*
X128571428Y-97452380D01*
X128380952Y-97452380D01*
X128285714Y-97500000D01*
X128238095Y-97547619D01*
X128190476Y-97642857D01*
X128190476Y-97880952D01*
X128238095Y-97976190D01*
X128285714Y-98023809D01*
X128380952Y-98071428D01*
X128571428Y-98071428D01*
X128666666Y-98023809D01*
X128714285Y-97976190D01*
X128761904Y-97880952D01*
%TO.C,R21*%
X136607142Y-104452380D02*
X136273809Y-103976190D01*
X136035714Y-104452380D02*
X136035714Y-103452380D01*
X136416666Y-103452380D01*
X136511904Y-103500000D01*
X136559523Y-103547619D01*
X136607142Y-103642857D01*
X136607142Y-103785714D01*
X136559523Y-103880952D01*
X136511904Y-103928571D01*
X136416666Y-103976190D01*
X136035714Y-103976190D01*
X136988095Y-103547619D02*
X137035714Y-103500000D01*
X137130952Y-103452380D01*
X137369047Y-103452380D01*
X137464285Y-103500000D01*
X137511904Y-103547619D01*
X137559523Y-103642857D01*
X137559523Y-103738095D01*
X137511904Y-103880952D01*
X136940476Y-104452380D01*
X137559523Y-104452380D01*
X138511904Y-104452380D02*
X137940476Y-104452380D01*
X138226190Y-104452380D02*
X138226190Y-103452380D01*
X138130952Y-103595238D01*
X138035714Y-103690476D01*
X137940476Y-103738095D01*
%TO.C,L2*%
X175452380Y-107666666D02*
X175452380Y-108142857D01*
X174452380Y-108142857D01*
X174547619Y-107380952D02*
X174500000Y-107333333D01*
X174452380Y-107238095D01*
X174452380Y-107000000D01*
X174500000Y-106904761D01*
X174547619Y-106857142D01*
X174642857Y-106809523D01*
X174738095Y-106809523D01*
X174880952Y-106857142D01*
X175452380Y-107428571D01*
X175452380Y-106809523D01*
%TO.C,C12*%
X123607142Y-67857142D02*
X123559523Y-67904761D01*
X123416666Y-67952380D01*
X123321428Y-67952380D01*
X123178571Y-67904761D01*
X123083333Y-67809523D01*
X123035714Y-67714285D01*
X122988095Y-67523809D01*
X122988095Y-67380952D01*
X123035714Y-67190476D01*
X123083333Y-67095238D01*
X123178571Y-67000000D01*
X123321428Y-66952380D01*
X123416666Y-66952380D01*
X123559523Y-67000000D01*
X123607142Y-67047619D01*
X124559523Y-67952380D02*
X123988095Y-67952380D01*
X124273809Y-67952380D02*
X124273809Y-66952380D01*
X124178571Y-67095238D01*
X124083333Y-67190476D01*
X123988095Y-67238095D01*
X124940476Y-67047619D02*
X124988095Y-67000000D01*
X125083333Y-66952380D01*
X125321428Y-66952380D01*
X125416666Y-67000000D01*
X125464285Y-67047619D01*
X125511904Y-67142857D01*
X125511904Y-67238095D01*
X125464285Y-67380952D01*
X124892857Y-67952380D01*
X125511904Y-67952380D01*
%TO.C,C15*%
X138107142Y-107107142D02*
X138059523Y-107154761D01*
X137916666Y-107202380D01*
X137821428Y-107202380D01*
X137678571Y-107154761D01*
X137583333Y-107059523D01*
X137535714Y-106964285D01*
X137488095Y-106773809D01*
X137488095Y-106630952D01*
X137535714Y-106440476D01*
X137583333Y-106345238D01*
X137678571Y-106250000D01*
X137821428Y-106202380D01*
X137916666Y-106202380D01*
X138059523Y-106250000D01*
X138107142Y-106297619D01*
X139059523Y-107202380D02*
X138488095Y-107202380D01*
X138773809Y-107202380D02*
X138773809Y-106202380D01*
X138678571Y-106345238D01*
X138583333Y-106440476D01*
X138488095Y-106488095D01*
X139964285Y-106202380D02*
X139488095Y-106202380D01*
X139440476Y-106678571D01*
X139488095Y-106630952D01*
X139583333Y-106583333D01*
X139821428Y-106583333D01*
X139916666Y-106630952D01*
X139964285Y-106678571D01*
X140011904Y-106773809D01*
X140011904Y-107011904D01*
X139964285Y-107107142D01*
X139916666Y-107154761D01*
X139821428Y-107202380D01*
X139583333Y-107202380D01*
X139488095Y-107154761D01*
X139440476Y-107107142D01*
%TO.C,R8*%
X141083333Y-81702380D02*
X140750000Y-81226190D01*
X140511904Y-81702380D02*
X140511904Y-80702380D01*
X140892857Y-80702380D01*
X140988095Y-80750000D01*
X141035714Y-80797619D01*
X141083333Y-80892857D01*
X141083333Y-81035714D01*
X141035714Y-81130952D01*
X140988095Y-81178571D01*
X140892857Y-81226190D01*
X140511904Y-81226190D01*
X141654761Y-81130952D02*
X141559523Y-81083333D01*
X141511904Y-81035714D01*
X141464285Y-80940476D01*
X141464285Y-80892857D01*
X141511904Y-80797619D01*
X141559523Y-80750000D01*
X141654761Y-80702380D01*
X141845238Y-80702380D01*
X141940476Y-80750000D01*
X141988095Y-80797619D01*
X142035714Y-80892857D01*
X142035714Y-80940476D01*
X141988095Y-81035714D01*
X141940476Y-81083333D01*
X141845238Y-81130952D01*
X141654761Y-81130952D01*
X141559523Y-81178571D01*
X141511904Y-81226190D01*
X141464285Y-81321428D01*
X141464285Y-81511904D01*
X141511904Y-81607142D01*
X141559523Y-81654761D01*
X141654761Y-81702380D01*
X141845238Y-81702380D01*
X141940476Y-81654761D01*
X141988095Y-81607142D01*
X142035714Y-81511904D01*
X142035714Y-81321428D01*
X141988095Y-81226190D01*
X141940476Y-81178571D01*
X141845238Y-81130952D01*
%TO.C,R6*%
X137683333Y-81652380D02*
X137350000Y-81176190D01*
X137111904Y-81652380D02*
X137111904Y-80652380D01*
X137492857Y-80652380D01*
X137588095Y-80700000D01*
X137635714Y-80747619D01*
X137683333Y-80842857D01*
X137683333Y-80985714D01*
X137635714Y-81080952D01*
X137588095Y-81128571D01*
X137492857Y-81176190D01*
X137111904Y-81176190D01*
X138540476Y-80652380D02*
X138350000Y-80652380D01*
X138254761Y-80700000D01*
X138207142Y-80747619D01*
X138111904Y-80890476D01*
X138064285Y-81080952D01*
X138064285Y-81461904D01*
X138111904Y-81557142D01*
X138159523Y-81604761D01*
X138254761Y-81652380D01*
X138445238Y-81652380D01*
X138540476Y-81604761D01*
X138588095Y-81557142D01*
X138635714Y-81461904D01*
X138635714Y-81223809D01*
X138588095Y-81128571D01*
X138540476Y-81080952D01*
X138445238Y-81033333D01*
X138254761Y-81033333D01*
X138159523Y-81080952D01*
X138111904Y-81128571D01*
X138064285Y-81223809D01*
%TO.C,R5*%
X140583333Y-69952380D02*
X140250000Y-69476190D01*
X140011904Y-69952380D02*
X140011904Y-68952380D01*
X140392857Y-68952380D01*
X140488095Y-69000000D01*
X140535714Y-69047619D01*
X140583333Y-69142857D01*
X140583333Y-69285714D01*
X140535714Y-69380952D01*
X140488095Y-69428571D01*
X140392857Y-69476190D01*
X140011904Y-69476190D01*
X141488095Y-68952380D02*
X141011904Y-68952380D01*
X140964285Y-69428571D01*
X141011904Y-69380952D01*
X141107142Y-69333333D01*
X141345238Y-69333333D01*
X141440476Y-69380952D01*
X141488095Y-69428571D01*
X141535714Y-69523809D01*
X141535714Y-69761904D01*
X141488095Y-69857142D01*
X141440476Y-69904761D01*
X141345238Y-69952380D01*
X141107142Y-69952380D01*
X141011904Y-69904761D01*
X140964285Y-69857142D01*
%TO.C,R3*%
X137783333Y-69452380D02*
X137450000Y-68976190D01*
X137211904Y-69452380D02*
X137211904Y-68452380D01*
X137592857Y-68452380D01*
X137688095Y-68500000D01*
X137735714Y-68547619D01*
X137783333Y-68642857D01*
X137783333Y-68785714D01*
X137735714Y-68880952D01*
X137688095Y-68928571D01*
X137592857Y-68976190D01*
X137211904Y-68976190D01*
X138116666Y-68452380D02*
X138735714Y-68452380D01*
X138402380Y-68833333D01*
X138545238Y-68833333D01*
X138640476Y-68880952D01*
X138688095Y-68928571D01*
X138735714Y-69023809D01*
X138735714Y-69261904D01*
X138688095Y-69357142D01*
X138640476Y-69404761D01*
X138545238Y-69452380D01*
X138259523Y-69452380D01*
X138164285Y-69404761D01*
X138116666Y-69357142D01*
%TO.C,R2*%
X123833333Y-66452380D02*
X123500000Y-65976190D01*
X123261904Y-66452380D02*
X123261904Y-65452380D01*
X123642857Y-65452380D01*
X123738095Y-65500000D01*
X123785714Y-65547619D01*
X123833333Y-65642857D01*
X123833333Y-65785714D01*
X123785714Y-65880952D01*
X123738095Y-65928571D01*
X123642857Y-65976190D01*
X123261904Y-65976190D01*
X124214285Y-65547619D02*
X124261904Y-65500000D01*
X124357142Y-65452380D01*
X124595238Y-65452380D01*
X124690476Y-65500000D01*
X124738095Y-65547619D01*
X124785714Y-65642857D01*
X124785714Y-65738095D01*
X124738095Y-65880952D01*
X124166666Y-66452380D01*
X124785714Y-66452380D01*
%TO.C,R1*%
X128833333Y-63452380D02*
X128500000Y-62976190D01*
X128261904Y-63452380D02*
X128261904Y-62452380D01*
X128642857Y-62452380D01*
X128738095Y-62500000D01*
X128785714Y-62547619D01*
X128833333Y-62642857D01*
X128833333Y-62785714D01*
X128785714Y-62880952D01*
X128738095Y-62928571D01*
X128642857Y-62976190D01*
X128261904Y-62976190D01*
X129785714Y-63452380D02*
X129214285Y-63452380D01*
X129500000Y-63452380D02*
X129500000Y-62452380D01*
X129404761Y-62595238D01*
X129309523Y-62690476D01*
X129214285Y-62738095D01*
%TO.C,L1*%
X175452380Y-72666666D02*
X175452380Y-73142857D01*
X174452380Y-73142857D01*
X175452380Y-71809523D02*
X175452380Y-72380952D01*
X175452380Y-72095238D02*
X174452380Y-72095238D01*
X174595238Y-72190476D01*
X174690476Y-72285714D01*
X174738095Y-72380952D01*
%TO.C,C9*%
X139333333Y-77357142D02*
X139285714Y-77404761D01*
X139142857Y-77452380D01*
X139047619Y-77452380D01*
X138904761Y-77404761D01*
X138809523Y-77309523D01*
X138761904Y-77214285D01*
X138714285Y-77023809D01*
X138714285Y-76880952D01*
X138761904Y-76690476D01*
X138809523Y-76595238D01*
X138904761Y-76500000D01*
X139047619Y-76452380D01*
X139142857Y-76452380D01*
X139285714Y-76500000D01*
X139333333Y-76547619D01*
X139809523Y-77452380D02*
X140000000Y-77452380D01*
X140095238Y-77404761D01*
X140142857Y-77357142D01*
X140238095Y-77214285D01*
X140285714Y-77023809D01*
X140285714Y-76642857D01*
X140238095Y-76547619D01*
X140190476Y-76500000D01*
X140095238Y-76452380D01*
X139904761Y-76452380D01*
X139809523Y-76500000D01*
X139761904Y-76547619D01*
X139714285Y-76642857D01*
X139714285Y-76880952D01*
X139761904Y-76976190D01*
X139809523Y-77023809D01*
X139904761Y-77071428D01*
X140095238Y-77071428D01*
X140190476Y-77023809D01*
X140238095Y-76976190D01*
X140285714Y-76880952D01*
%TO.C,C8*%
X139333333Y-76107142D02*
X139285714Y-76154761D01*
X139142857Y-76202380D01*
X139047619Y-76202380D01*
X138904761Y-76154761D01*
X138809523Y-76059523D01*
X138761904Y-75964285D01*
X138714285Y-75773809D01*
X138714285Y-75630952D01*
X138761904Y-75440476D01*
X138809523Y-75345238D01*
X138904761Y-75250000D01*
X139047619Y-75202380D01*
X139142857Y-75202380D01*
X139285714Y-75250000D01*
X139333333Y-75297619D01*
X139904761Y-75630952D02*
X139809523Y-75583333D01*
X139761904Y-75535714D01*
X139714285Y-75440476D01*
X139714285Y-75392857D01*
X139761904Y-75297619D01*
X139809523Y-75250000D01*
X139904761Y-75202380D01*
X140095238Y-75202380D01*
X140190476Y-75250000D01*
X140238095Y-75297619D01*
X140285714Y-75392857D01*
X140285714Y-75440476D01*
X140238095Y-75535714D01*
X140190476Y-75583333D01*
X140095238Y-75630952D01*
X139904761Y-75630952D01*
X139809523Y-75678571D01*
X139761904Y-75726190D01*
X139714285Y-75821428D01*
X139714285Y-76011904D01*
X139761904Y-76107142D01*
X139809523Y-76154761D01*
X139904761Y-76202380D01*
X140095238Y-76202380D01*
X140190476Y-76154761D01*
X140238095Y-76107142D01*
X140285714Y-76011904D01*
X140285714Y-75821428D01*
X140238095Y-75726190D01*
X140190476Y-75678571D01*
X140095238Y-75630952D01*
%TO.C,C7*%
X187107142Y-90166666D02*
X187154761Y-90214285D01*
X187202380Y-90357142D01*
X187202380Y-90452380D01*
X187154761Y-90595238D01*
X187059523Y-90690476D01*
X186964285Y-90738095D01*
X186773809Y-90785714D01*
X186630952Y-90785714D01*
X186440476Y-90738095D01*
X186345238Y-90690476D01*
X186250000Y-90595238D01*
X186202380Y-90452380D01*
X186202380Y-90357142D01*
X186250000Y-90214285D01*
X186297619Y-90166666D01*
X186202380Y-89833333D02*
X186202380Y-89166666D01*
X187202380Y-89595238D01*
%TO.C,C6*%
X139333333Y-74107142D02*
X139285714Y-74154761D01*
X139142857Y-74202380D01*
X139047619Y-74202380D01*
X138904761Y-74154761D01*
X138809523Y-74059523D01*
X138761904Y-73964285D01*
X138714285Y-73773809D01*
X138714285Y-73630952D01*
X138761904Y-73440476D01*
X138809523Y-73345238D01*
X138904761Y-73250000D01*
X139047619Y-73202380D01*
X139142857Y-73202380D01*
X139285714Y-73250000D01*
X139333333Y-73297619D01*
X140190476Y-73202380D02*
X140000000Y-73202380D01*
X139904761Y-73250000D01*
X139857142Y-73297619D01*
X139761904Y-73440476D01*
X139714285Y-73630952D01*
X139714285Y-74011904D01*
X139761904Y-74107142D01*
X139809523Y-74154761D01*
X139904761Y-74202380D01*
X140095238Y-74202380D01*
X140190476Y-74154761D01*
X140238095Y-74107142D01*
X140285714Y-74011904D01*
X140285714Y-73773809D01*
X140238095Y-73678571D01*
X140190476Y-73630952D01*
X140095238Y-73583333D01*
X139904761Y-73583333D01*
X139809523Y-73630952D01*
X139761904Y-73678571D01*
X139714285Y-73773809D01*
%TO.C,C5*%
X139333333Y-72857142D02*
X139285714Y-72904761D01*
X139142857Y-72952380D01*
X139047619Y-72952380D01*
X138904761Y-72904761D01*
X138809523Y-72809523D01*
X138761904Y-72714285D01*
X138714285Y-72523809D01*
X138714285Y-72380952D01*
X138761904Y-72190476D01*
X138809523Y-72095238D01*
X138904761Y-72000000D01*
X139047619Y-71952380D01*
X139142857Y-71952380D01*
X139285714Y-72000000D01*
X139333333Y-72047619D01*
X140238095Y-71952380D02*
X139761904Y-71952380D01*
X139714285Y-72428571D01*
X139761904Y-72380952D01*
X139857142Y-72333333D01*
X140095238Y-72333333D01*
X140190476Y-72380952D01*
X140238095Y-72428571D01*
X140285714Y-72523809D01*
X140285714Y-72761904D01*
X140238095Y-72857142D01*
X140190476Y-72904761D01*
X140095238Y-72952380D01*
X139857142Y-72952380D01*
X139761904Y-72904761D01*
X139714285Y-72857142D01*
%TO.C,D1*%
D14*
X133812619Y-63324523D02*
X133812619Y-62054523D01*
X134115000Y-62054523D01*
X134296428Y-62115000D01*
X134417380Y-62235952D01*
X134477857Y-62356904D01*
X134538333Y-62598809D01*
X134538333Y-62780238D01*
X134477857Y-63022142D01*
X134417380Y-63143095D01*
X134296428Y-63264047D01*
X134115000Y-63324523D01*
X133812619Y-63324523D01*
X135747857Y-63324523D02*
X135022142Y-63324523D01*
X135385000Y-63324523D02*
X135385000Y-62054523D01*
X135264047Y-62235952D01*
X135143095Y-62356904D01*
X135022142Y-62417380D01*
%TO.C,Q2*%
D10*
X145154761Y-81547619D02*
X145059523Y-81500000D01*
X144964285Y-81404761D01*
X144821428Y-81261904D01*
X144726190Y-81214285D01*
X144630952Y-81214285D01*
X144678571Y-81452380D02*
X144583333Y-81404761D01*
X144488095Y-81309523D01*
X144440476Y-81119047D01*
X144440476Y-80785714D01*
X144488095Y-80595238D01*
X144583333Y-80500000D01*
X144678571Y-80452380D01*
X144869047Y-80452380D01*
X144964285Y-80500000D01*
X145059523Y-80595238D01*
X145107142Y-80785714D01*
X145107142Y-81119047D01*
X145059523Y-81309523D01*
X144964285Y-81404761D01*
X144869047Y-81452380D01*
X144678571Y-81452380D01*
X145488095Y-80547619D02*
X145535714Y-80500000D01*
X145630952Y-80452380D01*
X145869047Y-80452380D01*
X145964285Y-80500000D01*
X146011904Y-80547619D01*
X146059523Y-80642857D01*
X146059523Y-80738095D01*
X146011904Y-80880952D01*
X145440476Y-81452380D01*
X146059523Y-81452380D01*
%TO.C,Q1*%
X150154761Y-81747619D02*
X150059523Y-81700000D01*
X149964285Y-81604761D01*
X149821428Y-81461904D01*
X149726190Y-81414285D01*
X149630952Y-81414285D01*
X149678571Y-81652380D02*
X149583333Y-81604761D01*
X149488095Y-81509523D01*
X149440476Y-81319047D01*
X149440476Y-80985714D01*
X149488095Y-80795238D01*
X149583333Y-80700000D01*
X149678571Y-80652380D01*
X149869047Y-80652380D01*
X149964285Y-80700000D01*
X150059523Y-80795238D01*
X150107142Y-80985714D01*
X150107142Y-81319047D01*
X150059523Y-81509523D01*
X149964285Y-81604761D01*
X149869047Y-81652380D01*
X149678571Y-81652380D01*
X151059523Y-81652380D02*
X150488095Y-81652380D01*
X150773809Y-81652380D02*
X150773809Y-80652380D01*
X150678571Y-80795238D01*
X150583333Y-80890476D01*
X150488095Y-80938095D01*
%TO.C,IC1*%
D14*
X129010238Y-82324523D02*
X129010238Y-81054523D01*
X130340714Y-82203571D02*
X130280238Y-82264047D01*
X130098809Y-82324523D01*
X129977857Y-82324523D01*
X129796428Y-82264047D01*
X129675476Y-82143095D01*
X129615000Y-82022142D01*
X129554523Y-81780238D01*
X129554523Y-81598809D01*
X129615000Y-81356904D01*
X129675476Y-81235952D01*
X129796428Y-81115000D01*
X129977857Y-81054523D01*
X130098809Y-81054523D01*
X130280238Y-81115000D01*
X130340714Y-81175476D01*
X131550238Y-82324523D02*
X130824523Y-82324523D01*
X131187380Y-82324523D02*
X131187380Y-81054523D01*
X131066428Y-81235952D01*
X130945476Y-81356904D01*
X130824523Y-81417380D01*
%TD*%
M02*
